<?xml version="1.0" encoding="UTF-8" standalone="no"?>
<svg
   viewBox="0 0 483 527.48"
   version="1.1"
   id="svg1880"
   sodipodi:docname="House Tyrell GoT.svg"
   inkscape:version="1.2.1 (9c6d41e410, 2022-07-14)"
   xmlns:inkscape="http://www.inkscape.org/namespaces/inkscape"
   xmlns:sodipodi="http://sodipodi.sourceforge.net/DTD/sodipodi-0.dtd"
   xmlns="http://www.w3.org/2000/svg"
   xmlns:svg="http://www.w3.org/2000/svg">
  <sodipodi:namedview
     id="namedview1882"
     pagecolor="#ffffff"
     bordercolor="#000000"
     borderopacity="0.25"
     inkscape:showpageshadow="2"
     inkscape:pageopacity="0.0"
     inkscape:pagecheckerboard="0"
     inkscape:deskcolor="#d1d1d1"
     showgrid="false"
     inkscape:zoom="1.12203"
     inkscape:cx="261.13383"
     inkscape:cy="293.21853"
     inkscape:window-width="1920"
     inkscape:window-height="1017"
     inkscape:window-x="1912"
     inkscape:window-y="-8"
     inkscape:window-maximized="1"
     inkscape:current-layer="svg1880" />
  <defs
     id="defs1513">
    <style
       id="style1511">.cls-1{fill:#8da080;stroke-width:3px;}.cls-1,.cls-11,.cls-5,.cls-6,.cls-7,.cls-8,.cls-9{stroke:#000;}.cls-11,.cls-2,.cls-9{fill:#eebe3e;}.cls-3{fill:#da9e2d;}.cls-4{fill:#f2d27a;}.cls-5,.cls-6,.cls-7,.cls-8{fill:none;}.cls-5,.cls-8{stroke-linecap:round;}.cls-11,.cls-5,.cls-6,.cls-7,.cls-8,.cls-9{stroke-miterlimit:10;}.cls-11,.cls-5,.cls-7{stroke-width:2px;}.cls-10{fill:#d6a224;}</style>
    <radialGradient
       id="rg"
       gradientUnits="userSpaceOnUse"
       cx="220"
       cy="220"
       r="405"
       gradientTransform="matrix(0.80510068,0,0,0.80302287,0.01979835,-0.116046)">
      <stop
         style="stop-color:#ffffff;stop-opacity:.3"
         offset="0"
         id="stop753" />
      <stop
         style="stop-color:#ffffff;stop-opacity:.2"
         offset=".2"
         id="stop755" />
      <stop
         style="stop-color:#666666;stop-opacity:.1"
         offset=".6"
         id="stop757" />
      <stop
         style="stop-color:#000000;stop-opacity:.13"
         offset="1"
         id="stop759" />
    </radialGradient>
  </defs>
  <title
     id="title1515">Tyrell-Shield</title>
  <g
     id="Layer_2"
     data-name="Layer 2">
    <path
       class="cls-1"
       d="M927.58,123V328.85a314.37,314.37,0,0,1-2.28,38c-.11.93-.24,1.86-.36,2.79s-.24,1.86-.39,2.79q-.7,5.05-1.61,10c-.07.44-.15.87-.23,1.31-.15.8-.29,1.6-.45,2.39s-.34,1.8-.51,2.69l-.45,2.22-.24,1.16c-.15.71-.3,1.44-.47,2.15q-.8,3.55-1.61,7l-.58,2.32-.52,2q-1.52,5.88-3.27,11.61c-.29,1-.59,1.94-.9,2.92l-.6,1.88c-.19.63-.39,1.25-.6,1.86l-1.1,3.26c-.37,1.09-.68,2-1,3-.47,1.28-.92,2.55-1.39,3.81-.36,1-.73,2-1.11,3l-.19.49c-.43,1.14-.87,2.25-1.32,3.37s-.87,2.16-1.32,3.19a3.35,3.35,0,0,1-.18.42c-.4,1-.8,2-1.25,3s-.75,1.75-1.13,2.62l-.66,1.49c-.47,1.07-.95,2.12-1.44,3.15s-.9,2-1.36,2.93l-1,2.12c-.3.63-.6,1.25-.91,1.88-.63,1.32-1.31,2.64-2,4q-2.53,5-5.19,9.77l-2,3.57-.11.21q-2.13,3.71-4.33,7.33c-.71,1.2-1.46,2.39-2.18,3.54-.1.16-.19.31-.3.46-.55.89-1.12,1.78-1.69,2.66l-.66,1c-.65,1-1.31,2-2,3l-.13.18c-.66,1-1.32,2-2,3l-.45.67q-2.26,3.28-4.54,6.46l-.31.42c-.8,1.07-1.54,2.14-2.31,3.19s-1.66,2.23-2.5,3.32q-2.29,3-4.61,6l-.8,1c-.73.93-1.48,1.85-2.22,2.76l-2.28,2.77-.57.69-2.41,2.8q-2.83,3.32-5.72,6.53c-.75.85-1.52,1.69-2.29,2.51l-2.22,2.39q-3,3.19-5.93,6.24-2.76,2.83-5.53,5.59c-.91.91-1.84,1.82-2.76,2.71s-1.85,1.78-2.78,2.67l-2.28,2.11c-.68.65-1.36,1.28-2.05,1.91a448.64,448.64,0,0,1-61.76,47.47c-.86.55-1.73,1.1-2.58,1.6q-6.42,4.07-12.46,7.63l-2.41,1.4-2.36,1.36-2.34,1.35-2.22,1.28c-8.35,4.68-15.91,8.59-22.38,11.76l-1.61.8c-10.63,5.15-18.11,8.22-21,9.35l-.42.18-.61.23-.14.06h-.08l-.23-.1-.21,0-1.07-.42-.55-.23c-.87-.34-2-.8-3.36-1.38l-.47-.18c-1.76-.8-3.88-1.67-6.33-2.77l-1.39-.61a443.16,443.16,0,0,1-39.74-20.6c-.8-.45-1.61-.92-2.36-1.38a473.14,473.14,0,0,1-44.78-30l-2.62-2c-1-.75-2-1.52-2.95-2.29l-2.81-2.21c-6.19-4.92-12.43-10.15-18.64-15.69l-1.52-1.36q-2.3-2.05-4.59-4.2l-1.67-1.57-1.83-1.71-2-1.94c-1.12-1.07-2.24-2.16-3.34-3.26-.84-.8-1.69-1.67-2.52-2.51l-.24-.26q-1.25-1.25-2.5-2.51c-.66-.68-1.32-1.36-2-2l-2-2.07-.13-.15-2.1-2.24q-3.36-3.61-6.66-7.36c-.68-.8-1.36-1.55-2-2.35-.57-.65-1.12-1.28-1.66-1.94l-2-2.39q-4.26-5.11-8.39-10.48-1.13-1.45-2.24-2.92c-1.89-2.47-3.73-5-5.57-7.55l-1.68-2.39c-.13-.16-.24-.34-.36-.5-.59-.85-1.19-1.7-1.77-2.55-.95-1.38-1.89-2.77-2.82-4.17q-1.11-1.64-2.18-3.31l-.15-.24L494,490.16c-.07-.13-.15-.24-.22-.37-.71-1.14-1.41-2.27-2.1-3.4s-1.49-2.46-2.21-3.7S488,480.3,487.31,479q-4.6-8-8.77-16.47c-.35-.69-.69-1.38-1-2.08-.22-.44-.44-.89-.65-1.35-.43-.87-.8-1.75-1.25-2.63a27.17,27.17,0,0,1-1.15-2.47l-.23-.48c-.26-.58-.52-1.16-.8-1.75l-.26-.57c-.26-.58-.52-1.18-.8-1.77q-1.44-3.26-2.78-6.58c-.42-1-.8-2-1.23-3.07-.1-.26-.21-.53-.31-.8-.4-1-.8-2-1.16-3s-.68-1.82-1-2.74l-.23-.65c-.18-.45-.34-.91-.5-1.36q-1-2.69-1.89-5.44c-.21-.6-.4-1.21-.6-1.8-.26-.8-.51-1.54-.75-2.31-.14-.42-.26-.8-.39-1.22-.26-.8-.5-1.6-.75-2.39-.31-1-.61-2.06-.92-3.1-.18-.65-.39-1.28-.57-2-.37-1.28-.74-2.58-1.08-3.89-.19-.68-.37-1.35-.55-2-.13-.5-.26-1-.39-1.51-.32-1.22-.63-2.46-.92-3.7-.18-.7-.35-1.4-.52-2.11-.07-.29-.13-.57-.19-.85-.37-1.55-.71-3.11-1.07-4.69-.26-1.16-.5-2.33-.74-3.5-.14-.71-.29-1.43-.43-2.14s-.32-1.6-.47-2.45a2.13,2.13,0,0,0-.1-.47c-.15-.8-.3-1.64-.45-2.48s-.31-1.84-.47-2.77-.3-1.8-.45-2.71q-.87-5.52-1.56-11.17a314.73,314.73,0,0,1-2.25-37.71V123Z"
       transform="translate(-446.08 -121.51)"
       id="path1517" />
  </g>
  <g
     id="outer_flower"
     data-name="outer flower">
    <path
       class="cls-2"
       d="M784.2,305.06,794.38,297l.88,4,11.88-9.91,1.5,3.88,11.89-4.91a17.91,17.91,0,0,0,4.9-1.58c1.46-1,4.21-2.38,4.21-2.38s6.63-1.12,8.88-2.87c0,0-.62,5.25,0,6.5a104.66,104.66,0,0,1,12.38-4.12s-1,5.38-.62,5.13,8.75.63,11.75.25c0,0-8.37,5.63-9.75,7.75,0,0,3,2.75,5.38,3.5,0,0-9.5,3.63-12.12,5.63a57.92,57.92,0,0,1,.83,6.7s-3.59-4.46-7.42-3.14-7.62,2.86-12.51,9.9l-7.15-1,.88,4.75s-10-.25-12.62,0a23.26,23.26,0,0,1,.63,5l-15.25,2.38-10.75-8.87-1.75-14.12Z"
       transform="translate(-446.08 -121.51)"
       id="path1520" />
    <path
       class="cls-2"
       d="M670,245.65s-1.73-7-1.73-8.52c0,0,2.88.75,4.13,1.13,0,0-5.37-9.25-5.25-15.12A18.22,18.22,0,0,0,670.5,225s-3.38-9.62-3.38-13.81,0-15.27,0-15.27v-6.29s2.75,4.75,5.25,4.38c0,0-.5-16.12.63-19.12a21.24,21.24,0,0,0,4.13,5.5s4.5-14,7.5-15.75c0,0,4.38,3.63,6.88,14.25a29.67,29.67,0,0,0,4.63-6,55.85,55.85,0,0,1,1.63,16.25,8.46,8.46,0,0,1,5-2.75S700,204.75,706,207.25a26.15,26.15,0,0,0-6.37,16.5,8.37,8.37,0,0,0,5-2.62,128,128,0,0,0-6.5,18.22s3.5-1.1,4-2.6c0,0-4.75,10.63-5.75,14.5S680,255.63,680,255.63Z"
       transform="translate(-446.08 -121.51)"
       id="path1522" />
    <path
       class="cls-2"
       d="M760.5,425.83s7.24,9.92,11.68,9.42c0,0-1.43,2.25-3.43,2.38,0,0,11.38,7.38,14.5,7.38,0,0-.12,1.88-3.75,3.13,0,0,10.63,8.25,13.5,8.75,0,0,3.63,12.13,4.38,13.88,0,0-.12,1.75-3.75,1.38,0,0,4.25,4,7.5,12.5a10.67,10.67,0,0,1-4.75,0A23.38,23.38,0,0,1,800,495.5s-6.62-1.37-10.5-5.62A14.19,14.19,0,0,0,788,497s-9-8.87-10.75-10.75a51.27,51.27,0,0,0,.63,6.13s-22.37-17.37-21.25-30c0,0-3.42,7.25-3.46,11.5,0,0-2.54-17.25-3.67-20.87a43,43,0,0,0-3,5.5s-5.62-12.87-5.62-19.37C740.88,439.13,753,420.41,760.5,425.83Z"
       transform="translate(-446.08 -121.51)"
       id="path1524" />
    <path
       class="cls-2"
       d="M578.5,505.81c-.41.24,1.92-6.89,3.08-16.06a7.41,7.41,0,0,0-4.08,2.5s-.08-4.17,5.08-13.58a5.72,5.72,0,0,0-6.08.5s8.08-12,9.92-22.67c0,0,5-9.08,10.25-10.33s6.67-6.75,4.25-6a15,15,0,0,1,7.33-4.92s3.67-4.83,3.83-9.42L631,430.42l7.67,9.25,3.75,5.92s-4.5,7.08-6.92,7.75a4.14,4.14,0,0,1-1.82.16.76.76,0,0,0-.91.79c.19,3,.45,9.76-.77,10.79-1.58,1.33-4.42,0-4.42,0a46.15,46.15,0,0,0-1,13.33s-16.92,9.92-21.17,17.5a8.82,8.82,0,0,1-1.75-5.75s-8,6.08-10.58,12.25a14.71,14.71,0,0,1-1.58-5.92A115.24,115.24,0,0,1,578.5,505.81Z"
       transform="translate(-446.08 -121.51)"
       id="path1526" />
    <path
       class="cls-2"
       d="M590.25,309.25s-12.5-7-13.87-11.12c0,0-1.12,5.88-1.87,6.25,0,0-6.61-6.39-10.12-8.75,0,0-.87,4.5-2.12,4.5,0,0-10-7.87-10.5-10,0,0-13.5,1-17.12-3.5a46.25,46.25,0,0,1,1.13,7.38s-14.17-4.87-15.83-6.12l1.53,3.68a20.65,20.65,0,0,0,1,2c.68,1.25.56,4.18-16.46,3.59,0,0,5,7,11.88,10.38,0,0-3.57,3.57-6.56,4.19a.27.27,0,0,0,0,.52,48.2,48.2,0,0,0,16.33,2.41s-3.42,3.5-7.71,3.38c0,0,9.08,7.13,15.83,9.38s11.63-.87,15.25,0l.61,5.89s5.76-4.69,11-4.1a5.41,5.41,0,0,1,.13,5s10.75-.83,22-1.29A68.25,68.25,0,0,0,590.25,309.25Z"
       transform="translate(-446.08 -121.51)"
       id="path1528" />
    <path
       class="cls-3"
       d="M753.3,434.13c.56.17,3.45,5.63,7.82,7.5s13,7.74,15.75,16.37,4.63,16.49,7.63,21.93c0,0-12.26-7.05-14.19-15.68s-17.6-16.27-19.82-21.62l-2.22-5.36S749.23,432.88,753.3,434.13Z"
       transform="translate(-446.08 -121.51)"
       id="path1530" />
    <path
       class="cls-3"
       d="M786.33,318.89s9.33-9.55,15.5-12.55,19.83-12,35.5-7.65c0,0-4.26,7.29-12.38,8.89S793.67,325.61,786.33,318.89Z"
       transform="translate(-446.08 -121.51)"
       id="path1532" />
    <path
       class="cls-3"
       d="M599.5,471.38s9.25-12,11.13-19.75,6.77-23.08,18.14-19c0,0,4.24,3.26,1.24,5.3s-11.36,16-13,22.85S601.5,470.88,599.5,471.38Z"
       transform="translate(-446.08 -121.51)"
       id="path1534" />
    <path
       class="cls-3"
       d="M541,305.12s16.6,4.79,28.25,11.63c0,0-7,2.46-12.43.11S542,308.62,541,305.12Z"
       transform="translate(-446.08 -121.51)"
       id="path1536" />
    <g
       id="Layer_9"
       data-name="Layer 9">
      <path
         class="cls-4"
         d="M526.13,305.38s11.88,3.92,14,6.65,11,7.73,18,8,8,7.75,24.38,1.63c0,0,3.63-3.84,0-4.11s-16.37.73-21.25.11S543,305.5,540,305.38,528.75,304.88,526.13,305.38Z"
         transform="translate(-446.08 -121.51)"
         id="path1538" />
      <path
         class="cls-4"
         d="M597.25,485s2.75-.87,6-6.37,8-7.62,13.63-8.87,8.81-20.87,11.72-23.25,6.28-7.37,6.28-7.37-4.5-4.27-12.37,3.5c-5.75,5.67-4.87,20.5-8.12,22.5S597.63,469.25,597.25,485Z"
         transform="translate(-446.08 -121.51)"
         id="path1540" />
      <path
         class="cls-4"
         d="M749.71,439.22s1.29,6.41,5.67,9.53,12.88,6.75,14,10.63,10.44,21.08,17.53,20.54c0,0-9.63-10.3-9.89-15s-4.21-13.13-10.32-15.91c-13.94-6.34-14.19-12.9-14.19-12.9l-1.53,1.5Z"
         transform="translate(-446.08 -121.51)"
         id="path1542" />
      <path
         class="cls-4"
         d="M790.28,321.29s7.47,1.09,12.47-2.16,8.68-7.75,17-7.62S839.63,307,844,296c0,0-7.37,6.75-11.5,6.88-3.22.1-10.42-1-15.93.53a28.11,28.11,0,0,0-4,1.78c-4.91,2.12-11,14-23.41,14l.55,1.15Z"
         transform="translate(-446.08 -121.51)"
         id="path1544" />
      <path
         class="cls-4"
         d="M694.17,188.33c-1.26-4.37.08,10.17-3.42,14.33,0,0-3-1.75-3.58-8.46s-1.75-2.46-3.17-4.63-4.67-3.75-4.67-3.75-4.25,11.33-6.25,11.67-4.33-4.5-4.33-4.5,2.83,2.63,4,.88,0-14.5.75-16.25,2.33,3.27,3.75,3.31,5.14-14,7-14.73,2.54.58,7,13.67a20.18,20.18,0,0,0,4.73-5.81s1.39,8.25,1.89,12.25c0,0-1.33,4.44-1.2,5.6A9.34,9.34,0,0,1,694.17,188.33Z"
         transform="translate(-446.08 -121.51)"
         id="path1546" />
    </g>
    <path
       class="cls-3"
       d="M678.31,250.09s-12.6-4.95-9.1-12.09c0,0,3.17.19,4.17,1.35,0,0-2.73-7.47.63-12.47s2.12,4.25,3.62,4.25,1.75-8.5,1.75-12.5,5.66,4.63,9,4.75c0,0,1.47-6.77,4.19-4a4.69,4.69,0,0,1,1.25,3.7A15,15,0,0,0,694,228c.63,1.63,3.28-2,3.83.13s-.56,10,1.65,11.55c1.24.85,1,7.76-2.93,9.12S681.62,251.31,678.31,250.09Z"
       transform="translate(-446.08 -121.51)"
       id="path1549" />
    <g
       id="Layer_12"
       data-name="Layer 12">
      <path
         class="cls-5"
         d="M784.2,305.06,794.38,297l.88,4,11.88-9.91,1.5,3.88,11.89-4.91a17.91,17.91,0,0,0,4.9-1.58c1.46-1,4.21-2.38,4.21-2.38s6.63-1.12,8.88-2.87c0,0-.62,5.25,0,6.5a104.66,104.66,0,0,1,12.38-4.12s-1,5.38-.62,5.13,8.75.63,11.75.25c0,0-8.37,5.63-9.75,7.75,0,0,3,2.75,5.38,3.5,0,0-9.5,3.63-12.12,5.63a57.92,57.92,0,0,1,.83,6.7s-3.59-4.46-7.42-3.14-7.62,2.86-12.51,9.9l-7.15-1,.88,4.75s-10-.25-12.62,0a23.26,23.26,0,0,1,.63,5l-15.25,2.38-10.75-8.87-1.75-14.12Z"
         transform="translate(-446.08 -121.51)"
         id="path1551" />
      <path
         class="cls-5"
         d="M670,245.65s-1.73-7-1.73-8.52c0,0,2.88.75,4.13,1.13,0,0-5.37-9.25-5.25-15.12A18.22,18.22,0,0,0,670.5,225s-3.38-9.62-3.38-13.81,0-15.27,0-15.27v-6.29s2.75,4.75,5.25,4.38c0,0-.5-16.12.63-19.12a21.24,21.24,0,0,0,4.13,5.5s4.5-14,7.5-15.75c0,0,4.38,3.63,6.88,14.25a29.67,29.67,0,0,0,4.63-6,55.85,55.85,0,0,1,1.63,16.25,8.46,8.46,0,0,1,5-2.75S700,204.75,706,207.25a26.15,26.15,0,0,0-6.37,16.5,8.37,8.37,0,0,0,5-2.62,128,128,0,0,0-6.5,18.22,12.91,12.91,0,0,0,3.27-1.22.45.45,0,0,1,.61.6c-1.61,3.12-4.89,9.63-5.63,12.52-1,3.88-16.37,4.38-16.37,4.38Z"
         transform="translate(-446.08 -121.51)"
         id="path1553" />
      <path
         class="cls-5"
         d="M760.5,425.83s7.24,9.92,11.68,9.42c0,0-1.43,2.25-3.43,2.38,0,0,11.38,7.38,14.5,7.38,0,0-.12,1.88-3.75,3.13,0,0,10.63,8.25,13.5,8.75,0,0,3.63,12.13,4.38,13.88,0,0-.12,1.75-3.75,1.38,0,0,4.25,4,7.5,12.5a10.67,10.67,0,0,1-4.75,0A23.38,23.38,0,0,1,800,495.5s-6.62-1.37-10.5-5.62A14.19,14.19,0,0,0,788,497s-9-8.87-10.75-10.75a51.27,51.27,0,0,0,.63,6.13s-22.37-17.37-21.25-30c0,0-3.42,7.25-3.46,11.5,0,0-2.54-17.25-3.67-20.87a43,43,0,0,0-3,5.5s-5.62-12.87-5.62-19.37C740.88,439.13,753,420.41,760.5,425.83Z"
         transform="translate(-446.08 -121.51)"
         id="path1555" />
      <path
         class="cls-5"
         d="M578.5,505.81c-.41.24,1.92-6.89,3.08-16.06a7.41,7.41,0,0,0-4.08,2.5s-.08-4.17,5.08-13.58a5.72,5.72,0,0,0-6.08.5s8.08-12,9.92-22.67c0,0,5-9.08,10.25-10.33s6.67-6.75,4.25-6a15,15,0,0,1,7.33-4.92s3.67-4.83,3.83-9.42L631,430.42l7.67,9.25,3.75,5.92s-4.5,7.08-6.92,7.75a4.14,4.14,0,0,1-1.82.16.76.76,0,0,0-.91.79c.19,3,.45,9.76-.77,10.79-1.58,1.33-4.42,0-4.42,0a46.15,46.15,0,0,0-1,13.33s-16.92,9.92-21.17,17.5a8.82,8.82,0,0,1-1.75-5.75s-8,6.08-10.58,12.25a14.71,14.71,0,0,1-1.58-5.92A115.24,115.24,0,0,1,578.5,505.81Z"
         transform="translate(-446.08 -121.51)"
         id="path1557" />
      <path
         class="cls-5"
         d="M590.25,309.25s-12.5-7-13.87-11.12c0,0-1.12,5.88-1.87,6.25,0,0-6.61-6.39-10.12-8.75,0,0-.87,4.5-2.12,4.5,0,0-10-7.87-10.5-10,0,0-13.5,1-17.12-3.5a46.25,46.25,0,0,1,1.13,7.38s-14.17-4.87-15.83-6.12l1.53,3.68a20.65,20.65,0,0,0,1,2c.68,1.25.56,4.18-16.46,3.59,0,0,5,7,11.88,10.38,0,0-3.57,3.57-6.56,4.19a.27.27,0,0,0,0,.52,48.2,48.2,0,0,0,16.33,2.41s-3.42,3.5-7.71,3.38c0,0,9.08,7.13,15.83,9.38s11.63-.87,15.25,0l.61,5.89s5.76-4.69,11-4.1a5.41,5.41,0,0,1,.13,5s10.75-.83,22-1.29A68.25,68.25,0,0,0,590.25,309.25Z"
         transform="translate(-446.08 -121.51)"
         id="path1559" />
    </g>
    <path
       class="cls-6"
       d="M710.88,358.75c-.27.7-.56,1.49-.91,2.34s-.72,1.66-1.19,2.55a23.53,23.53,0,0,1-2,3.19,23.81,23.81,0,0,1-1.63,2,23,23,0,0,1-1.88,1.78,25,25,0,0,1-2.34,1.74,27.28,27.28,0,0,1-3.74,2h0c-.63.29-1.29.56-2,.82a38.13,38.13,0,0,1-4.84,1.45,34.08,34.08,0,0,1-6.38.06,31.36,31.36,0,0,1-6.77-1.25,23.34,23.34,0,0,1-3.51-1.4,16.84,16.84,0,0,1-6.61-5.72,17.51,17.51,0,0,1-2.61-6.69c-1.52-8.38-1.29-16.25,1.7-22.4,3.37-7,10.28-11.74,22.16-12.6a18.39,18.39,0,0,1,12.94,3.56,19.79,19.79,0,0,1,2.78,2.63,25.63,25.63,0,0,1,4.12,6.72,39.64,39.64,0,0,1,2.72,9.89c.12.92.22,1.81.29,2.65A19.22,19.22,0,0,1,710.88,358.75Z"
       transform="translate(-446.08 -121.51)"
       id="path1562" />
    <path
       class="cls-6"
       d="M675.36,421.83c.43,1.51.8,3,1.11,4.26a5.06,5.06,0,0,1-2.56,5.64,4.46,4.46,0,0,1-.63.28c-7.7,2.54-18-2.87-31.66-9.63-16.11-8-21.74-22.12-22.38-25.41a8.53,8.53,0,0,1,3.68-8.23,5.54,5.54,0,0,0,.51-.33,13.81,13.81,0,0,1,7.84-1.65,1,1,0,0,1,.24,0c.48,0,1,0,1.41.06,9.67.28,12-1.35,15.59-6.33a11.69,11.69,0,0,0,1.73-5.41c.78-6.63-1.33-16.16-7.85-19.16a10.76,10.76,0,0,0-2-.66c-5.39-1.21-9.45.59-13.24,3.26h0c-2.53,1.75-4.92,3.88-7.52,5.75-1.67-.25-3-.52-3-.52a9.26,9.26,0,0,1-3.09,3.71c-6.7.65-8.65-13.79-8.65-13.79-2.5-33.07,18.63-51.56,20.63-53.19a9.54,9.54,0,0,1,6.7-1.39h0c2.32.43,4.56,1.94,5.48,5.62a16.46,16.46,0,0,1,.31,1.66c.92,7.48,6.7,15.82,14.47,16.69a13.55,13.55,0,0,0,8.4-1.95,16.1,16.1,0,0,0,7.28-8.3,19.76,19.76,0,0,0,1.14-8.43,6.86,6.86,0,0,0-3-5.11,37.22,37.22,0,0,1-11.68-12.37,4.94,4.94,0,0,1,0-4.83c6.12-10.79,23.57-12.6,38.6-12.82,15.73-.25,30.36,5.9,30.53,12.13a2.74,2.74,0,0,1,0,.49c-.62,6.38-6.86,12.88-8.62,13.38s-8.38-.5-7.5,10.12a15.39,15.39,0,0,0,.56,3c1.85,6.19,7.66,9.13,13.62,10.39a38.09,38.09,0,0,0,5.82.76c8.39.5,9-14.61,9.26-17.5,0-.37.08-.83.15-1.34.35-2.39,1.39-5.88,5.33-6.19,1.75-.16,4.07.32,7.15,1.8,11.5,5.5,22,39,22.73,49.12a23.49,23.49,0,0,1-3,13,7.1,7.1,0,0,1-7.45,3.64,4.5,4.5,0,0,1-.69-.15,31.12,31.12,0,0,1-7.41-3.44,31.49,31.49,0,0,0-7.25-3.62l-.31-.08c-4.92-1.29-14.29,3.27-16.44,10.59a11.29,11.29,0,0,0,.06,6.41c.46,1.5.91,2.83,1.37,4,1.69,4.31,3.59,6.58,6.23,7.56a10.8,10.8,0,0,0,1.36.37,17.59,17.59,0,0,0,5.68-.08c.36,0,.73-.09,1.1-.11,1.3,1.37,2.26,2.48,2.26,2.48l5.55.89,2.33,3.5a7.94,7.94,0,0,0,2.36-2.54,4.66,4.66,0,0,1,.32,2.4c-1,7.18-3.92,13.35-22.56,29a65.4,65.4,0,0,1-7.22,5.32h0c-11.57,7.3-19.81,6.48-23.85,5.25a4.65,4.65,0,0,1-3.2-3.93c-1.12-10.14,3-12.53,1-20-.17-.61-.34-1.21-.53-1.76-2.19-6.65-6.06-9.17-14.86-9.24h-.59c-5.75,0-10.23,5.76-12.39,11.35m37.07-54.16c-.07-.84-.17-1.73-.29-2.65a39.64,39.64,0,0,0-2.72-9.89,25.63,25.63,0,0,0-4.12-6.72,19.79,19.79,0,0,0-2.78-2.63,18.39,18.39,0,0,0-12.94-3.56c-11.88.86-18.79,5.64-22.16,12.6-3,6.15-3.22,14-1.7,22.4a17.51,17.51,0,0,0,2.61,6.69,16.84,16.84,0,0,0,6.61,5.72,23.34,23.34,0,0,0,3.51,1.4,31.36,31.36,0,0,0,6.77,1.25,34.08,34.08,0,0,0,6.38-.06,38.13,38.13,0,0,0,4.84-1.45c.69-.26,1.35-.53,2-.82h0a27.28,27.28,0,0,0,3.74-2,25,25,0,0,0,2.34-1.74,23,23,0,0,0,1.88-1.78,23.81,23.81,0,0,0,1.63-2,23.53,23.53,0,0,0,2-3.19c.47-.89.85-1.75,1.19-2.55s.64-1.64.91-2.34A19.22,19.22,0,0,0,711.21,352.07Zm-38.21,63s-1.59,2.22.23.7l.05,0a2.71,2.71,0,0,0-.11-.25C673.12,415.38,673.06,415.25,673,415.12Z"
       transform="translate(-446.08 -121.51)"
       id="path1564" />
    <path
       class="cls-2"
       d="M846.46,315a.07.07,0,0,0,0,0l-.18-.2a.2.2,0,0,0-.06-.07l-.21-.23-.31-.31,0,0a.12.12,0,0,1,0,0l0,0c-.07-.06-.13-.13-.21-.19a7.86,7.86,0,0,0-6.26-2h0c-.19,0-.37,0-.57.08a12,12,0,0,0-5.62,3,.08.08,0,0,1-.05,0,60.46,60.46,0,0,0-6.26,6.82c-5.68,6.76-12,14.25-22.24,12.67a24.2,24.2,0,0,1-6.9-2.18h0a24.23,24.23,0,0,1-11.58-12.62,25.85,25.85,0,0,1-1.73-12.36,17.51,17.51,0,0,1,.26-1.79c1.78-9.25,9.78-15.46,19.85-15.58a61.16,61.16,0,0,1,10.78.53,20.15,20.15,0,0,0,5.68.09h0l.5-.11a1.24,1.24,0,0,0,.19,0h0a12.13,12.13,0,0,0,2-.52l.13,0c.24-.07.46-.16.69-.24l.38-.15a3.23,3.23,0,0,0,.42-.2l.38-.2.19-.1a10.22,10.22,0,0,0,1-.65h0c8.22-5.8,8-21.61-12.82-43.5-26.47-27.87-56.58-48.48-84.89-53.5a27.83,27.83,0,0,0-16.44,1.93c-4.43,2-8.64,5.41-9.05,11.16a16.35,16.35,0,0,0,.75,5.87h0a30.18,30.18,0,0,0,2.43,5.56,25.8,25.8,0,0,1,2.86,7.55c1.34,6.93,1.41,18.94-11.85,25.05h0a40.19,40.19,0,0,1-10.71,3s-9.6.21-16.76-5.34h0a18.84,18.84,0,0,1-6-7.91c-5.08-12.59.3-20.91,3.12-26.53l.64-1.33c1.44-3.23,2.74-9.65-.64-14-2.51-3.23-7.59-5.31-17.12-4.15-22.38,2.76-58.61,23.5-74,38.26s-42.74,38.38-35.5,57.11a13.06,13.06,0,0,0,1.35,2.62c2.88,4.17,7.57,4.42,13,4h0c8.52-.62,18.82-2.81,26.51,6.37a23,23,0,0,1,3.52,5.76h0a24.64,24.64,0,0,1,1.34,14.94,25.45,25.45,0,0,1-2.09,5.92,25.92,25.92,0,0,1-4.31,6.27c-4.09,4.36-9.87,7.11-17,5.45a27.33,27.33,0,0,1-11.15-5.23A49.87,49.87,0,0,1,546,328c-3.58-3.86-6.73-6.68-14.52-4.66a10.23,10.23,0,0,0-2.58,1c-12.51,7-9.21,38.61-5.69,56.58,3.66,18.6,13.44,54.1,40.42,82.36a17.19,17.19,0,0,0,9,5.13,12.59,12.59,0,0,0,11.31-3c2.24-2,4.34-5.1,6-9.75.85-2.4,1.69-4.6,2.5-6.66,5-12.68,9.4-18.84,19-19.37a39.58,39.58,0,0,1,9.52.89,23.21,23.21,0,0,1,9.76,4.6A26.11,26.11,0,0,1,640,449.59c2,8.45-.65,17.82-10.76,24a27.39,27.39,0,0,1-2.67,1.43l-.77.37c-2.69,1.24-10.1,5.23-11.56,11.91h0c-.75,3.49.12,7.7,4.12,12.67a30.23,30.23,0,0,0,14.55,9.71c9,2.81,26.58,6.6,57,6.9,0,0,41.91.26,65.41-14.41,11.6-7.24,14.87-13.09,12.89-18.43-1-2.63-3.23-5.16-6.42-7.66h0a74.9,74.9,0,0,0-7.94-5.26h0l-1.12-.64c-1.25-.72-2.53-1.43-3.88-2.17-8.76-4.76-10-14-6.82-22.39h0c3.27-8.48,11.12-16.07,20.43-17.19h0a19.45,19.45,0,0,1,5.38.09c19.5,3.07,20.89,20,21.51,26.82v0c0,.58.11,1.08.16,1.5.4,3.22,2.58,9.09,6.95,11.09,2.83,1.31,6.6,1,11.38-2.76,12.17-9.5,37.59-43.09,42.83-85.17C855.46,341.33,852.51,322,846.46,315Zm-135.58,43.8c-.27.7-.56,1.49-.91,2.34s-.72,1.66-1.19,2.55a23.53,23.53,0,0,1-2,3.19,23.81,23.81,0,0,1-1.63,2,23,23,0,0,1-1.88,1.78,25,25,0,0,1-2.34,1.74,27.28,27.28,0,0,1-3.74,2h0c-.63.29-1.29.56-2,.82a38.13,38.13,0,0,1-4.84,1.45,34.08,34.08,0,0,1-6.38.06,31.36,31.36,0,0,1-6.77-1.25,23.34,23.34,0,0,1-3.51-1.4,16.84,16.84,0,0,1-6.61-5.72,17.51,17.51,0,0,1-2.61-6.69c-1.52-8.38-1.29-16.25,1.7-22.4,3.37-7,10.28-11.74,22.16-12.6a18.39,18.39,0,0,1,12.94,3.56,19.79,19.79,0,0,1,2.78,2.63,25.63,25.63,0,0,1,4.12,6.72,39.64,39.64,0,0,1,2.72,9.89c.12.92.22,1.81.29,2.65A19.22,19.22,0,0,1,710.88,358.75Z"
       transform="translate(-446.08 -121.51)"
       id="path1566" />
    <path
       class="cls-4"
       d="M572,234.25s9.25-1.75,12.75-4.12,14.63-8,15.75-5.62-7.25,7.88-8.12,9.75,7.45-3.32,10.63-3,4.94-4,7.85-8,17.28-23.92,39.21-27.39.6-.18.6-.18,3.58-6.59-12.79-1.13S581.88,225.38,572,234.25Z"
       transform="translate(-446.08 -121.51)"
       id="path1568" />
    <path
       class="cls-4"
       d="M709.72,200.17s-3.23-1.06-1.64-2.32,8.3-7.73,21.75-5.85c7.24,1,18.15,4.7,28.33,9.92a206,206,0,0,1,19.58,11.88c11.08,7.33,27.32,22.29,28.42,23.37s-15.67-2.83-23.33-11.33-29.83-23-34-23.33a45.48,45.48,0,0,1-13.17-3.5C732.42,197.44,718.06,187.44,709.72,200.17Z"
       transform="translate(-446.08 -121.51)"
       id="path1570" />
    <path
       class="cls-4"
       d="M540.5,382.75s5.63,15.75,8.19,16.25,1.18-1.12,2.68-1,3.46,3.83,4.44,2.75a2.8,2.8,0,0,0,0-2.7C553.41,394.09,546.13,384.25,540.5,382.75Z"
       transform="translate(-446.08 -121.51)"
       id="path1572" />
    <path
       class="cls-4"
       d="M821.11,391.25s6.39.75,11.46-6.25a31.75,31.75,0,0,0,5.77-13.87S818.21,390.75,821.11,391.25Z"
       transform="translate(-446.08 -121.51)"
       id="path1574" />
    <g
       id="Layer_13"
       data-name="Layer 13">
      <path
         class="cls-7"
         d="M846.46,315a.07.07,0,0,0,0,0l-.18-.2a.2.2,0,0,0-.06-.07l-.21-.23-.31-.31,0,0a.12.12,0,0,1,0,0l0,0c-.07-.06-.13-.13-.21-.19a7.86,7.86,0,0,0-6.26-2h0c-.19,0-.37,0-.57.08a12,12,0,0,0-5.62,3,.08.08,0,0,1-.05,0,60.46,60.46,0,0,0-6.26,6.82c-5.68,6.76-12,14.25-22.24,12.67a24.2,24.2,0,0,1-6.9-2.18h0a24.23,24.23,0,0,1-11.58-12.62,25.85,25.85,0,0,1-1.73-12.36,17.51,17.51,0,0,1,.26-1.79c1.78-9.25,9.78-15.46,19.85-15.58a61.16,61.16,0,0,1,10.78.53,20.15,20.15,0,0,0,5.68.09h0l.5-.11a1.24,1.24,0,0,0,.19,0h0a12.13,12.13,0,0,0,2-.52l.13,0c.24-.07.46-.16.69-.24l.38-.15a3.23,3.23,0,0,0,.42-.2l.38-.2.19-.1a10.22,10.22,0,0,0,1-.65h0c8.22-5.8,8-21.61-12.82-43.5-26.47-27.87-56.58-48.48-84.89-53.5a27.83,27.83,0,0,0-16.44,1.93c-4.43,2-8.64,5.41-9.05,11.16a16.35,16.35,0,0,0,.75,5.87h0a30.18,30.18,0,0,0,2.43,5.56,25.8,25.8,0,0,1,2.86,7.55c1.34,6.93,1.41,18.94-11.85,25.05h0a40.19,40.19,0,0,1-10.71,3s-9.6.21-16.76-5.34h0a18.84,18.84,0,0,1-6-7.91c-5.08-12.59.3-20.91,3.12-26.53l.64-1.33c1.44-3.23,2.74-9.65-.64-14-2.51-3.23-7.59-5.31-17.12-4.15-22.38,2.76-58.61,23.5-74,38.26s-42.74,38.38-35.5,57.11a13.06,13.06,0,0,0,1.35,2.62c2.88,4.17,7.57,4.42,13,4h0c8.52-.62,18.82-2.81,26.51,6.37a23,23,0,0,1,3.52,5.76h0a24.64,24.64,0,0,1,1.34,14.94,25.45,25.45,0,0,1-2.09,5.92,25.92,25.92,0,0,1-4.31,6.27c-4.09,4.36-9.87,7.11-17,5.45a27.33,27.33,0,0,1-11.15-5.23A49.87,49.87,0,0,1,546,328c-3.58-3.86-6.73-6.68-14.52-4.66a10.23,10.23,0,0,0-2.58,1c-12.51,7-9.21,38.61-5.69,56.58,3.66,18.6,13.44,54.1,40.42,82.36a17.19,17.19,0,0,0,9,5.13,12.59,12.59,0,0,0,11.31-3c2.24-2,4.34-5.1,6-9.75.85-2.4,1.69-4.6,2.5-6.66,5-12.68,9.4-18.84,19-19.37a39.58,39.58,0,0,1,9.52.89,23.21,23.21,0,0,1,9.76,4.6A26.11,26.11,0,0,1,640,449.59c2,8.45-.65,17.82-10.76,24a27.39,27.39,0,0,1-2.67,1.43l-.77.37c-2.69,1.24-10.1,5.23-11.56,11.91h0c-.75,3.49.12,7.7,4.12,12.67a30.23,30.23,0,0,0,14.55,9.71c9,2.81,26.58,6.6,57,6.9,0,0,41.91.26,65.41-14.41,11.6-7.24,14.87-13.09,12.89-18.43-1-2.63-3.23-5.16-6.42-7.66h0a74.9,74.9,0,0,0-7.94-5.26h0l-1.12-.64c-1.25-.72-2.53-1.43-3.88-2.17-8.76-4.76-10-14-6.82-22.39h0c3.27-8.48,11.12-16.07,20.43-17.19h0a19.45,19.45,0,0,1,5.38.09c19.5,3.07,20.89,20,21.51,26.82v0c0,.58.11,1.08.16,1.5.4,3.22,2.58,9.09,6.95,11.09,2.83,1.31,6.6,1,11.38-2.76,12.17-9.5,37.59-43.09,42.83-85.17C855.46,341.33,852.51,322,846.46,315Zm-135.58,43.8c-.27.7-.56,1.49-.91,2.34s-.72,1.66-1.19,2.55a23.53,23.53,0,0,1-2,3.19,23.81,23.81,0,0,1-1.63,2,23,23,0,0,1-1.88,1.78,25,25,0,0,1-2.34,1.74,27.28,27.28,0,0,1-3.74,2h0c-.63.29-1.29.56-2,.82a38.13,38.13,0,0,1-4.84,1.45,34.08,34.08,0,0,1-6.38.06,31.36,31.36,0,0,1-6.77-1.25,23.34,23.34,0,0,1-3.51-1.4,16.84,16.84,0,0,1-6.61-5.72,17.51,17.51,0,0,1-2.61-6.69c-1.52-8.38-1.29-16.25,1.7-22.4,3.37-7,10.28-11.74,22.16-12.6a18.39,18.39,0,0,1,12.94,3.56,19.79,19.79,0,0,1,2.78,2.63,25.63,25.63,0,0,1,4.12,6.72,39.64,39.64,0,0,1,2.72,9.89c.12.92.22,1.81.29,2.65A19.22,19.22,0,0,1,710.88,358.75Z"
         transform="translate(-446.08 -121.51)"
         id="path1576" />
    </g>
    <path
       class="cls-5"
       d="M787.68,319.2s9.2-.08,12.2-1.83,11.63-14.12,18.13-14,14.88,1.63,17.75-1,6.38-6.25,8.75-6.37,7.25,0,7.25,0"
       transform="translate(-446.08 -121.51)"
       id="path1579" />
    <path
       class="cls-5"
       d="M688.75,251s-2.75-5.29-2.25-10.71,2.75-10.92,2.25-17-4.5-6.62-2.75-16,3.33-9.87,2.41-16.12-1.22-9-1.22-9"
       transform="translate(-446.08 -121.51)"
       id="path1581" />
    <path
       class="cls-5"
       d="M588.19,320.87s-4.77-5-9.69-4.37-19.33,2.17-23.17-.67-12.25-11-16.5-10.92-13.4,1.92-14.79-1.75"
       transform="translate(-446.08 -121.51)"
       id="path1583" />
    <path
       class="cls-5"
       d="M752.53,434.13s-.57,6,2.64,8,17.7,10.38,19,15.75,2.84,10.95,4.07,13.5c1.5,3.13,7,8.63,13.88,13.25"
       transform="translate(-446.08 -121.51)"
       id="path1585" />
    <path
       class="cls-5"
       d="M631.64,435.85s-11.14,6-13.14,11,.67,17.25-8,21.13-11.46,4.75-13.33,10.38,3,5.63-5.37,11.88"
       transform="translate(-446.08 -121.51)"
       id="path1587" />
    <path
       class="cls-5"
       d="M530.67,329.17s-9.33,6.17-5.83,17,6.93,28.95,32.2,51.13a2.08,2.08,0,0,1,.7,1.8c-1,8.77-8.85,66.1,17.6,64.9"
       transform="translate(-446.08 -121.51)"
       id="path1589" />
    <path
       class="cls-5"
       d="M618,490.67s9,21.67,40,13.17c23.23-6.37,31.3-11.43,33.88-13.56a2.24,2.24,0,0,1,2.71-.31c6.14,4.88,29.63,15.86,46.24,12.54,19.17-3.83,25.33-7.17,24.83-19.33"
       transform="translate(-446.08 -121.51)"
       id="path1591" />
    <path
       class="cls-5"
       d="M800.83,463.33s35.95-8.41,20.42-72.63a1.55,1.55,0,0,1,.6-1.62c4-2.84,20.81-16,26.81-39.41,6.83-26.67-5.17-33-5.17-33"
       transform="translate(-446.08 -121.51)"
       id="path1593" />
    <path
       class="cls-5"
       d="M825.8,284.16c1.47,0,6.07-33.63-26-41.58-22.71-5.63-28.89-4.44-30.59-3.29a.47.47,0,0,1-.75-.31c-.73-5.86-6-32-42.74-43.79a12.57,12.57,0,0,0-9.26.5c-3.06,1.47-6,4.44-5.69,10.48"
       transform="translate(-446.08 -121.51)"
       id="path1595" />
    <path
       class="cls-5"
       d="M547.33,285.83s-12.84-29.43,53.8-43.16a4,4,0,0,0,3.06-2.89c2.09-7.94,11.49-33.62,47.47-44.12,0,0,12-3.67,16.67,3.67"
       transform="translate(-446.08 -121.51)"
       id="path1597" />
    <path
       class="cls-8"
       d="M712.88,358.75c-.27.7-.56,1.49-.91,2.34s-.72,1.66-1.19,2.55a23.53,23.53,0,0,1-2,3.19,23.81,23.81,0,0,1-1.63,2,23,23,0,0,1-1.88,1.78,25,25,0,0,1-2.34,1.74,27.28,27.28,0,0,1-3.74,2h0c-.63.29-1.29.56-2,.82a38.13,38.13,0,0,1-4.84,1.45,34.08,34.08,0,0,1-6.38.06,31.36,31.36,0,0,1-6.77-1.25,23.34,23.34,0,0,1-3.51-1.4,16.84,16.84,0,0,1-6.61-5.72,17.51,17.51,0,0,1-2.61-6.69c-1.52-8.38-1.29-16.25,1.7-22.4,3.37-7,10.28-11.74,22.16-12.6a18.39,18.39,0,0,1,12.94,3.56,19.79,19.79,0,0,1,2.78,2.63,25.63,25.63,0,0,1,4.12,6.72,39.64,39.64,0,0,1,2.72,9.89c.12.92.22,1.81.29,2.65A19.22,19.22,0,0,1,712.88,358.75Z"
       transform="translate(-446.08 -121.51)"
       id="path1599" />
    <path
       class="cls-6"
       d="M676,405.86"
       transform="translate(-446.08 -121.51)"
       id="path1601" />
    <path
       class="cls-6"
       d="M677.36,421.83"
       transform="translate(-446.08 -121.51)"
       id="path1603" />
    <path
       class="cls-9"
       d="M712.88,358.75c-.27.7-.56,1.49-.91,2.34s-.72,1.66-1.19,2.55a23.53,23.53,0,0,1-2,3.19,23.81,23.81,0,0,1-1.63,2,23,23,0,0,1-1.88,1.78,25,25,0,0,1-2.34,1.74,27.28,27.28,0,0,1-3.74,2h0c-.63.29-1.29.56-2,.82a38.13,38.13,0,0,1-4.84,1.45,34.08,34.08,0,0,1-6.38.06,31.36,31.36,0,0,1-6.77-1.25,23.34,23.34,0,0,1-3.51-1.4,16.84,16.84,0,0,1-6.61-5.72,17.51,17.51,0,0,1-2.61-6.69c-1.52-8.38-1.29-16.25,1.7-22.4,3.37-7,10.28-11.74,22.16-12.6a18.39,18.39,0,0,1,12.94,3.56,19.79,19.79,0,0,1,2.78,2.63,25.63,25.63,0,0,1,4.12,6.72,39.64,39.64,0,0,1,2.72,9.89c.12.92.22,1.81.29,2.65A19.22,19.22,0,0,1,712.88,358.75Z"
       transform="translate(-446.08 -121.51)"
       id="path1605" />
    <path
       class="cls-3"
       d="M547.33,285.83s15.33,8.87,33.83-7.48S622.5,252,633.92,236.17s16.35-20.67,20.8-14.83,13.19-23,12.11-23.8c-6-4.28-12.94-2.57-21.66.29C612.63,208.5,603.65,242,603.65,242L582,247.69l-15.46,6.47-9.95,6.63c-3.07,3.08-6.45,5.21-8.2,10.65l-.92,3.59a22,22,0,0,0-.43,8.78Z"
       transform="translate(-446.08 -121.51)"
       id="path1607" />
    <path
       class="cls-3"
       d="M827,281.33a3,3,0,0,1-2.87,3c-17.05.55-19.61-5.3-23.25-5.3-3.83,0-30.5-21-38-25.67s-31-30-36.33-33.33-5.33,3-6.83,1c0,0-10.84-10.23-8.38-19.61,0,0,5.13-12,17.92-5s19.92,8.11,28.54,20.17,9.49,15,11.06,22.8c0,0,13.45-1.8,20.26.79,0,0,18.06,2.11,24.62,8.8C820,255.35,827,261.5,827,281.33Z"
       transform="translate(-446.08 -121.51)"
       id="path1609" />
    <path
       class="cls-3"
       d="M823.8,445.81c-.37.5-5.24-.62-5-1.19,2-4.56,4.41-15.46,5-21.5.75-7.75,3.2-27.5,3.2-27.5s15.11,14.31,13,19.93S830.86,436.46,823.8,445.81Z"
       transform="translate(-446.08 -121.51)"
       id="path1611" />
    <path
       class="cls-3"
       d="M818,447.5s3.25-18,.63-28.87-2.35-35,.2-44.87,8.55-32.25,10.05-38.81,2.75-21.6,14.63-18.27A13.89,13.89,0,0,1,849,324c2.25,7.25,2.74,28.58-7.38,43.83-9.19,13.84-20.38,20.18-20.38,22.13,0,10.25,5.63,19.88,3.82,26.24C823.94,420.22,826.5,439.88,818,447.5Z"
       transform="translate(-446.08 -121.51)"
       id="path1613" />
    <path
       class="cls-3"
       d="M555.82,447.5a.54.54,0,0,1-1,.33c-3-4.68-11.11-17.73-11.32-19.75-.25-2.46,4-13.21,6.19-17.09,0,0,1.81,12.75,1.81,18.13C551.5,434.05,555.28,440.24,555.82,447.5Z"
       transform="translate(-446.08 -121.51)"
       id="path1615" />
    <path
       class="cls-3"
       d="M556.82,440.66s5.06-13.28,5.68-21.53,4.5-19.25-1-27.5-8.37-11.37-9.25-33.75-9.49-30-15.74-31S523.17,337,524,342c.48,2.73,6.55,20.91,9,26,3.15,6.56,13.09,18.86,16.29,22,3.61,3.57,8.4,9.1,8.4,9.1L556,418.67l.11,15.1Z"
       transform="translate(-446.08 -121.51)"
       id="path1617" />
    <path
       class="cls-6"
       d="M675.18,431.61"
       transform="translate(-446.08 -121.51)"
       id="path1619" />
    <path
       class="cls-6"
       d="M712.88,358.75c-.27.7-.56,1.49-.91,2.34s-.72,1.66-1.19,2.55a23.53,23.53,0,0,1-2,3.19,23.81,23.81,0,0,1-1.63,2,23,23,0,0,1-1.88,1.78,25,25,0,0,1-2.34,1.74,27.28,27.28,0,0,1-3.74,2h0c-.63.29-1.29.56-2,.82a38.13,38.13,0,0,1-4.84,1.45,34.08,34.08,0,0,1-6.38.06,31.36,31.36,0,0,1-6.77-1.25,23.34,23.34,0,0,1-3.51-1.4,16.84,16.84,0,0,1-6.61-5.72,17.51,17.51,0,0,1-2.61-6.69c-1.52-8.38-1.29-16.25,1.7-22.4,3.37-7,10.28-11.74,22.16-12.6a18.39,18.39,0,0,1,12.94,3.56,19.79,19.79,0,0,1,2.78,2.63,25.63,25.63,0,0,1,4.12,6.72,39.64,39.64,0,0,1,2.72,9.89c.12.92.22,1.81.29,2.65A19.22,19.22,0,0,1,712.88,358.75Z"
       transform="translate(-446.08 -121.51)"
       id="path1621" />
    <path
       class="cls-5"
       d="M530.67,329.17s-9.33,6.17-5.83,17,6.93,28.95,32.2,51.13a2.08,2.08,0,0,1,.7,1.8c-1,8.77-8.85,66.1,17.6,64.9"
       transform="translate(-446.08 -121.51)"
       id="path1623" />
    <path
       class="cls-5"
       d="M618,490.67s9,21.67,40,13.17c23.23-6.37,31.3-11.43,33.88-13.56a2.24,2.24,0,0,1,2.71-.31c6.14,4.88,29.63,15.86,46.24,12.54,19.17-3.83,25.33-7.17,24.83-19.33"
       transform="translate(-446.08 -121.51)"
       id="path1625" />
    <path
       class="cls-5"
       d="M800.83,463.33s35.95-8.41,20.42-72.63a1.55,1.55,0,0,1,.6-1.62c4-2.84,20.81-16,26.81-39.41,6.83-26.67-5.17-33-5.17-33"
       transform="translate(-446.08 -121.51)"
       id="path1627" />
    <path
       class="cls-5"
       d="M825.8,284.16c1.47,0,6.07-33.63-26-41.58-22.71-5.63-28.89-4.44-30.59-3.29a.47.47,0,0,1-.75-.31c-.73-5.86-6-32-42.74-43.79a12.57,12.57,0,0,0-9.26.5c-3.06,1.47-6,4.44-5.69,10.48"
       transform="translate(-446.08 -121.51)"
       id="path1629" />
    <path
       class="cls-5"
       d="M547.33,285.83s-12.84-29.43,53.8-43.16a4,4,0,0,0,3.06-2.89c2.09-7.94,11.49-33.62,47.47-44.12,0,0,12-3.67,16.67,3.67"
       transform="translate(-446.08 -121.51)"
       id="path1631" />
    <path
       class="cls-8"
       d="M712.88,358.75c-.27.7-.56,1.49-.91,2.34s-.72,1.66-1.19,2.55a23.53,23.53,0,0,1-2,3.19,23.81,23.81,0,0,1-1.63,2,23,23,0,0,1-1.88,1.78,25,25,0,0,1-2.34,1.74,27.28,27.28,0,0,1-3.74,2h0c-.63.29-1.29.56-2,.82a38.13,38.13,0,0,1-4.84,1.45,34.08,34.08,0,0,1-6.38.06,31.36,31.36,0,0,1-6.77-1.25,23.34,23.34,0,0,1-3.51-1.4,16.84,16.84,0,0,1-6.61-5.72,17.51,17.51,0,0,1-2.61-6.69c-1.52-8.38-1.29-16.25,1.7-22.4,3.37-7,10.28-11.74,22.16-12.6a18.39,18.39,0,0,1,12.94,3.56,19.79,19.79,0,0,1,2.78,2.63,25.63,25.63,0,0,1,4.12,6.72,39.64,39.64,0,0,1,2.72,9.89c.12.92.22,1.81.29,2.65A19.22,19.22,0,0,1,712.88,358.75Z"
       transform="translate(-446.08 -121.51)"
       id="path1633" />
    <path
       class="cls-10"
       d="M702.38,446.75c.24-1.11,25-10.87,30-25.62,0,0-20,10.39-25.21,7.88s-26.92-1.76-26.92-1.76l-7.87,2.36s-15.88.14-19.94-4.23-7.18-2.53-7.18-2.53c.38-.34,2.63,8.41,14.38,14S684,448.13,684,458.38c0,0,1.63,2.13,2-5.25,0,0,5.37,9.38,6.37,13.38,0,0,1.25-3.62,3.13-10.87a3,3,0,0,1,2,2.22.57.57,0,0,0,1,.21C699.4,456.83,700.84,453.87,702.38,446.75Z"
       transform="translate(-446.08 -121.51)"
       id="path1635" />
    <path
       class="cls-3"
       d="M668.75,254s21.41,5.67,35.33-1.5a16.67,16.67,0,0,1-14.37,10.33C678.67,263.67,672.5,257.67,668.75,254Z"
       transform="translate(-446.08 -121.51)"
       id="path1637" />
  </g>
  <g
     id="Layer_8"
     data-name="Layer 8">
    <path
       class="cls-2"
       d="M651.31,322.88s-6.48-7.46-7.14-9.25,1.71-1.41,1.71-1.41-10.21-6.72-13-15.05c0,0,.83-1.78,3.92-1.22,0,0-5.75-5.53-6.75-9.32a34.11,34.11,0,0,1,5.17-.79s-2.33-4.44-2.33-7.64c0,0,6.5,5.47,7.83,5.05s1-5.05,1-5.05,5.19,5.55,6.26,8.43c0,0,.95-3.46,2.51-3.37s4.65,7.92,7.44,11.58a16.76,16.76,0,0,1,3.19,7.67,8,8,0,0,0,3.86-1.81s2.83,11.31,2.2,15.15S651.31,322.88,651.31,322.88Z"
       transform="translate(-446.08 -121.51)"
       id="path1640" />
    <path
       class="cls-2"
       d="M707.5,313.62s1.82-12.53,5.25-15.75,10.5-11.62,12-17.25c0,0,1.46,3.56,2.29,3.53s4.83-5.41,6.83-7.66c0,0,.13,3.63,1.63,4.13,1.3.43,5-2.53,7-4.87a.2.2,0,0,1,.34.2c-.77,2.21-2.21,7-1.56,9.89,0,0,2.13-.08,4.38-2.58s0,.91,0,.91-4.52,4.59-5.32,10-8.36,11.19-9.21,12.69,3.78,2.75,6.28,2.5c0,0-14,5.25-16,8.75A11.66,11.66,0,0,1,707.5,313.62Z"
       transform="translate(-446.08 -121.51)"
       id="path1642" />
    <path
       class="cls-2"
       d="M734.25,356.38s10.07-2.31,12.18-1.54-1.18,2.41-2.3,4.79c0,0,8.5-1.37,11.88-2.87,0,0,7.88,6.79,9.75,9.58s5.23-1,6.55,3.48c0,0-.55,1.67-3.43,2.49,0,0,5.13,3.07,6.13,5.69,0,0-4.58,1.8-7.94,1.78a.22.22,0,0,0-.11.4,12.63,12.63,0,0,0,3.09,1.46s0,.06,0,.07c-1.39.18-9.44,1.24-14,1.32-4.84.09-13.94-1.53-16.51-4.67a.12.12,0,0,0-.21.08,4.4,4.4,0,0,1-1.06,2.83s-4.93-1.22-7.78-7.25S734.25,356.38,734.25,356.38Z"
       transform="translate(-446.08 -121.51)"
       id="path1644" />
    <path
       class="cls-2"
       d="M674,403.3s-2,3.83.48,5.58,1,4.73,0,6.75c0,0,2.39-1.62,3,0s-.8,8.88-.9,11.75,1.06,3.5,1.06,3.5a5.55,5.55,0,0,1,2.63-2.37c1.59-.5,1.59,8.63,1.59,8.63a12.46,12.46,0,0,1,4.3-3c2.08-.62,2.32,8.5,2.32,8.5s3.39-4.17,4-7.77,3.06.27,2.72,1.77,1.65-1.75,1.84-6,2.37-4.19,3.89-3.25S698.12,418,699.62,416s.25-8.37-1-9.12,3.58-1.4,4.66-3.58-3.67-10.8-3.67-10.8L680,391.13,671.75,397Z"
       transform="translate(-446.08 -121.51)"
       id="path1646" />
    <path
       class="cls-2"
       d="M644,357.29s-7.75-1.3-9.25.52.5,4,.5,4-8.17-.56-9.33-3.14c0,0,2.29,4.05,0,5.18s-7.3-.58-11.11,2.46-10.06,7.58-12.31,7.43a6,6,0,0,0,3.38,2.41S601.63,381.7,598,383c0,0,6.54,1.46,11.46,1,0,0-1,3.5,0,4.56,0,0,5.92-2.56,9.54-2.56,0,0-1.62,2.13,2,3.5,0,0,7.25-4.75,9-6.75s2.13.88,2.5,3.25,3.83-6.12,8.17-7.25c0,0,.79,4,2.5,2.94s4.33-6.39,8.33-7.1,0-12.75,0-12.75Z"
       transform="translate(-446.08 -121.51)"
       id="path1648" />
    <path
       class="cls-2"
       d="M713.07,317.06s6.93-3.6,7.68-8.25-2.46-11.52,6.31-15.25,8.77-4.06,9.1-7.73"
       transform="translate(-446.08 -121.51)"
       id="path1650" />
    <path
       class="cls-2"
       d="M639.67,288.24S646,290,646,293.56s-2.29,9.77,4.44,13.1,10,3.29,10.62,12.4"
       transform="translate(-446.08 -121.51)"
       id="path1652" />
    <path
       class="cls-2"
       d="M608,379.77s5,.56,6.83-1,3.67-7.14,8.5-6.44,11.67.86,13.42-.86c2-1.93,6.19-7.64,12.05-6.13"
       transform="translate(-446.08 -121.51)"
       id="path1654" />
    <path
       class="cls-2"
       d="M689.15,431.61a7.14,7.14,0,0,1-.67-8.48c2.89-4.62,2-15.25-1.95-18.37s1.06-12.37,1.06-12.37"
       transform="translate(-446.08 -121.51)"
       id="path1656" />
    <path
       class="cls-2"
       d="M731.49,365.92s4.26,2,12,2.4,11.88,1.44,14.38,4.81,10.28,1.46,10.28,1.46"
       transform="translate(-446.08 -121.51)"
       id="path1658" />
  </g>
  <g
     id="Layer_16"
     data-name="Layer 16">
    <path
       class="cls-10"
       d="M730.38,366.83s0,11.85,5.75,14.44.1-4.12,4.25-2.53c3.25,1.25.86,2.94,6.88,3.39a23,23,0,0,1,10.5,3.61s-.37-3.68,1.25-3.9,7.8,1.32,8.52-1.32,3-5.64-1.39-5.58-12.51-3.62-14.38-6.16S734.81,368.46,730.38,366.83Z"
       transform="translate(-446.08 -121.51)"
       id="path1661" />
    <path
       class="cls-10"
       d="M675.36,402.1a15.68,15.68,0,0,1,5.64,8.43,24.45,24.45,0,0,0,3,7.84s.83-.06,1-1.78a27.06,27.06,0,0,1-1,10.16s8.75-5.81,10.13-10.16-1.25-7.34,0-9.72,5.79-2.28,6.13-3.75-6.19-9.49-13.72-8.25A17.12,17.12,0,0,0,675.36,402.1Z"
       transform="translate(-446.08 -121.51)"
       id="path1663" />
    <path
       class="cls-10"
       d="M605.34,384s5.9-1.68,8-4.53,6.63-6.85,11.63-6.35,10.83-.74,12.59-2.56,7-6.7,11.21-4.65,1.14,10.13-2.93,12.83-5.17,1.38-5.21-.75-5.64,1-6.84,1.74-9,4-11.08,4S611,385.82,605.34,384Z"
       transform="translate(-446.08 -121.51)"
       id="path1665" />
  </g>
  <g
     id="Layer_15"
     data-name="Layer 15">
    <path
       class="cls-4"
       d="M716.88,315.63s6.24-1.16,9.31-5.89-.28-8,3.58-11,4.19-5.79,4.84-8.86c0,0-11.71,3.89-12.6,10.86-1.25,9.81-5.25,14.5-5.25,14.5Z"
       transform="translate(-446.08 -121.51)"
       id="path1668" />
    <path
       class="cls-4"
       d="M645,299.5s-4.37,3.38-3.5,8.38,2.42,1.25,2.67,5.75,4.71,7.63,9.71,9,7.85-2.5,6.23-7-4-6.9-9.13-8.7S644.88,301.25,645,299.5Z"
       transform="translate(-446.08 -121.51)"
       id="path1670" />
  </g>
  <g
     id="Layer_14"
     data-name="Layer 14">
    <path
       class="cls-7"
       d="M651.31,322.88s-6.48-7.46-7.14-9.25,1.71-1.41,1.71-1.41-10.21-6.72-13-15.05c0,0,.83-1.78,3.92-1.22,0,0-5.75-5.53-6.75-9.32a34.11,34.11,0,0,1,5.17-.79s-2.33-4.44-2.33-7.64c0,0,6.5,5.47,7.83,5.05s1-5.05,1-5.05,5.19,5.55,6.26,8.43c0,0,.95-3.46,2.51-3.37s4.65,7.92,7.44,11.58a16.76,16.76,0,0,1,3.19,7.67,8,8,0,0,0,3.86-1.81s2.83,11.31,2.2,15.15S651.31,322.88,651.31,322.88Z"
       transform="translate(-446.08 -121.51)"
       id="path1673" />
    <path
       class="cls-7"
       d="M707.5,313.62s1.82-12.53,5.25-15.75,10.5-11.62,12-17.25c0,0,1.46,3.56,2.29,3.53s4.83-5.41,6.83-7.66c0,0,.13,3.63,1.63,4.13,1.3.43,5-2.53,7-4.87a.2.2,0,0,1,.34.2c-.77,2.21-2.21,7-1.56,9.89,0,0,2.13-.08,4.38-2.58s0,.91,0,.91-4.52,4.59-5.32,10-8.36,11.19-9.21,12.69,3.78,2.75,6.28,2.5c0,0-14,5.25-16,8.75A11.66,11.66,0,0,1,707.5,313.62Z"
       transform="translate(-446.08 -121.51)"
       id="path1675" />
    <path
       class="cls-7"
       d="M734.25,356.38s10.07-2.31,12.18-1.54-1.18,2.41-2.3,4.79c0,0,8.5-1.37,11.88-2.87,0,0,7.88,6.79,9.75,9.58s5.23-1,6.55,3.48c0,0-.55,1.67-3.43,2.49,0,0,5.13,3.07,6.13,5.69,0,0-4.58,1.8-7.94,1.78a.22.22,0,0,0-.11.4,12.63,12.63,0,0,0,3.09,1.46s0,.06,0,.07c-1.39.18-9.44,1.24-14,1.32-4.84.09-13.94-1.53-16.51-4.67a.12.12,0,0,0-.21.08,4.4,4.4,0,0,1-1.06,2.83s-4.93-1.22-7.78-7.25S734.25,356.38,734.25,356.38Z"
       transform="translate(-446.08 -121.51)"
       id="path1677" />
    <path
       class="cls-7"
       d="M674,403.3s-2,3.83.48,5.58,1,4.73,0,6.75c0,0,2.39-1.62,3,0s-.8,8.88-.9,11.75,1.06,3.5,1.06,3.5a5.55,5.55,0,0,1,2.63-2.37c1.59-.5,1.59,8.63,1.59,8.63a12.46,12.46,0,0,1,4.3-3c2.08-.62,2.32,8.5,2.32,8.5s3.39-4.17,4-7.77,3.06.27,2.72,1.77,1.65-1.75,1.84-6,2.37-4.19,3.89-3.25S698.12,418,699.62,416s.25-8.37-1-9.12,3.58-1.4,4.66-3.58-3.67-10.8-3.67-10.8L680,391.13,671.75,397Z"
       transform="translate(-446.08 -121.51)"
       id="path1679" />
    <path
       class="cls-7"
       d="M644,357.29s-7.75-1.3-9.25.52.5,4,.5,4-8.17-.56-9.33-3.14c0,0,2.29,4.05,0,5.18s-7.3-.58-11.11,2.46-10.06,7.58-12.31,7.43a6,6,0,0,0,3.38,2.41S601.63,381.7,598,383c0,0,6.54,1.46,11.46,1,0,0-1,3.5,0,4.56,0,0,5.92-2.56,9.54-2.56,0,0-1.62,2.13,2,3.5,0,0,7.25-4.75,9-6.75s2.13.88,2.5,3.25,3.83-6.12,8.17-7.25c0,0,.79,4,2.5,2.94s4.33-6.39,8.33-7.1,0-12.75,0-12.75Z"
       transform="translate(-446.08 -121.51)"
       id="path1681" />
    <path
       class="cls-5"
       d="M713.07,317.06s6.93-3.6,7.68-8.25-2.46-11.52,6.31-15.25,8.77-4.06,9.1-7.73"
       transform="translate(-446.08 -121.51)"
       id="path1683" />
    <path
       class="cls-5"
       d="M639.67,288.24S646,290,646,293.56s-2.29,9.77,4.44,13.1,10,3.29,10.62,12.4"
       transform="translate(-446.08 -121.51)"
       id="path1685" />
    <path
       class="cls-5"
       d="M608,379.77s5,.56,6.83-1,3.67-7.14,8.5-6.44,11.67.86,13.42-.86c2-1.93,6.19-7.64,12.05-6.13"
       transform="translate(-446.08 -121.51)"
       id="path1687" />
    <path
       class="cls-5"
       d="M689.15,431.61a7.14,7.14,0,0,1-.67-8.48c2.89-4.62,2-15.25-1.95-18.37s1.06-12.37,1.06-12.37"
       transform="translate(-446.08 -121.51)"
       id="path1689" />
    <path
       class="cls-5"
       d="M731.49,365.92s4.26,2,12,2.4,11.88,1.44,14.38,4.81,10.28,1.46,10.28,1.46"
       transform="translate(-446.08 -121.51)"
       id="path1691" />
  </g>
  <g
     id="Layer_6"
     data-name="Layer 6">
    <path
       class="cls-2"
       d="M672.79,431a4.83,4.83,0,0,0,3.53-5c-.2-2.54-.82-5.86-2.61-8-3.22-3.83-2.55-22.5,13.28-22.83s17.54,15.17,16.19,20.83-3.57,10.83.37,14.33,33.11-3.33,52.11-33-33-.18-24.57-30.09,31.57-3.37,34.41-3.37c2,0,7.3-6.71,5.5-28.21,0,0-8.1-31.8-26.58-41.61a4.12,4.12,0,0,0-5.35,1.3,14.66,14.66,0,0,0-2.58,9.8c.83,7.5-7.5,19.13-20.66,11.9s-10.36-20.4-2.77-22.56a14.37,14.37,0,0,0,10.4-13.83c0-4.83-5-11.49-30-11.41s-40.92,5.91-39.62,14,8.15,11.59,11,13.92c3.31,2.67,8.35,13.38.38,19s-13.47,11-24.64,0c0,0-3-2.52-2.5-11s-13.33-7-18.17-.17c-5.4,7.62-17,25.18-15.44,49a17,17,0,0,0,3.86,10.28c2.16,2.46,5.08,4.27,8.08,1.64,6-5.25,22.83-19.42,30-5.75,5.12,9.76,4.88,16.85.8,21.87a13,13,0,0,1-11.08,4.57c-5.84-.4-15,.2-17.56,6.72C614.33,404.33,651.36,436.94,672.79,431Z"
       transform="translate(-446.08 -121.51)"
       id="path1694" />
    <path
       class="cls-2"
       d="M611.67,361.83s-15.67-9.71,10.79-29a1.57,1.57,0,0,0,.44-2c-2.1-4.26-8.25-19.44,6.27-27.7"
       transform="translate(-446.08 -121.51)"
       id="path1696" />
    <path
       class="cls-2"
       d="M621.38,394.5s3.17,20,28.06,15.68a1.09,1.09,0,0,1,1.25.77c1.13,4.08,6.4,19.72,19.69,15.8"
       transform="translate(-446.08 -121.51)"
       id="path1698" />
    <path
       class="cls-2"
       d="M705.17,424.84s14.31,9,23.21-17.7a1.12,1.12,0,0,1,1-.77c4.33-.09,25.07-1.4,23.84-17.81"
       transform="translate(-446.08 -121.51)"
       id="path1700" />
    <path
       class="cls-2"
       d="M741.88,297.88s16.06-.44,13.27,26.75a.27.27,0,0,0,.1.25c1.55,1.13,17.34,13.29,11.69,34"
       transform="translate(-446.08 -121.51)"
       id="path1702" />
    <path
       class="cls-2"
       d="M656,282.08s11.63-14.5,30.73.25a2.2,2.2,0,0,0,2.7,0c5.07-4,23.15-16.52,32-1.57"
       transform="translate(-446.08 -121.51)"
       id="path1704" />
  </g>
  <g
     id="Layer_10"
     data-name="Layer 10">
    <path
       class="cls-11"
       d="M672.79,431a4.83,4.83,0,0,0,3.53-5c-.2-2.54-.82-5.86-2.61-8-3.22-3.83-2.55-22.5,13.28-22.83s17.54,15.17,16.19,20.83-3.57,10.83.37,14.33,33.11-3.33,52.11-33-33-.18-24.57-30.09,31.57-3.37,34.41-3.37c2,0,7.3-6.71,5.5-28.21,0,0-8.1-31.8-26.58-41.61a4.12,4.12,0,0,0-5.35,1.3,14.66,14.66,0,0,0-2.58,9.8c.83,7.5-7.5,19.13-20.66,11.9s-10.36-20.4-2.77-22.56a14.37,14.37,0,0,0,10.4-13.83c0-4.83-5-11.49-30-11.41s-40.92,5.91-39.62,14,8.15,11.59,11,13.92c3.31,2.67,8.35,13.38.38,19s-13.47,11-24.64,0c0,0-3-2.52-2.5-11s-13.33-7-18.17-.17c-5.4,7.62-17,25.18-15.44,49a17,17,0,0,0,3.86,10.28c2.16,2.46,5.08,4.27,8.08,1.64,6-5.25,22.83-19.42,30-5.75,5.12,9.76,4.88,16.85.8,21.87a13,13,0,0,1-11.08,4.57c-5.84-.4-15,.2-17.56,6.72C614.33,404.33,651.36,436.94,672.79,431Z"
       transform="translate(-446.08 -121.51)"
       id="path1707" />
    <path
       class="cls-11"
       d="M611.67,361.83s-15.67-9.71,10.79-29a1.57,1.57,0,0,0,.44-2c-2.1-4.26-8.25-19.44,6.27-27.7"
       transform="translate(-446.08 -121.51)"
       id="path1709" />
    <path
       class="cls-11"
       d="M621.38,394.5s3.17,20,28.06,15.68a1.09,1.09,0,0,1,1.25.77c1.13,4.08,6.4,19.72,19.69,15.8"
       transform="translate(-446.08 -121.51)"
       id="path1711" />
    <path
       class="cls-11"
       d="M705.17,424.84s14.31,9,23.21-17.7a1.12,1.12,0,0,1,1-.77c4.33-.09,25.07-1.4,23.84-17.81"
       transform="translate(-446.08 -121.51)"
       id="path1713" />
    <path
       class="cls-11"
       d="M741.88,297.88s16.06-.44,13.27,26.75a.27.27,0,0,0,.1.25c1.55,1.13,17.34,13.29,11.69,34"
       transform="translate(-446.08 -121.51)"
       id="path1715" />
    <path
       class="cls-11"
       d="M656,282.08s11.63-14.5,30.73.25a2.2,2.2,0,0,0,2.7,0c5.07-4,23.15-16.52,32-1.57"
       transform="translate(-446.08 -121.51)"
       id="path1717" />
  </g>
  <g
     id="Layer_11"
     data-name="Layer 11">
    <path
       class="cls-4"
       d="M605.34,342.5s8.16-10,9.29-13.33,2,1.47,3.49,2,4.78-.33,4.78-.33-3.5-6.1-3.07-11.26.55-12.36,10.17-16.92c0,0,1.16-5.1-.83-4C622.79,302.24,605.17,316.75,605.34,342.5Z"
       transform="translate(-446.08 -121.51)"
       id="path1720" />
    <path
       class="cls-4"
       d="M663.58,275.68s20.33-.87,24.81,8.47c0,0,5.9-11.52,27.44-10.4,0,0-13.73-6.35-27.35-4.37S665.79,272,663.58,275.68Z"
       transform="translate(-446.08 -121.51)"
       id="path1722" />
    <path
       class="cls-4"
       d="M738.18,298.95a4.6,4.6,0,0,1,4.94-1.66c3.25.84,8.63,13.22,11.89,28.47.17.77,7,2.52,9.11,8.23a5.54,5.54,0,0,0,4-6.11C767.5,323,744.13,279,738.18,298.95Z"
       transform="translate(-446.08 -121.51)"
       id="path1724" />
  </g>
  <g
     id="inner_flower"
     data-name="inner flower">
    <path
       class="cls-10"
       d="M630,303.17c8.81-4-.17,17.5-1.5,23-.83,3.45.16,8.3,1,11.45a3.8,3.8,0,0,1-1.5,4.2c-4.78,3.12-8.85,12.19-10.85,18.32-2.33,7.17-7,.83-7.71.92,0,0-10.93-10.21,13.56-29.08C623,332,613.5,310.58,630,303.17Z"
       transform="translate(-446.08 -121.51)"
       id="path1727" />
    <path
       class="cls-10"
       d="M670,296.5s-9.44,3.38-15.84-13.25c0,0,6.91-8.18,14.26-7.46s9.68.7,20.07,7c0,0,9.64-7.87,14.7-8.06s11.44-4.31,19.44,6.44c0,0,.82,10.69-13.9,15.66,0,0-3.22-5.66-9.1-6.16s-20.72-.87-23.29.5S673.27,296.3,670,296.5Z"
       transform="translate(-446.08 -121.51)"
       id="path1729" />
    <path
       class="cls-10"
       d="M741.88,298.69s14,11.81,6.13,34.69c0,0,3.36,4.78,5.3,4.64s3.95,17.77,9.07,23.06c0,0,5.68-1.93,5.64-8.08s1.52-15.38-12.87-28.38C755.14,324.62,758.63,298.5,741.88,298.69Z"
       transform="translate(-446.08 -121.51)"
       id="path1731" />
    <path
       class="cls-10"
       d="M729.23,406.39s4,14.54,6.85,12.35,12.81-10,12.92-12.35.17-5.46-3.49-3.83S736,406.53,729.23,406.39Z"
       transform="translate(-446.08 -121.51)"
       id="path1733" />
    <path
       class="cls-10"
       d="M626.63,405.86c.08-.73,11,7.14,20.25,5.08,0,0,2.92,5.06,2.5,10.06s0,6.38,0,6.38S625.63,415.09,626.63,405.86Z"
       transform="translate(-446.08 -121.51)"
       id="path1735" />
    <path
       class="cls-5"
       d="M672.79,431a4.83,4.83,0,0,0,3.53-5c-.2-2.54-.82-5.86-2.61-8-3.22-3.83-2.55-22.5,13.28-22.83s17.54,15.17,16.19,20.83-3.57,10.83.37,14.33,33.11-3.33,52.11-33-33-.18-24.57-30.09,31.57-3.37,34.41-3.37c2,0,7.3-6.71,5.5-28.21,0,0-8.1-31.8-26.58-41.61a4.12,4.12,0,0,0-5.35,1.3,14.66,14.66,0,0,0-2.58,9.8c.83,7.5-7.5,19.13-20.66,11.9s-10.36-20.4-2.77-22.56a14.37,14.37,0,0,0,10.4-13.83c0-4.83-5-11.49-30-11.41s-40.92,5.91-39.62,14,8.15,11.59,11,13.92c3.31,2.67,8.35,13.38.38,19s-13.47,11-24.64,0c0,0-3-2.52-2.5-11s-13.33-7-18.17-.17c-5.4,7.62-17,25.18-15.44,49a17,17,0,0,0,3.86,10.28c2.16,2.46,5.08,4.27,8.08,1.64,6-5.25,22.83-19.42,30-5.75,5.12,9.76,4.88,16.85.8,21.87a13,13,0,0,1-11.08,4.57c-5.84-.4-15,.2-17.56,6.72C614.33,404.33,651.36,436.94,672.79,431Z"
       transform="translate(-446.08 -121.51)"
       id="path1737" />
    <path
       class="cls-5"
       d="M611.67,361.83s-15.67-9.71,10.79-29a1.57,1.57,0,0,0,.44-2c-2.1-4.26-8.25-19.44,6.27-27.7"
       transform="translate(-446.08 -121.51)"
       id="path1739" />
    <path
       class="cls-5"
       d="M621.38,394.5s3.17,20,28.06,15.68a1.09,1.09,0,0,1,1.25.77c1.13,4.08,6.4,19.72,19.69,15.8"
       transform="translate(-446.08 -121.51)"
       id="path1741" />
    <path
       class="cls-5"
       d="M705.17,424.84s14.31,9,23.21-17.7a1.12,1.12,0,0,1,1-.77c4.33-.09,25.07-1.4,23.84-17.81"
       transform="translate(-446.08 -121.51)"
       id="path1743" />
    <path
       class="cls-5"
       d="M741.88,297.88s16.06-.44,13.27,26.75a.27.27,0,0,0,.1.25c1.55,1.13,17.34,13.29,11.69,34"
       transform="translate(-446.08 -121.51)"
       id="path1745" />
    <path
       class="cls-5"
       d="M656,282.08s11.63-14.5,30.73.25a2.2,2.2,0,0,0,2.7,0c5.07-4,23.15-16.52,32-1.57"
       transform="translate(-446.08 -121.51)"
       id="path1747" />
    <g
       id="Layer_17"
       data-name="Layer 17">
      <path
         class="cls-10"
         d="M677.23,363.64s2.36,10.91,8.94,10.95,15.58-5.67,13.7-13.5C699.88,361.08,690.18,372,677.23,363.64Z"
         transform="translate(-446.08 -121.51)"
         id="path1749" />
      <path
         class="cls-10"
         d="M673.72,349.43s.66-7.38,5.43-9.5,13.73-5.3,20.48,3.07c0,0-8.33-.88-6.6,2.81s-.18,12.05-6.85,9.87c0,0,4.43-2.22,4-5.45-.39-3-6.35-7-9.2-1.13a4.13,4.13,0,0,1-6.44,1.22A7.08,7.08,0,0,1,673.72,349.43Z"
         transform="translate(-446.08 -121.51)"
         id="path1751" />
    </g>
    <g
       id="Layer_18"
       data-name="Layer 18">
      <path
         class="cls-4"
         d="M664.76,343s6.36-7.25,11.61-8.06,17.24-1.12,23.25,4,5.37.3,9.86,4h0s-7-17.63-20.72-15.81-20.48,7.69-24,15.81"
         transform="translate(-446.08 -121.51)"
         id="path1754" />
    </g>
    <path
       class="cls-5"
       d="M710.88,358.75c-.27.7-.56,1.49-.91,2.34s-.72,1.66-1.19,2.55a23.53,23.53,0,0,1-2,3.19,23.81,23.81,0,0,1-1.63,2,23,23,0,0,1-1.88,1.78,25,25,0,0,1-2.34,1.74,27.28,27.28,0,0,1-3.74,2h0c-.63.29-1.29.56-2,.82a38.13,38.13,0,0,1-4.84,1.45,34.08,34.08,0,0,1-6.38.06,31.36,31.36,0,0,1-6.77-1.25,23.34,23.34,0,0,1-3.51-1.4,16.84,16.84,0,0,1-6.61-5.72,17.51,17.51,0,0,1-2.61-6.69c-1.52-8.38-1.29-16.25,1.7-22.4,3.37-7,10.28-11.74,22.16-12.6a18.39,18.39,0,0,1,12.94,3.56,19.79,19.79,0,0,1,2.78,2.63,25.63,25.63,0,0,1,4.12,6.72,39.64,39.64,0,0,1,2.72,9.89c.12.92.22,1.81.29,2.65A19.22,19.22,0,0,1,710.88,358.75Z"
       transform="translate(-446.08 -121.51)"
       id="path1757" />
    <path
       class="cls-8"
       d="M673.75,356.38s-1.12-17.25,9.5-18.5,15.38,4.25,15.38,4.25"
       transform="translate(-446.08 -121.51)"
       id="path1759" />
    <path
       class="cls-8"
       d="M676.38,362.17s7.63,6.83,14.63,4c7.35-3,12.5-5.75,10.5-18.37"
       transform="translate(-446.08 -121.51)"
       id="path1761" />
    <path
       class="cls-8"
       d="M668.24,369.82s-3.11,6.56-5.74,8.93-3.87,3.88-4.5,6.63-4.12,4.63-4.12,4.63"
       transform="translate(-446.08 -121.51)"
       id="path1763" />
    <path
       class="cls-8"
       d="M671.21,373.13a18.7,18.7,0,0,0-4.09,5.63c-1.12,2.88-.75,4-1.87,4.5s-3.76,2.25-4.19,5.13-4.43,7.13-4.43,7.13"
       transform="translate(-446.08 -121.51)"
       id="path1765" />
    <path
       class="cls-8"
       d="M673.72,374s-4.36,9.22-5.48,11.35-3.11,3.63-5.49,10.13"
       transform="translate(-446.08 -121.51)"
       id="path1767" />
    <path
       class="cls-8"
       d="M677.23,375.43a18.26,18.26,0,0,0-2.1,6.57,6.73,6.73,0,0,1-3.37,5.13"
       transform="translate(-446.08 -121.51)"
       id="path1769" />
    <path
       class="cls-8"
       d="M680,376.8s1,3.7-.75,5.58l-1.75,1.88"
       transform="translate(-446.08 -121.51)"
       id="path1771" />
    <path
       class="cls-8"
       d="M684,376.68s0,4.45,0,7.32"
       transform="translate(-446.08 -121.51)"
       id="path1773" />
    <path
       class="cls-8"
       d="M687.45,376.8s.56,3.45.74,6"
       transform="translate(-446.08 -121.51)"
       id="path1775" />
    <path
       class="cls-8"
       d="M691.5,376.8a50.25,50.25,0,0,1,2,6"
       transform="translate(-446.08 -121.51)"
       id="path1777" />
    <path
       class="cls-8"
       d="M695.22,375.17a37.67,37.67,0,0,1,3.41,9.14"
       transform="translate(-446.08 -121.51)"
       id="path1779" />
    <path
       class="cls-8"
       d="M697.21,374.35a12.86,12.86,0,0,1,2.41,3.65"
       transform="translate(-446.08 -121.51)"
       id="path1781" />
    <path
       class="cls-8"
       d="M697.2,374.35l-.28-.32"
       transform="translate(-446.08 -121.51)"
       id="path1783" />
    <path
       class="cls-8"
       d="M700.95,372.31s9.93,16.82,14.3,23.19"
       transform="translate(-446.08 -121.51)"
       id="path1785" />
    <path
       class="cls-8"
       d="M703.29,370.57S714.63,383.38,722,395.5"
       transform="translate(-446.08 -121.51)"
       id="path1787" />
    <path
       class="cls-8"
       d="M705.17,368.79s8.21,7.21,11,10"
       transform="translate(-446.08 -121.51)"
       id="path1789" />
    <path
       class="cls-8"
       d="M718.38,380.34s1.38,1.48,2.38,2.69"
       transform="translate(-446.08 -121.51)"
       id="path1791" />
    <path
       class="cls-8"
       d="M724,387.13l2.88,2.88"
       transform="translate(-446.08 -121.51)"
       id="path1793" />
    <path
       class="cls-8"
       d="M706.8,366.83s9.12,5.44,12.12,8.59"
       transform="translate(-446.08 -121.51)"
       id="path1795" />
    <path
       class="cls-8"
       d="M708.78,363.64a18.43,18.43,0,0,1,3.3,2.7"
       transform="translate(-446.08 -121.51)"
       id="path1797" />
    <path
       class="cls-8"
       d="M714.83,367.39a39.09,39.09,0,0,1,4.08,3.74"
       transform="translate(-446.08 -121.51)"
       id="path1799" />
    <path
       class="cls-8"
       d="M710,361.08a14,14,0,0,0,2.68,1.5"
       transform="translate(-446.08 -121.51)"
       id="path1801" />
    <path
       class="cls-8"
       d="M714,362.92a17.44,17.44,0,0,0,6.75.42"
       transform="translate(-446.08 -121.51)"
       id="path1803" />
    <path
       class="cls-8"
       d="M711.3,358.75a15,15,0,0,1,3.53.12"
       transform="translate(-446.08 -121.51)"
       id="path1805" />
    <path
       class="cls-8"
       d="M712.08,355a19.9,19.9,0,0,0,7.48.5"
       transform="translate(-446.08 -121.51)"
       id="path1807" />
    <path
       class="cls-8"
       d="M710.65,352.13A109.4,109.4,0,0,0,722,350.57"
       transform="translate(-446.08 -121.51)"
       id="path1809" />
    <path
       class="cls-8"
       d="M710.91,349.42s4,.17,5.41-.75"
       transform="translate(-446.08 -121.51)"
       id="path1811" />
    <path
       class="cls-8"
       d="M719.56,348.67a7.68,7.68,0,0,1,6.62-1.63"
       transform="translate(-446.08 -121.51)"
       id="path1813" />
    <path
       class="cls-8"
       d="M711.3,347a10.57,10.57,0,0,0,5-1.22"
       transform="translate(-446.08 -121.51)"
       id="path1815" />
    <path
       class="cls-8"
       d="M722,344.25s10.38-5.62,18.19-6.87"
       transform="translate(-446.08 -121.51)"
       id="path1817" />
    <path
       class="cls-8"
       d="M710,344s7.29-3.69,9.85-3.19,4.12-2.81,7.62-3.44,5.62-2.5,8-2.75,2.38-3.37,3.94-3.37,3.44-.12,4.75,0"
       transform="translate(-446.08 -121.51)"
       id="path1819" />
    <path
       class="cls-8"
       d="M709.56,342s3.35-2.87,5.27-3.56,5.79-2,7.17-3.12a19.88,19.88,0,0,1,6.5-2.81c2.06-.5,5.38-3.87,8.88-4.62"
       transform="translate(-446.08 -121.51)"
       id="path1821" />
    <path
       class="cls-8"
       d="M708.2,339.53s5.42-5.34,7.24-5.72,5.37-4.25,8-5.37"
       transform="translate(-446.08 -121.51)"
       id="path1823" />
    <path
       class="cls-8"
       d="M707.13,336.81s1.54-4.49,3.52-5.62,2.92-3.07,4.85-4"
       transform="translate(-446.08 -121.51)"
       id="path1825" />
    <path
       class="cls-8"
       d="M704.08,332.81a75.89,75.89,0,0,1,5.88-6.25"
       transform="translate(-446.08 -121.51)"
       id="path1827" />
    <path
       class="cls-8"
       d="M701.3,330.18s3.38-1.62,3.38-2.31a6.36,6.36,0,0,1,2.81-3.37"
       transform="translate(-446.08 -121.51)"
       id="path1829" />
    <path
       class="cls-8"
       d="M699.88,327.88a18.61,18.61,0,0,0,2.06-2.62c.75-1.25.63-2.69,1.25-3.56"
       transform="translate(-446.08 -121.51)"
       id="path1831" />
    <path
       class="cls-8"
       d="M697.31,327.19s.38-4.37,1.31-6.25,1.24-2.81,3.31-3.87"
       transform="translate(-446.08 -121.51)"
       id="path1833" />
    <path
       class="cls-8"
       d="M693.5,325.75s.31-5.19,1.31-7.56.81-4.69,3.25-7.69"
       transform="translate(-446.08 -121.51)"
       id="path1835" />
    <path
       class="cls-8"
       d="M692,325.75s1.19-17.69,1-27.06"
       transform="translate(-446.08 -121.51)"
       id="path1837" />
    <path
       class="cls-8"
       d="M687.75,326.19s.77-4.74,0-7.06c-.69-2.06,1.1-3.19,1-4.62s-1.55-1.94-1.3-4a46.93,46.93,0,0,0,.43-7c0-3.61-.06-8.92.19-10"
       transform="translate(-446.08 -121.51)"
       id="path1839" />
    <path
       class="cls-8"
       d="M674.75,327.19a4.39,4.39,0,0,1-1-2.69"
       transform="translate(-446.08 -121.51)"
       id="path1841" />
    <path
       class="cls-8"
       d="M680.25,327.19s-.37-2.87-1.31-3.44-2.94-3.5-2.56-5.19"
       transform="translate(-446.08 -121.51)"
       id="path1843" />
    <path
       class="cls-8"
       d="M683.5,326.19s-2.5-4.62-2.44-7.12"
       transform="translate(-446.08 -121.51)"
       id="path1845" />
    <path
       class="cls-8"
       d="M680,314.13s-1-3.25-1.71-5.31"
       transform="translate(-446.08 -121.51)"
       id="path1847" />
    <path
       class="cls-8"
       d="M685.25,326.56s-2-7.19-1.75-10.56,1.94-6.31.5-7.62-1.72-7.69-1.72-7.69"
       transform="translate(-446.08 -121.51)"
       id="path1849" />
    <path
       class="cls-8"
       d="M666.2,339.22a44.35,44.35,0,0,1-4.51-2.41"
       transform="translate(-446.08 -121.51)"
       id="path1851" />
    <path
       class="cls-8"
       d="M661.06,339.81s-.19-.87-3.19-2.22"
       transform="translate(-446.08 -121.51)"
       id="path1853" />
    <path
       class="cls-8"
       d="M655,334.5a19.31,19.31,0,0,1-4.56-3.31"
       transform="translate(-446.08 -121.51)"
       id="path1855" />
    <path
       class="cls-8"
       d="M663.94,344.92A6.41,6.41,0,0,0,660,342c-2.75-.67-5.83-.46-7.67-2.19s-6.25.51-8.5-1.11-8.42-.58-11.92-3.77"
       transform="translate(-446.08 -121.51)"
       id="path1857" />
    <path
       class="cls-8"
       d="M638.17,331.19s3.17,2.22,5,2.39"
       transform="translate(-446.08 -121.51)"
       id="path1859" />
    <path
       class="cls-8"
       d="M647.93,344a31.57,31.57,0,0,1-11.18-2"
       transform="translate(-446.08 -121.51)"
       id="path1861" />
    <path
       class="cls-8"
       d="M663.58,347a43.43,43.43,0,0,0-7.66-1.62"
       transform="translate(-446.08 -121.51)"
       id="path1863" />
    <path
       class="cls-8"
       d="M662.75,350.57s-4.17-1.26-7.33,0"
       transform="translate(-446.08 -121.51)"
       id="path1865" />
    <path
       class="cls-8"
       d="M650.44,350a5.92,5.92,0,0,1-3.27,0"
       transform="translate(-446.08 -121.51)"
       id="path1867" />
    <path
       class="cls-8"
       d="M653.42,354a33.23,33.23,0,0,0,4.17,0"
       transform="translate(-446.08 -121.51)"
       id="path1869" />
    <path
       class="cls-8"
       d="M663.58,356.75s-4.74.56-7,2.12"
       transform="translate(-446.08 -121.51)"
       id="path1871" />
    <path
       class="cls-8"
       d="M663.94,361.83s-3.17,2.67-4.47,4.08"
       transform="translate(-446.08 -121.51)"
       id="path1873" />
    <path
       class="cls-8"
       d="M665.3,364.67a14.46,14.46,0,0,1-6.22,5.14"
       transform="translate(-446.08 -121.51)"
       id="path1875" />
    <path
       class="cls-8"
       d="M667.11,368.31s-2.11,2.28-3.94,2.81-3.42,3.45-3.42,3.45"
       transform="translate(-446.08 -121.51)"
       id="path1877" />
  </g>
  <path
     id="shine"
     d="m 1.6299994,1.49 v 206.37688 c 0,229.66454 239.9200006,319.6031 239.9200006,319.6031 0,0 239.92,-89.93856 239.92,-319.6031 V 1.49 Z"
     style="fill:url(#rg);stroke:#000000;stroke-width:2.41218" />
</svg>
