<?xml version="1.0" encoding="UTF-8" standalone="no"?>
<svg
   width="600"
   height="600"
   version="1.1"
   id="svg72"
   sodipodi:docname="House Nymeros Martell.svg"
   inkscape:version="1.2.1 (9c6d41e410, 2022-07-14)"
   xmlns:inkscape="http://www.inkscape.org/namespaces/inkscape"
   xmlns:sodipodi="http://sodipodi.sourceforge.net/DTD/sodipodi-0.dtd"
   xmlns:xlink="http://www.w3.org/1999/xlink"
   xmlns="http://www.w3.org/2000/svg"
   xmlns:svg="http://www.w3.org/2000/svg"
   xmlns:rdf="http://www.w3.org/1999/02/22-rdf-syntax-ns#"
   xmlns:cc="http://creativecommons.org/ns#"
   xmlns:dc="http://purl.org/dc/elements/1.1/">
  <title
     id="title3717">House Martell</title>
  <sodipodi:namedview
     id="namedview74"
     pagecolor="#ffffff"
     bordercolor="#000000"
     borderopacity="0.25"
     inkscape:showpageshadow="2"
     inkscape:pageopacity="0.0"
     inkscape:pagecheckerboard="0"
     inkscape:deskcolor="#d1d1d1"
     showgrid="false"
     inkscape:zoom="0.98641396"
     inkscape:cx="184.50672"
     inkscape:cy="284.87026"
     inkscape:window-width="1920"
     inkscape:window-height="1017"
     inkscape:window-x="-8"
     inkscape:window-y="-8"
     inkscape:window-maximized="1"
     inkscape:current-layer="svg72" />
  <defs
     id="defs54">
    <radialGradient
       id="rg"
       gradientUnits="userSpaceOnUse"
       cx="220"
       cy="220"
       r="405">
      <stop
         style="stop-color:#fff;stop-opacity:.3"
         offset="0"
         id="stop2" />
      <stop
         style="stop-color:#fff;stop-opacity:.2"
         offset=".2"
         id="stop4" />
      <stop
         style="stop-color:#666;stop-opacity:.1"
         offset=".6"
         id="stop6" />
      <stop
         style="stop-color:#000;stop-opacity:.13"
         offset="1"
         id="stop8" />
    </radialGradient>
    <circle
       id="shield"
       cx="300"
       cy="300"
       r="298" />
    <g
       id="sun"
       transform="translate(300,300)scale(0.9)translate(-300,-300)"
       style="stroke-width:1;stroke-linecap:round;stroke-linejoin:round;">
      <g
         id="wavy-rays"
         transform="rotate(22.5,300,300)">
        <g
           id="wavy-ray">
          <path
             style="fill:#cc0000;stroke:none;"
             d="m 295.71673,70.37585 c -2.38477,5.976283 -6.7925,17.205125 -9.21187,29.4824 -2.48155,13.19766 -2.69547,27.57144 -1.27552,43.82304 v 2e-5 c 0.9165,13.14114 2.36127,26.69187 0.2801,36.94871 -1.5238,9.64131 -6.37028,19.49065 -11.65569,30.465 -6.48769,12.08882 -13.44166,26.83452 -16.40516,47.21637 -1.10448,16.24642 1.28913,30.23675 5.17828,41.68861 h 37.36937 l 18.02493,-120.0503 -18.02117,-59.97485 -2.71283,-29.987425 2.71283,-29.987425 c 0,0 -1.59954,3.650359 -4.28327,10.37585 z"
             id="path12" />
          <path
             style="fill:#aa0000;stroke:none;"
             d="m 337.36561,300 c -1.98638,-5.85559 -4.36398,-11.09158 -6.86602,-15.53917 -1e-5,-4e-5 -0.0316,-0.0736 -0.0317,-0.0736 h 5e-5 v 0 c -3.60485,-8.37348 -8.77008,-17.39754 -8.83053,-22.69862 -1.56615,-6.81556 1.57439,-17.21075 4.50884,-32.78363 3.53396,-14.92204 5.36752,-31.99714 3.05631,-49.535 -2.90283,-17.45097 -9.21149,-31.54555 -14.4319,-43.05129 l -1e-5,-1e-5 c -6.10281,-13.8338 -10.29735,-24.63776 -12.38351,-36.17693 -1.99032,-10.56752 -2.15623,-22.657551 -2.24509,-28.944025 -0.10163,-7.188564 -0.14205,-11.197725 -0.14205,-11.197725 -2.575,13.3333 -5.316,26.6667 -5.554,40 -0.238,13.333 2.231,26.667 5.554,40 3.323,13.333 6.9715,26.66699 7.356,40 0.3845,13.33299 -2.815,26.667 -7.356,40 -4.541,13.333 -9.7555,26.66703 -10.457,40 -0.7015,13.33303 3.664,26.667 10.457,40"
             id="path14" />
        </g>
        <use
           xlink:href="#wavy-ray"
           transform="rotate(45,300,300)"
           id="use17" />
        <use
           xlink:href="#wavy-ray"
           transform="rotate(90,300,300)"
           id="use19" />
        <use
           xlink:href="#wavy-ray"
           transform="rotate(135,300,300)"
           id="use21" />
        <use
           xlink:href="#wavy-ray"
           transform="rotate(180,300,300)"
           id="use23" />
        <use
           xlink:href="#wavy-ray"
           transform="rotate(225,300,300)"
           id="use25" />
        <use
           xlink:href="#wavy-ray"
           transform="rotate(270,300,300)"
           id="use27" />
        <use
           xlink:href="#wavy-ray"
           transform="rotate(315,300,300)"
           id="use29" />
      </g>
      <g
         id="straight-rays">
        <g
           id="straight-ray">
          <path
             style="fill:#cc0000;stroke:none;"
             d="m 300,60 -30.61467,166.08964 30.61467,73.91036 15,-73.91036 z"
             id="path32" />
          <path
             style="fill:#aa0000;stroke:none;"
             d="m 300,300 v -240 l 30.61467,166.08964 z"
             id="path34" />
        </g>
        <use
           xlink:href="#straight-ray"
           transform="rotate(45,300,300)"
           id="use37" />
        <use
           xlink:href="#straight-ray"
           transform="rotate(90,300,300)"
           id="use39" />
        <use
           xlink:href="#straight-ray"
           transform="rotate(135,300,300)"
           id="use41" />
        <use
           xlink:href="#straight-ray"
           transform="rotate(180,300,300)"
           id="use43" />
        <use
           xlink:href="#straight-ray"
           transform="rotate(225,300,300)"
           id="use45" />
        <use
           xlink:href="#straight-ray"
           transform="rotate(270,300,300)"
           id="use47" />
        <use
           xlink:href="#straight-ray"
           transform="rotate(315,300,300)"
           id="use49" />
      </g>
      <circle
         id="disk"
         style="fill:#cc0000;stroke:#aa0000;"
         cx="300"
         cy="300"
         r="80" />
    </g>
    <radialGradient
       id="rg-3"
       gradientUnits="userSpaceOnUse"
       cx="220"
       cy="220"
       r="405">
      <stop
         style="stop-color:#fff;stop-opacity:.3"
         offset="0"
         id="stop2-8" />
      <stop
         style="stop-color:#fff;stop-opacity:.2"
         offset=".2"
         id="stop4-9" />
      <stop
         style="stop-color:#666;stop-opacity:.1"
         offset=".6"
         id="stop6-9" />
      <stop
         style="stop-color:#000;stop-opacity:.13"
         offset="1"
         id="stop8-2" />
    </radialGradient>
    <radialGradient
       id="radialGradient878"
       gradientUnits="userSpaceOnUse"
       cx="220"
       cy="220"
       r="405">
      <stop
         style="stop-color:#fff;stop-opacity:.3"
         offset="0"
         id="stop870" />
      <stop
         style="stop-color:#fff;stop-opacity:.2"
         offset=".2"
         id="stop872" />
      <stop
         style="stop-color:#666;stop-opacity:.1"
         offset=".6"
         id="stop874" />
      <stop
         style="stop-color:#000;stop-opacity:.13"
         offset="1"
         id="stop876" />
    </radialGradient>
  </defs>
  <use
     id="circle"
     xlink:href="#shield"
     style="fill:#f0863a;stroke:#000;stroke-width:3;opacity:1;fill-opacity:1" />
  <g
     id="Layer_12"
     data-name="Layer 12"
     transform="matrix(1.1357273,0,0,1.1145008,24.858704,24.31151)">
    <path
       class="cls-2"
       d="m 695.58,275 v -37 c 0,0 17,5 12,-14 -5,-19 -20.08,-72.5 -20.08,-72.5 0,0 -14,53 -19,72 -5,19 12,15 12,15 v 31"
       transform="translate(-445.5,-121.26)"
       id="path992"
       style="fill:#f0d152;stroke:#000000;stroke-miterlimit:10" />
    <path
       class="cls-3"
       d="m 695.58,275 v -37 c 0,0 17,5 12,-14 -5,-19 -20.08,-72.5 -20.08,-72.5 0,0 -14,53 -19,72 -5,19 12,15 12,15 v 31"
       transform="translate(-445.5,-121.26)"
       id="path994"
       style="fill:none;stroke:#000000;stroke-width:4px;stroke-miterlimit:10" />
  </g>
  <g
     id="Layer_7"
     data-name="Layer 7"
     transform="matrix(1.1357273,0,0,1.1145008,24.858704,24.31151)">
    <path
       class="cls-4"
       d="m 783.08,400.58 c 1.54,1.16 7.5,5.81 4.07,20.62 l -0.48,-0.11 c 0.5,-2.32 0.54,-5.41 -2.53,-6.17 -7.6,-1.86 -16.18,9.87 -22.36,1.94 -8,-10.23 -15.2,-7.22 -15.47,-7 0,0 10,0.76 9.49,13 -0.4,9.37 6.37,6 9.52,10.95 1.09,1.71 7.92,14.05 -7.78,23.35 0.47,-0.48 5.58,-5.7 1.54,-8.61 -6.34,-4.58 -16.85,2 -19.61,-7.62 -3.56,-12.47 -12.73,-11.47 -13.05,-11.38 0,0 9.23,1.93 4.17,13.05 -3.88,8.54 3.73,9 4.72,13.71 1.27,6.13 -0.73,11.16 -11.71,21.4 0,0 2.78,-5.75 0,-10.16 -4.16,-6.62 -16,-4.32 -14.92,-14.32 1.37,-12.89 -5.63,-14.81 -6,-14.85 0,0 7.72,9.43 -1.14,17.84 -6.8,6.45 -3.41,7.64 -3.25,12.5 0.07,2 -2.26,7.84 -17.5,15.61 1.29,-0.71 6.75,-4 5.94,-8.52 -1.39,-7.7 -15.6,-10.76 -10.87,-19.63 a 20,20 0 0 0 0.45,-17.92 6.6,6.6 0 0 0 -0.43,-1.21 c -0.54,-0.61 -0.17,-0.11 0.43,1.21 0.61,2.38 0.9,7.83 -6.93,12.71 -6.38,4 -6.83,9.1 -8.5,13.67 -0.7,1.91 -6.11,12.35 -23.29,3.66 0,0 5.68,1.78 6.75,-3.31 1.6,-7.66 -3.62,-13 1.37,-21 6.83,-11 6.42,-15 6.21,-15.29 0,0 -1.3,8.06 -13.29,10.34 -8.26,1.57 -7.23,6.83 -11.6,8.95 -2.27,1.1 -9.35,8.13 -23.84,-4.39 0.57,0.37 7.23,4.62 10,0.48 4.35,-6.5 -3.74,-18.57 5.82,-21.66 12.34,-4 11.64,-12.53 11.53,-12.85 0,0 -2.22,8.66 -13.51,4 -8.67,-3.58 -9.26,2.32 -14.51,3.26 -2.58,0.46 -7.34,1.92 -20.66,-8.89 1,0.78 6.38,4.66 10.26,2 6.48,-4.4 3.5,-18.62 13.52,-17.91 12.94,0.92 15.59,-6.76 15.61,-7.09 0,0 -4.73,8.37 -14.41,-0.88 -5.64,-5.38 -9.23,-2.66 -14.32,-2.44 -5.3,0.23 -14.68,-3 -13.37,-18.75 0,0 0.92,5.42 6.12,5.5 8.25,0.13 10.25,-14.55 19.28,-10.14 11.65,5.7 17.06,1.46 17.2,1.16 0,0 -9,2 -14.79,-8.77 -3.72,-6.93 -7.94,-0.56 -13.32,-7.11 -1.29,-1.57 -9.48,-8.13 -1.69,-23.68 -0.1,0.4 -2,7.56 3,8.42 7.71,1.33 12.53,-7.18 18.79,-2.46 11.63,8.77 16.78,11.24 17,11 0,0 -4.52,-3.05 -8.56,-14.5 -3.12,-8.84 -5.31,-8.15 -9,-11.28 -1.55,-1.31 -8.44,-10.83 3.7,-23.06 -0.37,0.51 -4.51,6.47 -0.27,9.1 6.65,4.12 18.43,-4.39 21.86,5.06 4.42,12.19 11.26,12.9 11.57,12.79 0,0 -6,-2.64 -1.76,-14.08 3.28,-8.79 -3.39,-9.06 -5.67,-13.35 -0.95,-1.8 -4.34,-9 10.16,-22.14 -0.4,0.42 -5.09,5.62 0,10.09 5.9,5.14 16.95,3.22 16.59,13.27 -0.47,13 5.61,16.18 5.94,16.19 0,0 -5.53,-5.08 2.71,-14.09 6.34,-6.92 0.25,-9.67 -0.25,-14.5 -0.21,-2 1.09,-8.73 16,-17.62 -0.31,0.27 -6.06,5.41 -3.8,9.95 3.69,7.42 16.3,9.65 12.21,18.83 -5.29,11.84 -0.56,17.23 -0.26,17.37 0,0 -4.26,-9.88 7.39,-13.56 8.94,-2.82 5,-8.24 7,-12.68 0.83,-1.86 7,-9.37 23.74,-5.62 0,0 -7.83,0 -7.08,5.12 1.12,7.74 9.75,13.42 1.61,19.32 0,0 -9.68,6.93 -7.93,17.79 0,0 0.8,-7.78 12.79,-10.11 8.57,-1.67 9.25,-8.85 13.67,-10.12 2,-0.57 7.27,-2.61 21.79,5.14 0,0 -6.93,-1.51 -10.13,2.61 -4.79,6.18 2,17.36 -7.78,19.78 -12.59,3.13 -11.38,12 -11.3,12.3 0,0 4.81,-11.94 16.66,-5.4 8.21,4.53 9.92,-1.37 14.42,-3.18 1.89,-0.76 14,-2.74 16.33,13.27 -0.17,-0.7 -1.89,-7.22 -6.15,-4.74 -6.76,3.93 -5.56,17.38 -15.51,16 -12.84,-1.82 -15.45,11.19 -15.5,11.52 0,0 7.75,-12.5 16,-2.27 5.89,7.3 9.87,2.34 14.72,2.35 2,0 7.5,3.66 14.78,19.39 -0.28,-0.35 -5.64,-6.83 -10,-4.24 -6,3.56 -9.72,13 -18.42,7.92 -11.14,-6.45 -16.56,-0.54 -16.78,-0.18 0.3,-0.12 7.23,-3 13.86,8.84 4.67,8.1 6.16,1.43 12.99,6.51 z"
       transform="translate(-445.5,-121.26)"
       id="path997"
       style="fill:#80252a" />
  </g>
  <g
     id="Layer_8"
     data-name="Layer 8"
     transform="matrix(1.1357273,0,0,1.1145008,24.858704,24.31151)">
    <path
       d="m 702,304.78 a 6.66,6.66 0 0 1 -2.52,-2.63 12.27,12.27 0 0 1 -1.33,-3.5 18.7,18.7 0 0 1 0,-7.44 25.93,25.93 0 0 1 0.94,-3.55 c 0.09,-0.29 0.2,-0.57 0.3,-0.86 l 0.28,-0.77 a 6.34,6.34 0 0 0 0.32,-1.13 3.9,3.9 0 0 0 -0.07,-1.83 6,6 0 0 0 -1.08,-1.81 41.12,41.12 0 0 0 -4.56,-4.11 25.59,25.59 0 0 1 -5.11,-5.37 13.1,13.1 0 0 1 -1,-1.78 c -0.07,-0.16 -0.14,-0.3 -0.21,-0.48 l -0.2,-0.58 a 7.63,7.63 0 0 1 -0.24,-1.19 7.29,7.29 0 0 1 0.91,-4.27 10.74,10.74 0 0 1 2.4,-2.93 12.5,12.5 0 0 1 3,-1.95 18.36,18.36 0 0 0 -2.4,6 4.23,4.23 0 0 0 0.24,2.34 3.28,3.28 0 0 0 0.23,0.42 l 0.14,0.19 0.19,0.26 a 8.49,8.49 0 0 0 0.84,1 29.3,29.3 0 0 0 4.68,3.84 32,32 0 0 1 5.62,4.69 10.69,10.69 0 0 1 2.27,4 9.26,9.26 0 0 1 0.08,4.83 12.21,12.21 0 0 1 -0.72,2.07 c -0.15,0.37 -0.24,0.54 -0.37,0.79 -0.13,0.25 -0.24,0.46 -0.35,0.7 -0.44,0.94 -0.86,1.87 -1.23,2.83 a 25.59,25.59 0 0 0 -1.64,5.88 15.61,15.61 0 0 0 -0.14,3.11 9.32,9.32 0 0 0 0.2,1.61 5.63,5.63 0 0 0 0.53,1.62 z"
       transform="translate(-445.5,-121.26)"
       id="path1000" />
    <path
       d="m 675.37,304.84 c -2.18,-1.24 -3.33,-4.17 -3.09,-6.89 a 15.51,15.51 0 0 1 2.83,-7.39 c 0.36,-0.54 0.75,-1.06 1.12,-1.56 a 14.15,14.15 0 0 0 0.84,-1.23 6.24,6.24 0 0 0 0.91,-2.2 3.33,3.33 0 0 0 -0.25,-1.79 c -0.28,-0.73 -0.82,-1.65 -1.4,-2.81 a 11.61,11.61 0 0 1 -1.37,-4.38 7.76,7.76 0 0 1 0.27,-2.68 12.59,12.59 0 0 1 0.79,-2.13 19.7,19.7 0 0 1 5,-6.19 32.16,32.16 0 0 1 6.13,-4.15 38.36,38.36 0 0 1 6.69,-2.8 c -0.84,0.89 -1.72,1.69 -2.56,2.52 -0.84,0.83 -1.69,1.64 -2.49,2.48 a 56.94,56.94 0 0 0 -4.55,5 19.68,19.68 0 0 0 -3.14,5.26 6.91,6.91 0 0 0 -0.33,1.21 3,3 0 0 0 0,0.82 8.06,8.06 0 0 0 0.91,2.25 23.64,23.64 0 0 1 1.71,3.52 8.66,8.66 0 0 1 0.27,5.14 10.84,10.84 0 0 1 -2.2,4.07 19.61,19.61 0 0 1 -1.4,1.49 c -0.4,0.39 -0.8,0.73 -1.17,1.12 a 16.42,16.42 0 0 0 -3.61,5 7.23,7.23 0 0 0 0.09,6.32 z"
       transform="translate(-445.5,-121.26)"
       id="path1002" />
    <path
       d="m 675.37,304.84 a 6.36,6.36 0 0 1 -3.21,-1.52 12.22,12.22 0 0 1 -2.42,-2.73 19.11,19.11 0 0 1 -2.66,-6.72 26.13,26.13 0 0 1 -0.46,-3.53 c 0,-0.59 -0.06,-1.18 -0.07,-1.76 a 10.82,10.82 0 0 0 -0.08,-1.24 4.36,4.36 0 0 0 -2,-3.3 26.07,26.07 0 0 0 -5.22,-2.38 26.1,26.1 0 0 1 -6.41,-3.26 14,14 0 0 1 -1.49,-1.29 11,11 0 0 1 -1.27,-1.64 7.24,7.24 0 0 1 -1.14,-4.11 6.93,6.93 0 0 1 1.3,-3.69 8.2,8.2 0 0 1 2.6,-2.39 c -0.94,2.06 -1.36,4.26 -0.8,5.79 0.56,1.53 1.84,2.4 3.43,3.28 a 32.45,32.45 0 0 0 5.59,2 c 1,0.29 2.13,0.64 3.27,1.06 a 15.86,15.86 0 0 1 3.51,1.76 9.78,9.78 0 0 1 3.13,3.31 10,10 0 0 1 1.3,4.31 16.5,16.5 0 0 1 0,2 c 0,0.51 -0.09,1 -0.11,1.52 -0.05,1 -0.11,2 -0.09,3 a 27.09,27.09 0 0 0 0.58,5.95 16,16 0 0 0 0.93,2.89 9.11,9.11 0 0 0 0.72,1.4 5.21,5.21 0 0 0 1.07,1.29 z"
       transform="translate(-445.5,-121.26)"
       id="path1004" />
    <path
       d="m 650.08,314.86 a 5.55,5.55 0 0 1 -3.19,-2.19 9.26,9.26 0 0 1 -1.62,-3.76 18.32,18.32 0 0 1 0.38,-7.92 l 0.44,-1.73 a 12.21,12.21 0 0 0 0.24,-1.44 4.7,4.7 0 0 0 -0.17,-2.19 4.51,4.51 0 0 0 -1.23,-1.62 c -0.69,-0.63 -1.65,-1.36 -2.7,-2.37 a 11,11 0 0 1 -1.53,-1.81 10.56,10.56 0 0 1 -0.64,-1.11 11.4,11.4 0 0 1 -0.47,-1.08 11.59,11.59 0 0 1 -0.66,-4.64 16.29,16.29 0 0 1 2.82,-7.8 27.7,27.7 0 0 1 5.05,-5.68 35.19,35.19 0 0 1 6,-4.25 c -2.78,4 -5.56,7.94 -7.26,12 a 13.87,13.87 0 0 0 -1.25,5.84 6.2,6.2 0 0 0 0.57,2.39 c 0.08,0.18 0.17,0.35 0.28,0.54 a 4.28,4.28 0 0 0 0.29,0.42 8.45,8.45 0 0 0 0.84,0.87 c 0.68,0.65 1.67,1.32 2.72,2.34 a 11.66,11.66 0 0 1 1.57,1.83 8.55,8.55 0 0 1 1.13,2.46 9.61,9.61 0 0 1 0,4.91 15,15 0 0 1 -0.67,2 l -0.39,0.91 -0.36,0.75 a 22.58,22.58 0 0 0 -1.93,6.17 7.15,7.15 0 0 0 1.74,6.16 z"
       transform="translate(-445.5,-121.26)"
       id="path1006" />
    <path
       d="m 650.08,314.86 a 6.36,6.36 0 0 1 -3.55,-0.21 12.22,12.22 0 0 1 -3.27,-1.62 19.12,19.12 0 0 1 -5,-5.24 26.17,26.17 0 0 1 -1.75,-3.11 c -0.26,-0.53 -0.5,-1.07 -0.73,-1.61 l -0.24,-0.53 c -0.08,-0.17 -0.18,-0.3 -0.26,-0.46 a 3.19,3.19 0 0 0 -1.22,-1.16 5.1,5.1 0 0 0 -1.94,-0.49 38,38 0 0 0 -6,0.32 22.64,22.64 0 0 1 -7.37,-0.27 9.47,9.47 0 0 1 -3.87,-1.94 5.78,5.78 0 0 1 -1.47,-2.06 5.25,5.25 0 0 1 -0.39,-2.38 7.42,7.42 0 0 1 1.37,-3.69 10.5,10.5 0 0 1 2.48,-2.52 20.51,20.51 0 0 0 -0.66,3.24 6.21,6.21 0 0 0 0.17,2.72 1.85,1.85 0 0 0 1.17,1.16 l 0.47,0.17 a 3.28,3.28 0 0 0 0.53,0.18 6.5,6.5 0 0 0 1.15,0.21 23.53,23.53 0 0 0 5.71,-0.49 31.5,31.5 0 0 1 7.13,-0.6 10.13,10.13 0 0 1 4.35,1.24 8.87,8.87 0 0 1 2,1.51 c 0.27,0.3 0.54,0.61 0.78,0.93 0.24,0.32 0.44,0.65 0.62,1 a 13.4,13.4 0 0 1 0.88,2 c 0.17,0.48 0.29,1 0.47,1.45 0.33,1 0.66,1.91 1.05,2.83 a 27.11,27.11 0 0 0 2.77,5.3 15.93,15.93 0 0 0 2,2.34 9.12,9.12 0 0 0 1.2,1 5.22,5.22 0 0 0 1.42,0.78 z"
       transform="translate(-445.5,-121.26)"
       id="path1008" />
    <path
       d="m 630.81,336.75 a 11.69,11.69 0 0 1 -3.14,-2.11 22,22 0 0 1 -2.62,-2.76 35.76,35.76 0 0 1 -4.05,-6.38 c -1.14,-2.32 -2,-4.44 -3.1,-6.25 a 11.27,11.27 0 0 0 -1.65,-2.29 14.57,14.57 0 0 0 -2.29,-1.78 c -0.5,-0.34 -1.06,-0.72 -1.6,-1.16 -0.27,-0.21 -0.53,-0.44 -0.8,-0.67 l -0.2,-0.17 -0.32,-0.3 c -0.17,-0.18 -0.33,-0.35 -0.46,-0.51 a 14,14 0 0 1 -2.19,-3.94 15.28,15.28 0 0 1 -0.56,-8.43 17.49,17.49 0 0 1 3.48,-7.15 22.74,22.74 0 0 1 5.63,-5 44.54,44.54 0 0 0 -3.33,6.35 18.56,18.56 0 0 0 -1.44,6.36 12.31,12.31 0 0 0 1.24,5.77 8.85,8.85 0 0 0 1.5,2.25 l 0.16,0.15 v 0 l 0.15,0.11 c 0.21,0.15 0.4,0.31 0.62,0.45 l 1.38,0.9 a 15.32,15.32 0 0 1 3.37,2.7 14.38,14.38 0 0 1 2.38,3.7 49.36,49.36 0 0 1 2.32,7.16 c 0.64,2.24 1.37,4.45 2.23,6.63 a 28.45,28.45 0 0 0 3.29,6.37 z"
       transform="translate(-445.5,-121.26)"
       id="path1010" />
    <path
       d="m 630.81,336.75 a 9.29,9.29 0 0 1 -3.24,-0.6 c -1,-0.32 -2.06,-0.71 -3.06,-1.12 a 59.26,59.26 0 0 1 -5.79,-2.83 c -1.86,-1 -3.69,-2.15 -5.44,-3.34 L 612,328 a 4.62,4.62 0 0 0 -0.87,-0.46 3.36,3.36 0 0 0 -1.6,-0.24 19,19 0 0 0 -4.89,1.75 18.09,18.09 0 0 1 -7,1.77 12.07,12.07 0 0 1 -2,-0.15 c -0.32,0 -0.64,-0.12 -1,-0.2 a 7.09,7.09 0 0 1 -1.08,-0.38 5.34,5.34 0 0 1 -3.05,-3.47 7.28,7.28 0 0 1 0,-3.77 10.23,10.23 0 0 1 1.39,-3.09 20,20 0 0 0 0.52,3.13 6.14,6.14 0 0 0 1.07,2.39 1.77,1.77 0 0 0 1.42,0.67 h 1 a 7.21,7.21 0 0 0 1.18,-0.15 18.1,18.1 0 0 0 4.92,-2 c 0.91,-0.46 1.86,-1 3,-1.45 a 12.5,12.5 0 0 1 3.91,-1 8.75,8.75 0 0 1 4.53,0.87 10.54,10.54 0 0 1 1.83,1.15 c 0.47,0.36 0.82,0.67 1.23,1 1.61,1.32 3.17,2.69 4.75,4.05 1.58,1.36 3.12,2.77 4.66,4.19 l 2.32,2.14 c 0.39,0.36 0.78,0.71 1.18,1.06 a 5.38,5.38 0 0 0 1.39,0.94 z"
       transform="translate(-445.5,-121.26)"
       id="path1012" />
    <path
       d="m 621.79,359.33 a 9.84,9.84 0 0 1 -3.85,0.76 12.24,12.24 0 0 1 -4,-0.62 15.9,15.9 0 0 1 -6.89,-4.67 20.17,20.17 0 0 1 -1.3,-1.63 c -0.21,-0.28 -0.4,-0.56 -0.59,-0.85 -0.19,-0.29 -0.39,-0.6 -0.52,-0.77 A 4,4 0 0 0 603,350 a 3.66,3.66 0 0 0 -0.86,-0.18 c -0.39,0 -0.92,0 -1.57,0 a 11.84,11.84 0 0 1 -4.75,-0.94 11.09,11.09 0 0 1 -3.9,-3.05 l -0.57,-0.69 -0.62,-0.72 a 21.24,21.24 0 0 1 -1.31,-1.72 16.09,16.09 0 0 1 -2.79,-8.21 19,19 0 0 1 1.41,-8.07 21.92,21.92 0 0 1 1.76,-3.51 24.1,24.1 0 0 1 2.24,-3.14 55.09,55.09 0 0 0 -1.31,7.33 20.61,20.61 0 0 0 0.37,6.79 13.43,13.43 0 0 0 2.77,5.53 15.74,15.74 0 0 0 1.08,1.17 l 0.65,0.65 0.67,0.72 a 6.6,6.6 0 0 0 2,1.48 7,7 0 0 0 2.56,0.47 c 0.6,0 1.32,0.09 2.16,0.23 a 7.77,7.77 0 0 1 2.69,1 8.75,8.75 0 0 1 3.41,3.91 c 0.18,0.38 0.29,0.6 0.41,0.86 0.12,0.26 0.23,0.51 0.36,0.76 0.25,0.5 0.53,1 0.81,1.46 a 15.59,15.59 0 0 0 4.47,4.88 13.7,13.7 0 0 0 6.65,2.32 z"
       transform="translate(-445.5,-121.26)"
       id="path1014" />
    <path
       d="m 621.79,359.33 a 6.19,6.19 0 0 1 -2.57,2.25 12,12 0 0 1 -3.32,1.12 18.43,18.43 0 0 1 -7,-0.14 27.69,27.69 0 0 1 -3.32,-0.9 c -0.53,-0.2 -1.07,-0.38 -1.59,-0.6 l -0.76,-0.31 -0.52,-0.2 a 3.6,3.6 0 0 0 -1.69,-0.2 3.73,3.73 0 0 0 -1.53,0.68 27.41,27.41 0 0 0 -3.9,3.93 19.84,19.84 0 0 1 -5.54,4.66 9.12,9.12 0 0 1 -4.11,1 7.36,7.36 0 0 1 -4,-1.22 6.48,6.48 0 0 1 -2.45,-3.09 6.65,6.65 0 0 1 -0.35,-3.49 c 1.25,1.87 2.9,3.12 4.35,3.3 a 6,6 0 0 0 2.16,-0.14 4.7,4.7 0 0 0 1.88,-0.83 19.63,19.63 0 0 0 3.65,-3.91 25.32,25.32 0 0 1 4.86,-5.11 9.4,9.4 0 0 1 4.25,-1.68 9,9 0 0 1 4.5,0.67 l 0.93,0.43 c 0.27,0.13 0.45,0.23 0.67,0.36 0.43,0.24 0.86,0.45 1.29,0.68 0.87,0.43 1.74,0.85 2.63,1.23 a 27.1,27.1 0 0 0 5.48,1.74 16,16 0 0 0 2.92,0.28 8.63,8.63 0 0 0 1.52,-0.1 5,5 0 0 0 1.56,-0.41 z"
       transform="translate(-445.5,-121.26)"
       id="path1016" />
    <path
       d="m 621.29,384.88 a 7.06,7.06 0 0 1 -2.18,3.26 7.16,7.16 0 0 1 -4,1.68 10.1,10.1 0 0 1 -4.33,-0.59 16.93,16.93 0 0 1 -3.72,-1.9 c -0.56,-0.39 -1.11,-0.78 -1.63,-1.2 l -0.39,-0.31 -0.32,-0.23 -0.63,-0.46 a 9.71,9.71 0 0 0 -2.47,-1.21 6.63,6.63 0 0 0 -2.45,-0.23 c -0.92,0.07 -2,0.28 -3.29,0.48 a 21,21 0 0 1 -4.21,0.29 15.7,15.7 0 0 1 -4.36,-0.87 13.63,13.63 0 0 1 -6.86,-5.39 15.43,15.43 0 0 1 -2.36,-7.82 19.18,19.18 0 0 1 0.22,-3.87 22.1,22.1 0 0 1 0.85,-3.69 40.72,40.72 0 0 0 1.56,7.09 15.07,15.07 0 0 0 3.21,5.62 10.11,10.11 0 0 0 5,2.86 10.55,10.55 0 0 0 2.86,0.31 19.08,19.08 0 0 0 3.09,-0.41 26.71,26.71 0 0 1 4,-0.56 11.15,11.15 0 0 1 4.76,0.77 13.08,13.08 0 0 1 3.83,2.5 l 0.74,0.75 0.37,0.38 0.29,0.31 c 0.37,0.42 0.76,0.81 1.15,1.2 a 11.46,11.46 0 0 0 5.19,3.24 5.81,5.81 0 0 0 3,-0.16 8.39,8.39 0 0 0 3.08,-1.84 z"
       transform="translate(-445.5,-121.26)"
       id="path1018" />
    <path
       d="m 621.29,384.88 a 8.93,8.93 0 0 1 -3.51,6.37 15.75,15.75 0 0 1 -6.91,3.16 21.91,21.91 0 0 1 -3.72,0.42 c -0.31,0 -0.62,0 -0.92,0 h -0.86 a 6.11,6.11 0 0 0 -1.12,0.08 3.33,3.33 0 0 0 -1.55,0.7 6.2,6.2 0 0 0 -1.26,1.73 51.35,51.35 0 0 0 -2.19,5.85 19.38,19.38 0 0 1 -3.65,6.78 8.17,8.17 0 0 1 -3.81,2.43 7.43,7.43 0 0 1 -4.35,-0.2 10.73,10.73 0 0 1 -3.3,-1.87 12.39,12.39 0 0 1 -2.42,-2.63 18.21,18.21 0 0 0 6.29,1.35 4.43,4.43 0 0 0 2.3,-0.63 4.12,4.12 0 0 0 0.77,-0.68 5.56,5.56 0 0 0 0.74,-0.9 19.11,19.11 0 0 0 2,-5.36 36.36,36.36 0 0 1 2.27,-6.86 10.8,10.8 0 0 1 2.76,-3.62 8.78,8.78 0 0 1 4.56,-1.93 12,12 0 0 1 2.25,0 c 0.37,0 0.54,0 0.82,0.08 0.28,0.08 0.51,0.06 0.76,0.08 a 29.11,29.11 0 0 0 3,0.12 18.06,18.06 0 0 0 5.83,-0.9 12.41,12.41 0 0 0 2.74,-1.35 8.82,8.82 0 0 0 1.29,-1 7,7 0 0 0 1.19,-1.22 z"
       transform="translate(-445.5,-121.26)"
       id="path1020" />
    <path
       d="m 630.58,409.5 a 7.45,7.45 0 0 1 -4.06,6.25 12.09,12.09 0 0 1 -8,0.75 c -1.25,-0.25 -2.59,-0.72 -3.46,-0.93 a 9.87,9.87 0 0 0 -2.64,-0.35 4,4 0 0 0 -1.93,0.5 23.15,23.15 0 0 0 -2.42,1.67 12,12 0 0 1 -4,2 11.46,11.46 0 0 1 -1.14,0.24 l -0.9,0.13 a 14.06,14.06 0 0 1 -2.15,0.11 16.41,16.41 0 0 1 -7.64,-2.42 31.74,31.74 0 0 1 -5.81,-4.39 39.21,39.21 0 0 1 -4.75,-5.31 c 1.11,0.47 2.15,1 3.2,1.51 1.05,0.51 2.08,1 3.13,1.49 a 56.58,56.58 0 0 0 6.14,2.58 14.57,14.57 0 0 0 5.67,1 8.53,8.53 0 0 0 1.29,-0.2 l 0.8,-0.17 a 4.56,4.56 0 0 0 0.54,-0.16 8.22,8.22 0 0 0 2.11,-1.22 19.89,19.89 0 0 1 3.32,-2.17 9.42,9.42 0 0 1 4.78,-0.86 c 3.09,0.23 5.49,1.81 7.17,2.5 a 10.65,10.65 0 0 0 5.65,1 7.44,7.44 0 0 0 5.1,-3.55 z"
       transform="translate(-445.5,-121.26)"
       id="path1022" />
    <path
       d="m 630.58,409.5 a 9.15,9.15 0 0 1 -0.53,7.25 15,15 0 0 1 -5,5.74 20.84,20.84 0 0 1 -3.28,1.85 c -0.57,0.27 -1.14,0.5 -1.71,0.72 a 7.85,7.85 0 0 0 -1.06,0.49 3.2,3.2 0 0 0 -1.23,1.21 5.29,5.29 0 0 0 -0.56,2 43.56,43.56 0 0 0 0.14,6.18 20.36,20.36 0 0 1 -0.74,7.62 10.61,10.61 0 0 1 -0.94,2 6.75,6.75 0 0 1 -1.62,1.82 5.48,5.48 0 0 1 -2.34,1.05 6.08,6.08 0 0 1 -2.28,0 9.42,9.42 0 0 1 -3.55,-1.51 12.39,12.39 0 0 1 -2.65,-2.41 26.55,26.55 0 0 0 3.33,0.67 9.48,9.48 0 0 0 3,0 2.25,2.25 0 0 0 1.62,-1 c 0.14,-0.21 0.21,-0.49 0.39,-0.86 a 6,6 0 0 0 0.31,-1.13 20.4,20.4 0 0 0 -0.19,-5.77 33.59,33.59 0 0 1 -0.41,-7.27 10.24,10.24 0 0 1 1.35,-4.4 8.63,8.63 0 0 1 3.61,-3.36 13.57,13.57 0 0 1 2,-0.82 c 0.48,-0.15 1,-0.26 1.45,-0.43 a 25,25 0 0 0 2.79,-1 16.24,16.24 0 0 0 4.91,-3.18 11.53,11.53 0 0 0 3.19,-5.46 z"
       transform="translate(-445.5,-121.26)"
       id="path1024" />
    <path
       d="m 652,428.63 a 9,9 0 0 1 -0.81,3.83 12.55,12.55 0 0 1 -2.19,3.42 18,18 0 0 1 -6.76,4.6 c -0.63,0.25 -1.28,0.47 -1.92,0.68 l -1,0.28 c -0.33,0.09 -0.53,0.16 -0.8,0.24 a 11.24,11.24 0 0 0 -2.62,1.25 7.66,7.66 0 0 0 -1.87,1.82 c -0.59,0.77 -1.18,1.82 -2.18,3 a 10,10 0 0 1 -1.84,1.77 9.75,9.75 0 0 1 -1.14,0.72 l -0.53,0.26 -0.22,0.11 c -0.45,0.26 -1.07,0.62 -1.7,0.94 a 18.17,18.17 0 0 1 -2,0.89 14.66,14.66 0 0 1 -4.41,0.84 15,15 0 0 1 -4.32,-0.54 20.15,20.15 0 0 1 -7.19,-3.74 28.91,28.91 0 0 1 -5.31,-5.54 c 2.25,1.18 4.45,2.32 6.68,3.22 a 22.91,22.91 0 0 0 6.59,1.74 10.89,10.89 0 0 0 5.86,-1 12.74,12.74 0 0 0 1.33,-0.74 l 1.48,-1 c 0.17,-0.1 0.34,-0.21 0.59,-0.34 l 0.18,-0.1 0.11,-0.07 a 3.91,3.91 0 0 0 0.41,-0.31 6.87,6.87 0 0 0 0.79,-0.85 c 0.55,-0.71 1.2,-1.82 2.15,-3 A 12,12 0 0 1 633,438 a 14,14 0 0 1 4.3,-1.38 l 1,-0.14 0.84,-0.1 c 0.56,-0.08 1.12,-0.17 1.66,-0.29 a 19,19 0 0 0 6.26,-2.35 13,13 0 0 0 4.94,-5.11 z"
       transform="translate(-445.5,-121.26)"
       id="path1026" />
    <path
       d="m 652,428.63 a 5.91,5.91 0 0 1 0.62,3.11 18,18 0 0 1 -0.33,3.13 30.4,30.4 0 0 1 -1.79,5.9 c -0.38,0.94 -0.81,1.86 -1.26,2.77 l -0.69,1.34 -0.64,1.18 a 11.87,11.87 0 0 0 -1.3,4.39 23.31,23.31 0 0 0 0.3,5.1 31.44,31.44 0 0 1 0.37,6.3 17.08,17.08 0 0 1 -0.58,3.34 6.58,6.58 0 0 1 -2.26,3.41 5.11,5.11 0 0 1 -3.76,0.93 6.33,6.33 0 0 1 -3,-1.29 9.28,9.28 0 0 0 2.79,-0.76 2.83,2.83 0 0 0 1.49,-1.4 4.43,4.43 0 0 0 0.25,-1.78 13.93,13.93 0 0 0 0,-2.48 42.83,42.83 0 0 0 -1,-5.32 23,23 0 0 1 -0.59,-6.56 15.71,15.71 0 0 1 2.18,-6.71 l 0.45,-0.72 c 0.15,-0.24 0.27,-0.41 0.41,-0.61 l 0.82,-1.17 1.63,-2.33 c 1.08,-1.56 2.18,-3.1 3.22,-4.69 0.52,-0.8 1,-1.6 1.51,-2.43 a 12.75,12.75 0 0 0 0.68,-1.28 3.84,3.84 0 0 0 0.48,-1.37 z"
       transform="translate(-445.5,-121.26)"
       id="path1028" />
    <path
       d="m 675.92,437 a 8.74,8.74 0 0 1 1.23,7.91 15.18,15.18 0 0 1 -4.83,6.93 c -0.52,0.45 -1.09,0.89 -1.61,1.28 -0.52,0.39 -0.87,0.67 -1.24,1 a 12.9,12.9 0 0 0 -2,2.29 21.13,21.13 0 0 0 -2.65,5.87 c -0.19,0.58 -0.38,1.18 -0.61,1.8 l -0.35,0.94 -0.18,0.48 c -0.08,0.21 -0.18,0.44 -0.27,0.63 a 13.74,13.74 0 0 1 -2.78,3.79 13.39,13.39 0 0 1 -8.17,3.67 17.59,17.59 0 0 1 -8.14,-1.36 25.91,25.91 0 0 1 -6.66,-4 56,56 0 0 0 7.33,1.41 18.33,18.33 0 0 0 6.75,-0.38 9.72,9.72 0 0 0 5,-3.1 8.85,8.85 0 0 0 1.46,-2.37 c 0,-0.1 0.06,-0.15 0.09,-0.24 l 0.13,-0.41 0.25,-0.84 c 0.16,-0.57 0.33,-1.17 0.52,-1.78 a 20.65,20.65 0 0 1 3.77,-7.63 15.66,15.66 0 0 1 3.29,-3 c 0.59,-0.43 1.22,-0.76 1.83,-1.12 0.61,-0.36 1,-0.53 1.5,-0.83 a 15.07,15.07 0 0 0 4.91,-4.3 9.25,9.25 0 0 0 1.43,-6.64 z"
       transform="translate(-445.5,-121.26)"
       id="path1030" />
    <path
       d="m 675.92,437 -0.2,-0.12 h -0.09 c 0,0 0,0 0,0 0,0 0.15,-0.1 0.13,-0.11 v 0 l 0.29,0.33 c 0.2,0.23 0.4,0.46 0.6,0.7 q 0.56,0.73 1.07,1.51 a 17.58,17.58 0 0 1 1.65,3.38 18.17,18.17 0 0 1 1,7.67 19.5,19.5 0 0 1 -0.73,3.91 c -0.2,0.64 -0.41,1.26 -0.66,1.88 -0.13,0.31 -0.25,0.61 -0.39,0.92 l -0.21,0.44 -0.12,0.29 a 3.43,3.43 0 0 0 0.32,3.75 28.33,28.33 0 0 0 4.31,4.44 22.68,22.68 0 0 1 5,6 10.46,10.46 0 0 1 0.8,2.13 9.39,9.39 0 0 1 0.22,1.15 7.58,7.58 0 0 1 0,1.25 7.24,7.24 0 0 1 -1.8,4.22 11.65,11.65 0 0 1 -6.65,3.64 17.55,17.55 0 0 0 3.88,-5.41 c 0.69,-1.87 0.2,-3 -0.78,-4.49 a 23.68,23.68 0 0 0 -4.47,-4.19 26.52,26.52 0 0 1 -5.55,-5.48 9,9 0 0 1 -0.56,-9.54 l 0.26,-0.51 0.19,-0.34 c 0.13,-0.22 0.25,-0.44 0.37,-0.66 0.24,-0.45 0.46,-0.9 0.66,-1.37 a 20.32,20.32 0 0 0 1,-2.87 22.26,22.26 0 0 0 0.76,-6.28 29.29,29.29 0 0 0 -0.27,-3.36 q -0.11,-0.86 -0.29,-1.72 l -0.17,-0.88 -0.09,-0.46 v -0.08 c 0,0 0,-0.19 0.15,-0.14 0.15,0.05 0,0 0.05,0 a 0.71,0.71 0 0 1 0.06,0.11 z"
       transform="translate(-445.5,-121.26)"
       id="path1032" />
    <path
       d="m 702.72,438.33 a 12.73,12.73 0 0 1 2.5,2.84 13.39,13.39 0 0 1 1.7,3.54 12.33,12.33 0 0 1 -0.32,8.25 14.69,14.69 0 0 1 -2.12,3.68 c -0.21,0.29 -0.43,0.55 -0.66,0.81 l -0.65,0.74 c -0.37,0.43 -0.73,0.87 -1.05,1.3 a 12,12 0 0 0 -1.55,2.39 3.18,3.18 0 0 0 -0.23,0.82 2.64,2.64 0 0 0 0.07,0.84 33.38,33.38 0 0 1 0.75,3.74 c 0,0.38 0.06,0.77 0.06,1.16 0,0.08 0,0.23 0,0.39 v 0.45 c 0,0.29 -0.08,0.51 -0.13,0.77 a 9.21,9.21 0 0 1 -1,2.39 15.24,15.24 0 0 1 -2.68,3.4 25.68,25.68 0 0 1 -3.07,2.54 36.75,36.75 0 0 1 -6.67,3.67 41.84,41.84 0 0 1 -7.1,2.35 c 3.77,-3.27 7.62,-6.22 10.82,-9.52 a 19.11,19.11 0 0 0 3.75,-5 3.47,3.47 0 0 0 0.31,-1 c 0,0 0,-0.11 0,-0.13 v 0 c 0,0 0,0 0,-0.07 0,-0.07 -0.05,-0.44 -0.09,-0.66 -0.09,-0.44 -0.19,-0.89 -0.33,-1.42 -0.14,-0.53 -0.34,-1.15 -0.49,-2 a 8.51,8.51 0 0 1 -0.07,-2.78 7.94,7.94 0 0 1 0.9,-2.63 14.21,14.21 0 0 1 2.76,-3.46 c 0.49,-0.47 1,-0.89 1.5,-1.3 l 0.64,-0.54 a 6.88,6.88 0 0 0 0.58,-0.52 12.87,12.87 0 0 0 1.94,-2.34 10.52,10.52 0 0 0 1.6,-5.94 17.71,17.71 0 0 0 -1.67,-6.76 z"
       transform="translate(-445.5,-121.26)"
       id="path1034" />
    <path
       d="m 702.72,438.33 c 2.29,-0.14 4.54,1.38 6,3.31 a 14.9,14.9 0 0 1 2.63,6.61 22.33,22.33 0 0 1 0.26,3.45 c 0,0.57 0,1.14 0,1.71 a 9.91,9.91 0 0 0 0,1.18 3.7,3.7 0 0 0 1.62,3 30.19,30.19 0 0 0 4.93,2.54 17.94,17.94 0 0 1 6,4 9.14,9.14 0 0 1 2,3.46 9.25,9.25 0 0 1 0.33,3.8 11.09,11.09 0 0 1 -2.81,6.17 18,18 0 0 0 -0.38,-6 7.47,7.47 0 0 0 -1,-2.28 8.34,8.34 0 0 0 -1.55,-1.65 17.32,17.32 0 0 0 -4.74,-2.31 25.41,25.41 0 0 1 -6.29,-3 9.18,9.18 0 0 1 -3.91,-7.67 15.58,15.58 0 0 1 0.12,-2 c 0.06,-0.47 0.16,-0.95 0.21,-1.42 0.12,-0.94 0.22,-1.88 0.25,-2.81 a 17.5,17.5 0 0 0 -0.44,-5.45 8.53,8.53 0 0 0 -3.23,-4.64 z"
       transform="translate(-445.5,-121.26)"
       id="path1036" />
    <path
       d="m 726.42,429.5 a 7.37,7.37 0 0 1 3.73,0.94 7.23,7.23 0 0 1 2.95,3 9.41,9.41 0 0 1 1,4.25 15.17,15.17 0 0 1 -0.59,4.11 c -0.17,0.65 -0.41,1.31 -0.6,1.88 a 11.06,11.06 0 0 0 -0.39,1.42 4.65,4.65 0 0 0 0,2.22 4,4 0 0 0 0.98,1.68 c 0.62,0.67 1.55,1.43 2.55,2.57 a 9.29,9.29 0 0 1 1.43,2.09 8.54,8.54 0 0 1 0.52,1.34 l 0.16,0.7 0.08,0.52 a 15.34,15.34 0 0 1 0.09,4.31 15.75,15.75 0 0 1 -3.3,7.63 39.28,39.28 0 0 1 -11.41,9.52 c 2.7,-4.08 5.68,-7.93 7.68,-11.87 0.26,-0.49 0.44,-1 0.67,-1.46 a 15.17,15.17 0 0 0 0.49,-1.45 9.57,9.57 0 0 0 0.43,-2.81 10.71,10.71 0 0 0 -0.32,-2.84 l -0.07,-0.37 c 0,-0.07 0,-0.11 -0.06,-0.17 a 3.08,3.08 0 0 0 -0.17,-0.33 6.26,6.26 0 0 0 -0.65,-0.83 c -0.59,-0.65 -1.53,-1.41 -2.52,-2.52 a 10.23,10.23 0 0 1 -1.43,-2 8.39,8.39 0 0 1 -0.89,-2.59 9.57,9.57 0 0 1 0.57,-4.87 16.52,16.52 0 0 1 0.88,-1.94 c 0.27,-0.53 0.54,-1 0.76,-1.44 a 10.11,10.11 0 0 0 1.29,-5.69 5.86,5.86 0 0 0 -1.19,-2.74 9.19,9.19 0 0 0 -2.67,-2.26 z"
       transform="translate(-445.5,-121.26)"
       id="path1038" />
    <path
       d="m 726.42,429.5 a 7.77,7.77 0 0 1 3.4,-0.62 10.48,10.48 0 0 1 3.55,0.71 13.38,13.38 0 0 1 5.83,4.55 18.1,18.1 0 0 1 1.91,3.14 c 0.27,0.55 0.48,1.1 0.72,1.66 l 0.55,1.51 a 5.55,5.55 0 0 0 1,1.77 3.33,3.33 0 0 0 1.43,0.92 19.06,19.06 0 0 0 5.37,0.62 22.84,22.84 0 0 1 7.13,1.12 12,12 0 0 1 1.84,0.9 8.27,8.27 0 0 1 0.86,0.58 l 0.41,0.32 0.43,0.42 a 5.55,5.55 0 0 1 1.32,2.19 4.82,4.82 0 0 1 0.1,2.47 7,7 0 0 1 -2,3.39 10.45,10.45 0 0 1 -2.83,2 21.19,21.19 0 0 0 1.17,-3 5.54,5.54 0 0 0 0.26,-2.61 c -0.18,-0.68 -0.49,-0.8 -1,-1.06 l -0.2,-0.09 -0.26,-0.12 A 4,4 0 0 0 757,450 a 7.2,7.2 0 0 0 -1.14,-0.33 24.61,24.61 0 0 0 -5.65,-0.17 20.07,20.07 0 0 1 -7.39,-0.74 9.1,9.1 0 0 1 -3.86,-2.64 10.58,10.58 0 0 1 -2,-3.85 c -0.23,-0.73 -0.3,-1.06 -0.42,-1.56 -0.12,-0.5 -0.25,-0.92 -0.41,-1.36 a 19.49,19.49 0 0 0 -1,-2.61 13.78,13.78 0 0 0 -3.23,-4.46 12,12 0 0 0 -5.48,-2.78 z"
       transform="translate(-445.5,-121.26)"
       id="path1040" />
    <path
       d="m 746.31,409.85 a 10.17,10.17 0 0 1 7.78,2.5 13,13 0 0 1 4,7.82 20.13,20.13 0 0 1 0.22,2.16 l 0.06,1 c 0,0.28 0,0.54 0.08,0.8 a 4.93,4.93 0 0 0 0.75,2.29 3.66,3.66 0 0 0 1.7,1.05 20.88,20.88 0 0 1 3.94,1.79 8.9,8.9 0 0 1 2.09,1.83 10.26,10.26 0 0 1 0.81,1.13 c 0.24,0.38 0.41,0.71 0.58,1.05 a 19.77,19.77 0 0 1 1.48,4.22 16.34,16.34 0 0 1 -0.42,8.86 15.89,15.89 0 0 1 -4.88,7 18.69,18.69 0 0 1 -3.37,2.27 21.7,21.7 0 0 1 -3.64,1.57 35.13,35.13 0 0 0 5,-5.65 15.39,15.39 0 0 0 2.61,-6.28 13.52,13.52 0 0 0 -0.6,-6.36 14.84,14.84 0 0 0 -1.31,-2.93 c -0.13,-0.22 -0.26,-0.45 -0.38,-0.61 a 4.48,4.48 0 0 0 -0.34,-0.4 4.74,4.74 0 0 0 -0.84,-0.65 29.63,29.63 0 0 0 -3.08,-1.33 10.44,10.44 0 0 1 -2.26,-1.25 7.76,7.76 0 0 1 -2,-2.28 8.3,8.3 0 0 1 -1,-2.66 10.64,10.64 0 0 1 -0.18,-2.43 c 0.06,-1.65 0.27,-2.62 0.27,-3.76 a 10.42,10.42 0 0 0 -7.1,-10.7 z"
       transform="translate(-445.5,-121.26)"
       id="path1042" />
    <path
       d="m 746.31,409.85 a 6.75,6.75 0 0 1 3.23,-1.5 10.65,10.65 0 0 1 3.71,0 15.86,15.86 0 0 1 6.78,3 22,22 0 0 1 2.74,2.4 c 0.43,0.43 0.83,0.87 1.22,1.32 a 7.76,7.76 0 0 0 0.81,0.81 3.2,3.2 0 0 0 1.52,0.75 5.06,5.06 0 0 0 2,-0.12 37.19,37.19 0 0 0 5.57,-2.14 22.88,22.88 0 0 1 7.1,-2 11.37,11.37 0 0 1 2.12,0.07 7.79,7.79 0 0 1 1.07,0.2 l 0.53,0.15 0.57,0.23 a 5.47,5.47 0 0 1 2.09,1.6 4.94,4.94 0 0 1 1,2.31 7.3,7.3 0 0 1 -0.6,3.91 11,11 0 0 1 -1.9,3 22.83,22.83 0 0 0 0,-3.32 6,6 0 0 0 -0.71,-2.62 1.38,1.38 0 0 0 -1.28,-0.67 h -0.49 a 3.43,3.43 0 0 0 -0.56,0 6.68,6.68 0 0 0 -1.16,0.16 23.88,23.88 0 0 0 -5.3,2.24 31.13,31.13 0 0 1 -6.62,2.78 10.13,10.13 0 0 1 -4.54,0.14 8.93,8.93 0 0 1 -2.34,-0.85 10,10 0 0 1 -1.91,-1.4 13.48,13.48 0 0 1 -1.42,-1.6 c -0.3,-0.4 -0.57,-0.82 -0.88,-1.21 a 28.77,28.77 0 0 0 -1.88,-2.27 18.58,18.58 0 0 0 -4.44,-3.71 12.26,12.26 0 0 0 -2.75,-1.17 8.41,8.41 0 0 0 -1.54,-0.32 6.45,6.45 0 0 0 -1.74,-0.17 z"
       transform="translate(-445.5,-121.26)"
       id="path1044" />
    <path
       d="m 756.29,385.17 c 2.11,-1.45 5.2,-1.3 7.67,-0.21 a 17.76,17.76 0 0 1 6.29,4.93 36.47,36.47 0 0 1 2.3,3.1 11.73,11.73 0 0 0 1.87,2.16 1.48,1.48 0 0 0 0.58,0.31 3.26,3.26 0 0 0 0.76,0 13.72,13.72 0 0 1 4.38,0.31 12.21,12.21 0 0 1 4.15,2.08 14.67,14.67 0 0 1 1.71,1.43 13.4,13.4 0 0 1 1.48,1.75 15.74,15.74 0 0 1 2.71,8 27.1,27.1 0 0 1 -3.68,14.69 c 0.17,-4.95 0.31,-9.79 -0.79,-14 a 13.16,13.16 0 0 0 -2.63,-5.33 9.1,9.1 0 0 0 -2.11,-1.76 8.38,8.38 0 0 0 -2.35,-1.08 10.23,10.23 0 0 0 -2.84,-0.16 7.92,7.92 0 0 1 -2.81,-0.51 6.83,6.83 0 0 1 -2.44,-1.66 13.76,13.76 0 0 1 -2.42,-3.67 c -0.54,-1.11 -1,-2.07 -1.56,-3.05 a 19.16,19.16 0 0 0 -4,-5.16 8.36,8.36 0 0 0 -6.27,-2.17 z"
       transform="translate(-445.5,-121.26)"
       id="path1046" />
    <path
       d="m 756.29,385.17 a 8.46,8.46 0 0 1 5.53,-4.33 14.7,14.7 0 0 1 7.36,0 21,21 0 0 1 3.43,1.14 c 0.55,0.23 1.09,0.48 1.62,0.75 l 0.66,0.33 a 4.78,4.78 0 0 0 0.57,0.26 6.91,6.91 0 0 0 2.1,0.52 4.76,4.76 0 0 0 1.87,-0.31 10.05,10.05 0 0 0 2.07,-1.2 c 0.73,-0.54 1.47,-1.19 2.26,-1.87 a 38.18,38.18 0 0 1 5.36,-4.28 c 0.27,-0.16 0.54,-0.32 0.82,-0.47 l 0.43,-0.22 0.56,-0.24 a 6.27,6.27 0 0 1 2.38,-0.4 7.27,7.27 0 0 1 3.91,1.4 11.75,11.75 0 0 1 2.56,2.52 13.21,13.21 0 0 1 1.72,3 21.49,21.49 0 0 0 -5.63,-2.76 4.25,4.25 0 0 0 -2.32,-0.08 2.24,2.24 0 0 0 -0.74,0.39 l -0.16,0.14 -0.25,0.21 c -0.18,0.13 -0.35,0.29 -0.52,0.43 -1.37,1.23 -2.68,2.81 -4.21,4.44 a 26.91,26.91 0 0 1 -2.57,2.45 13.56,13.56 0 0 1 -3.47,2.13 9.79,9.79 0 0 1 -4.47,0.72 11.21,11.21 0 0 1 -4.13,-1.15 9.44,9.44 0 0 1 -0.88,-0.46 l -0.77,-0.45 c -0.41,-0.27 -0.82,-0.53 -1.25,-0.77 a 28.3,28.3 0 0 0 -2.55,-1.34 16.42,16.42 0 0 0 -5.4,-1.56 10.33,10.33 0 0 0 -5.89,1.06 z"
       transform="translate(-445.5,-121.26)"
       id="path1048" />
    <path
       d="m 756,362.19 a 14.71,14.71 0 0 1 1.88,-3.48 12.55,12.55 0 0 1 2.9,-3 8.41,8.41 0 0 1 9,-0.7 13.77,13.77 0 0 1 3.64,2.73 c 0.57,0.57 0.9,0.94 1.31,1.3 a 13.52,13.52 0 0 0 1.19,1 c 1.7,1.07 2.48,1.15 4.63,0.57 1.05,-0.27 2.32,-0.75 3.9,-1 0.4,-0.07 0.81,-0.12 1.24,-0.15 0.22,0 0.43,0 0.65,0 h 0.33 0.56 a 5.74,5.74 0 0 1 1.71,0.5 8.72,8.72 0 0 1 1.21,0.67 15.48,15.48 0 0 1 3.33,3.09 28.77,28.77 0 0 1 2.39,3.36 46.55,46.55 0 0 1 5.63,14.64 c -3.25,-4.09 -6.16,-8.26 -9.38,-11.9 -0.79,-0.91 -1.63,-1.76 -2.45,-2.54 a 13.25,13.25 0 0 0 -2.46,-1.86 1.45,1.45 0 0 0 -0.61,-0.23 h -0.06 -0.3 c -0.2,0 -0.42,0.07 -0.65,0.13 -0.92,0.21 -2,0.63 -3.45,1 a 11.12,11.12 0 0 1 -5.06,0.33 9.7,9.7 0 0 1 -4.64,-2.39 13.18,13.18 0 0 1 -1.58,-1.67 c -0.46,-0.57 -0.91,-1.21 -1.19,-1.59 a 11,11 0 0 0 -2.11,-2.23 5.29,5.29 0 0 0 -2.49,-1.1 6.26,6.26 0 0 0 -3,0.37 18.43,18.43 0 0 0 -6.07,4.15 z"
       transform="translate(-445.5,-121.26)"
       id="path1050" />
    <path
       d="m 756,362.19 a 12.63,12.63 0 0 1 0.3,-3.57 14.64,14.64 0 0 1 1.21,-3.49 13,13 0 0 1 5.36,-5.69 14.72,14.72 0 0 1 7.89,-1.7 l 1.66,0.11 a 5.84,5.84 0 0 0 1.11,-0.07 3.57,3.57 0 0 0 1.68,-0.73 13.34,13.34 0 0 0 3,-4.44 c 0.48,-1 1,-2 1.55,-3.08 a 23.35,23.35 0 0 1 2,-3.24 12.46,12.46 0 0 1 3,-2.93 9.26,9.26 0 0 1 1,-0.56 6.81,6.81 0 0 1 1.17,-0.43 4.87,4.87 0 0 1 2.81,0 4.39,4.39 0 0 1 2.14,1.51 6,6 0 0 1 1,1.89 8.87,8.87 0 0 1 0.32,3.72 16.44,16.44 0 0 0 -2.2,-2.6 c -0.75,-0.72 -1.62,-1.08 -2,-0.88 a 7.24,7.24 0 0 0 -1.35,1.08 9.39,9.39 0 0 0 -1.56,2.08 c -0.93,1.65 -1.65,3.69 -2.6,5.86 a 24.22,24.22 0 0 1 -1.71,3.38 12,12 0 0 1 -2.92,3.35 9.2,9.2 0 0 1 -4.56,1.84 11.73,11.73 0 0 1 -2.3,0 l -1,-0.13 -0.71,-0.12 a 12.27,12.27 0 0 0 -5.46,0.33 c -3.53,1.08 -6.62,4.4 -8.83,8.51 z"
       transform="translate(-445.5,-121.26)"
       id="path1052" />
    <path
       d="m 745.75,334.75 a 12.1,12.1 0 0 1 1.41,-3.68 11.53,11.53 0 0 1 2.62,-3.2 10.48,10.48 0 0 1 3.88,-2.08 11.79,11.79 0 0 1 4.49,-0.32 16.43,16.43 0 0 1 4.24,1.1 22.06,22.06 0 0 0 3.29,1.28 5.76,5.76 0 0 0 2.46,0.23 5,5 0 0 0 2.06,-1 c 0.81,-0.59 1.77,-1.42 3,-2.3 a 12.87,12.87 0 0 1 2.16,-1.17 c 0.2,-0.08 0.38,-0.16 0.7,-0.26 0.32,-0.1 0.48,-0.14 0.69,-0.18 A 11.29,11.29 0 0 1 778,323 a 14.2,14.2 0 0 1 8.85,1.87 13,13 0 0 1 5.44,6.74 18.16,18.16 0 0 1 0.89,7.9 c -0.53,-1.2 -1,-2.37 -1.59,-3.47 a 22.76,22.76 0 0 0 -1.9,-3.07 11.12,11.12 0 0 0 -5,-3.92 10.94,10.94 0 0 0 -5.9,-0.44 c -1.4,0.14 -2.66,1.56 -5.15,3.39 a 12.36,12.36 0 0 1 -2.18,1.23 8.78,8.78 0 0 1 -2.69,0.67 10.43,10.43 0 0 1 -5,-0.88 25.88,25.88 0 0 1 -3.54,-2 15.08,15.08 0 0 0 -2.93,-1.3 8.37,8.37 0 0 0 -6.13,0.35 14.77,14.77 0 0 0 -5.42,4.68 z"
       transform="translate(-445.5,-121.26)"
       id="path1054" />
    <path
       d="m 745.75,334.75 a 8.7,8.7 0 0 1 0.18,-7.08 13.14,13.14 0 0 1 5,-5.62 19.74,19.74 0 0 1 3.3,-1.67 q 0.85,-0.34 1.71,-0.61 l 0.42,-0.13 0.28,-0.1 a 4.17,4.17 0 0 0 2.82,-2.88 33,33 0 0 0 0.5,-5.81 18.69,18.69 0 0 1 1.53,-7.34 8.76,8.76 0 0 1 2.7,-3.3 8.37,8.37 0 0 1 3.79,-1.49 11.43,11.43 0 0 1 6.93,1.32 18,18 0 0 0 -6,1.74 5.9,5.9 0 0 0 -1.9,1.59 7.15,7.15 0 0 0 -1,2 18.28,18.28 0 0 0 -0.37,5.5 27.48,27.48 0 0 1 -0.38,7.19 9.6,9.6 0 0 1 -2.11,4.14 9.34,9.34 0 0 1 -3.88,2.54 8.34,8.34 0 0 1 -1,0.31 l -0.5,0.13 -0.37,0.09 q -0.72,0.13 -1.42,0.32 a 24.63,24.63 0 0 0 -2.71,0.85 13.15,13.15 0 0 0 -4.67,2.91 10.71,10.71 0 0 0 -2.85,5.4 z"
       transform="translate(-445.5,-121.26)"
       id="path1056" />
    <path
       d="m 726.71,315.15 a 10,10 0 0 1 2.73,-7.12 17.46,17.46 0 0 1 6.57,-4.48 c 0.61,-0.25 1.24,-0.46 1.86,-0.67 l 1.71,-0.51 a 12.79,12.79 0 0 0 2.61,-1.23 16.89,16.89 0 0 0 4.24,-4.28 20.62,20.62 0 0 1 2.84,-3.1 8.66,8.66 0 0 1 2.35,-1.38 c 0.22,-0.09 0.46,-0.15 0.69,-0.23 l 0.44,-0.12 c 0.33,-0.09 0.68,-0.17 1,-0.23 a 17.13,17.13 0 0 1 8.28,0.65 34.79,34.79 0 0 1 12.97,7.61 c -4.82,-1.12 -9.43,-2.51 -13.85,-3 a 15.54,15.54 0 0 0 -6,0.28 l -0.7,0.22 -0.42,0.14 -0.16,0.07 a 3,3 0 0 0 -0.7,0.51 18,18 0 0 0 -2,2.28 28.18,28.18 0 0 1 -2.65,3 15.28,15.28 0 0 1 -3.57,2.52 14.75,14.75 0 0 1 -4.11,1.35 l -1,0.15 -0.82,0.1 c -0.54,0.08 -1.08,0.17 -1.62,0.28 a 18.47,18.47 0 0 0 -6.08,2.23 11.49,11.49 0 0 0 -4.61,4.96 z"
       transform="translate(-445.5,-121.26)"
       id="path1058" />
    <path
       d="m 740.11,272.92 a 18.58,18.58 0 0 0 -3,1.28 5.35,5.35 0 0 0 -2,1.73 1.85,1.85 0 0 0 -0.07,1.67 c 0.1,0.32 0.27,0.83 0.44,1.23 0.17,0.4 0.37,0.85 0.59,1.27 0.87,1.71 2,3.39 3.11,5.43 a 17.45,17.45 0 0 1 1.49,3.49 9,9 0 0 1 0.19,4.68 8.62,8.62 0 0 1 -0.94,2.31 10.29,10.29 0 0 1 -1.4,1.79 11.63,11.63 0 0 1 -1.56,1.35 l -0.4,0.28 -0.34,0.23 -0.54,0.38 a 26.22,26.22 0 0 0 -4.22,4 19.76,19.76 0 0 0 -4.76,11.13 13.69,13.69 0 0 1 -1.07,-6.78 17.91,17.91 0 0 1 2.11,-6.82 22.49,22.49 0 0 1 4.39,-5.71 c 0.23,-0.21 0.46,-0.42 0.73,-0.64 0.27,-0.22 0.22,-0.18 0.31,-0.27 l 0.24,-0.21 a 10.8,10.8 0 0 0 0.83,-0.86 3.64,3.64 0 0 0 0.8,-1.51 4,4 0 0 0 -0.12,-1.74 17.31,17.31 0 0 0 -0.94,-2.53 43.32,43.32 0 0 1 -2.48,-6.31 14.8,14.8 0 0 1 -0.5,-3.79 5.86,5.86 0 0 1 0.49,-2.38 5,5 0 0 1 1.51,-1.87 6.72,6.72 0 0 1 3.7,-1.22 10.25,10.25 0 0 1 3.41,0.39 z"
       transform="translate(-445.5,-121.26)"
       id="path1060" />
    <path
       d="m 702,304.78 a 9.76,9.76 0 0 1 -1.56,-3.6 9.37,9.37 0 0 1 0,-4.19 9.71,9.71 0 0 1 2,-4 13.14,13.14 0 0 1 3.36,-2.84 19,19 0 0 1 1.9,-1 l 1,-0.41 0.73,-0.33 a 8.31,8.31 0 0 0 2.28,-1.51 3.05,3.05 0 0 0 0.87,-1.67 21.94,21.94 0 0 0 0.23,-3.13 12.16,12.16 0 0 1 1,-4.67 8.19,8.19 0 0 1 1.56,-2.26 13.92,13.92 0 0 1 1.72,-1.55 17.61,17.61 0 0 1 7.87,-3.26 26.37,26.37 0 0 1 15.3,2.51 c -5.07,0 -10,0.32 -14.22,1.83 a 15.73,15.73 0 0 0 -5.43,3.16 8.29,8.29 0 0 0 -1,1 3.41,3.41 0 0 0 -0.51,0.82 9.07,9.07 0 0 0 -0.33,2.61 19,19 0 0 1 -0.41,4.28 8.56,8.56 0 0 1 -2.91,4.6 12.14,12.14 0 0 1 -4.19,2.1 c -0.34,0.1 -0.68,0.19 -1,0.28 l -0.8,0.2 a 14.37,14.37 0 0 0 -1.52,0.49 8.6,8.6 0 0 0 -4.72,3.66 11.08,11.08 0 0 0 -1.22,6.88 z"
       transform="translate(-445.5,-121.26)"
       id="path1062" />
  </g>
  <g
     id="Layer_10"
     data-name="Layer 10"
     transform="matrix(1.1357273,0,0,1.1145008,24.858704,24.31151)">
    <path
       d="m 728.77,311.5 a 29.35,29.35 0 0 1 1.69,-2.82 1.5,1.5 0 0 0 -2.59,-1.51 29.35,29.35 0 0 0 -1.69,2.82 1.53,1.53 0 0 0 0.54,2.05 1.52,1.52 0 0 0 2.05,-0.54 z"
       transform="translate(-445.5,-121.26)"
       id="path1065" />
    <path
       d="m 730.15,309.26 a 25,25 0 0 1 5.92,-2.39 1.5,1.5 0 0 0 -0.8,-2.89 28.1,28.1 0 0 0 -6.63,2.69 1.5,1.5 0 0 0 1.51,2.59 z"
       transform="translate(-445.5,-121.26)"
       id="path1067" />
    <path
       d="m 625.42,330.32 -0.49,-0.06 1.06,0.44 c -1.09,-0.86 -1.41,-3.75 -1.58,-5.05 a 12.24,12.24 0 0 0 -0.83,-4 c -0.84,-1.74 -3.43,-0.22 -2.59,1.51 a 10.51,10.51 0 0 1 0.49,3.1 25.14,25.14 0 0 0 0.87,3.67 c 0.55,1.81 1.06,3.14 3.08,3.4 2.02,0.26 1.89,-2.76 0,-3 z"
       transform="translate(-445.5,-121.26)"
       id="path1069" />
    <path
       d="M 624.5,330.44 A 67.71,67.71 0 0 1 623.39,322 c -0.13,-1.92 -3.13,-1.93 -3,0 a 74.2,74.2 0 0 0 1.22,9.24 c 0.37,1.89 3.26,1.09 2.89,-0.8 z"
       transform="translate(-445.5,-121.26)"
       id="path1071" />
    <path
       d="m 624.08,329.63 c -0.64,-1.21 -0.23,-3.3 -0.54,-4.7 a 14.09,14.09 0 0 1 -0.76,-4.76 c 0.2,-1.92 -2.8,-1.9 -3,0 -0.2,1.9 0.46,3.67 0.87,5.56 0.41,1.89 -0.07,3.68 0.85,5.41 0.92,1.73 3.49,0.19 2.59,-1.51 z"
       transform="translate(-445.5,-121.26)"
       id="path1073" />
    <path
       d="m 622.92,330 a 38.38,38.38 0 0 0 -1.17,-10.09 c -0.54,-1.85 -3.44,-1.06 -2.89,0.8 a 35.25,35.25 0 0 1 1.06,9.29 c 0,1.93 3,1.93 3,0 z"
       transform="translate(-445.5,-121.26)"
       id="path1075" />
    <path
       d="m 612.83,357.33 a 18.92,18.92 0 0 1 -3.22,-3.25 19.9,19.9 0 0 1 -2,-4.52 c -0.67,-1.79 -3.57,-1 -2.89,0.8 a 24.26,24.26 0 0 0 2.28,5.24 20.79,20.79 0 0 0 3.69,3.85 c 1.45,1.26 3.58,-0.85 2.12,-2.12 z"
       transform="translate(-445.5,-121.26)"
       id="path1077" />
    <path
       d="m 611.79,388.81 a 32.37,32.37 0 0 1 -5,-4.63 16.51,16.51 0 0 0 -5.06,-3.43 c -1.73,-0.83 -3.26,1.75 -1.51,2.59 a 15.53,15.53 0 0 1 5.36,4 24.92,24.92 0 0 0 4.66,4 c 1.58,1.12 3.08,-1.48 1.51,-2.59 z"
       transform="translate(-445.5,-121.26)"
       id="path1079" />
    <path
       d="m 626.75,414.4 c -1.9,0.07 -3.7,0.63 -5.6,0.2 a 19.25,19.25 0 0 1 -5,-2.23 c -1.69,-0.94 -3.2,1.65 -1.51,2.59 a 22.93,22.93 0 0 0 5.71,2.53 c 2.22,0.53 4.18,0 6.4,-0.09 1.92,-0.07 1.93,-3.07 0,-3 z"
       transform="translate(-445.5,-121.26)"
       id="path1081" />
    <path
       d="m 645.49,436.69 c -0.41,1.32 -3.88,1.62 -5,1.81 a 29.24,29.24 0 0 0 -4.93,1.11 c -1.81,0.64 -1,3.54 0.8,2.89 3.5,-1.23 10.7,-0.64 12.07,-5 0.58,-1.85 -2.32,-2.64 -2.89,-0.8 z"
       transform="translate(-445.5,-121.26)"
       id="path1083" />
    <path
       d="m 674.95,446.9 c -2.55,3.32 -6.3,4 -9.54,6.31 -1.56,1.11 -0.06,3.71 1.51,2.59 1.87,-1.33 4.1,-1.94 6.05,-3.14 a 17,17 0 0 0 4.57,-4.25 c 1.18,-1.53 -1.43,-3 -2.59,-1.51 z"
       transform="translate(-445.5,-121.26)"
       id="path1085" />
    <path
       d="m 759.44,385.42 a 65.86,65.86 0 0 1 10.91,0.81 c 1.88,0.39 2.69,-2.5 0.8,-2.89 a 70.48,70.48 0 0 0 -11.71,-0.91 c -1.93,-0.07 -1.93,2.93 0,3 z"
       transform="translate(-445.5,-121.26)"
       id="path1087" />
    <path
       d="m 646.31,309.71 a 5.12,5.12 0 0 1 0.44,-4 c 0.53,-1 1.12,-2 1.7,-3 a 1.5,1.5 0 0 0 -2.59,-1.51 32.78,32.78 0 0 0 -2.31,4.37 8,8 0 0 0 -0.14,4.94 c 0.43,1.88 3.32,1.09 2.89,-0.8 z"
       transform="translate(-445.5,-121.26)"
       id="path1089" />
    <path
       d="m 646.25,309.26 c 0.82,0.32 0.34,0.21 0.11,-0.36 -0.1,-0.26 -0.26,-0.51 -0.38,-0.77 -0.27,-0.55 -0.49,-1.14 -0.79,-1.67 -1.29,-2.28 -2.92,-4.43 -4.36,-6.62 -1.06,-1.6 -3.66,-0.1 -2.59,1.51 a 78.88,78.88 0 0 1 4.64,7.19 c 0.66,1.29 1.09,3 2.57,3.61 1.8,0.7 2.58,-2.2 0.8,-2.89 z"
       transform="translate(-445.5,-121.26)"
       id="path1091" />
    <path
       d="m 647,305 q 1.11,-2.88 2.07,-5.81 c 0.6,-1.84 -2.29,-2.63 -2.89,-0.8 -0.6,1.83 -1.33,3.89 -2.07,5.81 -0.74,1.92 2.2,2.58 2.89,0.8 z"
       transform="translate(-445.5,-121.26)"
       id="path1093" />
  </g>
  <g
     id="Layer_9"
     data-name="Layer 9"
     transform="matrix(1.1357273,0,0,1.1145008,24.858704,24.31151)">
    <path
       d="m 688.09,305.74 a 22.25,22.25 0 0 1 -1,-4.6 19.39,19.39 0 0 1 0,-4.68 13.48,13.48 0 0 1 1.38,-4.53 13.14,13.14 0 0 1 1.29,-2 8.15,8.15 0 0 0 1,-1.7 7.05,7.05 0 0 0 0.51,-3.92 15.73,15.73 0 0 0 -1.27,-4 c -0.58,-1.33 -1.25,-2.64 -1.81,-4 a 9.48,9.48 0 0 1 -0.89,-4.29 9.3,9.3 0 0 0 1.24,4.13 c 0.67,1.29 1.44,2.53 2.15,3.82 a 16.66,16.66 0 0 1 1.72,4.17 8.43,8.43 0 0 1 -0.21,4.7 9.78,9.78 0 0 1 -1.05,2.14 10.46,10.46 0 0 0 -1.82,5.69 19,19 0 0 0 1.54,7.93 z"
       transform="translate(-445.5,-121.26)"
       id="path1096" />
    <path
       d="m 660.39,309.88 a 22.49,22.49 0 0 1 -1.75,-4.34 22.21,22.21 0 0 1 -0.84,-4.53 17.48,17.48 0 0 1 0.25,-4.62 c 0.15,-0.76 0.39,-1.53 0.54,-2.14 a 7.85,7.85 0 0 0 0.21,-2 6,6 0 0 0 -1.36,-3.63 19.24,19.24 0 0 0 -3.06,-2.93 20,20 0 0 1 -3.19,-3 6.19,6.19 0 0 1 -1.37,-4.1 6,6 0 0 0 1.66,3.86 19.51,19.51 0 0 0 3.35,2.68 20.07,20.07 0 0 1 3.47,2.8 7.37,7.37 0 0 1 2,4.24 9.43,9.43 0 0 1 0,2.38 c -0.13,0.81 -0.27,1.45 -0.35,2.12 a 15.42,15.42 0 0 0 0.13,4.07 19.78,19.78 0 0 0 1.09,3.95 20,20 0 0 0 1.81,3.6 z"
       transform="translate(-445.5,-121.26)"
       id="path1098" />
    <path
       d="m 638.73,325.58 a 27.31,27.31 0 0 1 -3.59,-3.08 21.87,21.87 0 0 1 -2.94,-3.69 12.74,12.74 0 0 1 -1.81,-4.47 10,10 0 0 1 -0.13,-2.44 5.05,5.05 0 0 0 -0.19,-1.91 6,6 0 0 0 -2.45,-3.07 20.21,20.21 0 0 0 -3.85,-2 l -4.14,-1.65 a 16.34,16.34 0 0 1 -3.92,-2.14 16.16,16.16 0 0 0 4.05,1.78 l 4.27,1.28 a 21.13,21.13 0 0 1 4.22,1.74 7.34,7.34 0 0 1 3.29,3.53 6.7,6.7 0 0 1 0.48,2.47 8.14,8.14 0 0 0 0.26,2 10.66,10.66 0 0 0 1.82,3.6 22.7,22.7 0 0 0 6.24,5.52 z"
       transform="translate(-445.5,-121.26)"
       id="path1100" />
    <path
       d="m 625.79,347.06 a 28.23,28.23 0 0 1 -4.69,-0.54 21.52,21.52 0 0 1 -4.52,-1.38 11.6,11.6 0 0 1 -4,-2.78 7.82,7.82 0 0 1 -1.36,-2.13 L 611,339.72 a 2.58,2.58 0 0 0 -0.19,-0.42 3.48,3.48 0 0 0 -0.53,-0.75 6.65,6.65 0 0 0 -3.54,-1.78 29.11,29.11 0 0 0 -4.34,-0.54 c -1.48,-0.1 -3,-0.17 -4.46,-0.34 a 12,12 0 0 1 -4.31,-1.16 11.77,11.77 0 0 0 4.34,0.76 c 1.48,0 3,0 4.45,-0.06 a 30,30 0 0 1 4.54,0.16 8,8 0 0 1 4.46,1.83 5.11,5.11 0 0 1 0.84,1 4.09,4.09 0 0 1 0.33,0.56 l 0.26,0.49 a 6,6 0 0 0 1.15,1.53 9.51,9.51 0 0 0 3.44,2 23.12,23.12 0 0 0 8.27,1.07 z"
       transform="translate(-445.5,-121.26)"
       id="path1102" />
    <path
       d="M 621.82,372.78 A 37.5,37.5 0 0 1 617,374 a 28.54,28.54 0 0 1 -4.92,0.5 14,14 0 0 1 -5,-0.78 7.64,7.64 0 0 1 -2.33,-1.36 7.47,7.47 0 0 1 -0.93,-1 l -0.31,-0.39 -0.35,-0.34 a 4.45,4.45 0 0 0 -3.87,-0.7 21.48,21.48 0 0 0 -4.36,1.49 c -1.44,0.62 -2.87,1.31 -4.35,1.9 a 11.64,11.64 0 0 1 -4.62,1 11.45,11.45 0 0 0 4.45,-1.42 c 1.4,-0.7 2.76,-1.5 4.16,-2.26 a 22.41,22.41 0 0 1 4.44,-2 7.63,7.63 0 0 1 2.57,-0.31 5,5 0 0 1 2.6,0.91 l 0.54,0.44 0.48,0.5 a 5.16,5.16 0 0 0 2.54,1.57 11.93,11.93 0 0 0 4.3,0.34 31.51,31.51 0 0 0 8.75,-2.17 z"
       transform="translate(-445.5,-121.26)"
       id="path1104" />
    <path
       d="m 626.71,400.16 a 28.38,28.38 0 0 1 -4.1,2.51 21.9,21.9 0 0 1 -4.5,1.71 11.63,11.63 0 0 1 -5,0.23 8,8 0 0 1 -2.41,-0.88 7.41,7.41 0 0 0 -1.86,-0.77 5.24,5.24 0 0 0 -3.88,0.66 16.05,16.05 0 0 0 -3.4,2.78 c -1.06,1.07 -2.07,2.21 -3.17,3.26 a 9.52,9.52 0 0 1 -3.8,2.49 9.34,9.34 0 0 0 3.51,-2.76 c 1,-1.13 1.9,-2.34 2.88,-3.52 a 17,17 0 0 1 3.36,-3.25 6.64,6.64 0 0 1 4.79,-1.21 9,9 0 0 1 2.4,0.76 6.1,6.1 0 0 0 1.89,0.53 9.56,9.56 0 0 0 4,-0.52 23.26,23.26 0 0 0 7.32,-4.33 z"
       transform="translate(-445.5,-121.26)"
       id="path1106" />
    <path
       d="m 642.08,421.68 a 23.3,23.3 0 0 1 -2.27,3.79 18.1,18.1 0 0 1 -3,3.24 10.33,10.33 0 0 1 -4,2.12 10.79,10.79 0 0 1 -2.2,0.27 15.19,15.19 0 0 0 -1.94,0.24 9.2,9.2 0 0 0 -3.52,1.48 9.87,9.87 0 0 0 -2.58,2.93 c -0.7,1.15 -1.27,2.41 -2,3.61 a 8,8 0 0 1 -2.77,3 7.83,7.83 0 0 0 2.44,-3.22 c 0.57,-1.23 1,-2.53 1.64,-3.8 a 10.82,10.82 0 0 1 2.53,-3.46 10.52,10.52 0 0 1 3.85,-2.06 16.78,16.78 0 0 1 2.12,-0.47 9.08,9.08 0 0 0 1.86,-0.39 8.28,8.28 0 0 0 3,-2 18.71,18.71 0 0 0 4,-6.46 z"
       transform="translate(-445.5,-121.26)"
       id="path1108" />
    <path
       d="m 666.82,437.33 a 42.09,42.09 0 0 1 -4.84,7 27.61,27.61 0 0 1 -3,3.05 19.1,19.1 0 0 1 -1.7,1.33 l -0.9,0.6 a 8.41,8.41 0 0 0 -0.77,0.52 7.56,7.56 0 0 0 -2.28,3 17.44,17.44 0 0 0 -1.11,3.84 c -0.26,1.34 -0.47,2.71 -0.82,4.06 a 10.35,10.35 0 0 1 -1.69,3.77 10.15,10.15 0 0 0 1.29,-3.85 c 0.21,-1.35 0.28,-2.71 0.41,-4.09 a 18.42,18.42 0 0 1 0.77,-4.17 9,9 0 0 1 2.35,-3.76 10.1,10.1 0 0 1 0.87,-0.73 l 0.77,-0.61 a 17.21,17.21 0 0 0 1.44,-1.33 25.47,25.47 0 0 0 2.54,-3 39.62,39.62 0 0 0 4,-6.87 z"
       transform="translate(-445.5,-121.26)"
       id="path1110" />
    <path
       d="m 714.64,435.51 a 23.66,23.66 0 0 1 3.33,3.23 17.45,17.45 0 0 1 2.55,3.89 9.55,9.55 0 0 1 0.95,4.71 12.15,12.15 0 0 1 -0.46,2.26 11,11 0 0 0 -0.3,2 7.7,7.7 0 0 0 0.73,3.89 11.62,11.62 0 0 0 2.52,3.29 c 1,1 2.16,1.9 3.21,2.9 a 8.59,8.59 0 0 1 2.48,3.55 8.41,8.41 0 0 0 -2.72,-3.26 c -1.12,-0.89 -2.32,-1.69 -3.46,-2.62 a 12.55,12.55 0 0 1 -3,-3.31 9,9 0 0 1 -1.25,-4.44 12.58,12.58 0 0 1 0.15,-2.3 10.66,10.66 0 0 0 0.25,-2 7.51,7.51 0 0 0 -1.08,-3.61 18.43,18.43 0 0 0 -5.58,-5.69 z"
       transform="translate(-445.5,-121.26)"
       id="path1112" />
    <path
       d="m 738.25,420.18 a 13.49,13.49 0 0 1 2.4,0.8 15.54,15.54 0 0 1 2.16,1.15 12.39,12.39 0 0 1 3.56,3.4 11.19,11.19 0 0 1 1.79,4.54 c 0.08,0.4 0.1,0.8 0.14,1.19 v 1.15 a 6.09,6.09 0 0 0 0.33,1.93 5.81,5.81 0 0 0 2.56,3 18.16,18.16 0 0 0 4,1.71 c 1.4,0.46 2.85,0.86 4.25,1.42 a 8.49,8.49 0 0 1 2,1.09 3.4,3.4 0 0 1 1.26,1.82 3.3,3.3 0 0 0 -1.38,-1.67 8.21,8.21 0 0 0 -2,-0.89 c -1.4,-0.44 -2.86,-0.7 -4.32,-1 a 19.06,19.06 0 0 1 -4.34,-1.45 7.18,7.18 0 0 1 -3.42,-3.4 7.73,7.73 0 0 1 -0.64,-2.4 l -0.12,-1.08 c -0.07,-0.34 -0.11,-0.68 -0.2,-1 a 9.07,9.07 0 0 0 -1.74,-3.57 9.93,9.93 0 0 0 -3.06,-2.48 12.83,12.83 0 0 0 -1.84,-0.8 10.9,10.9 0 0 0 -1.87,-0.47 z"
       transform="translate(-445.5,-121.26)"
       id="path1114" />
    <path
       d="m 754.15,396.45 a 29.16,29.16 0 0 1 4.38,1.61 24.72,24.72 0 0 1 4,2.3 15.1,15.1 0 0 1 3.42,3.27 10.18,10.18 0 0 1 1.22,2.09 4.29,4.29 0 0 0 1,1.54 6.94,6.94 0 0 0 3.63,1.55 30.28,30.28 0 0 0 4.32,0.34 c 1.47,0 2.95,0 4.43,0.16 a 11.89,11.89 0 0 1 4.31,1 11.71,11.71 0 0 0 -4.32,-0.58 c -1.46,0 -2.93,0.14 -4.4,0.23 a 31.18,31.18 0 0 1 -4.49,0 8.27,8.27 0 0 1 -4.51,-1.53 6,6 0 0 1 -1.59,-2 8.33,8.33 0 0 0 -1.14,-1.63 13,13 0 0 0 -3.16,-2.56 25.2,25.2 0 0 0 -7.79,-2.9 z"
       transform="translate(-445.5,-121.26)"
       id="path1116" />
    <path
       d="m 757.44,369.58 a 31.87,31.87 0 0 1 9,0.93 18.35,18.35 0 0 1 4.29,1.68 12.37,12.37 0 0 1 1.94,1.33 c 0.64,0.56 1,1 1.58,1.38 a 4.84,4.84 0 0 0 3.59,0.95 10.76,10.76 0 0 0 3.82,-1.53 c 1.23,-0.72 2.44,-1.54 3.73,-2.24 a 7.86,7.86 0 0 1 4.17,-1.16 7.67,7.67 0 0 0 -4,1.51 c -1.19,0.8 -2.3,1.72 -3.5,2.57 a 11.72,11.72 0 0 1 -4,2.05 6.29,6.29 0 0 1 -4.69,-0.78 20.31,20.31 0 0 1 -1.82,-1.32 10.48,10.48 0 0 0 -1.72,-1 16.23,16.23 0 0 0 -3.89,-1.18 29.38,29.38 0 0 0 -8.24,-0.21 z"
       transform="translate(-445.5,-121.26)"
       id="path1118" />
    <path
       d="m 750.48,345 a 18.56,18.56 0 0 1 3.61,-3.15 18.89,18.89 0 0 1 4.18,-2.14 16.47,16.47 0 0 1 9.22,-0.59 c 0.41,0.08 0.68,0.16 1,0.21 a 5.23,5.23 0 0 0 1,0.07 5.56,5.56 0 0 0 1.89,-0.39 12.34,12.34 0 0 0 3.48,-2.3 c 1.09,-0.95 2.15,-2 3.29,-2.92 a 10.93,10.93 0 0 1 3.83,-2.17 10.71,10.71 0 0 0 -3.53,2.51 c -1,1 -2,2.15 -3,3.23 a 13.4,13.4 0 0 1 -3.55,2.88 7,7 0 0 1 -2.32,0.73 6.86,6.86 0 0 1 -1.24,0 c -0.4,0 -0.85,-0.09 -1.17,-0.13 a 14.37,14.37 0 0 0 -8,1.06 16.35,16.35 0 0 0 -3.48,2.1 16,16 0 0 0 -2.81,2.8 z"
       transform="translate(-445.5,-121.26)"
       id="path1120" />
    <path
       d="m 735.46,321.74 a 27.44,27.44 0 0 1 2.47,-4 21.16,21.16 0 0 1 3.17,-3.48 11.6,11.6 0 0 1 4.22,-2.4 7.75,7.75 0 0 1 2.49,-0.31 5,5 0 0 0 1.9,-0.18 7.32,7.32 0 0 0 3.2,-2.38 28.71,28.71 0 0 0 2.49,-3.58 c 0.77,-1.26 1.51,-2.55 2.33,-3.79 a 13.58,13.58 0 0 1 2.9,-3.37 13.4,13.4 0 0 0 -2.57,3.57 c -0.7,1.3 -1.32,2.64 -2,4 a 29.62,29.62 0 0 1 -2.24,3.93 8.67,8.67 0 0 1 -3.59,3.14 6.7,6.7 0 0 1 -2.46,0.48 5.88,5.88 0 0 0 -1.88,0.39 9.52,9.52 0 0 0 -3.27,2.24 22.48,22.48 0 0 0 -4.45,7 z"
       transform="translate(-445.5,-121.26)"
       id="path1122" />
    <path
       d="m 713.42,308.35 a 29.09,29.09 0 0 1 1.11,-4.52 24,24 0 0 1 1.84,-4.26 14,14 0 0 1 2.94,-3.73 9.56,9.56 0 0 1 2,-1.36 l 1,-0.45 a 6.38,6.38 0 0 0 3.17,-3.69 16,16 0 0 0 0.94,-4.16 c 0.31,-2.89 0.15,-5.85 0.27,-8.78 0.15,2.94 0.58,5.85 0.53,8.83 a 17,17 0 0 1 -0.6,4.5 8.4,8.4 0 0 1 -2.48,4 8.65,8.65 0 0 1 -1,0.74 l -1,0.55 a 7.68,7.68 0 0 0 -1.53,1.21 11.91,11.91 0 0 0 -2.23,3.35 24.91,24.91 0 0 0 -2,8 z"
       transform="translate(-445.5,-121.26)"
       id="path1124" />
  </g>
  <g
     id="Layer_11"
     data-name="Layer 11"
     transform="matrix(1.1357273,0,0,1.1145008,24.858704,24.31151)">
    <rect
       class="cls-5"
       x="235.5"
       y="250.74001"
       width="13"
       height="204"
       id="rect1127"
       style="fill:#f0d152" />
  </g>
  <g
     id="Layer_5"
     data-name="Layer 5"
     transform="matrix(1.1357273,0,0,1.1145008,24.858704,24.31151)">
    <polyline
       class="cls-3"
       points="250.5 345.41 250.5 456.07 241.83 456.07 242.5 456.07 233.83 456.07 233.83 345.41"
       id="polyline1130"
       style="fill:none;stroke:#000000;stroke-width:4px;stroke-miterlimit:10" />
    <polyline
       class="cls-6"
       points="250.5 345.41 250.5 456.07 241.83 456.07 242.5 456.07 233.83 456.07 233.83 345.41"
       id="polyline1132"
       style="fill:none;stroke:#000000;stroke-miterlimit:10" />
  </g>
  <metadata
     id="metadata3715">
    <rdf:RDF>
      <cc:Work
         rdf:about="">
        <dc:title>House Martell</dc:title>
      </cc:Work>
    </rdf:RDF>
  </metadata>
  <use
     id="shine"
     xlink:href="#shield"
     style="fill:url(#rg-3);stroke:#000000;stroke-width:3" />
</svg>
