<?xml version="1.0" encoding="UTF-8" standalone="no"?>
<svg
   viewBox="0 0 483 527.48"
   version="1.1"
   id="svg12485"
   sodipodi:docname="House Lannister.svg"
   inkscape:version="1.2.1 (9c6d41e410, 2022-07-14)"
   xmlns:inkscape="http://www.inkscape.org/namespaces/inkscape"
   xmlns:sodipodi="http://sodipodi.sourceforge.net/DTD/sodipodi-0.dtd"
   xmlns="http://www.w3.org/2000/svg"
   xmlns:svg="http://www.w3.org/2000/svg">
  <sodipodi:namedview
     id="namedview12487"
     pagecolor="#ffffff"
     bordercolor="#000000"
     borderopacity="0.25"
     inkscape:showpageshadow="2"
     inkscape:pageopacity="0.0"
     inkscape:pagecheckerboard="0"
     inkscape:deskcolor="#d1d1d1"
     showgrid="false"
     inkscape:zoom="1.12203"
     inkscape:cx="172.00966"
     inkscape:cy="278.06742"
     inkscape:window-width="1920"
     inkscape:window-height="1017"
     inkscape:window-x="-8"
     inkscape:window-y="-8"
     inkscape:window-maximized="1"
     inkscape:current-layer="svg12485" />
  <defs
     id="defs11666">
    <style
       id="style11664">.cls-1{fill:#860a0a;stroke-width:3px;}.cls-1,.cls-2,.cls-3,.cls-4,.cls-5,.cls-6,.cls-8{stroke:#000;}.cls-2{fill:#410a10;}.cls-2,.cls-3,.cls-4,.cls-5,.cls-6,.cls-8{stroke-miterlimit:10;}.cls-3,.cls-5,.cls-7{fill:#faf5da;}.cls-3,.cls-4,.cls-6{stroke-width:2px;}.cls-4,.cls-8{fill:none;stroke-linecap:round;}.cls-6{fill:#c2ac7a;}</style>
    <radialGradient
       id="rg"
       gradientUnits="userSpaceOnUse"
       cx="220"
       cy="220"
       r="405"
       gradientTransform="matrix(0.80510068,0,0,0.80302287,-0.0302005,-0.9020136)">
      <stop
         style="stop-color:#ffffff;stop-opacity:.3"
         offset="0"
         id="stop753" />
      <stop
         style="stop-color:#ffffff;stop-opacity:.2"
         offset=".2"
         id="stop755" />
      <stop
         style="stop-color:#666666;stop-opacity:.1"
         offset=".6"
         id="stop757" />
      <stop
         style="stop-color:#000000;stop-opacity:.13"
         offset="1"
         id="stop759" />
    </radialGradient>
  </defs>
  <title
     id="title11668">Lannister-Shield</title>
  <g
     id="Layer_4"
     data-name="Layer 4">
    <path
       class="cls-1"
       d="M923,121.76V327.6a314.37,314.37,0,0,1-2.28,38c-.11.93-.24,1.86-.36,2.79s-.24,1.86-.39,2.79q-.7,5.05-1.61,10c-.07.44-.15.87-.23,1.31-.15.8-.29,1.6-.45,2.39s-.34,1.8-.51,2.69l-.45,2.22-.24,1.16c-.15.71-.3,1.44-.47,2.15q-.8,3.55-1.61,7l-.58,2.32-.52,2q-1.52,5.88-3.27,11.61c-.29,1-.59,1.94-.9,2.92l-.6,1.88c-.19.63-.39,1.25-.6,1.86l-1.1,3.26c-.37,1.09-.68,2-1,3-.47,1.28-.92,2.55-1.39,3.81-.36,1-.73,2-1.11,3l-.19.49c-.43,1.14-.87,2.25-1.32,3.37s-.87,2.16-1.32,3.19a3.35,3.35,0,0,1-.18.42c-.4,1-.8,2-1.25,3s-.75,1.75-1.13,2.62l-.66,1.49c-.47,1.07-.95,2.12-1.44,3.15s-.9,2-1.36,2.93l-1,2.12c-.3.63-.6,1.25-.91,1.88-.63,1.32-1.31,2.64-2,4q-2.53,5-5.19,9.77l-2,3.57-.11.21q-2.13,3.71-4.33,7.33c-.71,1.2-1.46,2.39-2.18,3.54-.1.16-.19.31-.3.46-.55.89-1.12,1.78-1.69,2.66l-.66,1c-.65,1-1.31,2-2,3l-.13.18c-.66,1-1.32,2-2,3l-.45.67q-2.26,3.28-4.54,6.46l-.31.42c-.8,1.07-1.54,2.14-2.31,3.19s-1.66,2.23-2.5,3.32q-2.29,3-4.61,6l-.8,1c-.73.93-1.48,1.85-2.22,2.76L850,525.61l-.57.69L847,529.1q-2.83,3.32-5.72,6.53c-.75.85-1.52,1.69-2.29,2.51l-2.22,2.39q-3,3.19-5.93,6.24-2.76,2.83-5.53,5.59c-.91.91-1.84,1.82-2.76,2.71s-1.85,1.78-2.78,2.67l-2.28,2.11c-.68.65-1.36,1.28-2.05,1.91a448.64,448.64,0,0,1-61.76,47.47c-.86.55-1.73,1.1-2.58,1.6q-6.42,4.07-12.46,7.63l-2.41,1.4-2.36,1.36-2.34,1.35-2.22,1.28c-8.35,4.68-15.91,8.59-22.38,11.76l-1.61.8c-10.63,5.15-18.11,8.22-21,9.35l-.42.18-.61.23-.14.06h-.08l-.23-.1-.21,0-1.07-.42-.55-.23c-.87-.34-2-.8-3.36-1.38l-.47-.18c-1.76-.8-3.88-1.67-6.33-2.77l-1.39-.61a443.16,443.16,0,0,1-39.74-20.6c-.8-.45-1.61-.92-2.36-1.38a473.14,473.14,0,0,1-44.78-30l-2.62-2c-1-.75-2-1.52-2.95-2.29l-2.81-2.21c-6.19-4.92-12.43-10.15-18.64-15.69L554.08,565q-2.3-2.05-4.59-4.2l-1.67-1.57L546,557.54l-2-1.94c-1.12-1.07-2.24-2.16-3.34-3.26-.84-.8-1.69-1.67-2.52-2.51l-.24-.26q-1.25-1.25-2.5-2.51c-.66-.68-1.32-1.36-2-2l-2-2.07-.13-.15-2.1-2.24q-3.36-3.61-6.66-7.36c-.68-.8-1.36-1.55-2-2.35-.57-.65-1.12-1.28-1.66-1.94l-2-2.39q-4.26-5.11-8.39-10.48-1.13-1.45-2.24-2.92c-1.89-2.47-3.73-5-5.57-7.55l-1.68-2.39c-.13-.16-.24-.34-.36-.5-.59-.85-1.19-1.7-1.77-2.55-.95-1.38-1.89-2.77-2.82-4.17q-1.11-1.64-2.18-3.31l-.15-.24-2.22-3.47c-.07-.13-.15-.24-.22-.37-.71-1.14-1.41-2.27-2.1-3.4s-1.49-2.46-2.21-3.7-1.44-2.39-2.13-3.67q-4.6-8-8.77-16.47c-.35-.69-.69-1.38-1-2.08-.22-.44-.44-.89-.65-1.35-.43-.87-.8-1.75-1.25-2.63a27.17,27.17,0,0,1-1.15-2.47l-.23-.48c-.26-.58-.52-1.16-.8-1.75l-.26-.57c-.26-.58-.52-1.18-.8-1.77q-1.44-3.26-2.78-6.58c-.42-1-.8-2-1.23-3.07-.1-.26-.21-.53-.31-.8-.4-1-.8-2-1.16-3s-.68-1.82-1-2.74l-.23-.65c-.18-.45-.34-.91-.5-1.36q-1-2.69-1.89-5.44c-.21-.6-.4-1.21-.6-1.8-.26-.8-.51-1.54-.75-2.31-.14-.42-.26-.8-.39-1.22-.26-.8-.5-1.6-.75-2.39-.31-1-.61-2.06-.92-3.1-.18-.65-.39-1.28-.57-2-.37-1.28-.74-2.58-1.08-3.89-.19-.68-.37-1.35-.55-2-.13-.5-.26-1-.39-1.51-.32-1.22-.63-2.46-.92-3.7-.18-.7-.35-1.4-.52-2.11-.07-.29-.13-.57-.19-.85-.37-1.55-.71-3.11-1.07-4.69-.26-1.16-.5-2.33-.74-3.5-.14-.71-.29-1.43-.43-2.14s-.32-1.6-.47-2.45a2.13,2.13,0,0,0-.1-.47c-.15-.8-.3-1.64-.45-2.48s-.31-1.84-.47-2.77-.3-1.8-.45-2.71q-.87-5.52-1.56-11.17A314.73,314.73,0,0,1,443,327.58V121.76Z"
       transform="translate(-441.5 -120.26)"
       id="path11670" />
  </g>
  <g
     id="Layer_9"
     data-name="Layer 9">
    <path
       class="cls-2"
       d="M661.76,213.25s5,1.92,4.2,18l3.48,2.3,2.19-9,1.08-9.08-1.08-4.35L668,208.87s-4.71.38-4.87.46S661.76,213.25,661.76,213.25Z"
       transform="translate(-441.5 -120.26)"
       id="path11673" />
  </g>
  <g
     id="Layer_6"
     data-name="Layer 6">
    <path
       class="cls-3"
       d="M670.45,221.39s-9.15-1.92-17.53-.66-21.06-.5-20.94-5.6a5.06,5.06,0,0,1,3.33-5.07.4.4,0,0,0,0-.75c-3.87-1.17-14.94-3.73-16.84,4.61-2.32,10.14,7.61,14.41,20.46,12s25.24-3.67,31.64-2.46Z"
       transform="translate(-441.5 -120.26)"
       id="path11676" />
    <path
       class="cls-4"
       d="M632.07,215.91s-2.41.44-2.65-5.16"
       transform="translate(-441.5 -120.26)"
       id="path11678" />
    <path
       class="cls-5"
       d="M650.17,227.67a8.13,8.13,0,0,1,1.83-3.76s2.08.18,2.42,3.76"
       transform="translate(-441.5 -120.26)"
       id="path11680" />
    <path
       class="cls-5"
       d="M656.8,228a32.22,32.22,0,0,1,2.39-3,10.45,10.45,0,0,1,2.14,4.5"
       transform="translate(-441.5 -120.26)"
       id="path11682" />
  </g>
  <g
     id="Layer_8"
     data-name="Layer 8">
    <path
       class="cls-5"
       d="M648.58,215.91a12.14,12.14,0,0,0,1.61,5.43s1.39-3.84,2.72-4.75Z"
       transform="translate(-441.5 -120.26)"
       id="path11685" />
    <path
       class="cls-5"
       d="M654,216.91c.19,0,.6,1.83,1.64,2.88,0,0,.43-3.29,2.07-4.66Z"
       transform="translate(-441.5 -120.26)"
       id="path11687" />
    <path
       class="cls-3"
       d="M517.93,327.31s-9.43,5.56,1.45,12.06A13,13,0,0,1,522.75,329Z"
       transform="translate(-441.5 -120.26)"
       id="path11689" />
    <path
       class="cls-3"
       d="M534.5,334.88s-.42,10,8.91,6.45l-1.2-4.42S537.5,338.63,534.5,334.88Z"
       transform="translate(-441.5 -120.26)"
       id="path11691" />
    <path
       class="cls-3"
       d="M513.25,325.13s-3.63-9.71,5.5-11.77v4.77A46.62,46.62,0,0,0,513.25,325.13Z"
       transform="translate(-441.5 -120.26)"
       id="path11693" />
    <path
       class="cls-3"
       d="M514.14,311s1.21-10.45,16.23-5.22l-5,3.6S516.27,308.5,514.14,311Z"
       transform="translate(-441.5 -120.26)"
       id="path11695" />
    <path
       class="cls-3"
       d="M572.42,490.17s-6,3.83-1.83,11.33c0,0,.83-5.68,4.17-9.17Z"
       transform="translate(-441.5 -120.26)"
       id="path11697" />
    <path
       class="cls-3"
       d="M575.84,496.13s-3.33,8.54,0,12.46c0,0,2.08-8.92,4.5-10.75Z"
       transform="translate(-441.5 -120.26)"
       id="path11699" />
    <path
       class="cls-3"
       d="M585.66,504.34s-.74,9,4.59,10.16c0,0-.92-7.31.63-10.16Z"
       transform="translate(-441.5 -120.26)"
       id="path11701" />
    <path
       class="cls-3"
       d="M610.38,504.87a11,11,0,0,1-8.25,5.13s6.38,5.89,12.25-3.83Z"
       transform="translate(-441.5 -120.26)"
       id="path11703" />
    <path
       class="cls-3"
       d="M669.26,564.2s-6.33,6.89,0,12.8c0,0-.34-8,3.37-10.25Z"
       transform="translate(-441.5 -120.26)"
       id="path11705" />
    <path
       class="cls-3"
       d="M673.71,574.13s-3.63,9.79,4.79,13.71a18.44,18.44,0,0,1,0-11.92Z"
       transform="translate(-441.5 -120.26)"
       id="path11707" />
    <path
       class="cls-3"
       d="M683.94,580c.35.22.23,11.14,11.48,8.89,0,0-5.08-2.95-4.83-8.89Z"
       transform="translate(-441.5 -120.26)"
       id="path11709" />
    <path
       class="cls-3"
       d="M717,565s-.58,8.21-3.75,10c0,0,8.08,0,8.42-10.78Z"
       transform="translate(-441.5 -120.26)"
       id="path11711" />
    <path
       class="cls-3"
       d="M557.5,206.36c-.06-.11-3.31-7.57,5.13-11.43,0,0-.87,6,.31,7.25Z"
       transform="translate(-441.5 -120.26)"
       id="path11713" />
    <path
       class="cls-3"
       d="M561.25,176c.06-.44-2-4.7-7.31-5.19,0,0,6.08-5.38,11.38,0Z"
       transform="translate(-441.5 -120.26)"
       id="path11715" />
    <path
       class="cls-3"
       d="M574,164.9a8.8,8.8,0,0,0-7.71-4.77s8.75-5.4,11.94,4.49Z"
       transform="translate(-441.5 -120.26)"
       id="path11717" />
    <path
       class="cls-3"
       d="M589.06,169.77s3.9-9-6.77-11.46c0,0,2.81,5.58,2.95,7.88Z"
       transform="translate(-441.5 -120.26)"
       id="path11719" />
  </g>
  <g
     id="Layer_3"
     data-name="Layer 3">
    <path
       class="cls-6"
       d="M573.74,335.14l.09,3c.84,5.83,5.17,6.33,9.86,6.5a29,29,0,0,0,7.57-.83.13.13,0,0,0,0-.26,12.61,12.61,0,0,1-5.72-.91c-2.5-1.34-2.33-7.5,0-8.5s6,3.16,10.33,6,6.84.16,6.84.16-2-6.66.66-9.5,6.34,1.34,6.17,3.34c-.13,1.53-2.87,4.7-4.17,6.12a.2.2,0,0,0,.22.33,5.58,5.58,0,0,1,4.94.88,9.26,9.26,0,0,1-3,2.5c3.67.83,6.5-.33,8.5-6.67s7.15-6.34,6.81-2.51a20.91,20.91,0,0,1-2,7c4.73-.08,4.67-5,4.84-8,.12-2.3,4.26-3.91,6.19-4.54a.46.46,0,0,1,.55.64c-1.27,2.75-2,3.71-2.88,4.21a.48.48,0,0,0,.12.86,9.41,9.41,0,0,0,5.06-.11,1.85,1.85,0,0,1,2,.84c9.42,15.36,24.76,29.44,24.76,29.44,18.52,17.57,25.31,32,27.72,41.18-.58-.31-20.75-11.15-23-15.65,0,0-1.63,2-.63,3.3,0,0-6.12-2.12-9.37-2.12s-20,0-25.62-4c.14.29,2.47,4.89,5.62,5.73,0,0-15.59,2.7-27.48-.41a.1.1,0,0,0-.07.18c2.57,1.17,9.23,3.91,14.55,3.72,0,0-25.75,26.14-33,17,0,0-1-1.5-.21-6.35a.49.49,0,0,0-.8-.45c-.52.47.69,7,.38,8.05-.17.58-1.77-1.75-2.12-2.25-.83-1.16-2.9-6.17-3.57-7.61a.37.37,0,0,0-.7.17c.05,2.6.69,6.9,4,9.31,5,3.62,9.75,9.75,9.75,10.12s-4.91,7.76-13.83,9.13a18.18,18.18,0,0,0,12.71,2.25,59.53,59.53,0,0,0,11.11-3,23.64,23.64,0,0,1-2.11,3.3,71.66,71.66,0,0,1-7.34,7.16.18.18,0,0,0,.19.3c2.34-1.07,6.94-3.33,7.76-4.9,1.12-2.13,1.62,1.24,1.62,1.24s-2,8.5-7.37,13a8.4,8.4,0,0,0,5.37-2.87s-1.24,6.25-2.87,7.13a3.32,3.32,0,0,0,2.87-1.88c.88-1.88.76,5.75-4.37,7.12A16,16,0,0,0,609,461c4-2.38,5-3.12,5.38.38s1,8.12-4,9.24S575.5,473.38,573,489.75c0,0,.75,4.75,3.12,6.63s4.38,5.87,6.76,4.5,3.39-7.3,8.87-12.88c0,0-7.25,9.31-7.5,13.16s6.5,7,9.25,5,13.38-9.5,14.62-11.62,4.38-2.25,5.5-1.25-4.5,4.63-4.5,7.75,2,6.25,5.88,5,8.25-1.62,9.75-7.38,5.25-13.87,11.5-14.12c0,0-.75,7.75,0,10.12a46.26,46.26,0,0,0,3.75,7.13s-1.75-6.37-.88-8.13,10.88-6.37,11.5-9.74a32.56,32.56,0,0,0,.5-6.5s3.38,7.61,9.13,8.5c0,0-3.63-4.76-3.63-6.5a20.07,20.07,0,0,0-12.37-16.5c-10.39-4.48-5-14.85-4.65-15.53-.22.78-3.79,14.2,14.9,15.9,0,0-3.38-2.13-3.25-4.37s2-8.88,0-10.5-5.25-4.76-3.75-7.63,8.62-.13,7,9.75c0,0,4.12-3.12,4.75-5.38s1.25-6.74,3.5-6a12,12,0,0,1,4.36,3.36c-.07-.35-1.16-5.55.89-7.6,1.51-1.52,5,0,6.86.92-11.15,15.62-9.86,23.93-8.86,40.37,1.33,21.83-5.5,29.16-5.5,29.16,4.37.73,15.63-10.14,18.38-12.88a.7.7,0,0,1,1.08.13c14,22.24,33.69,29.28,18.2,46.25C682.5,556,677,549.83,671.33,557.5s1.34,10.67,1.34,10.67c-.5,11.33,9.66,10.66,9.66,10.66,10.34,8.67,17-3.66,18.17-5.83a16,16,0,0,0,1.3-4.91.25.25,0,0,1,.49,0c.28,1.54.77,3.34,1.54,3.25,1.34-.16,4.34-6.83,5-10.16s5.84-5.5,6.67-5.67c.68-.14,1.59-2.4,1.62-3.48-.16-.48-.27-.67-.12-.52a.71.71,0,0,1,.12.52,8.78,8.78,0,0,1-.79,7c-2.5,4.83-1.83,7.17,2.34,7.67s9.5-6.67,9.5-10.84-2.67-8.38-2.83-8.65a12.66,12.66,0,0,1,8,9.82c5.67-3.83,6-13.5,4.34-18.33s4.83-5.84,7-3-1.12,9.08-1.32,9.48a15.9,15.9,0,0,1,5.32-3.32c3.66-1.5,2.66-8.83,2.66-8.83,4-.67,4.17-2.5,7.5-5.17s2.67-9.66,2.67-9.66c-4,5-10.67,2.33-13.17.33s1.17-5.33,4.67-4.83a9.8,9.8,0,0,0,5-.7.52.52,0,0,0-.08-1l-3.14-.81c-4.5-1.17-7.16-6.17-12-6s-11.33-4.5-6.83-7.34,9.83,3.34,9.83,3.34,1.34-11-9.33-11.5S726.33,484,726.33,484c8.17,8.67,13.5-10.17,13.5-10.17-6.16,8.5-16,3.5-18-2.16s2.84-8.17,6.17-6.84,1.83,6.34,1.83,6.34c5.34-2.5,4.5-9.84,2.34-10.34s-4.17-.5.16-3.5a9.05,9.05,0,0,0,3.67-8.16c-2.67,4.33-4.17,4.66-7.5,4.66s-3-5.5-1.5-8.83,7.5-10.17,7.5-10.17c12.17,10.5,18.33,9,32,10.34s29.17-22,29.17-22,7.33-.67,10.5-1.17,10-1,14.33-3.17,5-5.5,5-5.5a19.24,19.24,0,0,1-12.17,5.84A13.68,13.68,0,0,1,819,412c2.46-1.67,4.36-5,5.6-7.86a.24.24,0,0,0-.42-.23A24.06,24.06,0,0,1,818,409.5s-.17-6.33-.67-11.83-6.16-6.17-8.66-11.84-9.34-9.16-12.17-11.33-.83-9.5-8.83-19.67c-7.1-9,.38-18.45,2.15-20.44a.29.29,0,0,0-.18-.48c-15.29-2.93-7.4-18.6-1.47-20.4s10.5,3.83,9.83,10.33a11.13,11.13,0,0,1-2.8,6.57.5.5,0,0,0,.64.76c2-1.27,4.57-3.93,6.66-9.49,4-10.67-6.83-17.84-17.17-18.67s-20,13.83-20,13.83c-6.83-14-10.83-33.83-11-39.5s.67-28.33,11.84-40.5,29.5-5.5,29.5-5.5-3.5,7.17-7,13.67-9.5,3.5-11,1.17,1.35-8.52,1.49-8.83c-4.33,4.18-7.48,16.66,6.17,17.83s11-11.17,14.17-9.34,9.17,19.34.17,23.34S794,259.5,794,259.5s-9,4.33-7,12,15.83,7.33,15.83,7.33-6.16,10.5-1.16,18.84,14.33,5.5,14.33,5.5-4.33-.34-7-3,.83-13.67,3-13.34,4.33,2.67,7.33,3.5,8.17.17,9.84-2a45.09,45.09,0,0,1,4.16-4.5c9.33-6.17,5.45-16.29,3.79-19.68a.91.91,0,0,1,.57-1.28c2.58-.73,6.34-3.89,9.48-2,3.66,2.17,2.83,7.34,1.5,9.84a9.52,9.52,0,0,1-3.41,3,.91.91,0,0,0,.66,1.68c4.46-1.16,7.87-4.88,8.75-12.63,1.16-10.34-13-11.5-6.67-13.5s9-10.84,8.5-15.34-3.33-5.83-3.33-5.83,1,1.83.83,8-6.83,6.33-10.67,6.5-9.66-3.5-9-4.5,6.84-1.17,9.5-2.33,3.34-8.17,0-10.67-6.66.17-6.66.17c4.16-.5,6,1.83,5.5,4.66s-5.34,4.67-10.17,4.67-9-5.5-9-5.5,8.33-4.83,10.17-10.5-6.84-9.67-6.84-9.67a7.76,7.76,0,0,1,0,9.17c-3.33,5.17-19.16,8.33-19.16,8.33a50.57,50.57,0,0,0-28.17-5.66c-16.17,1.5-25.5,18.5-31.67,31.5s-.33,36-.16,46,10.66,27.16,10.66,27.16c-17.5-1-23,5.84-24.5,15.84-1.46,9.72,4,14.4,4.33,14.65,0-.28-2.25-10.54,3.67-13.82s11.84,3.5,11.84,3.5c-11.84,8.33-3.84,17.83-3.84,17.83a26.26,26.26,0,0,1,1.67-10c2-5.33,13-.5,13-.5s-3.67.5-6.33,5.67,4,9.27,4.32,9.49c-.14-.13-1.22-1.25-2.16-5.16-1-4.16,4.67-6.5,6-7.16s8.17-1,10.67,1.16,6.5,16.42,6.5,16.42C766.33,380.66,769.67,390,769.67,390c1.5-1.83,9.66-4.67,9.66-4.67a10.19,10.19,0,0,1-6,7.5c-5.33,2.34-17.16.84-19.66-2.13s0-12.53,0-12.53c-5,5.66-6.67,14.5-5.5,22s7.5,9,22.33,7.5,14.17,9.16,13,15.16-10.67,9.34-20.83,11.67-24.34-9.5-26.34-13-2.16-14.17-5.16-18.67-25.34-62.5-21.34-64.16,11-13.17,6.5-16.34-3.5-13.5-3.5-13.5c3.84,5.17,18.17,1,18.67-5.16.49-6-3.43-7.89-3.66-8,.22.29,3.74,4.93.83,8.49s-8.5-2.5-9.67-4.34,1.67-13.16.33-16a66.14,66.14,0,0,1-2.82-8.31c.4.51,7.85,10,14.66,12.31,7,2.34,8-2.33,8-2.33-2.84,2.33-4.17.67-4.17.67,2.5-1.84,1.5-5.17,1.5-5.17-2.17,4.5-4.5,4-6.67,2.83s0-16.83,0-16.83c8.67-2.5,9-7.67,8.5-11.33s-8-10.67-8-10.67c6.5,3.17,9.34-.17,9.34-.17-4-1-6-5.83-6-8.16s-4-10.84-4-10.84c4.08,2,8.26.36,10.27-.74a.25.25,0,0,0-.11-.47c-5.8-.07-17.62-13.68-13.32-12.3,4.67,1.5,12.33-.16,12.33-.16s-3.83-2-5.66-4.5S724,201.17,722,201s.5-2.83,2.33-4.67S722,186.5,722,186.5s-.17,6.5-.67,8.17S716.83,199,715,199s-1.17-2,1.5-7-3.17-10.67-3.17-10.67,1.84,5.67,1,8.34a5.6,5.6,0,0,1-6.29,3.66c-2.8-.33-.54-2.33,0-5.83s-4.17-8-4.17-8c2,6.83-1.5,12.5-5.5,11.33S677.83,189,675.17,189s-5.67,7.17-7.84,7.5-18.16,1.5-19.83,2.67-.5,10.5-.33,13,4,6.33,9.5,3,14-5.5,14-1.17-.17,20-4.34,17.5-16.16-3.83-16.16-3.83a22.72,22.72,0,0,0-5,11.46.51.51,0,0,0,.79.51c4.29-2.93,18.15-4.22,17.23.19-1,4.84-7.34,8.67-10.84,9.67s-11-2.33-15.5-2.67-10.33,6.34-10.33,6.34-2,0-3.5-.17-1.17-.83-1.5-2.33-2-2.84-3.83-3.5-1-2.34-1-4.5-2.84,0-4-1.17,0-2.83-1.79-4.17-3.21-.66-3-4.33-.83-.33-3.33-1.83-.5-3.17-1.5-3.34-2.5-.5-3-3.33-.33-.83-2.33-1.5,0-3.17-1.84-3.67a9,9,0,0,1-3.5-2.33s.5-25.67.5-32.17-1.16-10-5.5-16.33-4.83.83-6.33-1.33-2.67-3.17-7.5-2.17-3.83,5.67-3.83,6.5-2.84-1.67-5.5,0-3.17,7-3.34,10.17c-.13,2.48,6.72,10.09,9.67,13.26a5.81,5.81,0,0,1,1.33,1.4s-.52-.53-1.33-1.4c-.76-.51-1.66-.56-2.17,1.4-.73,2.81,1.21,7,2.31,9.11-1.55-2.44-5.63-7.17-11.31-1.11-6.75,7.22,9,17.69,11.51,19.29a.1.1,0,0,1-.06.19,57.84,57.84,0,0,0-11.45.69c-5.16,1-5.33,6.67-5.33,6.67s2.83-1.5,5.67-2.67,11.66,6.67,11.66,6.67c-9.33,8.33,3,15.16,3,15.16,1.67-6.83,9.5-5.66,9.5-5.66-3.41,6.5,2.54,11.1,2.83,11.32-.2-.11-2.35-1.25-2.66,3.68-.33,5.16,4.5,9.83,5,9.83s.17-4.67,2.83-5.83,3.67,5,2.5,8.16-7.5,6.5-11.66,6-2.5-8.16-2.5-8.16-3.67,3.33-4,7,9.66,8.16,13.33,5.16,11.33-2.5,11.33-2.5c-.16,3.17-8.5,4.34-8.5,4.34,6.67,11.66,16.84,4,17.17,6.5s-3.5,3-3.5,3c-10.5.66-9,6-9,6,5.63-3.85,7.83.5,7.83.5-11.83,13-18.66-3.5-18.66-3.5-1.34,8.33,8.5,11.66,8.5,11.66-1.41,1.15-7.1,1.22-9.7,1.2a.47.47,0,0,0-.31.83L586,311a.58.58,0,0,1-.38,1c-3.25,0-9.81-.36-9.81-.36a23.14,23.14,0,0,0,3.34,2s-1.67,1.16-6.67,2.33-26.17-4.67-28.67-7.17-9.66-3.66-16-2.83c-4.56.6-1.74,3.69.05,5.3a.2.2,0,0,1-.21.33c-2.25-.86-6.74-1.78-9,3.2-3.11,7,4,6.34,4,6.34a54.89,54.89,0,0,0-3.67,5c-1.33,2.16,2.33,7.16,6.83,7,2.75-.1,5.13-2.33,6.57-4a.32.32,0,0,1,.57.21c0,.82.34,1.6,1.86,1.82,3.5.5,8.34-3.67,12.34-2.17s-1.17,4.17-1.17,4.17c-7.67,4.66-2.17,8.5-2.17,8.5,13.14-1,17.55-7.37,18.85-10.09a.39.39,0,0,1,.73.1c.35,2.09.9,6.07.42,8-.66,2.66-8.16,4-8.16,4a30.76,30.76,0,0,0,10.5-.34c4.57-.86,6-5.89,7.57-8.19m-3.09-129.68a12.34,12.34,0,0,1,.67,1.19C571.26,206.55,571,206.12,570.65,205.46Z"
       transform="translate(-441.5 -120.26)"
       id="path11722" />
  </g>
  <g
     id="Layer_7"
     data-name="Layer 7">
    <polyline
       class="cls-7"
       points="235.94 79.15 233.17 78.96 232.47 78.23 233.32 75.9 234.27 74.99 235.94 75.53 237.4 76.69 235.94 79.15"
       id="polyline11725" />
  </g>
  <g
     id="Layer_5"
     data-name="Layer 5">
    <path
       class="cls-4"
       d="M634.63,307.63c-2.62,3.13-.87,11.5-10,14.25-7.37,2.22-10.5-6.49-11.43-9.92a.22.22,0,0,0-.43,0c-.19,3.67,0,13.45,7.74,13.75a16,16,0,0,0,15.63-10.25c1.38-3.62,1.38-13.25,8.75-17.25s9.63-6.5,9.63-6.5"
       transform="translate(-441.5 -120.26)"
       id="path11728" />
    <path
       class="cls-4"
       d="M620.5,325.75s1.58,3.92,8.17,1.17,10.83-8.92,12.75-15.67S653,297.5,656.67,295s3.58-8.17,3.58-8.17"
       transform="translate(-441.5 -120.26)"
       id="path11730" />
    <path
       class="cls-4"
       d="M638.89,317.4s12.61-14.9,16.36-17.15,7.88-5,8.88-14.37,16.63-15.62,17.13-20.25a29.62,29.62,0,0,0,0-7.5"
       transform="translate(-441.5 -120.26)"
       id="path11732" />
    <path
       class="cls-4"
       d="M649.5,325.76s-2.74,8,.69,9.11,6.18-.24,6.81-4.56-3.37-9.69-3.25-15.69,1.13-7.25,2.5-10.5"
       transform="translate(-441.5 -120.26)"
       id="path11734" />
    <path
       class="cls-4"
       d="M657,330.32s-1-18.22,1.5-23,11.38-6,12.63-12.74-.56-11.12,10.35-19.62"
       transform="translate(-441.5 -120.26)"
       id="path11736" />
    <path
       d="M593.59,306.37c5-.07,10.32-1.64,13.56-5.27l1.29-1.51c.47-.51.94-1,1.47-1.5a15.51,15.51,0,0,1,3.49-2.51,11.7,11.7,0,0,1,4.24-1.29,14.56,14.56,0,0,1,4.36.26c1.4.31,2.63.69,3.91,1s2.51.6,3.77.8a19.55,19.55,0,0,0,7.36-.05,12.77,12.77,0,0,0,1.73-.52c.6-.22,1.19-.46,1.78-.71,1.18-.5,2.34-1.07,3.48-1.67a45,45,0,0,0,6.48-4.15,17.83,17.83,0,0,0,4.92-5.32,11.22,11.22,0,0,0,.62-1.64c.19-.6.36-1.21.52-1.84l1-3.86a28.36,28.36,0,0,1,3.13-7.75,16.91,16.91,0,0,1,6.23-5.88c2.46-1.42,5-2.28,7.14-3.51a18.6,18.6,0,0,0,5.62-4.79c.38-.49.74-1,1.11-1.53l1-1.65a12.43,12.43,0,0,0,1.34-3.35,29.77,29.77,0,0,0,.85-7.59h0a1,1,0,0,1,2-.05,29.89,29.89,0,0,1-.59,8.21,14.74,14.74,0,0,1-1.48,4.05c-.34.59-.67,1.18-1,1.77s-.77,1.16-1.19,1.72a21.3,21.3,0,0,1-6.28,5.61c-2.41,1.44-5,2.36-7.08,3.61a14,14,0,0,0-5.18,4.95,25.53,25.53,0,0,0-2.73,7l-1,3.85c-.17.65-.36,1.32-.57,2a14,14,0,0,1-.81,2.07,15,15,0,0,1-2.63,3.53,29.7,29.7,0,0,1-3.14,2.76,47.87,47.87,0,0,1-6.92,4.39c-1.21.63-2.44,1.22-3.7,1.76q-.95.4-1.92.76a15.7,15.7,0,0,1-2.08.62c-5.75,1.27-11.36-.62-16.23-1.94a10,10,0,0,0-6.88.7,13.27,13.27,0,0,0-3,2.09c-.47.4-.9.86-1.34,1.31l-1.33,1.49a17.2,17.2,0,0,1-7.18,4.43,24.87,24.87,0,0,1-8.21,1.23,1,1,0,0,1,0-2Z"
       transform="translate(-441.5 -120.26)"
       id="path11738" />
    <path
       d="M678.35,292a26.7,26.7,0,0,1-1.44,4.33,17.07,17.07,0,0,1-2.48,3.92c-2,2.35-4.3,4.12-6.23,6.22a33.8,33.8,0,0,0-2.72,3.22,15.7,15.7,0,0,0-1.88,3.6,21.79,21.79,0,0,0-.83,8.24c.06,1.44.15,2.92.14,4.42,0,.75,0,1.5-.09,2.28a10,10,0,0,1-.51,2.4,7.1,7.1,0,0,1-3.25,3.86,8.44,8.44,0,0,1-2.36.86l-.31.06-.11,0,.12,0a.54.54,0,0,0,.32-.42.56.56,0,0,0-.18-.5c.1.08.22.18.34.26a2.48,2.48,0,0,0,2.91.17,8.14,8.14,0,0,0,2.52-2.82,14.37,14.37,0,0,0,1.48-3.74,32.78,32.78,0,0,0,.67-4.16c.3-2.84.37-5.78.82-8.76a19.58,19.58,0,0,1,1.21-4.48,12.45,12.45,0,0,1,2.72-3.9c2.12-2.15,4.44-4,6.46-5.93a26.09,26.09,0,0,0,2.77-3.14,19.68,19.68,0,0,0,2.05-3.57,20.51,20.51,0,0,0,1.21-4l.42-2.14a18.37,18.37,0,0,1,.56-2.23,15.52,15.52,0,0,1,2-4.22,16.23,16.23,0,0,1,3.21-3.38,19.33,19.33,0,0,0,3.07-2.69,3.55,3.55,0,0,0,.39-.73c0-.14.1-.21.15-.41l.17-.56a19.16,19.16,0,0,1,.85-2.15A14.29,14.29,0,0,0,694,268a21,21,0,0,0,.29-4.15h0a1,1,0,0,1,2,0,22.94,22.94,0,0,1-.28,4.56,16.29,16.29,0,0,1-1.53,4.34,17.06,17.06,0,0,0-.74,1.92l-.14.49c0,.15-.14.41-.22.61a5.66,5.66,0,0,1-.63,1.2,19.39,19.39,0,0,1-3.44,3.11,14.06,14.06,0,0,0-2.79,2.94,13.36,13.36,0,0,0-1.72,3.65,16.24,16.24,0,0,0-.49,2l-.41,2.15a22.7,22.7,0,0,1-1.33,4.39,21.89,21.89,0,0,1-2.29,4,28.31,28.31,0,0,1-3,3.43c-2.14,2.1-4.44,3.9-6.4,5.92a10.27,10.27,0,0,0-2.26,3.22,17.4,17.4,0,0,0-1.07,3.94c-.43,2.78-.51,5.69-.83,8.65a34.92,34.92,0,0,1-.73,4.46,16.56,16.56,0,0,1-1.75,4.35,10.18,10.18,0,0,1-3.31,3.58,4.75,4.75,0,0,1-2.71.69,5,5,0,0,1-2.59-1c-.19-.13-.34-.26-.53-.41a1.65,1.65,0,0,1,.78-2.86l.16,0,.23,0a6.25,6.25,0,0,0,1.73-.62,4.89,4.89,0,0,0,2.26-2.68,7.85,7.85,0,0,0,.4-1.86c.06-.67.09-1.38.09-2.09,0-1.41-.07-2.85-.13-4.32a23.85,23.85,0,0,1,1-9,17.83,17.83,0,0,1,2.17-4.12,35.49,35.49,0,0,1,2.94-3.44c2-2.17,4.4-4,6.19-6.08a15,15,0,0,0,2.2-3.44,24.76,24.76,0,0,0,1.34-4v0a1,1,0,0,1,1.94.5Z"
       transform="translate(-441.5 -120.26)"
       id="path11740" />
    <path
       d="M675.72,337.34c-.6.13-1.18.3-1.79.4a11.93,11.93,0,0,1-1.84.14,10.32,10.32,0,0,1-3.67-.62,10.75,10.75,0,0,1-3.24-1.83,11.57,11.57,0,0,1-2.5-2.79h0l-.29-.49.33-.57a47.85,47.85,0,0,0,4-9.35c.24-.81.47-1.63.66-2.45.11-.41.18-.82.27-1.24l.13-.62.16-.69a16.09,16.09,0,0,1,2.18-5.28,15.44,15.44,0,0,1,1.79-2.28,18.3,18.3,0,0,1,2.17-1.88c.76-.56,1.56-1.06,2.31-1.51.37-.22.76-.45,1-.64a6.33,6.33,0,0,0,.83-.69,25.68,25.68,0,0,0,3.15-3.82,27.25,27.25,0,0,0,2.46-4.34,41.92,41.92,0,0,0,1.58-4.83,46.45,46.45,0,0,1,1.73-5.11A21.05,21.05,0,0,1,690,282.1c.29-.36.6-.71.91-1.06l.91-1,1.79-1.89a20.46,20.46,0,0,0,5.16-8.55,15.65,15.65,0,0,0,.44-2.47,16.17,16.17,0,0,0,0-2.52,21.48,21.48,0,0,0-1.09-5v0a.37.37,0,0,1,.7-.25,20.68,20.68,0,0,1,1.51,5.14,17.33,17.33,0,0,1,.2,2.71,17,17,0,0,1-.31,2.72,21.2,21.2,0,0,1-5.1,9.51l-1.74,2-.85,1c-.25.33-.52.64-.76,1a20,20,0,0,0-2.32,4.36,44.18,44.18,0,0,0-1.52,4.88,43.78,43.78,0,0,1-1.56,5.18,29.84,29.84,0,0,1-2.59,4.85,28.28,28.28,0,0,1-3.43,4.35,8.78,8.78,0,0,1-1.17,1c-.44.31-.82.52-1.19.75-.74.45-1.43.89-2.08,1.37a13.4,13.4,0,0,0-3.25,3.4,14.53,14.53,0,0,0-1.87,4.35l-.16.59-.16.66c-.11.44-.2.88-.33,1.32-.24.88-.51,1.74-.8,2.59a37.31,37.31,0,0,1-2.1,5,34.76,34.76,0,0,1-2.76,4.67l0-1.06h0a9.79,9.79,0,0,0,2,2.24,8.75,8.75,0,0,0,2.65,1.5,8.32,8.32,0,0,0,3,.5,9.93,9.93,0,0,0,1.54-.12c.51-.08,1-.23,1.53-.34l.15,0a1,1,0,0,1,.42,1.95Z"
       transform="translate(-441.5 -120.26)"
       id="path11742" />
    <path
       d="M678.2,305.39a19.14,19.14,0,0,0,4.82-1.3,9,9,0,0,0,3.79-2.74,6.72,6.72,0,0,0,.57-1c.18-.39.35-.78.51-1.18q.48-1.2.85-2.45a27.93,27.93,0,0,0,1-5.06v-.05a1,1,0,0,1,2,.16,29.75,29.75,0,0,1-.91,5.53q-.35,1.35-.83,2.67c-.15.44-.33.88-.51,1.31a9.19,9.19,0,0,1-.75,1.38,11.36,11.36,0,0,1-4.68,3.71,21.6,21.6,0,0,1-5.51,1.69,1.37,1.37,0,0,1-.45-2.7h.11Z"
       transform="translate(-441.5 -120.26)"
       id="path11744" />
    <path
       d="M690.6,288c1.62-2.22,3.29-4.4,4.94-6.6l2.5-3.27,1.26-1.63a16.73,16.73,0,0,0,1.16-1.6,15.91,15.91,0,0,0,2.08-7.23,38.63,38.63,0,0,0-.41-8q-.29-2-.69-4a25.63,25.63,0,0,1-.45-4.34,19.29,19.29,0,0,1,.46-4.39,33.45,33.45,0,0,1,1.25-4.1l1.44-3.89c.5-1.34,1.18-2.63,1.67-3.81,1.06-2.28.72-5,.37-7.7h0a.59.59,0,0,1,1.16-.22,25.59,25.59,0,0,1,.76,4.18,10.15,10.15,0,0,1-.51,4.42c-.49,1.39-1,2.58-1.44,3.85s-.8,2.67-1.21,3.95a20.53,20.53,0,0,0-1.35,7.66,23.25,23.25,0,0,0,.51,3.87q.41,2.05.72,4.14a41.26,41.26,0,0,1,.44,8.53,23,23,0,0,1-.72,4.34,15,15,0,0,1-1.86,4.11,18.21,18.21,0,0,1-1.3,1.72l-1.3,1.62-2.61,3.22c-1.76,2.13-3.51,4.28-5.29,6.39a1,1,0,0,1-1.57-1.23Z"
       transform="translate(-441.5 -120.26)"
       id="path11746" />
    <path
       d="M689.22,300.46a27.4,27.4,0,0,1,2.74,6.4,11.86,11.86,0,0,1,0,7.18,7.55,7.55,0,0,1-2.22,3.08c-.86.76-1.76,1.47-2.66,2.16A56,56,0,0,0,682,323.4a9.19,9.19,0,0,0-2.92,4.87,9.64,9.64,0,0,0-.12,2.85,11.23,11.23,0,0,0,.64,2.85,18.47,18.47,0,0,0,3.09,5.29,31.57,31.57,0,0,0,4.47,4.53l0,0a1,1,0,0,1-1.14,1.64,24.68,24.68,0,0,1-5.48-4.37,19,19,0,0,1-3.91-6,12.91,12.91,0,0,1-.64-7.46,9.91,9.91,0,0,1,1.61-3.53,14.22,14.22,0,0,1,2.55-2.67c1.84-1.52,3.81-2.62,5.62-3.88.91-.62,1.8-1.25,2.64-1.92a5.45,5.45,0,0,0,1.7-2.25,9.48,9.48,0,0,0,0-6,22.18,22.18,0,0,0-2.62-5.82l0,0a1,1,0,0,1,1.7-1.06Z"
       transform="translate(-441.5 -120.26)"
       id="path11748" />
    <path
       class="cls-4"
       d="M679.38,335.31s4.5,5.56,9.88,6.94"
       transform="translate(-441.5 -120.26)"
       id="path11750" />
    <path
       d="M679.37,337a11.83,11.83,0,0,1,.32-2.5,16.75,16.75,0,0,1,.68-2.26,21.76,21.76,0,0,1,2.09-4.13,26,26,0,0,1,2.83-3.57c.51-.56,1.08-1.06,1.61-1.58s1.15-1,1.72-1.45a1,1,0,0,1,1.33,1.49l-.06.05-1.53,1.44c-.47.52-1,1-1.41,1.54a23.67,23.67,0,0,0-2.39,3.37,19.18,19.18,0,0,0-1.63,3.71,14,14,0,0,0-.47,1.93,9.58,9.58,0,0,0-.15,1.82v.08a1.47,1.47,0,1,1-2.95.14S679.37,337,679.37,337Z"
       transform="translate(-441.5 -120.26)"
       id="path11752" />
    <path
       class="cls-4"
       d="M625.81,296.93s23.19-3.26,26-12.09,7-20,16-24.5,14-6.5,13.85-17.33"
       transform="translate(-441.5 -120.26)"
       id="path11754" />
    <path
       class="cls-4"
       d="M606.25,296.93c.38-.8,7.5-6.55,18.5-4.55a22.31,22.31,0,0,0,25.44-15.62c3.18-10.5,8.71-15.28,15.24-15"
       transform="translate(-441.5 -120.26)"
       id="path11756" />
    <path
       class="cls-4"
       d="M673,249.38c-2.25,5.38-5.62,7.38-9.45,8.75s-5.92,1-13.36,5.75-5.82,20.38-15.94,20.88-24.62,4.75-24.62,4.75,18.38.32,21,0,9.12-2.49,11.5-5.25,6.25-12.87,9.63-17.37"
       transform="translate(-441.5 -120.26)"
       id="path11758" />
    <path
       class="cls-4"
       d="M579,270.88s-2.5,14.13,6.75,10.75,16.38-3.12,29.63,0,9.1-11.15,28.8-8.2"
       transform="translate(-441.5 -120.26)"
       id="path11760" />
    <path
       class="cls-4"
       d="M579.52,279.62s-3.58-1.36-1.52-5.37"
       transform="translate(-441.5 -120.26)"
       id="path11762" />
    <path
       class="cls-4"
       d="M604,276.51s14,3.36,17.5-.51,15.19-8.61,24.28-6.49"
       transform="translate(-441.5 -120.26)"
       id="path11764" />
    <path
       class="cls-4"
       d="M594.09,272.35s14.65,2.82,18.64,1.9c3.58-.82,10.15-6.62,18.53-8a48.51,48.51,0,0,1,13.5-.62"
       transform="translate(-441.5 -120.26)"
       id="path11766" />
    <path
       class="cls-4"
       d="M612.72,274.25s11.4-13.75,27.65-12.5"
       transform="translate(-441.5 -120.26)"
       id="path11768" />
    <path
       class="cls-4"
       d="M585.82,255.25s4,3.88,7.73,4.25,14.07,1.63,16.7,4.38,10.23,3.45,12.42,2.27"
       transform="translate(-441.5 -120.26)"
       id="path11770" />
    <path
       class="cls-4"
       d="M585.25,255.25s30.47.47,38.74,10.17"
       transform="translate(-441.5 -120.26)"
       id="path11772" />
    <path
       class="cls-4"
       d="M621.84,263.44s8.3-6.61,16.44-5.31,19.33.54,27.15-14.46"
       transform="translate(-441.5 -120.26)"
       id="path11774" />
    <path
       class="cls-4"
       d="M588.58,268s-1.44-2.66,2.82-9"
       transform="translate(-441.5 -120.26)"
       id="path11776" />
    <path
       class="cls-4"
       d="M593.55,255.74s9.36-5.16,17.53-1.07c6.83,3.42,15.33,3.5,21.08-.25s17.55-4,27-2.14"
       transform="translate(-441.5 -120.26)"
       id="path11778" />
    <path
       class="cls-4"
       d="M613.83,255.83s11.17-.09,15-4.39"
       transform="translate(-441.5 -120.26)"
       id="path11780" />
    <path
       class="cls-4"
       d="M685.5,252.67c.25-.08.83-3.5,3-6.75"
       transform="translate(-441.5 -120.26)"
       id="path11782" />
    <path
       class="cls-4"
       d="M674.67,217.75s3.25,3.58,6.33,1.58,5.33-5.25,8.5-6.58"
       transform="translate(-441.5 -120.26)"
       id="path11784" />
    <path
       class="cls-4"
       d="M679.5,225.42c-.92,6.83-6.5,11.75-6.5,11.75"
       transform="translate(-441.5 -120.26)"
       id="path11786" />
    <path
       d="M701.72,248.59a40.59,40.59,0,0,0,5.7-6.69,13.32,13.32,0,0,0,1-1.82,14.65,14.65,0,0,0,.58-2,31.41,31.41,0,0,0,.65-4.38,34.84,34.84,0,0,0-.46-8.89,22.52,22.52,0,0,0-3.31-8.26h0a.36.36,0,0,1,.57-.44,20.74,20.74,0,0,1,4.4,8.31,30.92,30.92,0,0,1,.93,4.66,38.49,38.49,0,0,1,.18,4.75,33.82,33.82,0,0,1-.46,4.76,13.13,13.13,0,0,1-.63,2.45,13.86,13.86,0,0,1-1.16,2.26,25.24,25.24,0,0,1-6.72,6.83,1,1,0,0,1-1.29-1.52Z"
       transform="translate(-441.5 -120.26)"
       id="path11788" />
    <path
       d="M709.75,236.43a5.26,5.26,0,0,0,.73-1,11.17,11.17,0,0,0,.64-1.22,14.77,14.77,0,0,0,.86-2.71,23.72,23.72,0,0,0,.51-5.81c0-1-.12-2-.17-3s-.25-2-.41-3-.36-2-.58-2.93l-.72-2.91h0a.22.22,0,0,1,.43-.12l.91,2.88c.29,1,.52,2,.78,2.93s.41,2,.61,3,.32,2,.38,3a25.12,25.12,0,0,1-.14,6.18,16.45,16.45,0,0,1-.77,3.08,13,13,0,0,1-.67,1.49,6.68,6.68,0,0,1-1,1.47,1,1,0,0,1-1.45-1.38l.07-.07Z"
       transform="translate(-441.5 -120.26)"
       id="path11790" />
    <path
       class="cls-8"
       d="M688.5,241.58s-4.33-21.13-6.42-23"
       transform="translate(-441.5 -120.26)"
       id="path11792" />
    <path
       class="cls-8"
       d="M687.92,230.07s-1.49-9.66-3.91-13.16"
       transform="translate(-441.5 -120.26)"
       id="path11794" />
    <path
       class="cls-8"
       d="M685.5,215.54a35.22,35.22,0,0,1,4,10.38"
       transform="translate(-441.5 -120.26)"
       id="path11796" />
    <path
       d="M687.75,213.75a45.19,45.19,0,0,1,4.5,10c.26.87.46,1.82.65,2.66s.46,1.71.74,2.56c.56,1.7,1.2,3.39,1.81,5.1a52.47,52.47,0,0,1,1.68,5.25,10,10,0,0,1,.38,2.91,7.85,7.85,0,0,1-.85,2.88,25.7,25.7,0,0,1-3.05,4.71,51.71,51.71,0,0,1-3.66,4.16l.22-.31a14,14,0,0,0-1.17,4c-.18,1.36-.15,2.86-.28,4.39-.06.76-.15,1.53-.27,2.29-.05.38-.13.75-.2,1.13s-.23.83-.36,1.24a11,11,0,0,1-2.87,3.91,54.09,54.09,0,0,1-7.35,5.3c-2.44,1.62-5,3.18-6.55,5.37a17.57,17.57,0,0,0-2.73,7.87c-.2,1.43-.3,2.88-.41,4.36a11,11,0,0,1-.34,2.46,6.93,6.93,0,0,1-1.4,2.2,19.19,19.19,0,0,1-3.63,3c-1.26.84-2.56,1.6-3.79,2.38a14.28,14.28,0,0,0-1.68,1.19l-.44.38a3.08,3.08,0,0,1-.59.42,4.8,4.8,0,0,1-1.28.53,7.58,7.58,0,0,1-2.54.2,11.39,11.39,0,0,1-2.42-.44,1,1,0,0,1,.56-1.92l.06,0a7.62,7.62,0,0,0,3.82.21,2.81,2.81,0,0,0,.77-.32,1.33,1.33,0,0,0,.32-.23l.16-.13.25-.22a15.8,15.8,0,0,1,1.94-1.38c1.28-.81,2.54-1.55,3.75-2.35a17.36,17.36,0,0,0,3.26-2.63,5,5,0,0,0,1-1.52,10.6,10.6,0,0,0,.23-1.94c.1-1.47.21-3,.42-4.49a19.5,19.5,0,0,1,3.08-8.76,15.54,15.54,0,0,1,3.36-3.32c1.22-.92,2.48-1.74,3.73-2.56a52.68,52.68,0,0,0,7.07-5.08A9.11,9.11,0,0,0,686,266c.08-.3.19-.56.26-.9s.14-.7.19-1.06c.11-.71.2-1.42.25-2.13.12-1.43.09-2.91.29-4.49a16,16,0,0,1,1.32-4.53l.08-.18.14-.13a50,50,0,0,0,3.63-3.88,24.08,24.08,0,0,0,3-4.29,6.35,6.35,0,0,0,.77-2.26,8.71,8.71,0,0,0-.27-2.47,51.26,51.26,0,0,0-1.47-5.14c-.56-1.72-1.15-3.43-1.67-5.19-.26-.88-.5-1.77-.68-2.68s-.33-1.75-.56-2.63a44.41,44.41,0,0,0-4.1-9.91h0a.33.33,0,0,1,.57-.33Z"
       transform="translate(-441.5 -120.26)"
       id="path11798" />
    <path
       class="cls-8"
       d="M696.41,239.48a17.42,17.42,0,0,0-.66-13.57c-3.42-7.42-4.83-13.42-4.37-16.17"
       transform="translate(-441.5 -120.26)"
       id="path11800" />
    <path
       class="cls-8"
       d="M695.27,245.92s4.56-3.17,5.23-7.08.75-9.58-3-17c-2.53-4.94-3.06-7.89-3.13-9.3a.41.41,0,0,1,.72-.27,20.2,20.2,0,0,1,4.3,8.47"
       transform="translate(-441.5 -120.26)"
       id="path11802" />
    <path
       class="cls-4"
       d="M663.08,239.08s12.42,5.5,16.83,3.5,1.36-13.83,1.56-17.17c.1-1.66-2-5.51-2-5.51"
       transform="translate(-441.5 -120.26)"
       id="path11804" />
    <path
       class="cls-8"
       d="M648.08,237.92s1-4.41,3-6.45"
       transform="translate(-441.5 -120.26)"
       id="path11806" />
    <path
       class="cls-8"
       d="M651.08,237.17a12,12,0,0,1,1.83-5"
       transform="translate(-441.5 -120.26)"
       id="path11808" />
    <path
       class="cls-8"
       d="M654,236.92a5.63,5.63,0,0,1,1.62-4.42"
       transform="translate(-441.5 -120.26)"
       id="path11810" />
    <path
       class="cls-8"
       d="M656.83,236.92s-.42-1.7,1.75-4.06"
       transform="translate(-441.5 -120.26)"
       id="path11812" />
    <path
       class="cls-8"
       d="M659.19,236.92a5.87,5.87,0,0,1,2.14-3.5"
       transform="translate(-441.5 -120.26)"
       id="path11814" />
    <path
       class="cls-8"
       d="M661.33,237.67s0-1.42,2.83-3.83"
       transform="translate(-441.5 -120.26)"
       id="path11816" />
    <path
       class="cls-8"
       d="M676.82,232.5a9.34,9.34,0,0,1-4.11-3"
       transform="translate(-441.5 -120.26)"
       id="path11818" />
    <path
       class="cls-8"
       d="M677.92,229.5a10.68,10.68,0,0,1-3.58-3.05"
       transform="translate(-441.5 -120.26)"
       id="path11820" />
    <path
       class="cls-8"
       d="M679.32,226.45s-3.4-1.95-4.65-4.53"
       transform="translate(-441.5 -120.26)"
       id="path11822" />
    <path
       class="cls-8"
       d="M664,239.48a9.1,9.1,0,0,1,3-4.79"
       transform="translate(-441.5 -120.26)"
       id="path11824" />
    <path
       class="cls-8"
       d="M666.64,240.5a9.15,9.15,0,0,1,2.8-5.06"
       transform="translate(-441.5 -120.26)"
       id="path11826" />
    <path
       class="cls-8"
       d="M669.44,241.13a12.21,12.21,0,0,1,2.19-4.94"
       transform="translate(-441.5 -120.26)"
       id="path11828" />
    <path
       class="cls-8"
       d="M671.63,242.1A14.51,14.51,0,0,1,673,239"
       transform="translate(-441.5 -120.26)"
       id="path11830" />
    <path
       class="cls-8"
       d="M673.89,242.62a12.37,12.37,0,0,1,2.24-5"
       transform="translate(-441.5 -120.26)"
       id="path11832" />
    <path
       class="cls-8"
       d="M676.25,243a11.69,11.69,0,0,1,1.67-4.31"
       transform="translate(-441.5 -120.26)"
       id="path11834" />
    <path
       class="cls-8"
       d="M678.37,243a11.53,11.53,0,0,1,1.56-4.31"
       transform="translate(-441.5 -120.26)"
       id="path11836" />
    <path
       class="cls-8"
       d="M675.41,218.44a14,14,0,0,0,.71-5.06"
       transform="translate(-441.5 -120.26)"
       id="path11838" />
    <path
       class="cls-8"
       d="M677.92,219.79a13.93,13.93,0,0,0,.9-6.41"
       transform="translate(-441.5 -120.26)"
       id="path11840" />
    <path
       class="cls-8"
       d="M681,219.33a19.32,19.32,0,0,0,.44-7.22"
       transform="translate(-441.5 -120.26)"
       id="path11842" />
    <path
       class="cls-8"
       d="M683.53,217.34s1-4.16.48-6.59"
       transform="translate(-441.5 -120.26)"
       id="path11844" />
    <path
       class="cls-8"
       d="M686,215.13c-.08-.5,1-3.82,0-6.63"
       transform="translate(-441.5 -120.26)"
       id="path11846" />
    <path
       class="cls-8"
       d="M688.5,213.25a52.35,52.35,0,0,0,.31-5.75"
       transform="translate(-441.5 -120.26)"
       id="path11848" />
    <path
       class="cls-4"
       d="M646.75,207.5s7.61-2.5,8.87-8.62"
       transform="translate(-441.5 -120.26)"
       id="path11850" />
    <path
       class="cls-4"
       d="M648.08,211.81s11.11-6.63,13.25-9.44c2.62-3.44,12.42,3.13,14.1,6.13"
       transform="translate(-441.5 -120.26)"
       id="path11852" />
    <path
       class="cls-4"
       d="M652,215.91s10-9.83,12.17-9.43,7.42,2.1,10.17,6.9"
       transform="translate(-441.5 -120.26)"
       id="path11854" />
    <path
       d="M681.71,195a1.89,1.89,0,0,1,.81.3,3.75,3.75,0,0,1,.43.32c.25.21.45.41.65.6.4.4.76.79,1.12,1.18.72.78,1.42,1.53,2.16,2.24a12.77,12.77,0,0,0,4.81,3.16l-1,.19a44.85,44.85,0,0,1,5.46-3.58,18.88,18.88,0,0,1,3.06-1.38,9.62,9.62,0,0,1,1.75-.43,4.38,4.38,0,0,1,2.09.17l.28.11.18.09.35.17.71.34,1.42.67c1,.44,1.91.87,2.87,1.27,1.93.81,3.88,1.55,5.85,2.17a28.84,28.84,0,0,0,3,.79l.37.08.2,0a1.24,1.24,0,0,1,.64.32,1.23,1.23,0,0,1,.3,1.35,1.27,1.27,0,0,1-.4.52l-.16.12-1.29,1a53.74,53.74,0,0,1-5.4,3.49,40.11,40.11,0,0,1-5.83,2.75,18.1,18.1,0,0,1-6.32,1.21.18.18,0,0,1-.17-.18.18.18,0,0,1,.16-.17,18.87,18.87,0,0,0,6-1.76,41.16,41.16,0,0,0,5.47-3c1.74-1.15,3.45-2.36,5.1-3.66l1.22-1,.15-.12a.56.56,0,0,0,0,.83.57.57,0,0,0,.28.15l-.19,0-.41-.07a30.69,30.69,0,0,1-3.19-.71,56.59,56.59,0,0,1-6.1-2.12c-1-.4-2-.82-3-1.25l-2.81-1.27a4.18,4.18,0,0,0-2.37.32,19.84,19.84,0,0,0-2.71,1.24,42.75,42.75,0,0,0-5.16,3.37l-.47.35-.53-.16a14,14,0,0,1-5.7-3.76c-.78-.77-1.5-1.58-2.21-2.38l-1-1.16c-.17-.18-.34-.36-.49-.49l-.2-.16c-.05,0-.07,0,.08,0a1,1,0,0,1,.2-2Z"
       transform="translate(-441.5 -120.26)"
       id="path11856" />
    <path
       class="cls-8"
       d="M673.89,198.88s.53-3.12,1.88-3.62,3.48,2.63,5.23,2.88C681,198.13,676.9,200.63,673.89,198.88Z"
       transform="translate(-441.5 -120.26)"
       id="path11858" />
    <path
       class="cls-8"
       d="M681.61,208.5c-4.67-1.37-13.57-11.15-13.57-11.15s6-5.47,9.88-5.6,14,5.58,21.9-.79"
       transform="translate(-441.5 -120.26)"
       id="path11860" />
    <path
       class="cls-8"
       d="M674.82,204s3.39-2.23,6.78-1.73"
       transform="translate(-441.5 -120.26)"
       id="path11862" />
    <path
       d="M694,205.26l.12.21.17.27c.11.18.25.36.37.54.26.36.55.69.84,1a9.22,9.22,0,0,0,2,1.66,5.22,5.22,0,0,0,4.83.46c.39-.14.82-.34,1.25-.54s.87-.37,1.3-.56c.88-.35,1.76-.68,2.66-1a29.1,29.1,0,0,1,5.55-1.23.47.47,0,0,1,.11.94h0a28.29,28.29,0,0,0-5.31,1.27c-.87.29-1.72.62-2.57,1-.42.19-.84.36-1.25.57s-.81.4-1.3.59a6.41,6.41,0,0,1-5.86-.46,10.45,10.45,0,0,1-2.31-1.85c-.33-.36-.65-.73-.95-1.12-.14-.2-.29-.39-.43-.6l-.2-.32a3.47,3.47,0,0,1-.22-.39.65.65,0,0,1,1.15-.59Z"
       transform="translate(-441.5 -120.26)"
       id="path11864" />
    <path
       class="cls-8"
       d="M694.85,207.5a14.77,14.77,0,0,1,3.48-3.52"
       transform="translate(-441.5 -120.26)"
       id="path11866" />
    <path
       class="cls-8"
       d="M696.3,208.87a41.13,41.13,0,0,1,4.2-3.85"
       transform="translate(-441.5 -120.26)"
       id="path11868" />
    <path
       class="cls-8"
       d="M699.35,210.42s1.81-3.42,3.94-4.25"
       transform="translate(-441.5 -120.26)"
       id="path11870" />
    <path
       class="cls-8"
       d="M704.67,208.87s.58-2,3.5-3.37"
       transform="translate(-441.5 -120.26)"
       id="path11872" />
    <path
       d="M677.92,196.5s-.77,2.52,0,2.82,2.41-1.41,2.41-1.41Z"
       transform="translate(-441.5 -120.26)"
       id="path11874" />
    <path
       class="cls-8"
       d="M575.63,189s1.25,12-1,16"
       transform="translate(-441.5 -120.26)"
       id="path11876" />
    <path
       class="cls-8"
       d="M582.88,181.63s1,19.88-1.37,26.88"
       transform="translate(-441.5 -120.26)"
       id="path11878" />
    <path
       class="cls-8"
       d="M589.25,181.63s.75,22.13-1.62,29.13"
       transform="translate(-441.5 -120.26)"
       id="path11880" />
    <path
       d="M569.73,170.5a11.06,11.06,0,0,1,8.61,6.37,15.52,15.52,0,0,1,1.3,5.2c.12,1.71.21,3.41.28,5.12.13,3.42.2,6.83.08,10.26-.07,1.71-.15,3.42-.37,5.13a15.1,15.1,0,0,1-1.28,5,.24.24,0,0,1-.43-.22v0a14.69,14.69,0,0,0,1-4.87c.16-1.68.17-3.38.18-5.07,0-3.39-.2-6.78-.46-10.17-.13-1.69-.28-3.39-.46-5.07a14,14,0,0,0-1.33-4.62,9.25,9.25,0,0,0-3-3.5,9.38,9.38,0,0,0-2.06-1.07,8.35,8.35,0,0,0-2.18-.51h-.08a1,1,0,1,1,.16-2Z"
       transform="translate(-441.5 -120.26)"
       id="path11882" />
    <path
       d="M580.9,166.18a1.39,1.39,0,0,1,.27,0l.18,0a1.82,1.82,0,0,1,.3.08,2.73,2.73,0,0,1,.49.22,3.88,3.88,0,0,1,.75.57,6.6,6.6,0,0,1,1,1.29,13.88,13.88,0,0,1,1.28,2.74,36.62,36.62,0,0,1,1.42,5.62v.1c.23,5.71.31,11.41.18,17.12-.07,2.85-.2,5.71-.48,8.56-.14,1.42-.32,2.85-.59,4.26a12,12,0,0,1-1.41,4.13.25.25,0,0,1-.43-.26v0a11.56,11.56,0,0,0,1.19-4c.22-1.39.35-2.8.44-4.21.18-2.83.22-5.66.2-8.5-.05-5.67-.32-11.36-.74-17v.1a35,35,0,0,0-1.51-5.29,12.1,12.1,0,0,0-1.18-2.34,4.71,4.71,0,0,0-.75-.89,1.94,1.94,0,0,0-.38-.27l-.15-.06h.06a1,1,0,0,1-.2-2Z"
       transform="translate(-441.5 -120.26)"
       id="path11884" />
    <path
       class="cls-4"
       d="M587.33,168.5s5.17,6.25,5,13.13"
       transform="translate(-441.5 -120.26)"
       id="path11886" />
    <path
       class="cls-8"
       d="M571.92,172a20.82,20.82,0,0,0-3.8,3"
       transform="translate(-441.5 -120.26)"
       id="path11888" />
    <path
       class="cls-8"
       d="M574.14,173.17A13.93,13.93,0,0,0,570,177"
       transform="translate(-441.5 -120.26)"
       id="path11890" />
    <path
       class="cls-8"
       d="M576,174.77s-3.68,2.1-3.89,3.85"
       transform="translate(-441.5 -120.26)"
       id="path11892" />
    <path
       class="cls-8"
       d="M577.5,177s-2.82,1.5-3.47,3.63"
       transform="translate(-441.5 -120.26)"
       id="path11894" />
    <path
       class="cls-8"
       d="M582.29,167.84a19.7,19.7,0,0,0-4.79,1.78"
       transform="translate(-441.5 -120.26)"
       id="path11896" />
    <path
       class="cls-8"
       d="M583.64,169.77s-3.37.56-5.14,2.27"
       transform="translate(-441.5 -120.26)"
       id="path11898" />
    <path
       class="cls-8"
       d="M584.58,172s-3.54-.06-4.69,1.51"
       transform="translate(-441.5 -120.26)"
       id="path11900" />
    <path
       class="cls-8"
       d="M585.24,174.25s-2.36-.71-3.74.83"
       transform="translate(-441.5 -120.26)"
       id="path11902" />
    <path
       class="cls-8"
       d="M588.49,170.11s-1.92.64-2.21,1.39"
       transform="translate(-441.5 -120.26)"
       id="path11904" />
    <path
       class="cls-8"
       d="M589.85,172a3.09,3.09,0,0,0-2.52,1.51"
       transform="translate(-441.5 -120.26)"
       id="path11906" />
    <path
       class="cls-8"
       d="M590.67,174.09s-1.31-.09-2.18,1.91"
       transform="translate(-441.5 -120.26)"
       id="path11908" />
    <path
       class="cls-8"
       d="M591.65,176.7a2.87,2.87,0,0,0-2.28,1.43"
       transform="translate(-441.5 -120.26)"
       id="path11910" />
    <path
       class="cls-4"
       d="M564.5,210.38s5.1-1.12,7.42,1.44"
       transform="translate(-441.5 -120.26)"
       id="path11912" />
    <path
       class="cls-4"
       d="M567.63,202.18a11,11,0,0,1,4.3,6.12"
       transform="translate(-441.5 -120.26)"
       id="path11914" />
    <path
       class="cls-8"
       d="M564.5,206.95s2.42-2,6.65-.78"
       transform="translate(-441.5 -120.26)"
       id="path11916" />
    <path
       class="cls-8"
       d="M563.75,204s5.39-1,6,0"
       transform="translate(-441.5 -120.26)"
       id="path11918" />
    <path
       class="cls-8"
       d="M580.5,224.62s3.7,1.24,5.79,0"
       transform="translate(-441.5 -120.26)"
       id="path11920" />
    <path
       class="cls-8"
       d="M582.29,228s2.62,1.53,5,.65"
       transform="translate(-441.5 -120.26)"
       id="path11922" />
    <path
       class="cls-8"
       d="M584.81,232.17a9.91,9.91,0,0,0,5.07.69"
       transform="translate(-441.5 -120.26)"
       id="path11924" />
    <path
       class="cls-8"
       d="M585.82,235.75s2.1,2,5.82.44"
       transform="translate(-441.5 -120.26)"
       id="path11926" />
    <path
       class="cls-8"
       d="M587.34,239.48s2.91,2,5,0"
       transform="translate(-441.5 -120.26)"
       id="path11928" />
    <path
       class="cls-8"
       d="M590.67,243.67c.58.08,2.2,1.92,4.33,0"
       transform="translate(-441.5 -120.26)"
       id="path11930" />
    <path
       class="cls-8"
       d="M592.84,246.88s2.79,1.75,4.91,0"
       transform="translate(-441.5 -120.26)"
       id="path11932" />
    <path
       class="cls-8"
       d="M593.55,250.25a4.4,4.4,0,0,0,5.32,0"
       transform="translate(-441.5 -120.26)"
       id="path11934" />
    <path
       class="cls-4"
       d="M582.91,247.26s5-2.36,7-6.32"
       transform="translate(-441.5 -120.26)"
       id="path11936" />
    <path
       class="cls-8"
       d="M570.85,246.88s2.89-6.06,9.19-6.51"
       transform="translate(-441.5 -120.26)"
       id="path11938" />
    <path
       class="cls-8"
       d="M568.8,242s4.5-4.86,8.55-5.26"
       transform="translate(-441.5 -120.26)"
       id="path11940" />
    <path
       class="cls-8"
       d="M571.33,235.17s5.5-2.32,7.56-1.87"
       transform="translate(-441.5 -120.26)"
       id="path11942" />
    <path
       class="cls-8"
       d="M569.77,231.05c.37,0,5.25-1.86,7.18-1.22"
       transform="translate(-441.5 -120.26)"
       id="path11944" />
    <path
       class="cls-8"
       d="M561.09,228.43s12.89-.4,14.51-1.69"
       transform="translate(-441.5 -120.26)"
       id="path11946" />
    <path
       class="cls-8"
       d="M571.33,224s4.82-.51,5.85-2.12"
       transform="translate(-441.5 -120.26)"
       id="path11948" />
    <path
       class="cls-8"
       d="M598.88,289.64s7.33-3.48,9.35-9.52"
       transform="translate(-441.5 -120.26)"
       id="path11950" />
    <path
       class="cls-8"
       d="M595.29,287.5s8.79-3.75,10.12-7.88"
       transform="translate(-441.5 -120.26)"
       id="path11952" />
    <path
       class="cls-8"
       d="M601.1,263.92a12.23,12.23,0,0,1,5.22.27"
       transform="translate(-441.5 -120.26)"
       id="path11954" />
    <path
       class="cls-8"
       d="M603.71,266.7a8.13,8.13,0,0,1,4.52.72"
       transform="translate(-441.5 -120.26)"
       id="path11956" />
    <path
       class="cls-8"
       d="M604.36,269.51a12.89,12.89,0,0,1,5.26.74"
       transform="translate(-441.5 -120.26)"
       id="path11958" />
    <path
       class="cls-8"
       d="M549.13,336.38s4.75-3.84,2.88-8.49"
       transform="translate(-441.5 -120.26)"
       id="path11960" />
    <path
       class="cls-8"
       d="M554.63,319.69s8.5,1.94,12.88,2.56"
       transform="translate(-441.5 -120.26)"
       id="path11962" />
    <path
       class="cls-8"
       d="M567.5,330.32c1.13.06,3.63,9.43-4.87,13.06"
       transform="translate(-441.5 -120.26)"
       id="path11964" />
    <path
       class="cls-8"
       d="M546.63,314.63s20.25,3.63,23.5,5.06"
       transform="translate(-441.5 -120.26)"
       id="path11966" />
    <path
       class="cls-8"
       d="M531,318.13s3.75-6.37,8.13-4.5,4.81,4.75,11.66,4.5"
       transform="translate(-441.5 -120.26)"
       id="path11968" />
    <path
       class="cls-8"
       d="M546.63,333.38a11.28,11.28,0,0,1-.87,3.53"
       transform="translate(-441.5 -120.26)"
       id="path11970" />
    <path
       class="cls-4"
       d="M520.94,323.38s4.06-7.12,15.81-4.5"
       transform="translate(-441.5 -120.26)"
       id="path11972" />
    <path
       class="cls-4"
       d="M518.75,314.63c.5-.25,3.13-3.8,14.5-2.05"
       transform="translate(-441.5 -120.26)"
       id="path11974" />
    <path
       class="cls-8"
       d="M520.94,313.36c.31.64.06,2.67.81,4.78"
       transform="translate(-441.5 -120.26)"
       id="path11976" />
    <path
       class="cls-8"
       d="M524.87,312.23a32.83,32.83,0,0,0,.5,3.52"
       transform="translate(-441.5 -120.26)"
       id="path11978" />
    <path
       class="cls-8"
       d="M528.13,312.1a6.83,6.83,0,0,0,.62,3.65"
       transform="translate(-441.5 -120.26)"
       id="path11980" />
    <path
       class="cls-8"
       d="M523.39,320.83s.23,2.67,1.73,3.54"
       transform="translate(-441.5 -120.26)"
       id="path11982" />
    <path
       class="cls-8"
       d="M527.12,319s.33,3.4,1.73,3.84"
       transform="translate(-441.5 -120.26)"
       id="path11984" />
    <path
       class="cls-8"
       d="M531,318.13s0,2.31,1.75,2.84"
       transform="translate(-441.5 -120.26)"
       id="path11986" />
    <path
       class="cls-8"
       d="M528,305.88a6.65,6.65,0,0,0-1.36,2.88"
       transform="translate(-441.5 -120.26)"
       id="path11988" />
    <path
       class="cls-8"
       d="M531,305.88s-1.5,1.64-1.25,2.88"
       transform="translate(-441.5 -120.26)"
       id="path11990" />
    <path
       class="cls-8"
       d="M534.5,305.88a4.94,4.94,0,0,0-1.75,2.88"
       transform="translate(-441.5 -120.26)"
       id="path11992" />
    <path
       class="cls-8"
       d="M583.88,344.63s-4.09-2.25-4.36-5.25"
       transform="translate(-441.5 -120.26)"
       id="path11994" />
    <path
       class="cls-4"
       d="M572.76,336.9s3.51-7.41,8-7"
       transform="translate(-441.5 -120.26)"
       id="path11996" />
    <path
       class="cls-8"
       d="M580.25,332.88c3.39-5.59,3.06-4.62,3.63-5.12"
       transform="translate(-441.5 -120.26)"
       id="path11998" />
    <path
       class="cls-8"
       d="M583.88,334.88a39.5,39.5,0,0,1,3.25-6.25"
       transform="translate(-441.5 -120.26)"
       id="path12000" />
    <path
       class="cls-8"
       d="M588.63,331.75a15.36,15.36,0,0,1,3-4.44"
       transform="translate(-441.5 -120.26)"
       id="path12002" />
    <path
       class="cls-8"
       d="M592.38,331.75a17.08,17.08,0,0,1,3.44-4"
       transform="translate(-441.5 -120.26)"
       id="path12004" />
    <path
       class="cls-8"
       d="M602.17,338.67s-4.58-.75-4.5-4.33.17-5.58,3.33-8.08"
       transform="translate(-441.5 -120.26)"
       id="path12006" />
    <path
       class="cls-8"
       d="M601.25,331.75a12.16,12.16,0,0,1,3-5.5"
       transform="translate(-441.5 -120.26)"
       id="path12008" />
    <path
       class="cls-8"
       d="M606.25,330.32s0-2.15,2.83-4.07"
       transform="translate(-441.5 -120.26)"
       id="path12010" />
    <path
       class="cls-8"
       d="M611.33,338.67a11.08,11.08,0,0,0,.58-6.92c-1-3.5.81-4.44.81-4.44"
       transform="translate(-441.5 -120.26)"
       id="path12012" />
    <path
       class="cls-4"
       d="M570.5,194.93s.94.12,2.57,3.07"
       transform="translate(-441.5 -120.26)"
       id="path12014" />
    <path
       class="cls-8"
       d="M633.21,324.23S634,332,630,335.14"
       transform="translate(-441.5 -120.26)"
       id="path12016" />
    <path
       class="cls-8"
       d="M635.84,321.73s1.53,8.42-1.59,13.41"
       transform="translate(-441.5 -120.26)"
       id="path12018" />
    <path
       class="cls-8"
       d="M639.76,316.38s2.87,12.12-2.51,18.49"
       transform="translate(-441.5 -120.26)"
       id="path12020" />
    <path
       class="cls-8"
       d="M644.18,319.69s2.2,11.36-6.18,17.21"
       transform="translate(-441.5 -120.26)"
       id="path12022" />
    <path
       class="cls-8"
       d="M646.38,324.88a20.16,20.16,0,0,1,2.75-7.47"
       transform="translate(-441.5 -120.26)"
       id="path12024" />
    <path
       class="cls-8"
       d="M642.94,330.8s4.09,5.56,6.64,3.76"
       transform="translate(-441.5 -120.26)"
       id="path12026" />
    <path
       d="M652.15,339.53l11.54,16.25a70.54,70.54,0,0,0,6,7.82,15.22,15.22,0,0,0,3.74,2.91,20.36,20.36,0,0,0,4.49,1.66h0a.78.78,0,0,1-.41,1.51h0a21.83,21.83,0,0,1-4.8-1.87,16.67,16.67,0,0,1-4-3.24,71.41,71.41,0,0,1-6-8.07l-11.29-16.43a.47.47,0,0,1,.77-.54Z"
       transform="translate(-441.5 -120.26)"
       id="path12028" />
    <path
       d="M679.21,376.49a7,7,0,0,1,3.68,1.16,7.46,7.46,0,0,1,2.53,2.87,19,19,0,0,1,1.35,3.45,6.37,6.37,0,0,0,.57,1.55,2.35,2.35,0,0,0,1.22.81.51.51,0,1,1-.35,1h0a3.34,3.34,0,0,1-1.71-1.21,7,7,0,0,1-.69-1.83,18,18,0,0,0-1.27-3.28,6.48,6.48,0,0,0-2.18-2.51,6.07,6.07,0,0,0-3.12-1h-.05a.48.48,0,0,1,0-.95Z"
       transform="translate(-441.5 -120.26)"
       id="path12030" />
    <path
       class="cls-8"
       d="M642.94,342.25c.06-.37,7,3.13,12.1,2.38"
       transform="translate(-441.5 -120.26)"
       id="path12032" />
    <path
       class="cls-8"
       d="M640,335.25s7.79,4.12,12,5c4.06.84,13.38,3.42,16.27,4.23a2,2,0,0,1,1.14.9c.69,1.13,3.18,3.18,12.08,1.36"
       transform="translate(-441.5 -120.26)"
       id="path12034" />
    <path
       class="cls-8"
       d="M659.42,339.38c.25.13,6.83-.37,9.08,1.46s8.17,1.94,10,1.39"
       transform="translate(-441.5 -120.26)"
       id="path12036" />
    <path
       class="cls-8"
       d="M656.8,346.33c.24.14,8,2.49,11.93,2.74a5.23,5.23,0,0,1,3,1.24,9.8,9.8,0,0,0,5.61,2.52c3.67.08,6,.75,10.25-.67"
       transform="translate(-441.5 -120.26)"
       id="path12038" />
    <path
       class="cls-8"
       d="M659.79,351.41s9.94,3,14.7.69"
       transform="translate(-441.5 -120.26)"
       id="path12040" />
    <path
       class="cls-8"
       d="M663.55,356.08c.2,0,7,1.75,10,0s5.92,3.42,12.5,3"
       transform="translate(-441.5 -120.26)"
       id="path12042" />
    <path
       class="cls-8"
       d="M645.17,346.75s6.25-.08,8.5,1.58,3.75,2.85,5.75,2.55"
       transform="translate(-441.5 -120.26)"
       id="path12044" />
    <path
       class="cls-8"
       d="M649.92,353.94s4.52-1.1,6.89.4a7.23,7.23,0,0,0,5.41.55"
       transform="translate(-441.5 -120.26)"
       id="path12046" />
    <path
       class="cls-8"
       d="M655.62,359.11a64.57,64.57,0,0,1,9.13-.6"
       transform="translate(-441.5 -120.26)"
       id="path12048" />
    <path
       class="cls-8"
       d="M666.61,361.09s8.39.33,10.3-.59,5.25,3.42,11.46,4.17"
       transform="translate(-441.5 -120.26)"
       id="path12050" />
    <path
       class="cls-8"
       d="M662.21,365.33c.2,0,4.56,0,6.92-1.32"
       transform="translate(-441.5 -120.26)"
       id="path12052" />
    <path
       class="cls-8"
       d="M670.6,365.33s8.68-1.5,11.08.33,7.65,6.17,14.65,5.67"
       transform="translate(-441.5 -120.26)"
       id="path12054" />
    <path
       class="cls-8"
       d="M688.38,369.89s-8.94.28-12.94-1.82"
       transform="translate(-441.5 -120.26)"
       id="path12056" />
    <path
       class="cls-8"
       d="M668.58,371.37s3.42-1.79,8.42.71,8.08,2.67,10.58,1.92,2.33,3.25,11.42,4.25"
       transform="translate(-441.5 -120.26)"
       id="path12058" />
    <path
       class="cls-8"
       d="M674.49,377a25.85,25.85,0,0,1,7,.45"
       transform="translate(-441.5 -120.26)"
       id="path12060" />
    <path
       class="cls-8"
       d="M684.47,379.89s5-1.28,7.62,0,6.75,3.36,10.08,2.28"
       transform="translate(-441.5 -120.26)"
       id="path12062" />
    <path
       class="cls-8"
       d="M679.38,383.42a42.45,42.45,0,0,1,6.63-.24,21.07,21.07,0,0,1,7.32,2.15c3.77,1.92,8.68,3.67,12.27,3.58"
       transform="translate(-441.5 -120.26)"
       id="path12064" />
    <path
       class="cls-8"
       d="M687,385.76s4.1,3.41,7,3.82,9.42,2.42,13.5,5.5"
       transform="translate(-441.5 -120.26)"
       id="path12066" />
    <path
       class="cls-8"
       d="M683,387.67a12.71,12.71,0,0,1,6.58,3c2.83,2.63,4.42,4.3,6.42,4.38s7.5,2.33,10.5,5.33"
       transform="translate(-441.5 -120.26)"
       id="path12068" />
    <path
       class="cls-8"
       d="M685.33,392.08a15.39,15.39,0,0,1,4.08,2.58"
       transform="translate(-441.5 -120.26)"
       id="path12070" />
    <path
       class="cls-8"
       d="M692.48,396.42s3,3.08,5.19,4"
       transform="translate(-441.5 -120.26)"
       id="path12072" />
    <path
       class="cls-8"
       d="M688.38,399s4.45.58,8.87,5.08"
       transform="translate(-441.5 -120.26)"
       id="path12074" />
    <path
       class="cls-8"
       d="M689.42,403.25a4.5,4.5,0,0,1,3.06.83c1.1.92,2.52,3.33,4.27,3.75"
       transform="translate(-441.5 -120.26)"
       id="path12076" />
    <path
       d="M694.28,309.77l.46-1.6c.14-.51.27-1,.38-1.55.23-1,.43-2.09.56-3.14a33.88,33.88,0,0,0,.28-6.36c0-.53-.08-1.06-.12-1.58a16.11,16.11,0,0,1,0-1.82,8.79,8.79,0,0,1,.36-1.78l.28-.86.39-.8a18.57,18.57,0,0,1,4.38-5.25c1.65-1.49,3.43-2.81,4.92-4.27a12.41,12.41,0,0,0,1-1.12l.38-.59a6.35,6.35,0,0,0,.31-.65,17.28,17.28,0,0,0,.84-3c.86-4.21,1.16-8.64,2.65-12.93a11.67,11.67,0,0,1,1.63-3.09,13.14,13.14,0,0,0,1.68-2.62,19.81,19.81,0,0,0,1.68-6.07,30.69,30.69,0,0,0,.1-6.4,31.22,31.22,0,0,0-.41-3.19c-.18-1.06-.45-2.08-.64-3.23a19.67,19.67,0,0,1,.26-6.72c.4-2.18,1-4.28,1.2-6.39a12.45,12.45,0,0,0-.06-3.13,15,15,0,0,0-.88-3c-.37-1-.73-2.07-1.05-3.13-.16-.53-.31-1.06-.43-1.61-.06-.28-.12-.55-.16-.84s0-.29,0-.45,0-.17,0-.25l0-.15a.67.67,0,0,1,.12-.32.48.48,0,0,1,.76.59c.11-.19,0-.1.07-.12v0c0,.05,0,.1,0,.16s0,.24,0,.36.09.51.15.76c.12.51.27,1,.43,1.55.32,1,.69,2.05,1.06,3.07a16.11,16.11,0,0,1,1,3.23,13.53,13.53,0,0,1,.1,3.4c-.18,2.25-.78,4.38-1.15,6.5a18.48,18.48,0,0,0-.19,6.32c.18,1,.47,2.1.67,3.19a32.5,32.5,0,0,1,.46,3.3,32,32,0,0,1,0,6.68,21.16,21.16,0,0,1-1.74,6.52,14.7,14.7,0,0,1-1.81,2.9,10.27,10.27,0,0,0-1.38,2.7c-1.35,4-1.63,8.39-2.46,12.74a18.75,18.75,0,0,1-.89,3.31,8,8,0,0,1-.38.83c-.17.26-.33.54-.5.79a14,14,0,0,1-1.17,1.31c-1.62,1.61-3.36,2.91-4.94,4.37a16.9,16.9,0,0,0-3.94,4.77l-.33.67-.22.7a7,7,0,0,0-.28,1.42c0,.48,0,1,0,1.45s.12,1.12.15,1.68a35.77,35.77,0,0,1-.22,6.72c-.13,1.11-.33,2.22-.56,3.31-.11.55-.25,1.09-.39,1.64s-.31,1.14-.43,1.55l0,.1a1,1,0,0,1-1.92-.56Z"
       transform="translate(-441.5 -120.26)"
       id="path12078" />
    <path
       class="cls-8"
       d="M696.76,305.24c2.08,9.69-1.72,13.53-3.58,14.7a.39.39,0,0,0,.14.72c2,.31,6.25-.15,8.69-8.79"
       transform="translate(-441.5 -120.26)"
       id="path12080" />
    <path
       d="M692.86,328a23.93,23.93,0,0,0-.52,5,7.26,7.26,0,0,0,1.2,4.49,2.58,2.58,0,0,0,1.9.88,5.77,5.77,0,0,0,2.31-.28,12.39,12.39,0,0,0,4.23-2.4,14.57,14.57,0,0,0,3.24-3.66,5.78,5.78,0,0,0,.77-2.21,10.69,10.69,0,0,0,.14-2.42,10.8,10.8,0,0,0-1.43-4.61,18.08,18.08,0,0,1-1.86-4.92,32,32,0,0,1-.48-10.37,32.8,32.8,0,0,1,2.54-10.07,21.29,21.29,0,0,1,2.86-4.41c1.12-1.36,2.33-2.54,3.42-3.82s2.17-2.58,3.16-3.94a22.2,22.2,0,0,0,2.5-4.26h0a.7.7,0,1,1,1.28.54h0a23.45,23.45,0,0,1-2.68,4.53c-1,1.4-2.12,2.73-3.25,4s-2.36,2.51-3.42,3.78a20,20,0,0,0-2.71,4.13,31.61,31.61,0,0,0-2.47,9.66,30.75,30.75,0,0,0,.42,10,16.9,16.9,0,0,0,1.73,4.61,12,12,0,0,1,1.54,5.09,11.84,11.84,0,0,1-.17,2.68,7,7,0,0,1-.92,2.58,15.63,15.63,0,0,1-3.52,3.94,13.45,13.45,0,0,1-4.62,2.58,6.83,6.83,0,0,1-2.73.3,3.66,3.66,0,0,1-2.59-1.25,5.67,5.67,0,0,1-1.17-2.53,12.74,12.74,0,0,1-.27-2.65,24.88,24.88,0,0,1,.57-5.19.5.5,0,0,1,1,.21Z"
       transform="translate(-441.5 -120.26)"
       id="path12082" />
    <path
       class="cls-8"
       d="M709.75,291.75A73.18,73.18,0,0,0,705.63,313c-.12,6.48,6.25,13.52,2.75,20.64s-11.62,5.16-11.62,5.16,15.37,2,16.37-5.28-5-15.91-5-20.52a24.82,24.82,0,0,1,4.38-14.78c3.5-5,2.29-12.42,2.29-12.42"
       transform="translate(-441.5 -120.26)"
       id="path12084" />
    <path
       class="cls-4"
       d="M712.76,310.08s-1.88-1.32,6.52-18.33"
       transform="translate(-441.5 -120.26)"
       id="path12086" />
    <path
       class="cls-8"
       d="M715.4,300.13s2.72,9.49,13.34,7.5"
       transform="translate(-441.5 -120.26)"
       id="path12088" />
    <path
       class="cls-8"
       d="M713.45,305.24c.8.14,3.85,4.14,8.39,2.14"
       transform="translate(-441.5 -120.26)"
       id="path12090" />
    <path
       class="cls-8"
       d="M697.2,307.9s2.21-14.48,4.8-17,8.75-9.17,9.5-12.42"
       transform="translate(-441.5 -120.26)"
       id="path12092" />
    <path
       class="cls-8"
       d="M697.86,304.13s4.14-9.92,8-14.48,9.19-8.14,10.54-13"
       transform="translate(-441.5 -120.26)"
       id="path12094" />
    <path
       d="M715.49,275.23a17.89,17.89,0,0,1-1.92-7.73,11.57,11.57,0,0,1,.7-4l.42-.95c.16-.31.36-.59.53-.89.36-.6.73-1.06,1.07-1.61a22.55,22.55,0,0,0,3-6.91,23.84,23.84,0,0,0,.57-3.73,16.75,16.75,0,0,0,0-3.7c-.43-2.39-1.52-4.88-1.79-7.6a13.87,13.87,0,0,1,.15-4.11,14.75,14.75,0,0,1,.53-2c.24-.62.56-1.32.75-1.84A13,13,0,0,0,720,223a24.22,24.22,0,0,0-2.42-7l0-.05a1,1,0,0,1,1.74-.92h0a26,26,0,0,1,2.52,7.66,14.75,14.75,0,0,1-.79,8.12l-.74,1.75a13.09,13.09,0,0,0-.49,1.74,12.22,12.22,0,0,0-.18,3.62,22.07,22.07,0,0,0,.72,3.68,37.13,37.13,0,0,1,.93,3.85,18,18,0,0,1,0,4,25.24,25.24,0,0,1-.67,3.93,23.85,23.85,0,0,1-3.23,7.26c-.34.55-.8,1.1-1.1,1.61-.16.26-.34.5-.48.77l-.38.82a10.42,10.42,0,0,0-.68,3.59,16.88,16.88,0,0,0,1.68,7.25l0,0a.5.5,0,0,1-.9.43Z"
       transform="translate(-441.5 -120.26)"
       id="path12096" />
    <path
       class="cls-4"
       d="M714.69,269.16s10.94-8.3,9.69-15.6c-1.11-6.5-2.79-5.9-3.91-8.68a2.3,2.3,0,0,1,.2-2.1c1.18-1.86,3.74-6.28,3.84-9.92.13-4.74,2.15-10.69-4.43-13.53"
       transform="translate(-441.5 -120.26)"
       id="path12098" />
    <path
       class="cls-8"
       d="M720.63,279.34s.74-8.4-3-12.74"
       transform="translate(-441.5 -120.26)"
       id="path12100" />
    <path
       class="cls-8"
       d="M723.75,282.15s1-12.77-3.07-18.27"
       transform="translate(-441.5 -120.26)"
       id="path12102" />
    <path
       class="cls-8"
       d="M728.74,281.25s-2.44-16.44-6.07-20.82"
       transform="translate(-441.5 -120.26)"
       id="path12104" />
    <path
       class="cls-8"
       d="M724.09,257.23s3.41,2,5.66,9.9"
       transform="translate(-441.5 -120.26)"
       id="path12106" />
    <path
       class="cls-8"
       d="M724.89,254.18s8.61.66,8.36,11.24"
       transform="translate(-441.5 -120.26)"
       id="path12108" />
    <path
       class="cls-8"
       d="M723.27,249.38c1.86.75,10.21,5.38,14.59,11.68"
       transform="translate(-441.5 -120.26)"
       id="path12110" />
    <path
       class="cls-8"
       d="M721.09,242.1s7.29,9,14,10.57"
       transform="translate(-441.5 -120.26)"
       id="path12112" />
    <path
       class="cls-4"
       d="M723.27,238a23.33,23.33,0,0,0,8.23,7.95"
       transform="translate(-441.5 -120.26)"
       id="path12114" />
    <path
       class="cls-8"
       d="M724.62,231a75.67,75.67,0,0,1,8.64,13.75"
       transform="translate(-441.5 -120.26)"
       id="path12116" />
    <path
       class="cls-8"
       d="M721.12,214c.63,0,7.51,6,12.13,12.4"
       transform="translate(-441.5 -120.26)"
       id="path12118" />
    <path
       class="cls-4"
       d="M724.09,222.89s4.44-.05,7,6.13"
       transform="translate(-441.5 -120.26)"
       id="path12120" />
    <path
       class="cls-8"
       d="M714.69,210.42s11.23-6.71,21.15,1.39"
       transform="translate(-441.5 -120.26)"
       id="path12122" />
    <path
       class="cls-8"
       d="M715,214c.42-.38,4.1-5.67,17.76-.67"
       transform="translate(-441.5 -120.26)"
       id="path12124" />
    <path
       class="cls-8"
       d="M701.32,198.67s4.12-1.83,5.71-5.66"
       transform="translate(-441.5 -120.26)"
       id="path12126" />
    <path
       class="cls-4"
       d="M666,455.67s5.11-19.5,15.47-26.33,17-23.83,17.53-29.67"
       transform="translate(-441.5 -120.26)"
       id="path12128" />
    <path
       class="cls-4"
       d="M701.5,407.13c-.87,4.88-10.79,12.48-10.79,12.48s.45-8-1.63-13.18"
       transform="translate(-441.5 -120.26)"
       id="path12130" />
    <path
       class="cls-8"
       d="M699,401.54s2.13.66,4.38,4"
       transform="translate(-441.5 -120.26)"
       id="path12132" />
    <path
       class="cls-8"
       d="M700.28,409.92a12.45,12.45,0,0,0,7.22,6.45"
       transform="translate(-441.5 -120.26)"
       id="path12134" />
    <path
       d="M665.57,502.88a30.17,30.17,0,0,0,2.3-6.45,39.52,39.52,0,0,0,1-6.81c.16-2.29.08-4.6,0-6.94s-.13-4.67-.13-7a125,125,0,0,1,.68-14.06,65.52,65.52,0,0,1,2.92-13.83,34.53,34.53,0,0,1,7-12.38c3.25-3.42,6.6-6.65,9.93-9.93s6.89-6.49,7.39-10.91l.06-.41,0-.2v-.09a1.36,1.36,0,0,1,0-.14,1.06,1.06,0,0,1,1.54-.66,1.05,1.05,0,0,1,.44.47l.06.15.16.38a16.32,16.32,0,0,0,.75,1.49,19.93,19.93,0,0,0,1.86,2.77,19,19,0,0,0,5.07,4.38h0a.5.5,0,0,1-.45.89,16.53,16.53,0,0,1-5.85-4.24,18.4,18.4,0,0,1-2.14-3,18.05,18.05,0,0,1-.84-1.63l-.19-.42,0-.05a.72.72,0,0,0,.29.31.7.7,0,0,0,1-.43.52.52,0,0,0,0-.09s0,0,0,0v.06l0,.23-.07.46a12.38,12.38,0,0,1-1.07,3.58,15.68,15.68,0,0,1-2,3.1,61.69,61.69,0,0,1-4.88,5.16c-3.34,3.26-6.73,6.49-9.93,9.82a33,33,0,0,0-6.74,11.78,64,64,0,0,0-2.92,13.5,123.6,123.6,0,0,0-.74,13.89c0,2.33,0,4.65.05,7s.08,4.69-.12,7.06a40.68,40.68,0,0,1-1.17,7,31,31,0,0,1-2.5,6.67.5.5,0,0,1-.89-.46Z"
       transform="translate(-441.5 -120.26)"
       id="path12136" />
    <path
       class="cls-8"
       d="M672,495.13s1.5-2.37,1.5-10.87-1.5-32.87,8.25-42.75c9.18-9.3,13-15,15.54-18.91a.5.5,0,0,1,.85,0c1,1.78,4.08,6.22,9.36,7"
       transform="translate(-441.5 -120.26)"
       id="path12138" />
    <path
       class="cls-8"
       d="M677.16,494.13s.71-19.37,2-27.87,6.86-20,18.12-38.58"
       transform="translate(-441.5 -120.26)"
       id="path12140" />
    <path
       class="cls-8"
       d="M677.28,491.25s6.47-8.88,7.09-17.5,2.12-19.87,8.43-28.25A30.35,30.35,0,0,0,699,429.67a.19.19,0,0,1,.36-.08c.88,1.61,3.75,5.42,11.42,5.91"
       transform="translate(-441.5 -120.26)"
       id="path12142" />
    <path
       class="cls-8"
       d="M699.33,429.59s.17,7.66,5.29,9.29a20.78,20.78,0,0,0,8.5,1.13"
       transform="translate(-441.5 -120.26)"
       id="path12144" />
    <path
       class="cls-8"
       d="M699,429.67s.78,22.83,19.9,19.21"
       transform="translate(-441.5 -120.26)"
       id="path12146" />
    <path
       class="cls-8"
       d="M703.38,443.36s9,2.14,13.75-1.24"
       transform="translate(-441.5 -120.26)"
       id="path12148" />
    <path
       class="cls-8"
       d="M686.25,500s-.74-11.06-5.31-15"
       transform="translate(-441.5 -120.26)"
       id="path12150" />
    <path
       class="cls-8"
       d="M683,480.63s3.75,6.13,4.75,10.63,2,14,2,14"
       transform="translate(-441.5 -120.26)"
       id="path12152" />
    <path
       class="cls-8"
       d="M684,476.45s11,20.43,11,26.05-1.22,8.26-1.22,8.26"
       transform="translate(-441.5 -120.26)"
       id="path12154" />
    <path
       class="cls-8"
       d="M685,467.36s3-.11,3.24-1.36"
       transform="translate(-441.5 -120.26)"
       id="path12156" />
    <path
       class="cls-8"
       d="M690.88,452.38s-1.75,19.77-.62,24.07,6.41,20.8,9.08,25.3-1.21,13.38-1.21,13.38"
       transform="translate(-441.5 -120.26)"
       id="path12158" />
    <path
       class="cls-8"
       d="M694,452.38s-1.26,18.38-.77,22.75c.56,4.95,2.54,11.38,7,16.13"
       transform="translate(-441.5 -120.26)"
       id="path12160" />
    <path
       class="cls-8"
       d="M696.11,466s0,15.25,7.78,26.94"
       transform="translate(-441.5 -120.26)"
       id="path12162" />
    <path
       class="cls-8"
       d="M705.63,491.25a8.6,8.6,0,0,1,3.3,5.87"
       transform="translate(-441.5 -120.26)"
       id="path12164" />
    <path
       class="cls-8"
       d="M702,520.78A42.78,42.78,0,0,0,703.89,510"
       transform="translate(-441.5 -120.26)"
       id="path12166" />
    <path
       class="cls-8"
       d="M705.63,519.38c1.13-.12,3-6,1.88-13"
       transform="translate(-441.5 -120.26)"
       id="path12168" />
    <path
       class="cls-8"
       d="M706.74,526.5c.39-.37,6-6.25,6-13s-2-9.37-2-9.37"
       transform="translate(-441.5 -120.26)"
       id="path12170" />
    <path
       class="cls-8"
       d="M684,560a73.33,73.33,0,0,1,14.13-9.62c6.75-3.37,12.63-15.87,12.63-15.87"
       transform="translate(-441.5 -120.26)"
       id="path12172" />
    <path
       class="cls-8"
       d="M703.89,548.75s7.48-7,8.86-13.25a99,99,0,0,0,2.75-30.25"
       transform="translate(-441.5 -120.26)"
       id="path12174" />
    <path
       class="cls-8"
       d="M702,555.13S716.5,544.88,719,530"
       transform="translate(-441.5 -120.26)"
       id="path12176" />
    <path
       class="cls-8"
       d="M670.13,562.25s9-8.12,16.13-10c5.48-1.44,15.75-10.5,18.5-17.75"
       transform="translate(-441.5 -120.26)"
       id="path12178" />
    <path
       class="cls-8"
       d="M672.63,566.75s4.75-8.62,12-11.62,20.82-11,23.22-23.37"
       transform="translate(-441.5 -120.26)"
       id="path12180" />
    <path
       d="M680.95,578.57a15.06,15.06,0,0,1,.72-4.42c.18-.71.47-1.37.71-2s.59-1.31.88-2a33.3,33.3,0,0,1,4.82-7,49.78,49.78,0,0,1,6.1-5.82l3.36-2.51,3.51-2.29a.43.43,0,0,1,.48.71l0,0-3.38,2.38-3.22,2.58a48.49,48.49,0,0,0-5.74,5.86,31.75,31.75,0,0,0-4.37,6.82c-.25.62-.53,1.23-.76,1.86s-.45,1.26-.59,1.91a13.6,13.6,0,0,0-.51,3.78v.11a1,1,0,1,1-2,.07Z"
       transform="translate(-441.5 -120.26)"
       id="path12182" />
    <path
       class="cls-8"
       d="M683,573s.5,3.29,1.88,4"
       transform="translate(-441.5 -120.26)"
       id="path12184" />
    <path
       class="cls-8"
       d="M685.05,568.56s-.05,4.44,2.38,5.56"
       transform="translate(-441.5 -120.26)"
       id="path12186" />
    <path
       class="cls-8"
       d="M688.09,564.2s-.72,4.12,1.41,7.15"
       transform="translate(-441.5 -120.26)"
       id="path12188" />
    <path
       class="cls-8"
       d="M693.13,559s-1.85,6.29.88,9.61"
       transform="translate(-441.5 -120.26)"
       id="path12190" />
    <path
       class="cls-8"
       d="M675.75,562.25a41.49,41.49,0,0,0,1.53,10.13"
       transform="translate(-441.5 -120.26)"
       id="path12192" />
    <path
       class="cls-4"
       d="M750.75,533.38s-10.62-1.5-12.62-10.87"
       transform="translate(-441.5 -120.26)"
       id="path12194" />
    <path
       class="cls-8"
       d="M742.92,530a20.93,20.93,0,0,1-.67-8.25"
       transform="translate(-441.5 -120.26)"
       id="path12196" />
    <path
       class="cls-8"
       d="M753.25,531.75s-5.62-.62-6.75-5.87"
       transform="translate(-441.5 -120.26)"
       id="path12198" />
    <path
       class="cls-8"
       d="M756.5,528.81a7.36,7.36,0,0,1-7.37-4.06"
       transform="translate(-441.5 -120.26)"
       id="path12200" />
    <path
       class="cls-8"
       d="M747.38,517.13a20.7,20.7,0,0,1-7.37-3.5"
       transform="translate(-441.5 -120.26)"
       id="path12202" />
    <path
       class="cls-8"
       d="M740,508.88a12.65,12.65,0,0,0,10.75,5.38"
       transform="translate(-441.5 -120.26)"
       id="path12204" />
    <path
       class="cls-8"
       d="M733.88,496.13s6-4.87,11.5,0"
       transform="translate(-441.5 -120.26)"
       id="path12206" />
    <path
       class="cls-8"
       d="M728.13,481.88c.38,0,7.38,1,10-3.12"
       transform="translate(-441.5 -120.26)"
       id="path12208" />
    <path
       class="cls-8"
       d="M721.88,462.63s4.88-4,10.38-.72"
       transform="translate(-441.5 -120.26)"
       id="path12210" />
    <path
       class="cls-8"
       d="M718.88,454.38c-.12,0,5.75,5.13,12,3.38"
       transform="translate(-441.5 -120.26)"
       id="path12212" />
    <path
       class="cls-8"
       d="M727.06,420.88s7.31,3.41,6.81,14"
       transform="translate(-441.5 -120.26)"
       id="path12214" />
    <path
       class="cls-8"
       d="M644.25,396.42s21.61-3.68,46.06,14.82"
       transform="translate(-441.5 -120.26)"
       id="path12216" />
    <path
       class="cls-8"
       d="M658.25,424.63s3.48,3,7.43,3.23,10.4.84,13.54,3.24"
       transform="translate(-441.5 -120.26)"
       id="path12218" />
    <path
       class="cls-8"
       d="M656.5,420.88a13.57,13.57,0,0,0,7.75,2.71c4.92.25,14.28,1.08,17.22,5.75"
       transform="translate(-441.5 -120.26)"
       id="path12220" />
    <path
       class="cls-8"
       d="M591.88,418.88s11.5,1.13,16.13-4.12,16.75-14,31.38-18.33"
       transform="translate(-441.5 -120.26)"
       id="path12222" />
    <path
       class="cls-8"
       d="M589.38,432.75s10.38.58,15.38-7.65"
       transform="translate(-441.5 -120.26)"
       id="path12224" />
    <path
       class="cls-8"
       d="M592.63,436.81s13-5.44,15.37-11.69"
       transform="translate(-441.5 -120.26)"
       id="path12226" />
    <path
       class="cls-8"
       d="M606,434.83s5.13-5.84,5.5-10.09"
       transform="translate(-441.5 -120.26)"
       id="path12228" />
    <path
       class="cls-8"
       d="M655.75,449.27s4.38-6.9.75-12.46"
       transform="translate(-441.5 -120.26)"
       id="path12230" />
    <path
       class="cls-8"
       d="M663.13,438.88a8.71,8.71,0,0,1,1.62-7.53"
       transform="translate(-441.5 -120.26)"
       id="path12232" />
    <path
       d="M606.62,438.36a16.25,16.25,0,0,0,6.14-.26,5.43,5.43,0,0,0,2.44-1.35l2.29-2.28a57.85,57.85,0,0,1,10.31-8.08,48.15,48.15,0,0,1,18.39-6.82,45.34,45.34,0,0,1,6.53-.47.5.5,0,0,1,.06,1h0a61.68,61.68,0,0,0-6.29,1,48.77,48.77,0,0,0-6.11,1.7,59.37,59.37,0,0,0-11.44,5.39,72.39,72.39,0,0,0-10.2,7.57l-2.4,2.16a6.61,6.61,0,0,1-3.22,1.58,16.2,16.2,0,0,1-6.7-.21.5.5,0,0,1,.16-1Z"
       transform="translate(-441.5 -120.26)"
       id="path12234" />
    <path
       d="M602.32,439.67c1.47-1.22,3-2.38,4.51-3.51a38.09,38.09,0,0,1,4.88-3.19l.35-.17.27-.14a5.64,5.64,0,0,0,.54-.33c.37-.23.73-.51,1.1-.78.73-.55,1.45-1.15,2.17-1.74l4.31-3.68c1.45-1.24,2.9-2.44,4.56-3.6a36.62,36.62,0,0,1,5.26-2.64,70.24,70.24,0,0,1,11-3.66,38.74,38.74,0,0,1,5.77-1,17,17,0,0,1,6,.41,8.87,8.87,0,0,1,1.5.57l.71.39.57.34a16.5,16.5,0,0,0,2.43,1.12,20.21,20.21,0,0,0,5.29,1.12c1.83.16,3.68.11,5.62.12a10.7,10.7,0,0,1,3.06.37c.88.3,1.79.55,2.7.85a20.84,20.84,0,0,1,5.33,2.43,12.18,12.18,0,0,1,4,4.35.5.5,0,0,1-.86.51h0a11.45,11.45,0,0,0-3.82-3.76,19.48,19.48,0,0,0-5.07-2.06c-.9-.25-1.82-.47-2.75-.74a10.4,10.4,0,0,0-2.58-.2c-1.86,0-3.8.14-5.75,0a22.15,22.15,0,0,1-5.83-1.09,18.54,18.54,0,0,1-2.76-1.19l-.66-.37-.55-.28a6.75,6.75,0,0,0-1.16-.41,15.42,15.42,0,0,0-5.26-.27,36.55,36.55,0,0,0-5.43,1,68,68,0,0,0-10.56,3.62,40.78,40.78,0,0,0-4.89,2.46c-1.47,1-2.94,2.22-4.41,3.38s-2.94,2.39-4.47,3.54a22.83,22.83,0,0,1-5,3.12,40.85,40.85,0,0,0-4.8,2.76c-1.58,1-3.15,2.09-4.7,3.15a.5.5,0,0,1-.7-.12A.51.51,0,0,1,602.32,439.67Z"
       transform="translate(-441.5 -120.26)"
       id="path12236" />
    <path
       class="cls-8"
       d="M619,414.38c.38-.75,18.3-12.38,24.21-11.13s8.29,2.21,15,2.29,25.37,5,32.87,13.44"
       transform="translate(-441.5 -120.26)"
       id="path12238" />
    <path
       class="cls-8"
       d="M690.68,415c-6.69-4.37-20.56-12.38-25.94-12.38s-15.75-1.62-21.53-3S621.75,406,619,409.92c-2.28,3.25-10.57,8.63-13.34,10.38a.3.3,0,0,0,.14.56c2.8.19,10.29,1.1,13.2-1.89,3.5-3.6,18.88-13,25.88-11.85s23.5,2.67,28.5,6,16,8,16,8"
       transform="translate(-441.5 -120.26)"
       id="path12240" />
    <path
       class="cls-8"
       d="M595,421.75a49.79,49.79,0,0,1,5.31-.87"
       transform="translate(-441.5 -120.26)"
       id="path12242" />
    <path
       class="cls-8"
       d="M596.38,424a40.36,40.36,0,0,0,6.25-2.25"
       transform="translate(-441.5 -120.26)"
       id="path12244" />
    <path
       class="cls-8"
       d="M597.06,425.1s8.31.1,12.9-.22a21.32,21.32,0,0,1,4.22.15c2.5.33,7.3.32,13.56-2.67"
       transform="translate(-441.5 -120.26)"
       id="path12246" />
    <path
       class="cls-8"
       d="M632.38,412.13c-2.83,6.47-13.41,9.5-17.37,10.43a.16.16,0,0,0,0,.32,31.88,31.88,0,0,0,20.58-9.09c10.29-9.94,33.73,2.84,51.36,10.21"
       transform="translate(-441.5 -120.26)"
       id="path12248" />
    <path
       d="M613.32,441.67a8.73,8.73,0,0,0,2.7.43,2.33,2.33,0,0,0,1.09-.26,1.45,1.45,0,0,0,.34-.3l.51-.58a57.33,57.33,0,0,1,4.31-4.22,68.2,68.2,0,0,1,9.67-7.22,47.31,47.31,0,0,1,11-5.09,28.21,28.21,0,0,1,12.1-1.15.5.5,0,0,1,0,1h0a41,41,0,0,0-11.28,2.48,63.85,63.85,0,0,0-10.45,5,89.07,89.07,0,0,0-9.63,6.65c-1.56,1.19-3,2.47-4.51,3.75l-.53.48a3.06,3.06,0,0,1-.84.58,3.78,3.78,0,0,1-1.8.27,8.59,8.59,0,0,1-3.07-.89.5.5,0,0,1,.36-.93Z"
       transform="translate(-441.5 -120.26)"
       id="path12250" />
    <path
       class="cls-8"
       d="M614.88,461.62s1.49-6.13,2.12-9.25a98.11,98.11,0,0,0,1-10.25"
       transform="translate(-441.5 -120.26)"
       id="path12252" />
    <path
       class="cls-8"
       d="M610.88,459.89s3.5-5.57,3.5-17.36"
       transform="translate(-441.5 -120.26)"
       id="path12254" />
    <path
       class="cls-8"
       d="M606.52,461.62s3.73-8.62,4.36-22.75"
       transform="translate(-441.5 -120.26)"
       id="path12256" />
    <path
       d="M617.63,445.54a15.94,15.94,0,0,0,4.55-2.3,7.86,7.86,0,0,0,.9-.82c.12-.15.27-.29.38-.45s.2-.28.38-.5.32-.42.49-.6l.49-.51c.33-.35.67-.64,1-1a60.76,60.76,0,0,1,8.81-6.36,61.69,61.69,0,0,1,9.73-4.82A33.77,33.77,0,0,1,655,425.88a.5.5,0,0,1,.13,1h0a57.93,57.93,0,0,0-10,3.33,86.44,86.44,0,0,0-9.41,4.74c-1.52.89-3,1.8-4.49,2.79s-2.91,2-4.27,3.06c-.33.28-.69.54-1,.83l-.46.43c-.14.14-.25.28-.38.42s-.3.36-.45.55a5.6,5.6,0,0,1-.52.54,9.41,9.41,0,0,1-1.16.89,15.45,15.45,0,0,1-5.17,2.06.5.5,0,0,1-.27-1Z"
       transform="translate(-441.5 -120.26)"
       id="path12258" />
    <path
       d="M620.88,445.71a5.15,5.15,0,0,0,4.64,1.59c1.64-.32,3-1.7,4.41-2.95a71.77,71.77,0,0,1,9.08-7.23,42.76,42.76,0,0,1,10.56-5,37.3,37.3,0,0,1,11.54-1.64.5.5,0,0,1,0,1h0a43.82,43.82,0,0,0-11,2.21A45.2,45.2,0,0,0,640,438.62a83.18,83.18,0,0,0-9,6.93c-.74.62-1.47,1.24-2.31,1.82a6.69,6.69,0,0,1-2.89,1.27,5.51,5.51,0,0,1-3.17-.42,6.8,6.8,0,0,1-2.49-1.88.5.5,0,0,1,.73-.68Z"
       transform="translate(-441.5 -120.26)"
       id="path12260" />
    <path
       class="cls-4"
       d="M657.21,448.06s2.29-4,3-16.72"
       transform="translate(-441.5 -120.26)"
       id="path12262" />
    <path
       class="cls-8"
       d="M621,446.56s-.79,10.06-3,16.06"
       transform="translate(-441.5 -120.26)"
       id="path12264" />
    <path
       class="cls-8"
       d="M623.94,448s-.19,10.77-2.31,16"
       transform="translate(-441.5 -120.26)"
       id="path12266" />
    <path
       class="cls-8"
       d="M623.94,466a15,15,0,0,1,6.44-7.26"
       transform="translate(-441.5 -120.26)"
       id="path12268" />
    <path
       d="M625.91,462a54.42,54.42,0,0,1,.62-13.18l.07-.41,0-.2,0-.12a1.12,1.12,0,0,1,1.65-.73,1.15,1.15,0,0,1,.51.63l.06.16a2.4,2.4,0,0,0,.65,1,1,1,0,0,0,.85.22,3.22,3.22,0,0,0,1.16-.45,38,38,0,0,0,4.78-4.11,53.4,53.4,0,0,1,5.1-4.26,34.63,34.63,0,0,1,5.8-3.36,30.82,30.82,0,0,1,13-2.59.5.5,0,0,1,0,1A37.21,37.21,0,0,0,648,439a43.74,43.74,0,0,0-10.4,7.3,37.83,37.83,0,0,1-5.17,4.31,4.67,4.67,0,0,1-1.89.64,2.84,2.84,0,0,1-2.19-.69,4.11,4.11,0,0,1-1.11-1.73l-.08-.22a.63.63,0,0,0,.27.31.58.58,0,0,0,.85-.38l0,.08,0,.2-.08.39A65,65,0,0,0,626.91,462v0a.5.5,0,0,1-1,0Z"
       transform="translate(-441.5 -120.26)"
       id="path12270" />
    <path
       class="cls-8"
       d="M646.38,442.79s-7.21,11.21.79,19.22"
       transform="translate(-441.5 -120.26)"
       id="path12272" />
    <path
       class="cls-8"
       d="M648.1,446.56s-2.48,1.81-1.73,6.69"
       transform="translate(-441.5 -120.26)"
       id="path12274" />
    <path
       class="cls-8"
       d="M643.39,465.25s9.48,6.5,9.36,10.75l-.12,4.25"
       transform="translate(-441.5 -120.26)"
       id="path12276" />
    <path
       class="cls-8"
       d="M637.25,496.13s6.38-7.31,7.38-11.09a17.62,17.62,0,0,0,.66-6.28"
       transform="translate(-441.5 -120.26)"
       id="path12278" />
    <path
       class="cls-8"
       d="M648.1,486c.52-.12,1-4.5,0-8.5"
       transform="translate(-441.5 -120.26)"
       id="path12280" />
    <path
       class="cls-8"
       d="M636.4,490.75s6.35-4.69,6.22-11.28"
       transform="translate(-441.5 -120.26)"
       id="path12282" />
    <path
       class="cls-8"
       d="M636.4,486s4.85-5,1.47-10.75"
       transform="translate(-441.5 -120.26)"
       id="path12284" />
    <path
       class="cls-8"
       d="M590.88,480.63s12.29,0,15.64-6.5"
       transform="translate(-441.5 -120.26)"
       id="path12286" />
    <path
       class="cls-8"
       d="M591.88,483.75a19.79,19.79,0,0,0,18.13-8.5"
       transform="translate(-441.5 -120.26)"
       id="path12288" />
    <path
       class="cls-8"
       d="M599.5,486s10.5-1.12,16.13-13.25"
       transform="translate(-441.5 -120.26)"
       id="path12290" />
    <path
       class="cls-8"
       d="M606.52,486.5A20.8,20.8,0,0,0,619,471.81"
       transform="translate(-441.5 -120.26)"
       id="path12292" />
    <path
       class="cls-8"
       d="M612.4,487.44s5-3.81,5.34-6.19"
       transform="translate(-441.5 -120.26)"
       id="path12294" />
    <path
       class="cls-8"
       d="M616.44,478.07s4.37-1.7,6.34-5.32"
       transform="translate(-441.5 -120.26)"
       id="path12296" />
    <path
       class="cls-8"
       d="M620.5,478.07a7.32,7.32,0,0,0,5.25-5.32"
       transform="translate(-441.5 -120.26)"
       id="path12298" />
    <path
       class="cls-8"
       d="M622.78,480.25s5.59-3.12,6.22-9.37"
       transform="translate(-441.5 -120.26)"
       id="path12300" />
    <path
       class="cls-8"
       d="M626.36,481.75s7.76-3.28,4.64-14.39"
       transform="translate(-441.5 -120.26)"
       id="path12302" />
    <path
       class="cls-8"
       d="M630.64,477.38c.2-.44,4.61.38,4.36-11.37"
       transform="translate(-441.5 -120.26)"
       id="path12304" />
    <path
       class="cls-4"
       d="M574.14,493.56s3.49-8.06,10.61-11.81"
       transform="translate(-441.5 -120.26)"
       id="path12306" />
    <path
       class="cls-4"
       d="M582.87,500.88s7.13-12.13,9.5-13.45"
       transform="translate(-441.5 -120.26)"
       id="path12308" />
    <path
       class="cls-8"
       d="M578.75,487.44a74.13,74.13,0,0,1,.69,7.69"
       transform="translate(-441.5 -120.26)"
       id="path12310" />
    <path
       class="cls-8"
       d="M582.87,482.89a78,78,0,0,1,0,9.11"
       transform="translate(-441.5 -120.26)"
       id="path12312" />
    <path
       class="cls-8"
       d="M584.24,498.62a15.07,15.07,0,0,0,3.39,4"
       transform="translate(-441.5 -120.26)"
       id="path12314" />
    <path
       class="cls-8"
       d="M587.42,493.6a9.27,9.27,0,0,0,2.83,7"
       transform="translate(-441.5 -120.26)"
       id="path12316" />
    <path
       class="cls-8"
       d="M591.46,488.21s-1.47,6.44,2,8.9"
       transform="translate(-441.5 -120.26)"
       id="path12318" />
    <path
       class="cls-8"
       d="M610.88,498.62a5,5,0,0,0,3.5,1.38"
       transform="translate(-441.5 -120.26)"
       id="path12320" />
    <path
       class="cls-8"
       d="M612.76,494.13a5.63,5.63,0,0,0,3.68,3"
       transform="translate(-441.5 -120.26)"
       id="path12322" />
    <path
       class="cls-8"
       d="M739,425.63s-1.5,4.5-.87,12.5"
       transform="translate(-441.5 -120.26)"
       id="path12324" />
    <path
       class="cls-8"
       d="M742,428.75a19,19,0,0,0,0,11.32"
       transform="translate(-441.5 -120.26)"
       id="path12326" />
    <path
       class="cls-8"
       d="M746,430.25s-1.12,7.5.63,11.88"
       transform="translate(-441.5 -120.26)"
       id="path12328" />
    <path
       class="cls-8"
       d="M748.5,436.88s-.12,4.65.88,6.2"
       transform="translate(-441.5 -120.26)"
       id="path12330" />
    <path
       class="cls-8"
       d="M751.5,438.13s-.25,4.81.75,5.9"
       transform="translate(-441.5 -120.26)"
       id="path12332" />
    <path
       class="cls-8"
       d="M755.38,439.47s.13,4,1.75,5.53"
       transform="translate(-441.5 -120.26)"
       id="path12334" />
    <path
       class="cls-8"
       d="M758.88,440s.88,4.4,2.75,5"
       transform="translate(-441.5 -120.26)"
       id="path12336" />
    <path
       class="cls-8"
       d="M762.63,440.07s1.56,2.2,2.63,4"
       transform="translate(-441.5 -120.26)"
       id="path12338" />
    <path
       class="cls-8"
       d="M766,440a14.7,14.7,0,0,0,3.5,4.05"
       transform="translate(-441.5 -120.26)"
       id="path12340" />
    <path
       class="cls-8"
       d="M769.5,439.47s1.63,3.31,4.13,3.61"
       transform="translate(-441.5 -120.26)"
       id="path12342" />
    <path
       class="cls-8"
       d="M772.63,438.13a12.27,12.27,0,0,0,3.75,4.36"
       transform="translate(-441.5 -120.26)"
       id="path12344" />
    <path
       class="cls-8"
       d="M776.38,438.13a3.34,3.34,0,0,0,3.25,2.18"
       transform="translate(-441.5 -120.26)"
       id="path12346" />
    <path
       class="cls-8"
       d="M779.63,435.75a3.93,3.93,0,0,0,3.38,2.38"
       transform="translate(-441.5 -120.26)"
       id="path12348" />
    <path
       class="cls-8"
       d="M783,434.41a11.76,11.76,0,0,0,2.88,1.34"
       transform="translate(-441.5 -120.26)"
       id="path12350" />
    <path
       class="cls-8"
       d="M785.25,431.88a14.93,14.93,0,0,0,2.88,1.13"
       transform="translate(-441.5 -120.26)"
       id="path12352" />
    <path
       d="M773.61,391.87a32.87,32.87,0,0,1,5.92,2.54,29.68,29.68,0,0,1,5.3,3.64,24.51,24.51,0,0,1,4.36,4.82,21.15,21.15,0,0,1,2.83,5.92l-2-.49a16,16,0,0,0,3.53-7.12,11.7,11.7,0,0,0-1.05-7.65,18.47,18.47,0,0,0-2.28-3.36,14.51,14.51,0,0,0-2.93-2.73,9.66,9.66,0,0,0-3.54-1.51,7.79,7.79,0,0,0-1.9-.13,6.53,6.53,0,0,0-1.78.34l-.11,0a1,1,0,0,1-.73-1.86,10.14,10.14,0,0,1,9.34,1.19,16.54,16.54,0,0,1,3.49,3.1,20.74,20.74,0,0,1,2.62,3.81,14.23,14.23,0,0,1,1.46,4.51,13.72,13.72,0,0,1-.17,4.74,17.12,17.12,0,0,1-1.57,4.4,18.53,18.53,0,0,1-2.63,3.87l-1.41,1.58-.61-2.06a18.79,18.79,0,0,0-2.46-5.28,22.22,22.22,0,0,0-3.92-4.41,31.68,31.68,0,0,0-4.87-3.47,31,31,0,0,0-5.43-2.51l0,0a1,1,0,0,1,.62-1.9Z"
       transform="translate(-441.5 -120.26)"
       id="path12354" />
    <path
       class="cls-8"
       d="M758,397.13s2.88,4.79,26.44,2.08"
       transform="translate(-441.5 -120.26)"
       id="path12356" />
    <path
       class="cls-8"
       d="M748.94,398.58s6.44,7.79,15,9.17"
       transform="translate(-441.5 -120.26)"
       id="path12358" />
    <path
       class="cls-8"
       d="M756.25,400a16.72,16.72,0,0,0,11.5,3.71c7.63-.25,13.59-1,22.67,4"
       transform="translate(-441.5 -120.26)"
       id="path12360" />
    <path
       d="M787.74,426.31a18.07,18.07,0,0,1,1.35-3.67c.54-1.2,1-2.43,1.49-3.67s.91-2.51,1.36-3.77c.21-.64.44-1.27.66-1.9s.42-1.28.66-1.91h0a.5.5,0,0,1,1,.24,46.66,46.66,0,0,1-1.76,8A36.6,36.6,0,0,1,791,423.5a7.55,7.55,0,0,1-2.52,3.44.51.51,0,0,1-.8-.53Z"
       transform="translate(-441.5 -120.26)"
       id="path12362" />
    <path
       d="M778.08,407.88a2.64,2.64,0,0,1,.49-.15l.67-.15a9.73,9.73,0,0,1,1.4-.17,8.58,8.58,0,0,1,2.88.3A9.22,9.22,0,0,1,788.3,411a15.07,15.07,0,0,1,2.48,5.09,23.73,23.73,0,0,1,.45,2.72,19.44,19.44,0,0,1-.07,2.74.51.51,0,0,1-1,.16l0,0a19.39,19.39,0,0,1-.9-2.47c-.27-.81-.57-1.6-.8-2.4-.13-.4-.3-.77-.44-1.15a9.78,9.78,0,0,0-.45-1.14l-.54-1.08c-.17-.36-.44-.65-.64-1a8,8,0,0,0-3.49-2.91,8.2,8.2,0,0,0-2.29-.59c-.4,0-.82-.07-1.23-.08h-.64a6.68,6.68,0,0,1-.82,0,.35.35,0,0,1-.22-.59Z"
       transform="translate(-441.5 -120.26)"
       id="path12364" />
    <path
       class="cls-8"
       d="M774.5,393.24s17.25-3.55,18.75,10.66"
       transform="translate(-441.5 -120.26)"
       id="path12366" />
    <path
       class="cls-8"
       d="M778,392.84s2.88-5.59,7.25-7.66"
       transform="translate(-441.5 -120.26)"
       id="path12368" />
    <path
       class="cls-8"
       d="M782.15,393s2.49-4.53,7.11-5.54"
       transform="translate(-441.5 -120.26)"
       id="path12370" />
    <path
       class="cls-8"
       d="M786.69,394.29s-.27-2.73,5.15-4"
       transform="translate(-441.5 -120.26)"
       id="path12372" />
    <path
       class="cls-8"
       d="M789.26,395.87s.24-2.81,4.49-2.53"
       transform="translate(-441.5 -120.26)"
       id="path12374" />
    <path
       class="cls-8"
       d="M801.25,407.75s7.13-12.86,4-26.86"
       transform="translate(-441.5 -120.26)"
       id="path12376" />
    <path
       class="cls-8"
       d="M800.13,413.76c1.13-.12,10.55-11.44,10.55-24.84"
       transform="translate(-441.5 -120.26)"
       id="path12378" />
    <path
       class="cls-8"
       d="M808.63,408.18s4.63-4.3,4.63-16.68"
       transform="translate(-441.5 -120.26)"
       id="path12380" />
    <path
       class="cls-8"
       d="M812.63,408.18c.5-.05,4.38-3.81,4.38-9.81"
       transform="translate(-441.5 -120.26)"
       id="path12382" />
    <path
       class="cls-8"
       d="M795,423.63c-.14-.37-.26-10,1.86-10.37S817.5,423,823,403.89"
       transform="translate(-441.5 -120.26)"
       id="path12384" />
    <path
       class="cls-8"
       d="M808.13,415.58S816,412.5,817,407"
       transform="translate(-441.5 -120.26)"
       id="path12386" />
    <path
       class="cls-8"
       d="M795.85,414.44a23.83,23.83,0,0,0,13.77,6.43"
       transform="translate(-441.5 -120.26)"
       id="path12388" />
    <path
       class="cls-8"
       d="M771.22,384s6.66-4,16.91-3.11"
       transform="translate(-441.5 -120.26)"
       id="path12390" />
    <path
       class="cls-8"
       d="M773.75,379.32s8.64-3.07,15.51-1.69"
       transform="translate(-441.5 -120.26)"
       id="path12392" />
    <path
       class="cls-8"
       d="M780.38,358.88s1.75-2.37,3.5-3"
       transform="translate(-441.5 -120.26)"
       id="path12394" />
    <path
       class="cls-8"
       d="M782.15,361.38a4.31,4.31,0,0,1,3.55-2.5"
       transform="translate(-441.5 -120.26)"
       id="path12396" />
    <path
       class="cls-8"
       d="M784.17,364.25s.45-2.25,4-2.25"
       transform="translate(-441.5 -120.26)"
       id="path12398" />
    <path
       class="cls-8"
       d="M785.25,368.06a4.19,4.19,0,0,1,4-2.69"
       transform="translate(-441.5 -120.26)"
       id="path12400" />
    <path
       class="cls-8"
       d="M786.69,370.75s.44-1.88,4.25-1.88"
       transform="translate(-441.5 -120.26)"
       id="path12402" />
    <path
       class="cls-4"
       d="M780.83,374.5s15.95-3.11,24.42,6.39"
       transform="translate(-441.5 -120.26)"
       id="path12404" />
    <path
       class="cls-8"
       d="M788.13,374s1.13-2.3,5.63-4.2"
       transform="translate(-441.5 -120.26)"
       id="path12406" />
    <path
       class="cls-8"
       d="M778.75,353.75c-4.12.5-8.87-.62-14.81-4.62s-13.94,0-13.94,0,12.13-12.18,25.5-.78"
       transform="translate(-441.5 -120.26)"
       id="path12408" />
    <path
       class="cls-8"
       d="M740.5,336.9c-7.37,1.35-3.5,17-3.5,17s-1.25-12.05,5.13-15.08"
       transform="translate(-441.5 -120.26)"
       id="path12410" />
    <path
       class="cls-8"
       d="M744.25,336.9c.5.47,9.75-.46,13.75,6.76"
       transform="translate(-441.5 -120.26)"
       id="path12412" />
    <path
       class="cls-8"
       d="M744.25,334.13a16,16,0,0,1,17.88,8.58"
       transform="translate(-441.5 -120.26)"
       id="path12414" />
    <path
       class="cls-8"
       d="M772.3,345.68s-8.92-1.15-7-28.28"
       transform="translate(-441.5 -120.26)"
       id="path12416" />
    <path
       class="cls-8"
       d="M767.38,319.75S766,339.88,777.5,344.63"
       transform="translate(-441.5 -120.26)"
       id="path12418" />
    <path
       class="cls-8"
       d="M775.38,336.38S764,320.5,778.75,308.75"
       transform="translate(-441.5 -120.26)"
       id="path12420" />
    <path
       class="cls-8"
       d="M748.75,290.4c.38.1,2.38,1.5,4.44,2.8"
       transform="translate(-441.5 -120.26)"
       id="path12422" />
    <path
       class="cls-8"
       d="M748.75,293.2s3.25,2.05,6.5,4.3"
       transform="translate(-441.5 -120.26)"
       id="path12424" />
    <path
       class="cls-8"
       d="M749.5,296.93a17.45,17.45,0,0,1,5.25,3.2"
       transform="translate(-441.5 -120.26)"
       id="path12426" />
    <path
       class="cls-8"
       d="M752,301.75a33.25,33.25,0,0,1,4.75,2.26"
       transform="translate(-441.5 -120.26)"
       id="path12428" />
    <path
       class="cls-8"
       d="M752,306a12.21,12.21,0,0,1,4.75,1.37"
       transform="translate(-441.5 -120.26)"
       id="path12430" />
    <path
       class="cls-8"
       d="M753.19,309.38a24.06,24.06,0,0,1,5.56,1.5"
       transform="translate(-441.5 -120.26)"
       id="path12432" />
    <path
       class="cls-8"
       d="M754.38,313a16,16,0,0,1,5.5,1"
       transform="translate(-441.5 -120.26)"
       id="path12434" />
    <path
       class="cls-8"
       d="M756,316.25c.66.13,3.16,1,5.41,0"
       transform="translate(-441.5 -120.26)"
       id="path12436" />
    <path
       class="cls-8"
       d="M758,318.38a6.87,6.87,0,0,0,3.38,0"
       transform="translate(-441.5 -120.26)"
       id="path12438" />
    <path
       class="cls-8"
       d="M764.38,322.57a11.73,11.73,0,0,0-4.69-1.07"
       transform="translate(-441.5 -120.26)"
       id="path12440" />
    <path
       class="cls-8"
       d="M760.63,324a7.8,7.8,0,0,1,3.75,1"
       transform="translate(-441.5 -120.26)"
       id="path12442" />
    <path
       class="cls-4"
       d="M782,249.38s10.13,5.16,13-4.11c2.63-8.48,4.84-12.26,8.07-12.45a.9.9,0,0,1,.94.9c0,2.51.08,10-.46,15.85a3.28,3.28,0,0,0,1.1,2.77c3.54,3.14,3.75,14.23,21.1,17.91"
       transform="translate(-441.5 -120.26)"
       id="path12444" />
    <path
       class="cls-8"
       d="M813.75,227.63c.5,0,8.14-2,12.14,4.34,0,0,7.74,14.41,15.24,17.41"
       transform="translate(-441.5 -120.26)"
       id="path12446" />
    <path
       class="cls-8"
       d="M818.63,227.33s13.25-4.76,14.5-11.8"
       transform="translate(-441.5 -120.26)"
       id="path12448" />
    <path
       class="cls-4"
       d="M793.75,235.75c0-.37,3.36-7.06,13.63-8.87"
       transform="translate(-441.5 -120.26)"
       id="path12450" />
    <path
       class="cls-8"
       d="M809,229s10.5,6.74,12.75,12.11,15.63,10.38,19.38,8.25,3.13-3.42,3.25-6.92"
       transform="translate(-441.5 -120.26)"
       id="path12452" />
    <path
       class="cls-8"
       d="M810.88,227.33s12.88,3.79,22.25,21.54"
       transform="translate(-441.5 -120.26)"
       id="path12454" />
    <path
       class="cls-8"
       d="M816.38,252.67c.88-.17,14.06,13.26,26.47-4.45"
       transform="translate(-441.5 -120.26)"
       id="path12456" />
    <path
       class="cls-8"
       d="M841.13,249.38s2.25,1.63,6.38.5"
       transform="translate(-441.5 -120.26)"
       id="path12458" />
    <path
       class="cls-8"
       d="M831.48,257a21.22,21.22,0,0,0,8.52,4"
       transform="translate(-441.5 -120.26)"
       id="path12460" />
    <path
       class="cls-8"
       d="M835.74,255.21a20.52,20.52,0,0,0,9.14,4.59"
       transform="translate(-441.5 -120.26)"
       id="path12462" />
    <path
       class="cls-8"
       d="M813.25,251.24s8.77,13.87,12.63,18.38,2,17.27-4.37,20.77"
       transform="translate(-441.5 -120.26)"
       id="path12464" />
    <path
       class="cls-8"
       d="M821,257.51s5.76,5.12,16,5.24"
       transform="translate(-441.5 -120.26)"
       id="path12466" />
    <path
       class="cls-8"
       d="M822,258.27s1,6.53,8.13,12.57-2,17.79-2,17.79"
       transform="translate(-441.5 -120.26)"
       id="path12468" />
    <path
       class="cls-8"
       d="M808.68,259s-.93,13.23-10.43,14.4-7.5-10.21-5.12-12.39"
       transform="translate(-441.5 -120.26)"
       id="path12470" />
    <path
       class="cls-8"
       d="M791.35,265.11s-2.23,10.52,4.65,10.77,12.12-.77,14.5-14.82"
       transform="translate(-441.5 -120.26)"
       id="path12472" />
    <path
       class="cls-8"
       d="M800.18,294.05S805,281.5,809,275s3.64-11,3.64-11"
       transform="translate(-441.5 -120.26)"
       id="path12474" />
    <path
       class="cls-8"
       d="M803.5,298.53s-.69-8.15,3-12.9,6.17-3.33,8.29-19.83"
       transform="translate(-441.5 -120.26)"
       id="path12476" />
    <path
       class="cls-8"
       d="M811,287.88c.5-.12,7.39-8.32,7.2-19.79"
       transform="translate(-441.5 -120.26)"
       id="path12478" />
    <path
       class="cls-8"
       d="M677.92,231a13.15,13.15,0,0,1,1.24,5.19"
       transform="translate(-441.5 -120.26)"
       id="path12480" />
    <path
       class="cls-8"
       d="M675.92,233.83a4.24,4.24,0,0,1,1.52,2.75"
       transform="translate(-441.5 -120.26)"
       id="path12482" />
  </g>
  <path
     id="shine"
     d="M 1.5800005,0.7040314 V 207.08091 c 0,229.66454 239.9199995,319.6031 239.9199995,319.6031 0,0 239.92,-89.93856 239.92,-319.6031 V 0.7040314 Z"
     style="fill:url(#rg);stroke:#000000;stroke-width:2.41218" />
</svg>
