<?xml version="1.0" encoding="UTF-8" standalone="no"?>
<svg
   viewBox="0 0 483 527.48"
   version="1.1"
   id="svg22"
   sodipodi:docname="House Arryn GoT.svg"
   inkscape:version="1.2.1 (9c6d41e410, 2022-07-14)"
   xmlns:inkscape="http://www.inkscape.org/namespaces/inkscape"
   xmlns:sodipodi="http://sodipodi.sourceforge.net/DTD/sodipodi-0.dtd"
   xmlns="http://www.w3.org/2000/svg"
   xmlns:svg="http://www.w3.org/2000/svg">
  <sodipodi:namedview
     id="namedview24"
     pagecolor="#ffffff"
     bordercolor="#000000"
     borderopacity="0.25"
     inkscape:showpageshadow="2"
     inkscape:pageopacity="0.0"
     inkscape:pagecheckerboard="0"
     inkscape:deskcolor="#d1d1d1"
     showgrid="false"
     inkscape:zoom="1.12203"
     inkscape:cx="336.88938"
     inkscape:cy="243.309"
     inkscape:window-width="1920"
     inkscape:window-height="1017"
     inkscape:window-x="1912"
     inkscape:window-y="-8"
     inkscape:window-maximized="1"
     inkscape:current-layer="svg22" />
  <defs
     id="defs4">
    <style
       id="style2">.cls-1,.cls-3{fill:#111a29;}.cls-1{stroke:#000;stroke-width:3px;}.cls-2{fill:#ddd7bf;}.cls-4{fill:#ded8c0;}</style>
    <radialGradient
       id="rg"
       gradientUnits="userSpaceOnUse"
       cx="220"
       cy="220"
       r="405"
       gradientTransform="matrix(0.80510068,0,0,0.80302287,0.04979882,-0.10604562)">
      <stop
         style="stop-color:#ffffff;stop-opacity:.3"
         offset="0"
         id="stop753" />
      <stop
         style="stop-color:#ffffff;stop-opacity:.2"
         offset=".2"
         id="stop755" />
      <stop
         style="stop-color:#666666;stop-opacity:.1"
         offset=".6"
         id="stop757" />
      <stop
         style="stop-color:#000000;stop-opacity:.13"
         offset="1"
         id="stop759" />
    </radialGradient>
    <radialGradient
       id="radialGradient6539"
       gradientUnits="userSpaceOnUse"
       cx="220"
       cy="220"
       r="405">
      <stop
         style="stop-color:#ffffff;stop-opacity:.3"
         offset="0"
         id="stop6531" />
      <stop
         style="stop-color:#ffffff;stop-opacity:.2"
         offset=".2"
         id="stop6533" />
      <stop
         style="stop-color:#666666;stop-opacity:.1"
         offset=".6"
         id="stop6535" />
      <stop
         style="stop-color:#000000;stop-opacity:.13"
         offset="1"
         id="stop6537" />
    </radialGradient>
  </defs>
  <title
     id="title6">Arryn-Shield</title>
  <g
     id="Layer_2"
     data-name="Layer 2">
    <path
       class="cls-1"
       d="M948.9,96.5V302.34a314.37,314.37,0,0,1-2.28,38c-.11.93-.24,1.86-.36,2.79s-.24,1.86-.39,2.79q-.7,5.05-1.61,10c-.07.44-.15.87-.23,1.31-.15.8-.29,1.6-.45,2.39s-.34,1.8-.51,2.69l-.45,2.22-.24,1.16c-.15.71-.3,1.44-.47,2.15q-.8,3.55-1.61,7l-.58,2.32-.52,2q-1.52,5.88-3.27,11.61c-.29,1-.59,1.94-.9,2.92l-.6,1.88c-.19.63-.39,1.25-.6,1.86l-1.1,3.26c-.37,1.09-.68,2-1,3-.47,1.28-.92,2.55-1.39,3.81-.36,1-.73,2-1.11,3l-.19.49c-.43,1.14-.87,2.25-1.32,3.37s-.87,2.16-1.32,3.19a3.35,3.35,0,0,1-.18.42c-.4,1-.8,2-1.25,3s-.75,1.75-1.13,2.62l-.66,1.49c-.47,1.07-.95,2.12-1.44,3.15s-.9,2-1.36,2.93l-1,2.12c-.3.63-.6,1.25-.91,1.88-.63,1.32-1.31,2.64-2,4q-2.53,5-5.19,9.77l-2,3.57-.11.21q-2.13,3.71-4.33,7.33c-.71,1.2-1.46,2.39-2.18,3.54-.1.16-.19.31-.3.46-.55.89-1.12,1.78-1.69,2.66l-.66,1c-.65,1-1.31,2-2,3l-.13.18c-.66,1-1.32,2-2,3l-.45.67q-2.26,3.28-4.54,6.46l-.31.42c-.8,1.07-1.54,2.14-2.31,3.19s-1.66,2.23-2.5,3.32q-2.29,3-4.61,6l-.8,1c-.73.93-1.48,1.85-2.22,2.76l-2.28,2.77-.57.69-2.41,2.8q-2.83,3.32-5.72,6.53c-.75.85-1.52,1.69-2.29,2.51l-2.22,2.39q-3,3.19-5.93,6.24-2.76,2.83-5.53,5.59c-.91.91-1.84,1.82-2.76,2.71s-1.85,1.78-2.78,2.67l-2.28,2.11c-.68.65-1.36,1.28-2.05,1.91A448.64,448.64,0,0,1,779.57,584c-.86.55-1.73,1.1-2.58,1.6q-6.42,4.07-12.46,7.63l-2.41,1.4L759.76,596l-2.34,1.35-2.22,1.28c-8.35,4.68-15.91,8.59-22.38,11.76l-1.61.8c-10.63,5.15-18.11,8.22-21,9.35l-.42.18-.61.23-.14.06H709l-.23-.1-.21,0-1.07-.42-.55-.23c-.87-.34-2-.8-3.36-1.38l-.47-.18c-1.76-.8-3.88-1.67-6.33-2.77l-1.39-.61a443.16,443.16,0,0,1-39.74-20.6c-.8-.45-1.61-.92-2.36-1.38a473.14,473.14,0,0,1-44.78-30l-2.62-2c-1-.75-2-1.52-2.95-2.29l-2.81-2.21c-6.19-4.92-12.43-10.15-18.64-15.69L580,539.76q-2.3-2.05-4.59-4.2L573.71,534l-1.83-1.71-2-1.94c-1.12-1.07-2.24-2.16-3.34-3.26-.84-.8-1.69-1.67-2.52-2.51l-.24-.26q-1.25-1.25-2.5-2.51c-.66-.68-1.32-1.36-2-2l-2-2.07-.13-.15-2.1-2.24q-3.36-3.61-6.66-7.36c-.68-.8-1.36-1.55-2-2.35-.57-.65-1.12-1.28-1.66-1.94l-2-2.39q-4.26-5.11-8.39-10.48-1.13-1.45-2.24-2.92c-1.89-2.47-3.73-5-5.57-7.55l-1.68-2.39c-.13-.16-.24-.34-.36-.5-.59-.85-1.19-1.7-1.77-2.55-.95-1.38-1.89-2.77-2.82-4.17q-1.11-1.64-2.18-3.31l-.15-.24-2.22-3.47c-.07-.13-.15-.24-.22-.37-.71-1.14-1.41-2.27-2.1-3.4s-1.49-2.46-2.21-3.7-1.44-2.39-2.13-3.67q-4.6-8-8.77-16.47c-.35-.69-.69-1.38-1-2.08-.22-.44-.44-.89-.65-1.35-.43-.87-.8-1.75-1.25-2.63a27.17,27.17,0,0,1-1.15-2.47l-.23-.48c-.26-.58-.52-1.16-.8-1.75l-.26-.57c-.26-.58-.52-1.18-.8-1.77q-1.44-3.26-2.78-6.58c-.42-1-.8-2-1.23-3.07-.1-.26-.21-.53-.31-.8-.4-1-.8-2-1.16-3s-.68-1.82-1-2.74l-.23-.65c-.18-.45-.34-.91-.5-1.36q-1-2.69-1.89-5.44c-.21-.6-.4-1.21-.6-1.8-.26-.8-.51-1.54-.75-2.31-.14-.42-.26-.8-.39-1.22-.26-.8-.5-1.6-.75-2.39-.31-1-.61-2.06-.92-3.1-.18-.65-.39-1.28-.57-2-.37-1.28-.74-2.58-1.08-3.89-.19-.68-.37-1.35-.55-2-.13-.5-.26-1-.39-1.51-.32-1.22-.63-2.46-.92-3.7-.18-.7-.35-1.4-.52-2.11-.07-.29-.13-.57-.19-.85-.37-1.55-.71-3.11-1.07-4.69-.26-1.16-.5-2.33-.74-3.5-.14-.71-.29-1.43-.43-2.14s-.32-1.6-.47-2.45a2.13,2.13,0,0,0-.1-.47c-.15-.8-.3-1.64-.45-2.48s-.31-1.84-.47-2.77-.3-1.8-.45-2.71q-.87-5.52-1.56-11.17a314.73,314.73,0,0,1-2.25-37.71V96.5Z"
       transform="translate(-467.4 -95)"
       id="path8" />
  </g>
  <g
     id="Layer_3"
     data-name="Layer 3">
    <path
       class="cls-2"
       d="M709.08,496c-93.78.13-170.3-76.15-170.5-170-.2-94,76.38-170.65,170.39-170.58s170.21,76.4,170.25,170.21S802.9,495.88,709.08,496Z"
       transform="translate(-467.4 -95)"
       id="path11" />
    <path
       class="cls-3"
       d="M709.76,475.25A150.21,150.21,0,1,1,860,325.17C860,408,792.68,475.27,709.76,475.25Z"
       transform="translate(-467.4 -95)"
       id="path13" />
    <path
       class="cls-2"
       d="M736.73,297q37.6-9,74.17-21.6a24.69,24.69,0,0,1,7.77-1.75c6.94-.07,11.82,7.69,11.86,14.41.06,8.57-4.83,9.72-11.09,11.7-26.56,8.38-51.46,20.42-75.23,34.92-6.26,4.37-1.37,4.94-1.33,7.34,0,0,.24,1.25-1.72,2.55s-.06,4.28,1,4.63,1.84,3.44-.42,3.68-.81,3.08,0,4.1c1.24,1.55-.88,3.08-.77,3.86.16,1.21,2.21,1.06,3.42,1.23,6.61,1,1.63,5.36,5.25,5.66,7,.58,3.28,1.85,6,2.19,1.48.18,3.15,1.21,4.59,4.16a.28.28,0,0,1-.21.4c-4.95.54-12.37.73-17.39,1.28a1.17,1.17,0,0,0-1,1.12h0a1.18,1.18,0,0,0,1,1.22c11.38,1.71,26.15-1.55,36.11,5a.9.9,0,0,1-.5,1.64l-28.17.46a1.8,1.8,0,0,0-1.77,1.72h0a1.8,1.8,0,0,0,1.66,1.88c10.21.77,30.34,1.3,39.31,4.62,2,2.58-8.25,2.19-10.51,2.41-7.62.72-15.47.11-23.1.76-1.41.12-3.8-.61-3.69,1.74.08,1.6,2.23,1.34,3.62,1.44,10.65.76,21.32,1.38,32,2.3,5.83.5,11.61,1.48,18.94,2.45,6.65,3.28-13.92,2.5-20.17,2.9-24,1.53-48.18,1.57-71.47-6.39a112.9,112.9,0,0,1-16.06-7.13c-5.2-2.74-5.64-6.36-1.23-10.33,10.29-9.28,12.42-21.29,6-33-1.16-2.1-2-3.08-4.88-2.23-6.51,1.94-13.39,1.7-20.1,2.41-9,.95-11.23,3-12.13,11.46-5.06-2.08-8.7-9.93-7.78-16.93,1-7.92,5.19-14.47,10.76-20.23a60,60,0,0,1,14.45-10.83c6-3.28,6-3.55,3.18-10.55-4.35-10.84-11.55-18.25-23.87-19.25-3.47-.28-4.52-2.26-4-5.49.44-2.92,2-5.26,3.48-7.72,14.2-24.3,33.63-43.53,56.91-59.12,5.57-3.73,10.8-8,16.79-11.34-10.94,13.87-21.71,27.53-36.25,37.89-.67.71-1.74,2,.21,1.51,9.54-6.53,19.32-13.48,29.09-20.14.23,4.84-.39,5.69-11,15.31-4.53,4.11-9.1,8.18-13.33,12.73a.37.37,0,0,0,.36.61c4.41-1.25,7.9-4.14,11.78-6.25,1.25-.68,2.42-1.49,3.63-2.23s2.32-1.81,3.7-.27c1.62,1.82-.36,2.49-1.16,3.34-4.4,4.66-8.91,9.22-13.36,13.84-1,1-2.19,1.82-2.47,3.69,4,.18,6.46-3.66,10.36-3.85.69,3.8-2.07,5.55-4.12,7.6-2.82,2.82-4.37,9.91-1.1,12.81,1.69,1.49,2.17,1.27,2.68,2.3.81,1.65.13,4.05,2,5.7,1.47,1.33,3.71.8,4.54,2.23s-.95,4,.53,4.28.65-.48,1.78-.05c3.65,1.39,2.43,2.3,3,3.88C727.83,297.85,730.08,300.86,736.73,297Z"
       transform="translate(-467.4 -95)"
       id="path15" />
    <path
       class="cls-2"
       d="M683.28,202.46c-57.7,38.79-69.15,104.67-50.55,154.45a124.9,124.9,0,0,0,31,47.34,119.76,119.76,0,0,0,49.44,28.47c18.42,5.44,37.25,6.8,57.06,4.62-39.88,21.16-92.36,25.56-133.26-3.08-44.48-31.14-66.14-91-52.24-143.54C598.29,239.55,641.92,210.48,683.28,202.46Z"
       transform="translate(-467.4 -95)"
       id="path17" />
    <path
       class="cls-4"
       d="M827.45,278.93s7.34,2.51,2.52,7.63"
       transform="translate(-467.4 -95)"
       id="path19" />
  </g>
  <path
     id="shine"
     d="m 1.66,1.5 v 206.37688 c 0,229.66454 239.92,319.6031 239.92,319.6031 0,0 239.92,-89.93856 239.92,-319.6031 V 1.5 Z"
     style="fill:url(#rg);stroke:#000000;stroke-width:2.41218" />
</svg>
