<?xml version="1.0" encoding="UTF-8" standalone="no"?>
<svg
   viewBox="0 0 483 527.48"
   version="1.1"
   id="svg38209"
   sodipodi:docname="House Baratheon.svg"
   inkscape:version="1.2.1 (9c6d41e410, 2022-07-14)"
   xmlns:inkscape="http://www.inkscape.org/namespaces/inkscape"
   xmlns:sodipodi="http://sodipodi.sourceforge.net/DTD/sodipodi-0.dtd"
   xmlns="http://www.w3.org/2000/svg"
   xmlns:svg="http://www.w3.org/2000/svg">
  <sodipodi:namedview
     id="namedview38211"
     pagecolor="#ffffff"
     bordercolor="#000000"
     borderopacity="0.25"
     inkscape:showpageshadow="2"
     inkscape:pageopacity="0.0"
     inkscape:pagecheckerboard="0"
     inkscape:deskcolor="#d1d1d1"
     showgrid="false"
     inkscape:zoom="1.12203"
     inkscape:cx="204.09436"
     inkscape:cy="276.28494"
     inkscape:window-width="1920"
     inkscape:window-height="1017"
     inkscape:window-x="-8"
     inkscape:window-y="-8"
     inkscape:window-maximized="1"
     inkscape:current-layer="svg38209" />
  <defs
     id="defs38152">
    <style
       id="style38150">.cls-1,.cls-10,.cls-3{fill:#fecf03;}.cls-1,.cls-10,.cls-8,.cls-9{stroke:#000;}.cls-1{stroke-width:3px;}.cls-2{fill:#060500;}.cls-4{fill:#fbcf03;}.cls-5{fill:#f8d003;}.cls-6{fill:#ece761;}.cls-7{fill:#090700;}.cls-8{fill:#fcdf57;}.cls-10,.cls-8,.cls-9{stroke-miterlimit:10;stroke-width:2px;}.cls-9{fill:none;}</style>
    <radialGradient
       id="rg"
       gradientUnits="userSpaceOnUse"
       cx="220"
       cy="220"
       r="405"
       gradientTransform="matrix(0.80510068,0,0,0.80302287,-0.0302025,-0.89702466)">
      <stop
         style="stop-color:#ffffff;stop-opacity:.3"
         offset="0"
         id="stop753" />
      <stop
         style="stop-color:#ffffff;stop-opacity:.2"
         offset=".2"
         id="stop755" />
      <stop
         style="stop-color:#666666;stop-opacity:.1"
         offset=".6"
         id="stop757" />
      <stop
         style="stop-color:#000000;stop-opacity:.13"
         offset="1"
         id="stop759" />
    </radialGradient>
  </defs>
  <title
     id="title38154">Baratheon-Shield</title>
  <g
     id="Layer_4"
     data-name="Layer 4">
    <path
       class="cls-1"
       d="M928.17,124.09V329.93a314.37,314.37,0,0,1-2.28,38c-.11.93-.24,1.86-.36,2.79s-.24,1.86-.39,2.79q-.7,5.05-1.61,10c-.07.44-.15.87-.23,1.31-.15.8-.29,1.6-.45,2.39s-.34,1.8-.51,2.69l-.45,2.22-.24,1.16c-.15.71-.3,1.44-.47,2.15q-.8,3.55-1.61,7l-.58,2.32-.52,2q-1.52,5.88-3.27,11.61c-.29,1-.59,1.94-.9,2.92l-.6,1.88c-.19.63-.39,1.25-.6,1.86l-1.1,3.26c-.37,1.09-.68,2-1,3-.47,1.28-.92,2.55-1.39,3.81-.36,1-.73,2-1.11,3l-.19.49c-.43,1.14-.87,2.25-1.32,3.37s-.87,2.16-1.32,3.19a3.35,3.35,0,0,1-.18.42c-.4,1-.8,2-1.25,3s-.75,1.75-1.13,2.62l-.66,1.49c-.47,1.07-.95,2.12-1.44,3.15s-.9,2-1.36,2.93l-1,2.12c-.3.63-.6,1.25-.91,1.88-.63,1.32-1.31,2.64-2,4q-2.53,5-5.19,9.77l-2,3.57-.11.21q-2.13,3.71-4.33,7.33c-.71,1.2-1.46,2.39-2.18,3.54-.1.16-.19.31-.3.46-.55.89-1.12,1.78-1.69,2.66l-.66,1c-.65,1-1.31,2-2,3l-.13.18c-.66,1-1.32,2-2,3l-.45.67q-2.26,3.28-4.54,6.46l-.31.42c-.8,1.07-1.54,2.14-2.31,3.19s-1.66,2.23-2.5,3.32q-2.29,3-4.61,6l-.8,1c-.73.93-1.48,1.85-2.22,2.76l-2.28,2.77-.57.69-2.41,2.8q-2.83,3.32-5.72,6.53c-.75.85-1.52,1.69-2.29,2.51l-2.22,2.39q-3,3.19-5.93,6.24-2.76,2.83-5.53,5.59c-.91.91-1.84,1.82-2.76,2.71s-1.85,1.78-2.78,2.67l-2.28,2.11c-.68.65-1.36,1.28-2.05,1.91a448.64,448.64,0,0,1-61.76,47.47c-.86.55-1.73,1.1-2.58,1.6q-6.42,4.07-12.46,7.63l-2.41,1.4L739,623.57l-2.34,1.35-2.22,1.28c-8.35,4.68-15.91,8.59-22.38,11.76l-1.61.8c-10.63,5.15-18.11,8.22-21,9.35l-.42.18-.61.23-.14.06h-.08l-.23-.1-.21,0-1.07-.42-.55-.23c-.87-.34-2-.8-3.36-1.38l-.47-.18c-1.76-.8-3.88-1.67-6.33-2.77l-1.39-.61a443.16,443.16,0,0,1-39.74-20.6c-.8-.45-1.61-.92-2.36-1.38a473.14,473.14,0,0,1-44.78-30l-2.62-2c-1-.75-2-1.52-2.95-2.29l-2.81-2.21c-6.19-4.92-12.43-10.15-18.64-15.69l-1.52-1.36q-2.3-2.05-4.59-4.2L553,561.58l-1.83-1.71-2-1.94c-1.12-1.07-2.24-2.16-3.34-3.26-.84-.8-1.69-1.67-2.52-2.51l-.24-.26q-1.25-1.25-2.5-2.51c-.66-.68-1.32-1.36-2-2l-2-2.07-.13-.15-2.1-2.24q-3.36-3.61-6.66-7.36c-.68-.8-1.36-1.55-2-2.35-.57-.65-1.12-1.28-1.66-1.94l-2-2.39q-4.26-5.11-8.39-10.48-1.13-1.45-2.24-2.92c-1.89-2.47-3.73-5-5.57-7.55l-1.68-2.39c-.13-.16-.24-.34-.36-.5-.59-.85-1.19-1.7-1.77-2.55-.95-1.38-1.89-2.77-2.82-4.17q-1.11-1.64-2.18-3.31l-.15-.24-2.22-3.47c-.07-.13-.15-.24-.22-.37-.71-1.14-1.41-2.27-2.1-3.4s-1.49-2.46-2.21-3.7-1.44-2.39-2.13-3.67q-4.6-8-8.77-16.47c-.35-.69-.69-1.38-1-2.08-.22-.44-.44-.89-.65-1.35-.43-.87-.8-1.75-1.25-2.63A27.17,27.17,0,0,1,475,455.1l-.23-.48c-.26-.58-.52-1.16-.8-1.75l-.26-.57c-.26-.58-.52-1.18-.8-1.77q-1.44-3.26-2.78-6.58c-.42-1-.8-2-1.23-3.07-.1-.26-.21-.53-.31-.8-.4-1-.8-2-1.16-3s-.68-1.82-1-2.74l-.23-.65c-.18-.45-.34-.91-.5-1.36q-1-2.69-1.89-5.44c-.21-.6-.4-1.21-.6-1.8-.26-.8-.51-1.54-.75-2.31-.14-.42-.26-.8-.39-1.22-.26-.8-.5-1.6-.75-2.39-.31-1-.61-2.06-.92-3.1-.18-.65-.39-1.28-.57-2-.37-1.28-.74-2.58-1.08-3.89-.19-.68-.37-1.35-.55-2-.13-.5-.26-1-.39-1.51-.32-1.22-.63-2.46-.92-3.7-.18-.7-.35-1.4-.52-2.11-.07-.29-.13-.57-.19-.85-.37-1.55-.71-3.11-1.07-4.69-.26-1.16-.5-2.33-.74-3.5-.14-.71-.29-1.43-.43-2.14s-.32-1.6-.47-2.45a2.13,2.13,0,0,0-.1-.47c-.15-.8-.3-1.64-.45-2.48s-.31-1.84-.47-2.77-.3-1.8-.45-2.71q-.87-5.52-1.56-11.17a314.73,314.73,0,0,1-2.25-37.71V124.09Z"
       transform="translate(-446.67 -122.59)"
       id="path38156" />
  </g>
  <g
     id="Layer_3"
     data-name="Layer 3">
    <path
       d="M610.1,388.82A187.19,187.19,0,0,0,588,377.59c-4.55-2-5.34.06-5.58,3.65a84.82,84.82,0,0,0,1.16,21.31c.63,3.33,3.77,6.66,0,10a.94.94,0,0,0-.07,1.08c7,6.49,2,12.16-7.5,18.23a21.69,21.69,0,0,0-2.16-18.16,3.29,3.29,0,0,1-.26-2.19c2.95-12.74.4-25.35-1.22-37.91-.64-4.93.69-8.55,4.44-11,4.13-2.66,7.07.42,10,3.16,3.89,3.63,9.06,4.86,13.87,6.74,3.36.22,6.06,2.17,9,3.43s5.52,1.56,5.08-2.91c-.3-3.11,1.29-5.5,2.94-8.69-1.73,3.07-3.14,5.36-3,8.39.15,3.93-2.13,4.6-5.28,3-2.54-1.3-5.38-2.09-7.45-4.23L592,366.87c-4-1.85-7.19-4.32-8.82-8.65-1.27-3.39-3.68-5.33-7.08-2.54-7.82,6.39-21.25,16.32-21,22.86.09,2.57-6.26,1.81-5.47,4.22,1.38,4.24-10.38,6.64-18.13,5.06,5.47-5.58,8.79-14.14,14.88-19.24,1.49-1.24,3-.9,4.91-1.86,8.47-4.22,14.79-12.22,20.88-19.76,5.44-6.72,12.23-6.26,16.54,1.13.87,1.5,1.87,2.93,2.89,4.33,5.37,7.39,5.38,7.39,10.37-.06-1.23-1.8-2.74.3-4.48-.47.56-4.52,4.49-7.08,6.84-10.52-1.46-1.2-2.22.77-3.59.14.62-5.27,5.75-6.67,8.95-9.78-1.8-1.4-3.18,1.54-4.93-.08.36-3.58,3.23-5.24,6-5.95,7.06-1.78,9.76-6.74,11-13.17a27.77,27.77,0,0,1,1.32-3.8c1-.16,1.46.47,1.79,1.26.62,3.57-2.39,7-.46,10.62a2.58,2.58,0,0,1-.44,1.29c2.64,3.84,7,5.16,10.75,7.31,10.87,6.27,21.31,13.3,32.54,19a3.21,3.21,0,0,1,1.16,1.13c-2.15,3.41-.3,6.4,1.23,9.22,7.49,13.84,19.49,23.24,32.11,31.91,10.82,7.43,21.87,14.51,31.13,24,12.63,12.91,21.37,27.73,23.23,46.07.83,8.15,1.3,8.44,8.85,7-4.61,6-5.91,6-14,.49-1.47.82.4,3.16-1.95,3.81-2.2-3.47-2-7.52-2.37-11.51-2.59,1.43-2.87,1.43-3.76.22.26-3.26,2.51-6,2.24-9-.49,3.05-1.14,6.51-3.72,9.2-2.87,6.52-7.49,12.08-10,18.83-5.23,14-5.36,26.84,7.23,37.21,2.13,1.75,1.12,3.37.63,5.14-3,11-5.77,22-6.74,33.4a45.87,45.87,0,0,0,0,11.54c.84,4.86-.27,7.39-5.5,7.41-1.87,0-4,.71-3,3,2.58,5.86-1.26,5.35-4.81,5.24-2.25-.07-4.56.61-7.17-.54,2.08-3.62,2.58-7.76,6.75-10.26,3.22-1.93,3.86-6.08,4.67-9.64,2.84-12.58,2.42-25.3,1.43-38-.2-2.58-1.67-4.14-3.2-5.9-12.44-14.29-23.19-29.39-24.16-49.34-.47-9.63-1.22-19.25-1.85-28.88-1.21-1.53-1-3.57-1.75-5a17.5,17.5,0,0,1-.51,10.55c-8.37-4.12-16.72-8.27-25.11-12.34-10.85-5.26-21.64-10.63-32-16.77-1.69,1.52,1,3-.43,4.48a4.2,4.2,0,0,1-1.34-.62c-3-3-5.84-6.14-9-9-.84-.77-2.4-5.37-3.85,0-.43,1.62-1.77-.25-2.36-1-2.56-3.1-5-6.27-7.53-9.42-2.3.3-.71,3.78-3.62,4-.7-4.64-1.52-9.26-2.06-13.92-.34-2.91,1.67-.77,2.59-1,5.53,1.17,9.19,5.38,13.48,8.51,2.45,1.79,4.29,3.34,7.6,1.63,3.07-1.59,4-3.84,4-7a31,31,0,0,1,.07-4.57c-.4,2.39.12,4.82-.39,7.23-.63,2.94-2.89,3.82-5.29,4.69-1.35.49-2.56.77-3.75-.31C620.06,396,614.59,393,610.1,388.82Z"
       transform="translate(-446.67 -122.59)"
       id="path38159" />
    <path
       d="M639.87,291.07c-5.76,0-10.67,2.83-16.15,5.17-.79-3.53,1.63-5.34,3.61-7.8a10.08,10.08,0,0,0-7,0c-1.82.57-4,2.47-4.85-1.06-.76-3-1.83-7.21,1.91-8,17.63-3.75,30.13-18,47.22-22.61,2.42-.66,4.46-1.91,4.67-4.5.25-3.17-2.78-3.34-4.78-4.1-10.83-4.08-20.8-9.19-26.92-19.74a42.34,42.34,0,0,1-4-10c2-.95,1.83.71,2.35,1.55,6.46,10.32,15.07,18.07,27,21.39,6.34,1.77,11.75,4,11.26,13.18,2.55-5.47.24-8.35-2.26-11.1-4.54-5-9.29-9.79-13.27-15.28a30.3,30.3,0,0,1-6.19-16.54c-.07-1.54-.19-3.44,1.94-3.54s2,1.74,2.22,3.31c1.77,12.82,10.83,19.84,20.95,25.93,1.77,1.06,3.57.54,5.49-.33,4.91-2.22,9.9-4.28,15-6.06,2.06-.72,2.79-1,1.92-3.48-2.52-7.09-4.54-14.36-10.24-19.8-1-1-2.69-2.38-1.21-3.9,1.84-1.89,3.52-.44,4.89,1.06,5.86,6.42,11.78,12.88,15.45,20.81,1.54,3.31,2.88,4.56,6.6,4.25,4.09-.34,6.18-2.6,6.76-6,1.22-7-.07-13.84-2.73-20.37a57.71,57.71,0,0,0-7.29-13.09c-1.16-1.53-2.76-3.21-.52-4.92,1.88-1.43,3.45.17,4.41,1.45,8.21,11,16.49,22,14.85,37-.47,4.31,0,7.69,5.45,8.08,2.27.16,3.49.1,3.75-2.72.25-2.61,1.44-5.14,2.21-7.71,1.54-3.68,1.15-8.79,6.9-9.36,1.69,2.22.45,4.46-.08,6.63-.63,2.62-1.66,5.16-1.85,7.88-.14,2-1.32,4.59,1.41,5.58s5.61,2.45,8.31.61c2.2-1.5,1.6-4.12,1.29-6.43-.84-6.22-5.62-9.92-9.22-14.37-2.69-.12-5.26-.61-7.37-2.42-1.47-1.26-3.36-2.78-2-4.77s3.6-3.7,6.16-1.06a31.77,31.77,0,0,0,12.53,4.14,5.33,5.33,0,0,0,5.24-1.71c1.66-2,.26-3.71-.66-5.28-3.25-5.56-7.94-9.87-12.71-14.09-1.91-1.69-5.23-3.36-2.43-6.41,2.4-2.6,4.46-.05,6.33,1.59a26.32,26.32,0,0,0,7.66,5.1c2.77,1.08,5.45,1,7.51-1.14s1.39-5.1.22-7.57a46.45,46.45,0,0,0-9-12.69c-1.08-1.1-2.12-2.24-3.13-3.42-1.35-1.58-2.21-3.56-.64-5.19s3.51-.51,5.06.81c16.57,14.19,25,31.39,20.62,53.73-1.87,9.46-5.13,18.12-11.62,25.49,4.23-.33,4.75-.63,6.89-5.79,2.58-6.22,5.21-12.42,8.89-18.09a32.38,32.38,0,0,1,3.84-5.06c1.37-1.4,3-3.94,5.21-1.73,2,2-.58,3.46-1.67,4.75-5.53,6.58-5.27,14.7-6.16,22.49-.37,3.25,1.92,3.18,4.25,2.71,5.71-1.15,10.42-6.57,11.51-13.1,1.22-7.32-1.15-13.66-5-19.72-1.17-1.87-3.39-4.3-.8-6.08,3-2.08,4.15,1.33,5.67,3.14a53.81,53.81,0,0,0,4.53,5.22c2.52,2.31,5.24,5.25,9,2.75,4-2.64,5.25-6.77,3.71-11.22-2.25-6.5-7.53-10.56-12.86-14.45-1.55-1.13-3.38-2-4.74-3.28-1-.93-2.54-2.33-.91-3.93,1.35-1.32,2.86-.83,4.11.35a33.42,33.42,0,0,0,7.87,5.85c6.68,3.32,11.57.23,11.3-7.29-.2-5.69-3.61-10.05-6.55-14.55a54.6,54.6,0,0,0-3.67-4.46c-1.47-1.79-3.55-3.87-1.42-6,2.85-2.89,4,1.12,5.26,2.28,19.91,18,25.33,44.91,13.38,65.42-11.73,20.13-37.4,32.57-60.67,29.28-5.49-.78-10.23-1.37-15.78,2-6.07,3.74-13.8,4.87-21.29,4.36-8.47-.58-16.95-1.19-25.39-2.07a53,53,0,0,0-19.54,1.13c-1.83.49-4.36.86-4.82,2.63-.59,2.31,2.82,2.06,3.71,3.73-1.9,2.47-4.87.64-7.07,1.59,2.87-.35,5.76-.59,8.55.72,3.37,1.84,6.77,3.64,10.11,5.55,2.91,1.66,2.69,3.45-.06,5.08a19,19,0,0,1-19.38.62c-5.38-2.87-7-1.33-8,3.9-.42,2.41-1.69,4.68-2.57,7a15.69,15.69,0,0,1-16.81,8.32A41.86,41.86,0,0,0,639.87,291.07Z"
       transform="translate(-446.67 -122.59)"
       id="path38161" />
    <path
       d="M671.53,284.24a7.8,7.8,0,0,0,2.59-5c.43-7.08,4.05-6.5,8.66-3.66a10.2,10.2,0,0,0,1.59.7c9,3.59,9.2,3.61,8.12,13.77-2,18.85-10.77,34.32-24.18,47.38.6,1.39-.17,2.24-1.19,3-4.56.68-5.12-1.63-5.33-5.75-.34-6.82-1.6-6.61-7.79-4-2.61,1.11-5.16,2.55-8.19,2a3,3,0,0,1-1.43-1,18.22,18.22,0,0,1-1.92-8.32c0-5.08-2-5.66-6.4-4.23-7.1,2.3-8.84.92-9.56-6.49.29-1.94,1.94-2.16,3.36-2.67,8.46-4.45,15.52-10.68,22-17.57.28-.5.68-1.2,1.15-1.16C660.35,291.88,666.15,288.64,671.53,284.24Z"
       transform="translate(-446.67 -122.59)"
       id="path38163" />
    <path
       d="M633.15,504.51c1.13-.27,2.38-.4,3.08-1.09,8.29-8.29,19.09-5.3,28.92-6.63a108.84,108.84,0,0,0,13.66-2.33c5.49-1.47,6.44-3.86,4-9-2.1-4.33-4.6-8.46-6.81-12.73-4.78-9.28-4.78-18.88-1.71-28.64,1-3.25,2.69-5.15,6.21-2.62a4.37,4.37,0,0,0,1.3.61c9.55,2.86,14.13,8.36,13.35,19.05-.59,8,2.23,16.13-.26,24.31-1,3.27.52,6.31,2.63,9.1,2.91,3.84,2.06,6.22-2.65,7.45s-9.59.85-14.41,1c-6.73.14-13.59-.49-20,2.32-3,1.3-5.59,5.43-8.95.58a1.72,1.72,0,0,0-1.46.32c-1.29,2-3.94,2.41-3.76,3.74.59,4.3-8.57-3.76-12.94-3.67Z"
       transform="translate(-446.67 -122.59)"
       id="path38165" />
    <path
       class="cls-2"
       d="M648.13,243.57c1.58,4.34,4.56,5.78,8.62,5.9a11.82,11.82,0,0,1,4.37,1.26,3.91,3.91,0,0,1,2.5,3c.17,2.07-1.86,1.43-2.93,1.94a7.36,7.36,0,0,1-2.72.92c-2.86.11-5.34,5.13-8.49.8S644.88,248.68,648.13,243.57Z"
       transform="translate(-446.67 -122.59)"
       id="path38167" />
    <path
       class="cls-3"
       d="M610.1,388.82a49.11,49.11,0,0,1,12.77,8.75c2.1,1.93,4,2.54,6.65,1.46,2.85-1.14,3.18-3.32,3.61-5.93.46-2.8-1.18-6.14,2.94-9.45a26.81,26.81,0,0,0-1.57,12.28c.32,3.52-2.58,3.84-4.68,4.9s-3.75,2.14-6.19.1c-4.7-3.93-9.82-7.38-14.76-11Z"
       transform="translate(-446.67 -122.59)"
       id="path38169" />
    <path
       class="cls-3"
       d="M601.95,371.52c.89.35,1.79.69,2.67,1.07,2.46,1.06,5.15,3.35,7.29,2.91,2.47-.51.8-4.42,2-6.58,1.62-3,3-6,7.5-8.64-3.72,5.92-6.07,10.85-5.88,16.61.08,2.37-1.6,1.65-2.82,1.12-4-1.77-8-3.63-12-5.46Z"
       transform="translate(-446.67 -122.59)"
       id="path38171" />
    <path
       class="cls-3"
       d="M671.53,284.24c-4.63,7.32-12.2,7.56-19.62,8.17-3.79-2.44-8.08-.42-12-1.34a66,66,0,0,1,10.79-.75c7.73.45,14.42-1.5,19.78-7.29Z"
       transform="translate(-446.67 -122.59)"
       id="path38173" />
    <path
       class="cls-4"
       d="M749.46,212.31c-4.36,1.59-4.92,6.1-7.14,9.33a1.63,1.63,0,0,1-.39-2.49c3.18-4.18,2.71-7.4-2.11-10-2.33-1.27-2.34-3.66-.41-5.27s4.37-3.67,6.45.08c-2.31-.4-5-1-5.64,2.08-.5,2.57,2.32,3.11,3.94,4.33s4,.1,5.15,2.07Z"
       transform="translate(-446.67 -122.59)"
       id="path38175" />
    <path
       class="cls-3"
       d="M690.29,260.88c-4.16.14-8.33,0-13.18,1.33,3.44-4.86,8-2.92,11.71-3.64Z"
       transform="translate(-446.67 -122.59)"
       id="path38177" />
    <path
       class="cls-3"
       d="M693.51,445.4c.94-4.77-.14-9.44-1.37-15.35a12.78,12.78,0,0,1,3.63,9.85C694.32,441.44,696.06,444.3,693.51,445.4Z"
       transform="translate(-446.67 -122.59)"
       id="path38179" />
    <path
       class="cls-3"
       d="M741.47,460.74l3.84-11.52a12.72,12.72,0,0,1-2.37,11.29Z"
       transform="translate(-446.67 -122.59)"
       id="path38181" />
    <path
       class="cls-4"
       d="M749.33,212.4c7.64,4,12.07,12.38,10.7,19.64-.6,3.19-1.95,4-5.12,3.49-11.25-2-11.35-2-8.2-13.34l2.75-9.89Z"
       transform="translate(-446.67 -122.59)"
       id="path38183" />
    <path
       class="cls-5"
       d="M712,237.87c8.14-.34,16.24,1.35,24.39,2.54,2.35.34,2.27,2.15,2.47,3.91.26,2.42-1.53,2.46-3,2.48-5.2.1-10.4.15-15.59,0C714.9,246.6,710.78,244.89,712,237.87Z"
       transform="translate(-446.67 -122.59)"
       id="path38185" />
    <path
       class="cls-3"
       d="M687.19,244.42c5-3.91,10-4.34,14.64-5.42,1.23-.28,2.32.13,2.17,1.8-.19,2-1.35,3.45-3.21,3.55C696.67,244.58,692.53,244.42,687.19,244.42Z"
       transform="translate(-446.67 -122.59)"
       id="path38187" />
    <path
       class="cls-3"
       d="M663.63,270.28c-.33,2.67-2,4.41-4.48,4.37a4.43,4.43,0,0,1-4.41-4.49,4.22,4.22,0,0,1,4.5-4.29C661.85,265.91,663.39,267.55,663.63,270.28Z"
       transform="translate(-446.67 -122.59)"
       id="path38189" />
    <path
       class="cls-6"
       d="M622.48,301.22Z"
       transform="translate(-446.67 -122.59)"
       id="path38191" />
    <path
       class="cls-6"
       d="M627,301.18Z"
       transform="translate(-446.67 -122.59)"
       id="path38193" />
    <path
       class="cls-7"
       d="M659,272.58a2.35,2.35,0,0,1-2.36-2.64c.07-1.36,1.1-2,2.36-2a2.06,2.06,0,0,1,2.36,2A2.29,2.29,0,0,1,659,272.58Z"
       transform="translate(-446.67 -122.59)"
       id="path38195" />
    <path
       class="cls-1"
       d="M744.93,241.08s-.85,3.75.65,5,7.17-.92,9-.92S752.54,239.75,744.93,241.08Z"
       transform="translate(-446.67 -122.59)"
       id="path38197" />
  </g>
  <g
     id="Layer_5"
     data-name="Layer 5">
    <path
       class="cls-8"
       d="M685.22,334.25a4.1,4.1,0,0,1-7.26,2.63,9.54,9.54,0,0,0-.93.52L665.94,349a.81.81,0,0,1-1,.14l-47.1-27.58a.81.81,0,0,1-.35-1c1.09-2.76,5.34-13.57,5.42-14.44,0-.56,0-1.34,0-1.93,0-.07,0-.23,0-.43a3.67,3.67,0,1,1,2.2-.45c.09.35.15.62.16.71l2.54,13.39a.8.8,0,0,0,1,.62l11.63-3.42a.79.79,0,0,0,.43-.31l.57-1.38a3.3,3.3,0,1,1,1.51.79l-.39,1.12a.89.89,0,0,0-.08.43l1.3,14.94a.81.81,0,0,0,1.11.68l14.29-5.73a8.31,8.31,0,0,0,.8-1.06h0a3.22,3.22,0,1,1,2.26.93,1.41,1.41,0,0,1-.29,0l-.16.36v12.1a.81.81,0,0,0,1,.79l13.33-2.87,1-.25a4.63,4.63,0,0,1-.1-.92,4.1,4.1,0,1,1,8.21,0Z"
       transform="translate(-446.67 -122.59)"
       id="path38200" />
    <line
       class="cls-9"
       x1="172.05"
       y1="194.91"
       x2="221.19"
       y2="224.43"
       id="line38202" />
    <path
       class="cls-10"
       d="M622.94,304.24a9.38,9.38,0,0,1,2.4-1"
       transform="translate(-446.67 -122.59)"
       id="path38204" />
    <path
       class="cls-8"
       d="M660,324.13a2.63,2.63,0,0,1,2,.91"
       transform="translate(-446.67 -122.59)"
       id="path38206" />
  </g>
  <path
     id="shine"
     d="M 1.5799985,0.70902034 V 207.0859 c 0,229.66454 239.9199915,319.6031 239.9199915,319.6031 0,0 239.92001,-89.93856 239.92001,-319.6031 V 0.70902034 Z"
     style="fill:url(#rg);stroke:#000000;stroke-width:2.41218" />
</svg>
