<?xml version="1.0" encoding="UTF-8" standalone="no"?>
<svg
   viewBox="0 0 483 527.48"
   version="1.1"
   id="svg2995"
   sodipodi:docname="House Tully GoT.svg"
   inkscape:version="1.2.1 (9c6d41e410, 2022-07-14)"
   xmlns:inkscape="http://www.inkscape.org/namespaces/inkscape"
   xmlns:sodipodi="http://sodipodi.sourceforge.net/DTD/sodipodi-0.dtd"
   xmlns="http://www.w3.org/2000/svg"
   xmlns:svg="http://www.w3.org/2000/svg">
  <sodipodi:namedview
     id="namedview2997"
     pagecolor="#ffffff"
     bordercolor="#000000"
     borderopacity="0.25"
     inkscape:showpageshadow="2"
     inkscape:pageopacity="0.0"
     inkscape:pagecheckerboard="0"
     inkscape:deskcolor="#d1d1d1"
     showgrid="false"
     inkscape:zoom="0.56101501"
     inkscape:cx="-85.559208"
     inkscape:cy="247.76521"
     inkscape:window-width="1920"
     inkscape:window-height="1017"
     inkscape:window-x="-8"
     inkscape:window-y="-8"
     inkscape:window-maximized="1"
     inkscape:current-layer="svg2995" />
  <defs
     id="defs2769">
    <style
       id="style2767">.cls-1{fill:#212250;}.cls-2{fill:#ae432f;}.cls-3{fill:#ede8cb;}.cls-4,.cls-5,.cls-6{fill:none;stroke:#000;}.cls-4,.cls-5{stroke-miterlimit:10;}.cls-5{stroke-width:2px;}.cls-6{stroke-width:3px;}</style>
    <radialGradient
       id="rg"
       gradientUnits="userSpaceOnUse"
       cx="220"
       cy="220"
       r="405"
       gradientTransform="matrix(0.80510068,0,0,0.80302287,-0.03016834,-0.89702286)">
      <stop
         style="stop-color:#ffffff;stop-opacity:.3"
         offset="0"
         id="stop753" />
      <stop
         style="stop-color:#ffffff;stop-opacity:.2"
         offset=".2"
         id="stop755" />
      <stop
         style="stop-color:#666666;stop-opacity:.1"
         offset=".6"
         id="stop757" />
      <stop
         style="stop-color:#000000;stop-opacity:.13"
         offset="1"
         id="stop759" />
    </radialGradient>
  </defs>
  <title
     id="title2771">Tully-Shield</title>
  <g
     id="Layer_2"
     data-name="Layer 2">
    <path
       class="cls-1"
       d="M927,122.76V328.6a314.37,314.37,0,0,1-2.28,38c-.11.93-.24,1.86-.36,2.79s-.24,1.86-.39,2.79q-.7,5.05-1.61,10c-.07.44-.15.87-.23,1.31-.15.8-.29,1.6-.45,2.39s-.34,1.8-.51,2.69l-.45,2.22-.24,1.16c-.15.71-.3,1.44-.47,2.15q-.8,3.55-1.61,7l-.58,2.32-.52,2q-1.52,5.88-3.27,11.61c-.29,1-.59,1.94-.9,2.92l-.6,1.88c-.19.63-.39,1.25-.6,1.86l-1.1,3.26c-.37,1.09-.68,2-1,3-.47,1.28-.92,2.55-1.39,3.81-.36,1-.73,2-1.11,3l-.19.49c-.43,1.14-.87,2.25-1.32,3.37s-.87,2.16-1.32,3.19a3.35,3.35,0,0,1-.18.42c-.4,1-.8,2-1.25,3s-.75,1.75-1.13,2.62l-.66,1.49c-.47,1.07-.95,2.12-1.44,3.15s-.9,2-1.36,2.93l-1,2.12c-.3.63-.6,1.25-.91,1.88-.63,1.32-1.31,2.64-2,4q-2.53,5-5.19,9.77l-2,3.57-.11.21q-2.13,3.71-4.33,7.33c-.71,1.2-1.46,2.39-2.18,3.54-.1.16-.19.31-.3.46-.55.89-1.12,1.78-1.69,2.66l-.66,1c-.65,1-1.31,2-2,3l-.13.18c-.66,1-1.32,2-2,3l-.45.67q-2.26,3.28-4.54,6.46l-.31.42c-.8,1.07-1.54,2.14-2.31,3.19s-1.66,2.23-2.5,3.32q-2.29,3-4.61,6l-.8,1c-.73.93-1.48,1.85-2.22,2.76L854,526.61l-.57.69L851,530.1q-2.83,3.32-5.72,6.53c-.75.85-1.52,1.69-2.29,2.51l-2.22,2.39q-3,3.19-5.93,6.24-2.76,2.83-5.53,5.59c-.91.91-1.84,1.82-2.76,2.71s-1.85,1.78-2.78,2.67l-2.28,2.11c-.68.65-1.36,1.28-2.05,1.91a448.64,448.64,0,0,1-61.76,47.47c-.86.55-1.73,1.1-2.58,1.6q-6.42,4.07-12.46,7.63l-2.41,1.4-2.36,1.36-2.34,1.35-2.22,1.28c-8.35,4.68-15.91,8.59-22.38,11.76l-1.61.8c-10.63,5.15-18.11,8.22-21,9.35l-.42.18-.61.23-.14.06h-.08l-.23-.1-.21,0-1.07-.42-.55-.23c-.87-.34-2-.8-3.36-1.38l-.47-.18c-1.76-.8-3.88-1.67-6.33-2.77l-1.39-.61a443.16,443.16,0,0,1-39.74-20.6c-.8-.45-1.61-.92-2.36-1.38a473.14,473.14,0,0,1-44.78-30l-2.62-2c-1-.75-2-1.52-2.95-2.29l-2.81-2.21c-6.19-4.92-12.43-10.15-18.64-15.69L558.08,566q-2.3-2.05-4.59-4.2l-1.67-1.57L550,558.54l-2-1.94c-1.12-1.07-2.24-2.16-3.34-3.26-.84-.8-1.69-1.67-2.52-2.51l-.24-.26q-1.25-1.25-2.5-2.51c-.66-.68-1.32-1.36-2-2l-2-2.07-.13-.15-2.1-2.24q-3.36-3.61-6.66-7.36c-.68-.8-1.36-1.55-2-2.35-.57-.65-1.12-1.28-1.66-1.94l-2-2.39q-4.26-5.11-8.39-10.48-1.13-1.45-2.24-2.92c-1.89-2.47-3.73-5-5.57-7.55l-1.68-2.39c-.13-.16-.24-.34-.36-.5-.59-.85-1.19-1.7-1.77-2.55-.95-1.38-1.89-2.77-2.82-4.17q-1.11-1.64-2.18-3.31l-.15-.24-2.22-3.47c-.07-.13-.15-.24-.22-.37-.71-1.14-1.41-2.27-2.1-3.4s-1.49-2.46-2.21-3.7-1.44-2.39-2.13-3.67q-4.6-8-8.77-16.47c-.35-.69-.69-1.38-1-2.08-.22-.44-.44-.89-.65-1.35-.43-.87-.8-1.75-1.25-2.63a27.17,27.17,0,0,1-1.15-2.47l-.23-.48c-.26-.58-.52-1.16-.8-1.75l-.26-.57c-.26-.58-.52-1.18-.8-1.77q-1.44-3.26-2.78-6.58c-.42-1-.8-2-1.23-3.07-.1-.26-.21-.53-.31-.8-.4-1-.8-2-1.16-3s-.68-1.82-1-2.74l-.23-.65c-.18-.45-.34-.91-.5-1.36q-1-2.69-1.89-5.44c-.21-.6-.4-1.21-.6-1.8-.26-.8-.51-1.54-.75-2.31-.14-.42-.26-.8-.39-1.22-.26-.8-.5-1.6-.75-2.39-.31-1-.61-2.06-.92-3.1-.18-.65-.39-1.28-.57-2-.37-1.28-.74-2.58-1.08-3.89-.19-.68-.37-1.35-.55-2-.13-.5-.26-1-.39-1.51-.32-1.22-.63-2.46-.92-3.7-.18-.7-.35-1.4-.52-2.11-.07-.29-.13-.57-.19-.85-.37-1.55-.71-3.11-1.07-4.69-.26-1.16-.5-2.33-.74-3.5-.14-.71-.29-1.43-.43-2.14s-.32-1.6-.47-2.45a2.13,2.13,0,0,0-.1-.47c-.15-.8-.3-1.64-.45-2.48s-.31-1.84-.47-2.77-.3-1.8-.45-2.71q-.87-5.52-1.56-11.17A314.73,314.73,0,0,1,447,328.58V122.76Z"
       transform="translate(-445.5 -121.26)"
       id="path2773" />
  </g>
  <g
     id="Layer_6"
     data-name="Layer 6">
    <polygon
       class="cls-2"
       points="481.92 217.11 359 237.74 241.5 212.24 126 241.32 3.42 217.11 3.42 1.5 481.92 1.5 481.92 217.11"
       id="polygon2776" />
  </g>
  <g
     id="Layer_4"
     data-name="Layer 4">
    <path
       class="cls-3"
       d="M447,318.5s34-4,81.33,19.83c55,27.67,66.47,7.54,131-17.33,64-24.67,117.17,50,174,19.33C892.77,308.26,927,317.88,927,317.88l-.4,26.76S903.75,332.75,836,370c-54.48,30-114.1-46.67-175.67-21.94-53,21.3-76,45-131,17.33-47.29-23.79-81.9-20-81.9-20Z"
       transform="translate(-445.5 -121.26)"
       id="path2779" />
    <path
       class="cls-3"
       d="M448.92,363.42s18.75-5.75,56.42,12.92,57.89,25.63,92.67,16c37.33-10.33,61.67-28.67,90-26.67S732.67,378,739.67,380s47.19,22.14,74.67,17.34c27.67-4.83,64.9-32.55,110.57-32.22l-4,24.94c-45.67-.33-73.21,30.61-105.55,32.3-27.85,1.46-67.91-14.64-74.67-17.34-7.44-3-23.33-12.33-51.67-14.33s-52.25,18-90,26.67c-34.67,8-56.69,6.61-92-12.33-37.33-20-54.25-16.8-54.25-16.8Z"
       transform="translate(-445.5 -121.26)"
       id="path2781" />
  </g>
  <g
     id="Layer_7"
     data-name="Layer 7">
    <path
       class="cls-3"
       d="M569.95,293.67c-1.26,1-25.76,21.43-27.71,23.79a.28.28,0,0,1-.32.09c-1.1-.44-6.28-2.56-7.44-4a.27.27,0,0,1,0-.31,14.78,14.78,0,0,0,1.78-4.83.29.29,0,0,0-.25-.3c-.2,0-.5-.07-.83-.1a.68.68,0,0,1-.45-1.13c2.74-2.91,9.36-10,11.41-12.69a.29.29,0,0,0-.26-.46c-3.58.38-20.81,1.88-24.72-3.82-4.3-6.27-2.44-13.51-.95-14.93a.3.3,0,0,1,.17-.08c.53-.06,3-.55,4.77-4,2-3.87,11.88-23.5,23.13-35.5s22.11-23.86,48.69-42a.27.27,0,0,0,.09-.1c.74-1.46,15.17-29.4,34.45-47.06a.29.29,0,0,1,.32-.05c1.62.78,14.21,6.75,21.45,7.92,7.58,1.22,17.66,6.75,20.56,10.5a.29.29,0,0,1-.08.42c-2.18,1.36-17.21,10.72-23.94,14.1a.29.29,0,0,0,.17.55c6.41-.68,29.28-3,41.66-2.56,14.5.5,29.63,1,41.5,4.88s24.38,8.5,29,8.38,32.62-.49,37.8-.14a.27.27,0,0,1,.25.2c.3,1.06,1.76,6.29,1.58,9.44a.28.28,0,0,1-.09.2,15,15,0,0,1-9.13,3.39.29.29,0,0,0-.13.54c4.26,2.4,22.06,12.51,23.71,14.49,1.88,2.25,16.63,20.38,29.75,19.25s43.86,1.12,53.56,22.86a.3.3,0,0,1,0,.28,10.39,10.39,0,0,1-4.17,3.74c-2.75,1.25-12,10-17.33,11.21-4.86,1.11-9.28,3.4-14,1.93a.28.28,0,0,0-.38.29c.22,2.42,1.12,14.3-1.79,18.44-3.1,4.41-13.92,18.35-16.66,22.68a.29.29,0,0,1-.52-.07,34.49,34.49,0,0,0-4.7-10C836.5,304.5,825,289.25,825,278s.63-23-2.75-26.5c-2.77-2.87-12.2-8.87-16.32-12.17a.29.29,0,0,0-.43.38c2.11,3.28,6,9.64,6.69,13.33a.29.29,0,0,1-.28.34c-2.84.1-22.92.75-25.12-.61l-.07-.07c-.76-.94-15.29-18.85-18-26.15a.28.28,0,0,0-.27-.18l-34.73.12a.28.28,0,0,0-.27.18c-.84,2.12-9,22.65-12.65,26.66a.28.28,0,0,1-.35,0,130.9,130.9,0,0,0-29.67-12.47.3.3,0,0,0-.24,0c-2,1.32-29.21,19.68-33.56,22.5a.24.24,0,0,0-.11.13c-.49,1.36-6.75,18.88-7.65,22.62a.29.29,0,0,1-.36.21c-2.83-.81-25.13-7.2-29.84-9.36a.27.27,0,0,0-.23,0c-2,.88-28.72,12.69-48.69,16.56A.25.25,0,0,0,569.95,293.67Z"
       transform="translate(-445.5 -121.26)"
       id="path2784" />
  </g>
  <g
     id="Layer_8"
     data-name="Layer 8">
    <path
       d="M824.8,260.35a36.67,36.67,0,0,0,8.53-2.16,23.12,23.12,0,0,0,7.35-4.5,15.33,15.33,0,0,0,4.27-7.21,24.6,24.6,0,0,0,.43-8.64l1-.18a19.7,19.7,0,0,1,.27,9.24,15.57,15.57,0,0,1-4.75,8.08,22.4,22.4,0,0,1-8,4.65,31.47,31.47,0,0,1-9,1.72Z"
       transform="translate(-445.5 -121.26)"
       id="path2787" />
    <path
       d="M829.36,259.42a3,3,0,0,1,1.6,2.09,17.7,17.7,0,0,1,.61,2.42c.28,1.65.77,3.24,1.14,4.87a34.68,34.68,0,0,1,.85,5,9.46,9.46,0,0,1,0,1.38c0,.41-.07.78-.09,1.2l-.1,2.45c-.19,6.57-.21,13.16-.17,19.75l-1,0-.26-9.89c-.09-3.3-.17-6.59-.19-9.9v-2.49c0-.41,0-.86,0-1.27a7.84,7.84,0,0,0,0-1.09,33.09,33.09,0,0,0-1-4.69,31.92,31.92,0,0,0-1.52-4.65,22.57,22.57,0,0,1-.87-2.29,3,3,0,0,1,0-2.59Z"
       transform="translate(-445.5 -121.26)"
       id="path2789" />
    <path
       d="M834.89,257.89c1.16.85,1.23,1.95,1.49,3s.32,2.15.45,3.23c.31,2.15.82,4.26,1.19,6.4s.79,4.27,1.13,6.42c.16,1.08.33,2.15.43,3.28.05.59.1,1,.18,1.55s.18,1,.3,1.56c.93,4.18,2.17,8.34,3.35,12.5l1.81,6.24a63.16,63.16,0,0,1,1.58,6.37l-1,.13a63.47,63.47,0,0,0-1.63-6.2c-.62-2.07-1.25-4.14-1.9-6.2-1.29-4.14-2.62-8.25-3.68-12.5-.14-.53-.24-1.08-.36-1.62s-.18-1.18-.24-1.67c-.11-1-.3-2.1-.49-3.15-.39-2.11-.83-4.23-1.28-6.34s-.86-4.23-1.47-6.31c-.32-1-.68-2.06-.93-3.11s-.61-2.08.07-3.34Z"
       transform="translate(-445.5 -121.26)"
       id="path2791" />
    <path
       d="M838.29,256a6.71,6.71,0,0,1,2.12,2.68,31.75,31.75,0,0,1,1.35,3l2.33,6.17c.38,1,.71,2.1,1,3.18l.91,3.14,1.76,6.29c1.21,4.19,2.57,8.34,3.84,12.51l1.92,6.26c.64,2.09,1.31,4.16,1.91,6.28l-1,.27c-1.29-4.13-2.79-8.25-4.26-12.35s-2.93-8.21-4.46-12.31L843.42,275l-1.15-3.08c-.34-1-.71-2-1.08-3-.71-2-1.52-4.05-2.35-6.06-.41-1-.78-2-1.1-3.07a6.87,6.87,0,0,1-.38-3.37Z"
       transform="translate(-445.5 -121.26)"
       id="path2793" />
    <path
       d="M863,291.1a158.21,158.21,0,0,0-9.56-17.91c-.87-1.46-1.79-2.86-2.77-4.24s-2-2.71-3-4-2-2.67-3-4-2-2.68-3-4.09l-.38-.54-.2-.29-.1-.15-.05-.08v0a2.08,2.08,0,0,1-.23-1.67c.23-.59.11-.26.19-.43l.1-.15a2.85,2.85,0,0,1,.3-.36l.17-.16.3-.27.3-.25a4.94,4.94,0,0,1,.45-.33l.15-.09a2.32,2.32,0,0,1,.35-.15,2,2,0,0,1,1.75.25l.17.13,0,0,.12.11.24.22.47.43.94.86,3.74,3.45c2.49,2.3,4.85,4.77,7.33,7.08,1.24,1.16,2.53,2.26,3.82,3.35a47.25,47.25,0,0,0,4,3.1c2.79,1.93,5.58,3.87,8.42,5.72l-.54.84c-2.82-1.9-5.7-3.71-8.57-5.54s-5.6-4-8.36-6-5.59-3.93-8.27-6l-4-3.17-1-.8-.49-.4-.25-.2-.12-.1,0,0,.13.1a2,2,0,0,0,1.71.25,1.53,1.53,0,0,0,.28-.12l.08,0c.08,0,0,0-.06.06l-.18.16-.17.16-.06.06.09-.12.08-.12c.07-.16-.06.19.17-.39a2,2,0,0,0-.24-1.63h0l0,.06.08.11.16.23.36.49a76.88,76.88,0,0,1,5.74,8.53c1.7,3,3.18,6.13,4.75,9.16,3.09,6.08,6,12.25,8.63,18.55Z"
       transform="translate(-445.5 -121.26)"
       id="path2795" />
    <path
       d="M844.15,253.39c4,.21,7.58,1.67,11.19,3s7.09,3,10.64,4.5,7.11,3,10.64,4.51,7.05,3.11,10.51,4.85l-.44.9c-3.46-1.61-7-3-10.62-4.39s-7.18-2.72-10.82-4-7.32-2.34-10.94-3.62-7.26-2.49-10.49-4.86Z"
       transform="translate(-445.5 -121.26)"
       id="path2797" />
    <path
       d="M844,248.81a5.31,5.31,0,0,1,3.28,0c1,.3,2,.66,3.08.88,2.07.52,4.14,1,6.21,1.48,4.17.85,8.37,1.78,12.54,2.68l12.54,2.7c4.18.87,8.37,1.8,12.55,2.49l-.13,1c-4.28-.59-8.46-1.4-12.68-2.16l-12.61-2.36c-4.21-.79-8.38-1.6-12.61-2.34-2.12-.41-4.21-.87-6.3-1.34-1-.26-2.11-.4-3.16-.61a5.26,5.26,0,0,1-2.94-1.48Z"
       transform="translate(-445.5 -121.26)"
       id="path2799" />
    <path
       d="M845.63,244.58c.57-1.8,1-1.36,1.5-1.45a6.46,6.46,0,0,1,1.42.14c.94.2,1.87.53,2.81.66l5.67.56,2.86.3,2.84.41,5.63.81q5.62.83,11.25,1.57c3.74.48,7.53,1,11.24,1.22v1c-1.95,0-3.82-.23-5.72-.38l-5.67-.5-11.32-1.09-5.65-.54c-1.9-.18-3.7-.29-5.61-.33l-5.68-.1c-.95,0-1.91.25-2.86.35a6.48,6.48,0,0,1-1.42,0c-.47-.14-1,.25-1.34-1.6Z"
       transform="translate(-445.5 -121.26)"
       id="path2801" />
    <path
       d="M842.72,252.5c-10.08-6.4-20.09-12.92-30.09-19.43-5-3.25-10-6.56-15-9.65s-10.42-5.63-15.77-8.21-10.76-5.13-16.2-7.53l-2-.86-.48-.19-.07,0s.15,0,.09,0l-.34,0c-.49-.06-.78-.12-1.18-.19l-4.42-.76-8.83-1.52-17.66-3-8.82-1.6c-1.47-.29-2.94-.57-4.42-.9-.36-.07-.76-.19-1.14-.29a3.71,3.71,0,0,0-.92-.18c-.68-.05-1.42-.05-2.15,0-5.91.12-11.88.58-17.82,1l-17.84,1.4c-11.89,1-23.79,2-35.65,3.25l-2.22.25c-.71.12-1.54.07-2.16.24a9.65,9.65,0,0,0-1.93.72l-.92.47-.93.53c-2.64,1.48-5.29,2.85-7.94,4.22-5.31,2.75-10.65,5.41-16,8.08l-16,8c-2.65,1.36-5.3,2.74-7.91,4.16-1.3.72-2.61,1.43-3.89,2.18-.64.37-1.27.76-1.88,1.16A10.5,10.5,0,0,0,578.5,235l-.76-.65a11.07,11.07,0,0,1,1.81-1.52c.62-.44,1.25-.86,1.88-1.27q1.9-1.22,3.85-2.34c2.59-1.5,5.21-3,7.83-4.38q7.87-4.29,15.84-8.39l15.92-8.2c2.64-1.37,5.3-2.74,7.87-4.19.3-.18.66-.38,1-.55a9.05,9.05,0,0,1,1.11-.46,14.29,14.29,0,0,1,2.35-.59c.85-.08,1.51-.28,2.28-.34l2.23-.26c11.89-1.3,23.78-2.37,35.69-3.39,6-.51,11.91-1,17.87-1.35s11.92-.77,17.95-.83c.76,0,1.51,0,2.32.08a6.13,6.13,0,0,1,1.27.26c.34.09.65.19,1,.26,1.43.33,2.89.62,4.35.92l8.79,1.65c5.87,1.05,11.74,2.12,17.64,3l8.84,1.4,4.42.66,1,.14.21,0a2.51,2.51,0,0,1,.37.06l.19.06.57.2,2.11.83c5.55,2.27,11,4.68,16.46,7.18q4.07,1.9,8.08,3.93c2.67,1.37,5.35,2.74,7.94,4.33,5.1,3.23,10,6.57,15,9.9q14.83,10.05,29.42,20.46Z"
       transform="translate(-445.5 -121.26)"
       id="path2803" />
    <path
       d="M545.77,237.55q6.07-1.45,12.09-3.1c2-.56,4-1.09,6-1.71a33.63,33.63,0,0,0,5.71-2.16l.22-.12.19.06h0a67.29,67.29,0,0,1,8.86,3.62,64.31,64.31,0,0,1,8.26,4.81,47.56,47.56,0,0,1,7.32,6.2l1.62,1.8a10.42,10.42,0,0,1,2.48,7,22,22,0,0,1-2.67,9.45,60.11,60.11,0,0,1-5.11,8.17c-1.88,2.58-3.87,5.06-5.86,7.51-1,1.23-2,2.47-2.91,3.71a24.2,24.2,0,0,0-2.5,3.87l-.94-.35a21.15,21.15,0,0,1,2.23-4.34c.85-1.36,1.79-2.65,2.71-3.95l5.54-7.67a79.31,79.31,0,0,0,5-7.89,21.76,21.76,0,0,0,2.89-8.55,8.87,8.87,0,0,0-.71-4.29,9.42,9.42,0,0,0-1.15-1.89L593.54,246a44.91,44.91,0,0,0-7-6.17,60.94,60.94,0,0,0-16.81-8.31h0l.41-.06a33.71,33.71,0,0,1-5.93,2.33c-2,.63-4,1.22-6,1.76q-6.06,1.61-12.16,3Z"
       transform="translate(-445.5 -121.26)"
       id="path2805" />
    <path
       class="cls-4"
       d="M773.75,195.75s18.13-2.87,27.43-1.25"
       transform="translate(-445.5 -121.26)"
       id="path2807" />
    <path
       class="cls-4"
       d="M781,199.5c1,.25,11.86-2.33,20.62-2.35"
       transform="translate(-445.5 -121.26)"
       id="path2809" />
    <path
       d="M789,228.78a74,74,0,0,0,7.86,6.55,28.78,28.78,0,0,0,4.27,2.57,9.66,9.66,0,0,0,2.17.76,2.3,2.3,0,0,0,1.58-.12l1.29,2.35a4.81,4.81,0,0,1-3.46.17,12,12,0,0,1-2.62-1.15,30.74,30.74,0,0,1-4.35-3.12,75.3,75.3,0,0,1-7.46-7.31Z"
       transform="translate(-445.5 -121.26)"
       id="path2811" />
    <path
       d="M796.72,254c-1.11-.92-2.19-1.87-3.28-2.81s-2.11-2-3.17-2.94c-2.08-2-4.11-4.05-6-6.22a72.55,72.55,0,0,1-5.47-6.77,33.2,33.2,0,0,1-4.3-7.78l-.22-.61.45-.43,0,0c.85-.47.47-.17.71-.26l.17,0,.14,0,.12,0,.14.07.18.11.3.21.53.4,1,.81,1.94,1.65,3.78,3.36q3.75,3.38,7.44,6.82,7.39,6.86,14.68,13.82l-.68.73q-7.47-6.76-15-13.46-3.77-3.34-7.58-6.63l-3.83-3.24-1.94-1.57-1-.75-.48-.35-.22-.15-.08,0s0,0,0,0l0,0,.11,0,.15,0c.23-.09-.15.21.69-.26l0,0,.24-1a39.49,39.49,0,0,0,2.13,3.49c.79,1.15,1.59,2.31,2.44,3.44,1.69,2.26,3.41,4.51,5.23,6.69s3.68,4.33,5.56,6.49l5.75,6.37Z"
       transform="translate(-445.5 -121.26)"
       id="path2813" />
    <path
       d="M781.83,227h0l.14.22c.09.15.19.3.3.46.22.31.44.62.68.93.46.62,1,1.21,1.48,1.81,1,1.17,2.12,2.31,3.27,3.39a74.63,74.63,0,0,0,7.24,6.08,87.28,87.28,0,0,0,7.94,5.18c1.35.83,2.77,1.52,4.16,2.29s2.85,1.39,4.27,2.08h0a.5.5,0,0,1-.43.9c-1.45-.68-2.92-1.32-4.35-2s-2.87-1.42-4.25-2.24a88.53,88.53,0,0,1-8.15-5.11,76.07,76.07,0,0,1-7.5-6.07c-1.19-1.08-2.32-2.24-3.42-3.43-.54-.61-1.08-1.21-1.58-1.86-.26-.31-.51-.65-.75-1-.12-.16-.24-.34-.36-.53l-.18-.28a3.48,3.48,0,0,1-.22-.54.08.08,0,0,1,.05-.1h0Z"
       transform="translate(-445.5 -121.26)"
       id="path2815" />
    <path
       d="M603.34,190.21c0-2.74,1.55-4.44,3.43-5.86a16.35,16.35,0,0,0,2.2-2.57l2.07-2.67c2.78-3.54,5.6-7.05,8.5-10.5s5.77-6.91,8.82-10.23,6.13-6.61,9.43-9.69a.5.5,0,0,1,.68.73h0a119.59,119.59,0,0,0-9.4,9.58c-3,3.36-5.82,6.83-8.61,10.34s-5.44,7.13-8.08,10.76l-2,2.73a14.69,14.69,0,0,0-1.8,2.85c-.78,2.21-1.89,4.15-4.45,5.08h0a.61.61,0,0,1-.78-.36A.62.62,0,0,1,603.34,190.21Z"
       transform="translate(-445.5 -121.26)"
       id="path2817" />
    <path
       d="M609,188.69c-.47-1.12-.13-1.54.24-1.91l1-1.18,2.08-2.36,4.16-4.72,8.36-9.4,8.37-9.39c2.83-3.1,5.58-6.26,8.37-9.39a.5.5,0,0,1,.79.62c-2.41,3.45-5,6.76-7.57,10.1s-5.24,6.57-7.92,9.81-5.4,6.44-8.11,9.65l-4.12,4.76-2.06,2.38-1,1.19c-.32.42-.67.79-1.82.47l-.12,0A1,1,0,0,1,609,188.69Z"
       transform="translate(-445.5 -121.26)"
       id="path2819" />
    <path
       d="M612.46,185.86a4,4,0,0,1,.76-.39c.14,0,.36-.19.54-.24a3.74,3.74,0,0,0,.6-.27,16.75,16.75,0,0,0,2.47-1.5,53.45,53.45,0,0,0,4.66-3.89c3-2.75,5.82-5.79,8.65-8.79s5.55-6.11,8.24-9.25,5.36-6.3,8.09-9.41h0a.5.5,0,0,1,.77.63l-3.78,4.94q-1.89,2.47-3.85,4.89c-2.6,3.23-5.29,6.4-8,9.53-1.4,1.54-2.76,3.11-4.23,4.6l-2.18,2.25-2.26,2.18a55.41,55.41,0,0,1-4.83,4.1,18.7,18.7,0,0,1-2.82,1.73,3.09,3.09,0,0,1-.83.33,3.26,3.26,0,0,1-1,.16,2.48,2.48,0,0,1-1.12-.21,1.55,1.55,0,0,1-.28-.14,2.77,2.77,0,0,1-.27-.24,1,1,0,0,1-.2-.29,1.39,1.39,0,0,1-.12-.39.5.5,0,0,1,1-.31Z"
       transform="translate(-445.5 -121.26)"
       id="path2821" />
    <path
       d="M622.9,182.73l32-28.58a.5.5,0,0,1,.69.73h0L625.1,185l0,0a1.59,1.59,0,0,1-2.24-2.26Z"
       transform="translate(-445.5 -121.26)"
       id="path2823" />
    <path
       d="M629.72,182.08c5.36-4.41,10.78-8.68,16.27-12.89s11.06-8.3,16.69-12.3a.5.5,0,0,1,.59.8q-8.18,6.34-16.11,13c-5.29,4.41-10.52,8.92-15.63,13.51h0a1.39,1.39,0,0,1-1.85-2.06Z"
       transform="translate(-445.5 -121.26)"
       id="path2825" />
    <path
       d="M635.44,182.19a94.31,94.31,0,0,1,7.86-6.35c2.69-2,5.45-3.86,8.25-5.67s5.64-3.54,8.54-5.19,5.81-3.24,8.75-4.78a.5.5,0,0,1,.48.88h0c-2.86,1.66-5.71,3.34-8.5,5.11s-5.54,3.61-8.25,5.49-5.34,3.88-7.9,5.93a92.72,92.72,0,0,0-7.35,6.45l0,0a1.33,1.33,0,0,1-1.87-1.88Z"
       transform="translate(-445.5 -121.26)"
       id="path2827" />
    <path
       class="cls-5"
       d="M732.87,226.5a7.91,7.91,0,0,0,.82-5.25"
       transform="translate(-445.5 -121.26)"
       id="path2829" />
    <path
       d="M702,223.8c5.31,0,10.65-.13,16-.38,2.66-.13,5.31-.29,8-.54a40.69,40.69,0,0,0,7.75-1.3l.37.93a41.28,41.28,0,0,1-7.95,1.76c-2.66.38-5.33.67-8,.94-5.34.51-10.67.89-16,1.18Z"
       transform="translate(-445.5 -121.26)"
       id="path2831" />
    <path
       class="cls-5"
       d="M699.38,228.5s20.12,1.2,33.5-.42"
       transform="translate(-445.5 -121.26)"
       id="path2833" />
    <path
       d="M696.18,230.27c2.73.55,5.49,1.08,8.26,1.51s5.54.85,8.32,1.16,5.57.6,8.36.76a52.5,52.5,0,0,0,8.35-.12l.07,2c-5.71-.28-11.32-.58-16.93-1.18-2.8-.31-5.6-.62-8.4-1s-5.58-.72-8.38-1.17Z"
       transform="translate(-445.5 -121.26)"
       id="path2835" />
    <path
       class="cls-5"
       d="M694.5,234s17.8,2.8,33.34,6"
       transform="translate(-445.5 -121.26)"
       id="path2837" />
    <path
       class="cls-5"
       d="M689.75,237s18.56,3.77,34.66,10.32"
       transform="translate(-445.5 -121.26)"
       id="path2839" />
    <path
       d="M656.21,263.35c.54-1.7,1-3.45,1.44-5.19a33,33,0,0,0,.86-5.22l2,.18a34.73,34.73,0,0,1-1.23,5.47c-.53,1.77-1.12,3.5-1.79,5.22Z"
       transform="translate(-445.5 -121.26)"
       id="path2841" />
    <path
       class="cls-5"
       d="M615.75,270.44s30.51,5.95,37,6.14"
       transform="translate(-445.5 -121.26)"
       id="path2843" />
    <path
       class="cls-5"
       d="M612.63,272.13s25.11,8.79,38.4,8.18"
       transform="translate(-445.5 -121.26)"
       id="path2845" />
    <path
       class="cls-5"
       d="M618.69,268.5s25.09,5.06,35.14,3.63"
       transform="translate(-445.5 -121.26)"
       id="path2847" />
    <path
       class="cls-5"
       d="M622.25,266.25a89.05,89.05,0,0,0,32.56,2.25"
       transform="translate(-445.5 -121.26)"
       id="path2849" />
    <path
       class="cls-5"
       d="M626.63,263.58c.38.1,24,.73,30.22.29"
       transform="translate(-445.5 -121.26)"
       id="path2851" />
    <path
       class="cls-5"
       d="M633.75,260s21,1.46,24.73-1.72"
       transform="translate(-445.5 -121.26)"
       id="path2853" />
    <path
       d="M584.05,230.25c3.17.44,6.34.68,9.52.94,1.59.13,3.18.24,4.81.45a10.38,10.38,0,0,1,1.29.23,2.83,2.83,0,0,1,.4.14,1.46,1.46,0,0,1,.31.18,1.77,1.77,0,0,1,.23.22,6.53,6.53,0,0,1,.45.58c.49.7.91,1.38,1.33,2.07a67.61,67.61,0,0,1,4.4,8.59,59.35,59.35,0,0,1,3.15,9.21,18.28,18.28,0,0,1,.56,5.07,14.19,14.19,0,0,1-1.48,4.93,67.61,67.61,0,0,1-5,8.28c-1.82,2.62-3.66,5.21-5.36,7.87a32.44,32.44,0,0,0-4.12,8.27v0a1,1,0,1,1-1.93-.54l0-.06a42,42,0,0,1,4.61-8.62l5.28-8a55.55,55.55,0,0,0,4.61-8.14,12.42,12.42,0,0,0,1.12-4.19,16.17,16.17,0,0,0-.66-4.36,62.71,62.71,0,0,0-3.14-8.77c-1.25-2.87-2.51-5.76-3.88-8.58-.35-.7-.7-1.4-1.08-2-.09-.15-.2-.33-.24-.39s0,0,0,0l.06,0-.15-.07a8.76,8.76,0,0,0-1-.28c-1.51-.31-3.09-.51-4.65-.68a74.14,74.14,0,0,0-9.49-.4h0a1,1,0,0,1-.06-2Z"
       transform="translate(-445.5 -121.26)"
       id="path2855" />
    <path
       class="cls-5"
       d="M581.86,281.69s9.25,1.35,14.11,0"
       transform="translate(-445.5 -121.26)"
       id="path2857" />
    <path
       class="cls-5"
       d="M585.55,276.76s4.64,2.44,12.8,1.09"
       transform="translate(-445.5 -121.26)"
       id="path2859" />
    <path
       class="cls-5"
       d="M588.85,272.38s4.41,3.51,11.95,1.82"
       transform="translate(-445.5 -121.26)"
       id="path2861" />
    <path
       class="cls-5"
       d="M591.6,268.5s3.76,4.88,11.75,1.94"
       transform="translate(-445.5 -121.26)"
       id="path2863" />
    <path
       class="cls-5"
       d="M593.93,264.77c1.23.4,1.21,3,11.22,2.89"
       transform="translate(-445.5 -121.26)"
       id="path2865" />
    <path
       class="cls-5"
       d="M596.43,261.33a30.07,30.07,0,0,0,11.06,2.25"
       transform="translate(-445.5 -121.26)"
       id="path2867" />
    <path
       class="cls-4"
       d="M577.38,280.33s5.67-5.94,12.21-8.95"
       transform="translate(-445.5 -121.26)"
       id="path2869" />
    <path
       d="M579.93,252.67a7.62,7.62,0,0,1,2,4.67,11,11,0,0,1-.06,2.56c-.08.41-.15.84-.26,1.24l-.17.61-.09.3a1.1,1.1,0,0,0,0-.76,1.07,1.07,0,0,0-1.39-.57,1.09,1.09,0,0,0-.38.25,1,1,0,0,0-.14.18,31.08,31.08,0,0,0,2-3.93A34.36,34.36,0,0,0,583,253l1,.1a14.16,14.16,0,0,1-.6,4.81,19.08,19.08,0,0,1-2,4.47,1.32,1.32,0,0,1-.18.24,1.27,1.27,0,0,1-2.07-.39,1.3,1.3,0,0,1,0-.91l.08-.26.16-.51c.1-.34.16-.69.25-1a12.42,12.42,0,0,0,.23-2.08,9.3,9.3,0,0,0-.81-4Z"
       transform="translate(-445.5 -121.26)"
       id="path2871" />
    <path
       class="cls-5"
       d="M528,274.66s9.13-1.78,11.63-4.22"
       transform="translate(-445.5 -121.26)"
       id="path2873" />
    <path
       class="cls-5"
       d="M534.34,273s11.29-20.89,11.54-24a12.92,12.92,0,0,1,2.12-5.75"
       transform="translate(-445.5 -121.26)"
       id="path2875" />
    <path
       class="cls-5"
       d="M541.88,268.5s18,4.4,20.75,4.51,6.25,8.67,6.25,8.67"
       transform="translate(-445.5 -121.26)"
       id="path2877" />
    <path
       class="cls-5"
       d="M541.17,260.36s-.54,4.32,1.83,5.85"
       transform="translate(-445.5 -121.26)"
       id="path2879" />
    <path
       d="M542.44,259.4a.56.56,0,0,0,0-.3l0,.1.06.21c0,.14.09.28.14.42a8.85,8.85,0,0,0,.34.82,11.1,11.1,0,0,0,.87,1.56,8.29,8.29,0,0,0,2.49,2.45,6.08,6.08,0,0,0,3.28.9,16.35,16.35,0,0,0,3.65-.33,13.52,13.52,0,0,0,6-2.72,5,5,0,0,0,1.5-2.32,2.71,2.71,0,0,0,.18-.7,7.09,7.09,0,0,0,.11-.75l0-.79c0-.26,0-.52,0-.78-.25-4.11-4.6-8-9.27-6.58-2.43.35-4.75,1-6.14,2.68a14.88,14.88,0,0,0-1.67,3Zm-2-.12,1.74-3.65.87-1.82a9,9,0,0,1,1.14-1.77,8.59,8.59,0,0,1,3.4-2.48,19.83,19.83,0,0,1,3.85-1.05c.64-.12,1.23-.24,1.89-.35a7.71,7.71,0,0,1,2.22,0,10.39,10.39,0,0,1,7.15,4.48,10.53,10.53,0,0,1,1.6,4.11,10,10,0,0,1-.25,4.45,7.93,7.93,0,0,1-2.59,3.9,9.2,9.2,0,0,1-4,1.82,18.51,18.51,0,0,1-4,.34c-1.32,0-2.62-.12-3.9-.24-.31,0-.65-.07-1-.13l-.51-.08-.5-.15-.49-.16-.47-.22a5.67,5.67,0,0,1-.91-.48,12,12,0,0,1-3-2.7c-.4-.53-.8-1.06-1.16-1.63-.18-.28-.35-.57-.52-.86l-.25-.44-.12-.23-.06-.12A1.33,1.33,0,0,1,540.45,259.28Z"
       transform="translate(-445.5 -121.26)"
       id="path2881" />
    <path
       class="cls-5"
       d="M554,249.18s5.88-1.69,10,0"
       transform="translate(-445.5 -121.26)"
       id="path2883" />
    <path
       d="M550.13,263.29s-4.25-5-1.12-8.66,11.13,1.85,8.5,5.74-5.5-.65-6.5-1.38S551.13,260.33,550.13,263.29Z"
       transform="translate(-445.5 -121.26)"
       id="path2885" />
    <path
       class="cls-5"
       d="M518.46,279.75a215.25,215.25,0,0,1,34.85,3.38"
       transform="translate(-445.5 -121.26)"
       id="path2887" />
    <path
       d="M535.88,307.5v-.28a1,1,0,0,1,.07-.17.16.16,0,0,1,.16-.09l.4,0c.28-.05.57-.1.86-.17.59-.14,1.17-.35,1.77-.54a27.57,27.57,0,0,0,3.54-1.61,29.89,29.89,0,0,0,6.53-4.79,34.19,34.19,0,0,0,2.79-3,38.14,38.14,0,0,0,2.38-3.37,33.31,33.31,0,0,0,1.87-3.71,24.54,24.54,0,0,0,1.21-4.05v-.06A2.81,2.81,0,1,1,562,288.3a28.51,28.51,0,0,0-3.18,3.06c-1,1-2,2.1-2.84,3.2s-1.84,2.15-2.71,3.26c-.47.53-.92,1.07-1.38,1.61s-.91,1.09-1.39,1.61a46.27,46.27,0,0,1-6.14,6.07,21.93,21.93,0,0,1-3.75,2.46,16.09,16.09,0,0,1-2.15.91c-.38.13-.77.23-1.17.34l-.63.13a.52.52,0,0,1-.36,0,.82.82,0,0,1-.19-.14,1.19,1.19,0,0,1-.25-.27,1,1,0,0,1-.14-.55Z"
       transform="translate(-445.5 -121.26)"
       id="path2889" />
    <path
       d="M525.07,279.48a68.48,68.48,0,0,1,9.06-3.54,29.59,29.59,0,0,1,4.86-1.13,8.67,8.67,0,0,1,1.38-.08h.37l.29,0,.59.06,2.42.24a44.26,44.26,0,0,1,9.63,2,14.93,14.93,0,0,1,4.52,2.34,6.21,6.21,0,0,1,1.71,2.09,4.35,4.35,0,0,1,.34,2.7.5.5,0,0,1-1-.12,3.84,3.84,0,0,0-2-3.45,15,15,0,0,0-4.16-1.79,57.64,57.64,0,0,0-9.3-1.56l-2.39-.22-.61-.05-.31,0h-.24a6.57,6.57,0,0,0-1,0,38.58,38.58,0,0,0-4.56.92c-3.07.78-6.17,1.65-9.27,2.47h0a.5.5,0,0,1-.34-.94Z"
       transform="translate(-445.5 -121.26)"
       id="path2891" />
    <path
       d="M519.63,286.5c-.5,1.21,6.08,1.49,7,.74s-1.34-4.49-2-4.12-.83,2.15-2.22,2.22C518.25,285.58,519.63,286.5,519.63,286.5Z"
       transform="translate(-445.5 -121.26)"
       id="path2893" />
    <path
       d="M528.56,286.5a6.06,6.06,0,0,0,2.38-2.37s2.75,3.81,4.06,3.53.25-2.28,1.88-3.53a27.49,27.49,0,0,1,2.75,4.13,6.66,6.66,0,0,0,3.81-2.87,32,32,0,0,0,2.94,2.87,14.86,14.86,0,0,0,4.13-2.87s3.13,1.18,3.44,2.87-8.06,6.81-8.06,6.81,1-1.5,0-1.62-1.91.25-3.36.25-2.35.27-3.1.15,3.15-1.27,3.58-2.52-4.06-.12-5.56-.37a16.37,16.37,0,0,1-4.87-1.34C530.88,288.75,528.81,288.69,528.56,286.5Z"
       transform="translate(-445.5 -121.26)"
       id="path2895" />
    <path
       d="M560.38,231a4,4,0,0,1,3.63-5.12C568.25,225.5,561.88,232.5,560.38,231Z"
       transform="translate(-445.5 -121.26)"
       id="path2897" />
    <path
       d="M570.08,225.86s-4.21,1.65-4.64-.77,6.17-3.17,6.37-2A2.41,2.41,0,0,1,570.08,225.86Z"
       transform="translate(-445.5 -121.26)"
       id="path2899" />
    <path
       d="M571,228.17s.83-4.58,3.17-4.42,3.33,1.39,2.58,2.11S574.26,229.94,571,228.17Z"
       transform="translate(-445.5 -121.26)"
       id="path2901" />
    <path
       d="M577.75,229.42s1-3.92,3.33-3.92,2.38.5,2.4,1.5S580.56,231,577.75,229.42Z"
       transform="translate(-445.5 -121.26)"
       id="path2903" />
    <path
       d="M564.85,218.51s1.32,2.57,3.32,2.66,1.59-4.5.46-5.5A36.42,36.42,0,0,0,564.85,218.51Z"
       transform="translate(-445.5 -121.26)"
       id="path2905" />
    <path
       d="M571.81,218.77a.63.63,0,0,1-.26-1c1.08-1.23,3.51-3.73,5-3.35C578.46,214.89,576,220.23,571.81,218.77Z"
       transform="translate(-445.5 -121.26)"
       id="path2907" />
    <path
       d="M577.41,223.31a2.05,2.05,0,0,1-2.29-.4c-.81-.8-1.7-2-.81-2.65,1.44-1.08,3.87-2.27,4.51-.58A2.57,2.57,0,0,1,577.41,223.31Z"
       transform="translate(-445.5 -121.26)"
       id="path2909" />
    <path
       d="M579.92,217.67s2.25-4.24,4.42-3.29-1.67,4.42-2.92,4.65S579.83,218.92,579.92,217.67Z"
       transform="translate(-445.5 -121.26)"
       id="path2911" />
    <path
       d="M583.14,224.76a.86.86,0,0,1-.59-1c.26-1.38,1.09-4.26,3.45-3.69C588.9,220.79,586.64,225.8,583.14,224.76Z"
       transform="translate(-445.5 -121.26)"
       id="path2913" />
    <path
       d="M579.1,211.58c0-.15,2.11-4.42,4.38-3.08s-.4,5.08-2.19,4.75S578.87,213.42,579.1,211.58Z"
       transform="translate(-445.5 -121.26)"
       id="path2915" />
    <path
       d="M588,214.24a2.43,2.43,0,0,1-1.25-3.07c.75-2.17,4.5-2,4.33,0S590.42,214.14,588,214.24Z"
       transform="translate(-445.5 -121.26)"
       id="path2917" />
    <path
       d="M592.42,219.09s-2.92.58-2.83-1.84,5.17-2.76,5-.59S594,219.14,592.42,219.09Z"
       transform="translate(-445.5 -121.26)"
       id="path2919" />
    <path
       d="M591.09,219.58s-2.34,3-.84,3.91,3.83-1.41,3.67-2.74S592.18,219.42,591.09,219.58Z"
       transform="translate(-445.5 -121.26)"
       id="path2921" />
    <path
       d="M582.53,203.74s1.47,3.82,3.53,2.26,3.36-4.93,1.34-5.87C587.4,200.13,583.57,203,582.53,203.74Z"
       transform="translate(-445.5 -121.26)"
       id="path2923" />
    <path
       d="M593.87,196.66a.75.75,0,0,0,0,.9c.54.72,1.73,2,2.52,1,1.06-1.37,1.25-2.06.44-2.62A2.13,2.13,0,0,0,593.87,196.66Z"
       transform="translate(-445.5 -121.26)"
       id="path2925" />
    <path
       d="M592.69,208.24s-2.94.63-2.94-1.49,2.36-4.37,4.84-2S592.69,208.24,592.69,208.24Z"
       transform="translate(-445.5 -121.26)"
       id="path2927" />
    <path
       d="M597.86,214a2.85,2.85,0,0,1-3-.92c-.55-.72-.66-1.67,1.12-2.6C599.3,208.7,603.18,212.58,597.86,214Z"
       transform="translate(-445.5 -121.26)"
       id="path2929" />
    <path
       d="M600.35,218.53a1.74,1.74,0,0,1-1.65-1.23c-.28-.94-.33-2.2,1.17-2.61,2.5-.69,5.13-.48,4.44,1C603.7,217,603.09,218.6,600.35,218.53Z"
       transform="translate(-445.5 -121.26)"
       id="path2931" />
    <path
       d="M603.75,212.69s-2.5-1.19-.31-2.69,2.5-1.8,2.69-1.67C606.62,208.69,611.5,212.94,603.75,212.69Z"
       transform="translate(-445.5 -121.26)"
       id="path2933" />
    <path
       d="M602,206a1.88,1.88,0,0,1-2.09-2.33,2.77,2.77,0,0,1,2.31-2c3.13-.62,3.44,1.69,2.81,2.81A4.39,4.39,0,0,1,602,206Z"
       transform="translate(-445.5 -121.26)"
       id="path2935" />
    <path
       d="M601.49,198.13s-.93-2.81,1.7-2.94,3.09,2,2.14,2.94S601.64,199,601.49,198.13Z"
       transform="translate(-445.5 -121.26)"
       id="path2937" />
    <path
       d="M609.9,202.28a1.74,1.74,0,0,1-1.6-2.5,3,3,0,0,1,1.57-1.34c2.81-1.25,3.56.56,2.88,1.81C612.19,201.27,611.76,202.32,609.9,202.28Z"
       transform="translate(-445.5 -121.26)"
       id="path2939" />
    <path
       d="M609.38,210s-1.78-5.25,2.61-4.69,1.36,4.5,0,4.69S609.94,210.93,609.38,210Z"
       transform="translate(-445.5 -121.26)"
       id="path2941" />
    <path
       class="cls-5"
       d="M599.7,262.46s6.3-.65,7.05-2.09"
       transform="translate(-445.5 -121.26)"
       id="path2943" />
    <path
       d="M617.44,204.19s-2.06-1.84,1.31-2.67,4.19.38,3.44,1.33A4.78,4.78,0,0,1,617.44,204.19Z"
       transform="translate(-445.5 -121.26)"
       id="path2945" />
    <path
       d="M615.61,197.28a1.35,1.35,0,0,1-1.46-1.38c0-1.15.56-2.77,3.41-2.65C621.22,193.41,618.1,197,615.61,197.28Z"
       transform="translate(-445.5 -121.26)"
       id="path2947" />
    <path
       d="M623,198.75a1.39,1.39,0,0,1-.89-2.46,5.4,5.4,0,0,1,3.59-1.1C629,195.19,625.84,198.64,623,198.75Z"
       transform="translate(-445.5 -121.26)"
       id="path2949" />
    <path
       d="M623.69,189.5s4.88-1,4.56.63-3.56,1.56-4.25,1.19S622.63,190.63,623.69,189.5Z"
       transform="translate(-445.5 -121.26)"
       id="path2951" />
    <path
       d="M636.13,186.51a15.14,15.14,0,0,1,3.75,0c.81.3-1.25,2.24-3,1.55S635.5,187.21,636.13,186.51Z"
       transform="translate(-445.5 -121.26)"
       id="path2953" />
    <path
       d="M632.25,194.06c-.47-.35-.12-4.19,3-3.25S636.13,197,632.25,194.06Z"
       transform="translate(-445.5 -121.26)"
       id="path2955" />
    <path
       d="M628.26,202.28c.08-.18,1.67-5.16,5.17-1.72s-2.31,3.38-3.19,2.69S627.93,203,628.26,202.28Z"
       transform="translate(-445.5 -121.26)"
       id="path2957" />
    <path
       d="M649.39,187a1.24,1.24,0,0,1-.8-1.95c.84-1.16,3.2-2.44,4.41-.81C654.49,186.19,651.37,187.28,649.39,187Z"
       transform="translate(-445.5 -121.26)"
       id="path2959" />
    <path
       d="M644.41,192.19a1.16,1.16,0,0,1-.53-1.32c.32-1.24,1.32-3.63,4.18-1.87C651.34,191,646.44,193.24,644.41,192.19Z"
       transform="translate(-445.5 -121.26)"
       id="path2961" />
    <path
       d="M641.8,198.8a1.62,1.62,0,0,1-1.25-2.05c.39-1.32,1.43-3,4.14-1.48C648,197.14,644.36,199.29,641.8,198.8Z"
       transform="translate(-445.5 -121.26)"
       id="path2963" />
    <path
       d="M649.5,197s-.24-4.09,3.22-2.59,2,3.53.28,3.64S649.33,198.4,649.5,197Z"
       transform="translate(-445.5 -121.26)"
       id="path2965" />
    <path
       d="M653.06,191.53s-.44-3.72,2.75-2.53,2.13,3.23.63,3.46S653,192.56,653.06,191.53Z"
       transform="translate(-445.5 -121.26)"
       id="path2967" />
    <path
       d="M660.11,196.95a1.32,1.32,0,0,1-1.1-1.4c.09-1.23.58-3.26,2.87-3,3.25.38-.64,4.38-1.44,4.41A1.73,1.73,0,0,1,660.11,196.95Z"
       transform="translate(-445.5 -121.26)"
       id="path2969" />
    <path
       d="M666.19,187c-.42-.16-.25-4.58,3.63-3.89S668.75,188,666.19,187Z"
       transform="translate(-445.5 -121.26)"
       id="path2971" />
    <path
       d="M669.69,192.84a1.7,1.7,0,0,1-1.91-2.05c.27-1.16,1.09-2.4,3.46-1.78C674.46,189.83,672.14,192.5,669.69,192.84Z"
       transform="translate(-445.5 -121.26)"
       id="path2973" />
    <path
       d="M678.62,191.5a1.66,1.66,0,0,1-1.81-2c.25-1.47,1-3.28,3-3,3.38.43,2.69,1.43,2.06,2.49A4.91,4.91,0,0,1,678.62,191.5Z"
       transform="translate(-445.5 -121.26)"
       id="path2975" />
    <path
       d="M681.47,184.87a2,2,0,0,1,.4-2c1-1.12,2.82-2.68,4.69-1.67,2.75,1.5-1.81,4.31-3.56,4.25C681.83,185.46,681.64,185.33,681.47,184.87Z"
       transform="translate(-445.5 -121.26)"
       id="path2977" />
    <path
       d="M682.06,194s-.25-2.14.63-2.53,4.06-.45,4.31.49.06,2.55-.69,2.93S682,195.58,682.06,194Z"
       transform="translate(-445.5 -121.26)"
       id="path2979" />
    <path
       d="M694.13,188.21c-.08-.19.81-4.21,3.56-2.71s3.63,2.16,1.88,3.27S695.13,190.42,694.13,188.21Z"
       transform="translate(-445.5 -121.26)"
       id="path2981" />
    <path
       d="M701.56,191.51c-.22-.16-.81-3.58,1.63-3.14s4.5.25,4.25,2.19C707.44,190.56,705.38,194.4,701.56,191.51Z"
       transform="translate(-445.5 -121.26)"
       id="path2983" />
  </g>
  <g
     id="Layer_10"
     data-name="Layer 10">
    <path
       class="cls-3"
       d="M554,259.25s-.83-.16-.67-1.83,1.17-2.51,2-1,2.71,2,1.13,2.57"
       transform="translate(-445.5 -121.26)"
       id="path2986" />
  </g>
  <g
     id="Layer_9"
     data-name="Layer 9">
    <path
       d="M570.75,294.63c-2.39,1.86-4.83,3.66-7.24,5.49s-4.73,3.78-7,5.75-4.52,4-6.77,6L546.38,315c-1.08,1-2.28,2.06-3.19,3l-.34.34a1.35,1.35,0,0,1-1.29.21l-.56-.23c-.35-.15-.71-.3-1.06-.46q-1-.48-2.06-1c-.68-.37-1.35-.76-2-1.2a8.91,8.91,0,0,1-2-1.62,1,1,0,0,1-.14-1c.12-.26.11-.21.17-.33l.26-.48c.17-.32.33-.66.48-1a12.85,12.85,0,0,0,.73-2q.07-.25.11-.5c0-.08,0-.16,0-.24s0,0,.07.13a.38.38,0,0,0,.25.18l-.27,0-.56-.07A1.34,1.34,0,0,1,533.9,307a1.29,1.29,0,0,1,.24-.51,3.31,3.31,0,0,1,.24-.26l.39-.41q3.12-3.29,6.2-6.62,1.52-1.68,3-3.39c.49-.57,1-1.15,1.43-1.73l.17-.22c.1-.13,0-.08,0,.06a.3.3,0,0,0,.11.27c0,.07.3.07.18.08l-1.14.12c-3,.32-6.08.46-9.14.47s-6.18.28-9.36-.41a11,11,0,0,1-4.63-2,7.57,7.57,0,0,1-1-1,7.07,7.07,0,0,1-.76-1.15,15.08,15.08,0,0,1-1-2.26,21.45,21.45,0,0,1-1-9.44,12.39,12.39,0,0,1,.53-2.37,7.1,7.1,0,0,1,.51-1.19,4.14,4.14,0,0,1,.41-.61A1.32,1.32,0,0,1,520,274l.4-.1a5.5,5.5,0,0,0,2.91-2.27,11.1,11.1,0,0,0,1-1.8l1-2c.69-1.35,1.38-2.71,2.12-4q4.35-8,9.4-15.66a105.94,105.94,0,0,1,11.3-14.44c4.13-4.42,8.31-8.84,12.69-13.07A245.14,245.14,0,0,1,589,197.4c1.24-.88,2.47-1.77,3.72-2.63l1.87-1.3.94-.65.47-.32.21-.15c-.35.32-.34.44-.25.23,1.42-2.72,2.91-5.36,4.44-8,3.08-5.25,6.35-10.39,9.85-15.37a174.72,174.72,0,0,1,11.23-14.43c2-2.31,4.1-4.54,6.26-6.7l1.66-1.59.83-.8.47-.44a1.59,1.59,0,0,1,1.47-.29,3.67,3.67,0,0,1,.44.19c1.35.64,2.72,1.27,4.09,1.87,2.75,1.21,5.52,2.36,8.33,3.39a50.85,50.85,0,0,0,8.47,2.45,38.72,38.72,0,0,1,8.95,2.8,48.49,48.49,0,0,1,8.15,4.49,21.87,21.87,0,0,1,3.68,3.1l.42.49a1.51,1.51,0,0,1,0,2.1,2,2,0,0,1-.48.35l-.24.15-.48.3-1.94,1.19-7.78,4.71c-2.61,1.55-5.21,3.1-7.87,4.57q-2,1.11-4,2.17l-1,.52-.51.26c-.2.12.3-.16.31-.4a.74.74,0,0,0-.09-.69.77.77,0,0,0-.64-.32l.19,0,.57-.05,1.13-.1c6-.49,12.09-.92,18.14-1.22s12.11-.59,18.18-.61,12.11.31,18.17.61a136.44,136.44,0,0,1,18.1,2,71.07,71.07,0,0,1,8.87,2.21l8.62,2.87c2.87,1,5.74,1.92,8.62,2.82a85.47,85.47,0,0,0,8.7,2.34,18.58,18.58,0,0,0,2.17.3c.68,0,1.47,0,2.22,0l4.54-.08,9.08-.11c6.05-.05,12.11-.1,18.17-.06,1.52,0,3,0,4.57.12a.88.88,0,0,1,.71.45,2,2,0,0,1,.14.4l.15.55.29,1.11q.28,1.11.51,2.24a27.48,27.48,0,0,1,.59,4.6c0,.2,0,.4,0,.6v.3a.94.94,0,0,1-.31.66,10.52,10.52,0,0,1-1,.74,14.6,14.6,0,0,1-2.05,1.18,17,17,0,0,1-4.48,1.38c-.39,0-.77.12-1.16.15l-.58,0h-.2a.3.3,0,0,0,.21-.19.28.28,0,0,0,0-.26c-.12-.12-.08-.06,0,0l.49.29,1,.58c2.58,1.6,5.16,3.18,7.83,4.6l7.92,4.47c1.32.76,2.63,1.52,3.93,2.33.65.41,1.29.82,1.94,1.29.16.12.32.24.49.39a4.28,4.28,0,0,1,.5.49l.75.84c2,2.22,4.09,4.38,6.27,6.41,1.09,1,2.22,2,3.35,3s2.2,2,3.35,3a25.7,25.7,0,0,0,3.65,2.54,24.82,24.82,0,0,0,4,1.92,20.29,20.29,0,0,0,4.2,1.12l1.07.12,1.07,0c.7,0,1.41-.05,2.2-.12a82.83,82.83,0,0,1,18.3.88A63.34,63.34,0,0,1,882.66,243,37.77,37.77,0,0,1,897,254.54c.43.65.89,1.28,1.3,1.94s.81,1.34,1.15,2l.52,1,.26.53a1.21,1.21,0,0,1,.17.71,1.3,1.3,0,0,1-.27.72,11.55,11.55,0,0,1-1.57,1.9,10.85,10.85,0,0,1-2,1.53c-.34.21-.78.42-1.08.56a8.12,8.12,0,0,0-.88.52c-1.2.8-2.41,1.73-3.59,2.67s-2.37,1.89-3.55,2.87-2.34,2-3.59,2.93a18.08,18.08,0,0,1-4.18,2.45,9.27,9.27,0,0,1-1.26.4l-1.1.26-2.15.53c-2.9.68-6.1,1.53-9.43,1.08-.41,0-.82-.14-1.23-.21l-.6-.17-.3-.08c-.16,0,.32.07.46-.06a.75.75,0,0,0,.41-.59c0-.28,0,.09,0,.1l0,.57.09,1.15c.11,1.53.2,3.06.27,4.59s.08,3.08,0,4.64a25,25,0,0,1-.58,4.74,11.65,11.65,0,0,1-.84,2.43,8.51,8.51,0,0,1-.7,1.18l-.67.94-2.71,3.67c-3.63,4.85-7.3,9.66-10.86,14.51l-1.3,1.82-.63.91-.3.45a2,2,0,0,1-.52.6,1.71,1.71,0,0,1-1.61.23,1.74,1.74,0,0,1-1.05-1.14l-.08-.26-.16-.52-.34-1c-.24-.69-.49-1.37-.77-2a31,31,0,0,0-1.91-3.9c-.36-.63-.75-1.22-1.16-1.8l-1.33-1.84a106.87,106.87,0,0,1-9.59-15.65,47.86,47.86,0,0,1-3.3-8.71,24.55,24.55,0,0,1-.75-4.71c0-.83,0-1.58,0-2.33v-2.26c0-3-.09-6-.25-9a69.7,69.7,0,0,0-.95-8.86,17.61,17.61,0,0,0-1.19-4,10,10,0,0,0-2.52-3.16,46.2,46.2,0,0,0-7.29-5c-1.3-.77-2.62-1.52-3.92-2.36-.65-.41-1.3-.86-1.94-1.35l-.48-.38c-.22-.16.29.23.54.14a.85.85,0,0,0,.68-.4.9.9,0,0,0,0-.84l.07.12.29.49c.77,1.32,1.44,2.7,2.13,4.07s1.4,2.72,2.08,4.1a24.86,24.86,0,0,1,1.72,4.36l.15.63a1.06,1.06,0,0,1-.36.95,1.18,1.18,0,0,1-.74.26l-1.14,0-2.27.08c-3,.09-6.06.16-9.1.18s-6.07,0-9.14-.16c-.77-.05-1.54-.12-2.35-.25a5.43,5.43,0,0,1-1.34-.36,1.45,1.45,0,0,1-.56-.41l-.18-.22-.36-.44-2.86-3.54c-3.77-4.76-7.46-9.58-10.86-14.66-.84-1.28-1.67-2.57-2.44-3.92-.39-.67-.76-1.36-1.11-2.08-.17-.36-.34-.72-.5-1.11l-.12-.28c-.06,0,.28.51.56.53.47.1.23,0,.15.06H768l-9.08.12-18.16.16-4.54,0h-2.27s-.48,0,0,0a1.2,1.2,0,0,0,.85-.71l-.2.51-.4,1.06q-1.6,4.26-3.32,8.49c-1.16,2.82-2.35,5.62-3.69,8.39-.68,1.39-1.38,2.76-2.22,4.13a14.19,14.19,0,0,1-1.48,2.06c.11-.13,0,.07-.07.1l-.16.23-.34.46-.7.94-.39.5a3.17,3.17,0,0,1-.36.38c-3.14.59-1.35-.09-2,.08l-1-.55-2-1.07c-1.32-.7-2.65-1.39-4-2q-4-2-8.19-3.67T696,244.05l-4.25-1.42-1.06-.37-.27-.09a1,1,0,0,0,.79-.14l-.49.29-2,1.17c-5.16,3.17-10,6.79-15,10.28s-10,6.89-15.16,10l-1,.59c-.26.21.24-.19.25-.38l-.11.26-.22.52-.86,2.1-1.7,4.21c-1.07,2.83-2.15,5.66-3,8.55-.43,1.45-.79,2.92-1.13,4.39-.17.73-.34,1.47-.46,2.17l0,.26a1.6,1.6,0,0,1-.74,1,1.68,1.68,0,0,1-1.22.14l-.28-.07-1.11-.26c-2.94-.73-5.83-1.66-8.74-2.5C632.5,283,626.75,281.15,621,279c-.72-.28-1.43-.55-2.17-.89l-.27-.12c0,.05.57.07.58,0l-.53.22-1.05.44-4.21,1.73-8.44,3.39c-5.64,2.24-11.34,4.35-17.11,6.26q-4.33,1.44-8.73,2.68c-1.46.43-3,.78-4.43,1.17-.74.2-1.49.35-2.24.51l-1.12.23-.56.11-.28.05C570.27,294.82,570.28,294.92,570.75,294.63Zm-1.6-1.92a1.75,1.75,0,0,1,.82-.36l.27-.06.55-.13,1.1-.24c.73-.17,1.47-.28,2.2-.46,1.46-.35,2.92-.66,4.37-1.06q4.36-1.13,8.68-2.47c5.76-1.77,11.45-3.78,17.1-5.9,2.82-1.07,5.63-2.19,8.4-3.38,1.39-.6,2.77-1.2,4.14-1.82l1-.47.51-.24a1.41,1.41,0,0,1,1.12,0l.25.1c.65.27,1.36.52,2.06.76,2.83,1,5.74,1.8,8.63,2.64l8.71,2.51c2.89.88,5.82,1.65,8.69,2.59l1.07.36.27.09c.16,0-.5-.08-.67.12s-.5.67-.44.57l.1-.28c.26-.77.54-1.47.82-2.18.56-1.42,1.17-2.82,1.7-4.24,1.07-2.84,2-5.73,2.91-8.61l1.32-4.35.66-2.17.17-.54.08-.27a1.69,1.69,0,0,1,.64-.78l.91-.68c4.86-3.62,9.88-7,15-10.21s10.29-6.38,15.18-9.94l1.82-1.36.45-.34a1.63,1.63,0,0,1,1.33-.24l.28.06,1.12.26c1.5.34,3,.79,4.43,1.24,2.92.93,5.79,2,8.62,3.18s5.61,2.45,8.35,3.8c1.37.67,2.73,1.38,4.08,2.1l2,1.11,1,.58c-.45.21,1.5-.18-1.48.23-.11.1,0,0,0,0l.31-.39,1.43-1.92a11.54,11.54,0,0,0,1.16-1.62c.75-1.21,1.42-2.53,2.08-3.86,1.3-2.67,2.48-5.44,3.62-8.22s2.23-5.59,3.3-8.41l.41-1.06.21-.55a1.76,1.76,0,0,1,1.26-1.07,2.55,2.55,0,0,1,.58,0h6.81l18.16,0,9.08.05h.28a1.82,1.82,0,0,1,.71.09,1.61,1.61,0,0,1,.93.94l.1.24c.12.32.27.65.42,1,.3.65.64,1.3,1,1.95.71,1.29,1.49,2.57,2.29,3.83,3.23,5,6.82,9.91,10.48,14.7l2.77,3.57.35.44.18.22c-.05,0-.22-.19-.1-.1a4,4,0,0,0,.85.22c.69.12,1.42.21,2.16.27,3,.23,6,.3,9,.31s6,0,9.06-.09l2.26-.05,1.13,0c.21,0-.14,0-.21.11a.5.5,0,0,0-.16.44l-.11-.47a23.51,23.51,0,0,0-1.57-4.09A46.92,46.92,0,0,0,805,241l-.32-.46a2.77,2.77,0,0,1-.23-.36,1.44,1.44,0,0,1,.07-1.38,1.46,1.46,0,0,1,1.15-.68,1.62,1.62,0,0,1,1,.35l.43.31c.58.41,1.2.8,1.82,1.19,1.26.78,2.56,1.53,3.87,2.31a49,49,0,0,1,7.67,5.27,12.39,12.39,0,0,1,3.07,3.91,19.76,19.76,0,0,1,1.38,4.64,71.9,71.9,0,0,1,1,9.18c.17,3,.23,6.09.26,9.13v2.28c0,.77,0,1.52,0,2.21a22.15,22.15,0,0,0,.69,4.24,42.57,42.57,0,0,0,3.16,8.23,104.4,104.4,0,0,0,9.54,15.16l1.35,1.82c.47.65.92,1.31,1.32,2a33.78,33.78,0,0,1,2.13,4.22c.31.72.59,1.45.86,2.19l.38,1.11.18.56.09.28a1.16,1.16,0,0,0-.69-.73,1.14,1.14,0,0,0-1.07.15c-.4.39-.22.25-.18.15l.32-.49.65-1,1.31-1.88c3.53-5,7.2-9.77,10.82-14.61l2.69-3.63.65-.91a6,6,0,0,0,.47-.76,10.57,10.57,0,0,0,.69-1.84,38.15,38.15,0,0,0,1.12-8.64c.06-1.49,0-3,0-4.48l-.07-1.12,0-.56a2.81,2.81,0,0,1,0-.47,1.3,1.3,0,0,1,.73-1,1.44,1.44,0,0,1,1-.06l.25.06.5.12c.34,0,.67.13,1,.14a11.89,11.89,0,0,0,4.14-.51c1.38-.38,2.77-.89,4.21-1.41.72-.24,1.46-.48,2.22-.7l1.11-.29a8.9,8.9,0,0,0,.89-.3,37.32,37.32,0,0,0,3.82-1.81c1.3-.69,2.61-1.42,3.86-2.25s2.46-1.73,3.68-2.63,2.39-1.85,3.7-2.74a9.77,9.77,0,0,1,1.07-.65,10.46,10.46,0,0,0,.92-.5,9,9,0,0,0,1.59-1.29,11,11,0,0,0,1.31-1.6c.11-.16,0-.08,0,.21s.08.35,0,.18l-.24-.49-.48-1c-.32-.66-.72-1.27-1.08-1.92s-.81-1.22-1.22-1.83a35.91,35.91,0,0,0-13.63-11,61.6,61.6,0,0,0-17.06-5.17,81.11,81.11,0,0,0-17.89-.93c-.72.06-1.52.1-2.33.12l-1.2-.06-1.18-.15a21.93,21.93,0,0,1-4.53-1.3,51.92,51.92,0,0,1-8.15-4.42,36.91,36.91,0,0,1-3.78-2.66c-1.19-1-2.29-2.06-3.38-3.14a77,77,0,0,1-6.13-6.84l-.71-.9a2.2,2.2,0,0,0-.29-.32c-.11-.11-.24-.22-.38-.34-.55-.45-1.16-.89-1.76-1.33-1.22-.87-2.47-1.71-3.73-2.54-2.52-1.67-5.1-3.24-7.68-4.82s-5.22-3.05-7.91-4.44l-1-.54-.5-.27a1.09,1.09,0,0,1-.42-.33.87.87,0,0,1,.52-1.35c.27,0,.23,0,.37,0l.55,0c.37,0,.73-.09,1.09-.14a15.79,15.79,0,0,0,4.16-1.29,13.41,13.41,0,0,0,1.88-1.08,9.4,9.4,0,0,0,.83-.65c0-.05-.12.24-.08.16v-.27c0-.18,0-.36,0-.54a26.39,26.39,0,0,0-.58-4.39q-.22-1.1-.49-2.19l-.28-1.09-.15-.54s-.1-.31,0-.14a.34.34,0,0,0,.25.16c-1.48-.09-3-.1-4.5-.13-6-.07-12.09,0-18.14,0l-9.07.11-4.54.07c-.76,0-1.49.05-2.32,0a19.66,19.66,0,0,1-2.32-.32,86.39,86.39,0,0,1-8.83-2.37c-2.89-.91-5.77-1.87-8.64-2.83l-8.61-2.87a69.94,69.94,0,0,0-8.73-2.18,158.51,158.51,0,0,0-18-2.1q-4.52-.3-9.05-.49c-3-.12-6-.28-9.06-.25-12.07.14-24.12,1.54-36.11,3l-1.13.13-.56.07-.37,0a1.34,1.34,0,0,1-1.29-1.79c.08-.43.75-.81.72-.77l.49-.26,1-.53q2-1.09,3.91-2.24l7.78-4.63,7.72-4.74,1.92-1.2.48-.3.24-.15s.36-.26,0,0a.94.94,0,0,0-.23.86c.17.44.18.35.08.26l-.32-.37a19.62,19.62,0,0,0-3.27-2.71,46,46,0,0,0-7.75-4.2,37.47,37.47,0,0,0-8.35-2.58,53.09,53.09,0,0,1-8.95-2.57c-2.88-1.05-5.7-2.22-8.49-3.45-1.39-.62-2.78-1.25-4.16-1.91,0,0-.35-.16-.08,0a1,1,0,0,0,.93-.18l-.35.34-.81.78-1.61,1.55c-2.11,2.11-4.17,4.29-6.13,6.56a171.42,171.42,0,0,0-11,14.23q-5.17,7.39-9.74,15.19c-1.51,2.6-3,5.23-4.38,7.87a1.76,1.76,0,0,1-.56.7l-.25.18L597,195l-.93.64-1.86,1.29c-1.25.85-2.47,1.73-3.7,2.61a242.57,242.57,0,0,0-27.89,22.9c-4.33,4.18-8.47,8.55-12.61,13a103.37,103.37,0,0,0-11.06,14.11c-3.34,5-6.37,10.2-9.25,15.48l-2.15,4-1.06,2a13.2,13.2,0,0,1-1.32,2.09,7.25,7.25,0,0,1-4.42,2.75s-.43.07-.16,0,.25-.18.19-.1a2,2,0,0,0-.25.31,5.33,5.33,0,0,0-.46.86,10.76,10.76,0,0,0-.63,2,11.48,11.48,0,0,0,1.37,8.3,13.88,13.88,0,0,0,1.24,1.7,4,4,0,0,0,.63.64,5.82,5.82,0,0,0,.7.52,17,17,0,0,0,3.63,1.6,34.07,34.07,0,0,0,8.62,1.76,76.45,76.45,0,0,0,9-.19l1.12-.1a.94.94,0,0,1,.71.2.88.88,0,0,1,.31.77,1,1,0,0,1-.26.55l-.18.23c-.48.6-1,1.18-1.47,1.76-1,1.15-2,2.27-3,3.4q-3,3.39-6.12,6.72c-.74.79-.5.54-.5.6l.57.06.3,0a1,1,0,0,1,.71.47,1.08,1.08,0,0,1,.11.68c0,.11,0,.22,0,.32s-.07.41-.12.61a14.15,14.15,0,0,1-.78,2.26c-.15.36-.32.71-.49,1.06l-.26.52-.09.17a.46.46,0,0,0-.07-.44,6.55,6.55,0,0,0,1.65,1.1c.64.33,1.32.63,2,.92l2.06.84,1,.42.49.19a.8.8,0,0,0-.76.12c-.26.25.06-.07.06-.07,1.18-1.22,2.28-2.14,3.45-3.15s2.33-1.94,3.5-2.91c2.34-1.92,4.72-3.8,7-5.74s4.65-3.88,6.86-5.95S566.89,294.72,569.15,292.71Z"
       transform="translate(-445.5 -121.26)"
       id="path2989" />
  </g>
  <g
     id="Layer_5"
     data-name="Layer 5">
    <path
       class="cls-6"
       d="M927,122.76V328.6a314.37,314.37,0,0,1-2.28,38c-.11.93-.24,1.86-.36,2.79s-.24,1.86-.39,2.79q-.7,5.05-1.61,10c-.07.44-.15.87-.23,1.31-.15.8-.29,1.6-.45,2.39s-.34,1.8-.51,2.69l-.45,2.22-.24,1.16c-.15.71-.3,1.44-.47,2.15q-.8,3.55-1.61,7l-.58,2.32-.52,2q-1.52,5.88-3.27,11.61c-.29,1-.59,1.94-.9,2.92l-.6,1.88c-.19.63-.39,1.25-.6,1.86l-1.1,3.26c-.37,1.09-.68,2-1,3-.47,1.28-.92,2.55-1.39,3.81-.36,1-.73,2-1.11,3l-.19.49c-.43,1.14-.87,2.25-1.32,3.37s-.87,2.16-1.32,3.19a3.35,3.35,0,0,1-.18.42c-.4,1-.8,2-1.25,3s-.75,1.75-1.13,2.62l-.66,1.49c-.47,1.07-.95,2.12-1.44,3.15s-.9,2-1.36,2.93l-1,2.12c-.3.63-.6,1.25-.91,1.88-.63,1.32-1.31,2.64-2,4q-2.53,5-5.19,9.77l-2,3.57-.11.21q-2.13,3.71-4.33,7.33c-.71,1.2-1.46,2.39-2.18,3.54-.1.16-.19.31-.3.46-.55.89-1.12,1.78-1.69,2.66l-.66,1c-.65,1-1.31,2-2,3l-.13.18c-.66,1-1.32,2-2,3l-.45.67q-2.26,3.28-4.54,6.46l-.31.42c-.8,1.07-1.54,2.14-2.31,3.19s-1.66,2.23-2.5,3.32q-2.29,3-4.61,6l-.8,1c-.73.93-1.48,1.85-2.22,2.76L854,526.61l-.57.69L851,530.1q-2.83,3.32-5.72,6.53c-.75.85-1.52,1.69-2.29,2.51l-2.22,2.39q-3,3.19-5.93,6.24-2.76,2.83-5.53,5.59c-.91.91-1.84,1.82-2.76,2.71s-1.85,1.78-2.78,2.67l-2.28,2.11c-.68.65-1.36,1.28-2.05,1.91a448.64,448.64,0,0,1-61.76,47.47c-.86.55-1.73,1.1-2.58,1.6q-6.42,4.07-12.46,7.63l-2.41,1.4-2.36,1.36-2.34,1.35-2.22,1.28c-8.35,4.68-15.91,8.59-22.38,11.76l-1.61.8c-10.63,5.15-18.11,8.22-21,9.35l-.42.18-.61.23-.14.06h-.08l-.23-.1-.21,0-1.07-.42-.55-.23c-.87-.34-2-.8-3.36-1.38l-.47-.18c-1.76-.8-3.88-1.67-6.33-2.77l-1.39-.61a443.16,443.16,0,0,1-39.74-20.6c-.8-.45-1.61-.92-2.36-1.38a473.14,473.14,0,0,1-44.78-30l-2.62-2c-1-.75-2-1.52-2.95-2.29l-2.81-2.21c-6.19-4.92-12.43-10.15-18.64-15.69L558.08,566q-2.3-2.05-4.59-4.2l-1.67-1.57L550,558.54l-2-1.94c-1.12-1.07-2.24-2.16-3.34-3.26-.84-.8-1.69-1.67-2.52-2.51l-.24-.26q-1.25-1.25-2.5-2.51c-.66-.68-1.32-1.36-2-2l-2-2.07-.13-.15-2.1-2.24q-3.36-3.61-6.66-7.36c-.68-.8-1.36-1.55-2-2.35-.57-.65-1.12-1.28-1.66-1.94l-2-2.39q-4.26-5.11-8.39-10.48-1.13-1.45-2.24-2.92c-1.89-2.47-3.73-5-5.57-7.55l-1.68-2.39c-.13-.16-.24-.34-.36-.5-.59-.85-1.19-1.7-1.77-2.55-.95-1.38-1.89-2.77-2.82-4.17q-1.11-1.64-2.18-3.31l-.15-.24-2.22-3.47c-.07-.13-.15-.24-.22-.37-.71-1.14-1.41-2.27-2.1-3.4s-1.49-2.46-2.21-3.7-1.44-2.39-2.13-3.67q-4.6-8-8.77-16.47c-.35-.69-.69-1.38-1-2.08-.22-.44-.44-.89-.65-1.35-.43-.87-.8-1.75-1.25-2.63a27.17,27.17,0,0,1-1.15-2.47l-.23-.48c-.26-.58-.52-1.16-.8-1.75l-.26-.57c-.26-.58-.52-1.18-.8-1.77q-1.44-3.26-2.78-6.58c-.42-1-.8-2-1.23-3.07-.1-.26-.21-.53-.31-.8-.4-1-.8-2-1.16-3s-.68-1.82-1-2.74l-.23-.65c-.18-.45-.34-.91-.5-1.36q-1-2.69-1.89-5.44c-.21-.6-.4-1.21-.6-1.8-.26-.8-.51-1.54-.75-2.31-.14-.42-.26-.8-.39-1.22-.26-.8-.5-1.6-.75-2.39-.31-1-.61-2.06-.92-3.1-.18-.65-.39-1.28-.57-2-.37-1.28-.74-2.58-1.08-3.89-.19-.68-.37-1.35-.55-2-.13-.5-.26-1-.39-1.51-.32-1.22-.63-2.46-.92-3.7-.18-.7-.35-1.4-.52-2.11-.07-.29-.13-.57-.19-.85-.37-1.55-.71-3.11-1.07-4.69-.26-1.16-.5-2.33-.74-3.5-.14-.71-.29-1.43-.43-2.14s-.32-1.6-.47-2.45a2.13,2.13,0,0,0-.1-.47c-.15-.8-.3-1.64-.45-2.48s-.31-1.84-.47-2.77-.3-1.8-.45-2.71q-.87-5.52-1.56-11.17A314.73,314.73,0,0,1,447,328.58V122.76Z"
       transform="translate(-445.5 -121.26)"
       id="path2992" />
  </g>
  <path
     id="shine"
     d="M 1.5800329,0.70902314 V 207.0859 c 0,229.66454 239.9199971,319.6031 239.9199971,319.6031 0,0 239.92,-89.93856 239.92,-319.6031 V 0.70902314 Z"
     style="fill:url(#rg);stroke:#000000;stroke-width:2.41218" />
</svg>
