<?xml version="1.0" encoding="UTF-8" standalone="no"?>
<svg
   viewBox="0 0 483 527.48"
   version="1.1"
   id="svg2414"
   sodipodi:docname="House Greyjoy.svg"
   inkscape:version="1.2.1 (9c6d41e410, 2022-07-14)"
   xmlns:inkscape="http://www.inkscape.org/namespaces/inkscape"
   xmlns:sodipodi="http://sodipodi.sourceforge.net/DTD/sodipodi-0.dtd"
   xmlns="http://www.w3.org/2000/svg"
   xmlns:svg="http://www.w3.org/2000/svg">
  <sodipodi:namedview
     id="namedview2416"
     pagecolor="#ffffff"
     bordercolor="#000000"
     borderopacity="0.25"
     inkscape:showpageshadow="2"
     inkscape:pageopacity="0.0"
     inkscape:pagecheckerboard="0"
     inkscape:deskcolor="#d1d1d1"
     showgrid="false"
     inkscape:zoom="1.12203"
     inkscape:cx="179.13959"
     inkscape:cy="266.48128"
     inkscape:window-width="1920"
     inkscape:window-height="1017"
     inkscape:window-x="-8"
     inkscape:window-y="-8"
     inkscape:window-maximized="1"
     inkscape:current-layer="svg2414" />
  <defs
     id="defs2182">
    <style
       id="style2180">.cls-1{fill:#1a1a1a;stroke-width:3px;}.cls-1,.cls-2,.cls-4,.cls-5,.cls-6{stroke:#000;}.cls-2,.cls-3{fill:#b49022;}.cls-2,.cls-5{stroke-miterlimit:10;}.cls-4,.cls-5{fill:none;}.cls-4,.cls-6{stroke-linecap:round;stroke-linejoin:round;}.cls-6{fill:#fff;}</style>
    <radialGradient
       id="rg"
       gradientUnits="userSpaceOnUse"
       cx="220"
       cy="220"
       r="405"
       gradientTransform="matrix(0.80510068,0,0,0.80302287,-0.03016809,-0.89702421)">
      <stop
         style="stop-color:#ffffff;stop-opacity:.3"
         offset="0"
         id="stop753" />
      <stop
         style="stop-color:#ffffff;stop-opacity:.2"
         offset=".2"
         id="stop755" />
      <stop
         style="stop-color:#666666;stop-opacity:.1"
         offset=".6"
         id="stop757" />
      <stop
         style="stop-color:#000000;stop-opacity:.13"
         offset="1"
         id="stop759" />
    </radialGradient>
  </defs>
  <title
     id="title2184">Greyjoy-Shield</title>
  <g
     id="Layer_2"
     data-name="Layer 2">
    <path
       class="cls-1"
       d="M927,122.76V328.6a314.37,314.37,0,0,1-2.28,38c-.11.93-.24,1.86-.36,2.79s-.24,1.86-.39,2.79q-.7,5.05-1.61,10c-.07.44-.15.87-.23,1.31-.15.8-.29,1.6-.45,2.39s-.34,1.8-.51,2.69l-.45,2.22-.24,1.16c-.15.71-.3,1.44-.47,2.15q-.8,3.55-1.61,7l-.58,2.32-.52,2q-1.52,5.88-3.27,11.61c-.29,1-.59,1.94-.9,2.92l-.6,1.88c-.19.63-.39,1.25-.6,1.86l-1.1,3.26c-.37,1.09-.68,2-1,3-.47,1.28-.92,2.55-1.39,3.81-.36,1-.73,2-1.11,3l-.19.49c-.43,1.14-.87,2.25-1.32,3.37s-.87,2.16-1.32,3.19a3.35,3.35,0,0,1-.18.42c-.4,1-.8,2-1.25,3s-.75,1.75-1.13,2.62l-.66,1.49c-.47,1.07-.95,2.12-1.44,3.15s-.9,2-1.36,2.93l-1,2.12c-.3.63-.6,1.25-.91,1.88-.63,1.32-1.31,2.64-2,4q-2.53,5-5.19,9.77l-2,3.57-.11.21q-2.13,3.71-4.33,7.33c-.71,1.2-1.46,2.39-2.18,3.54-.1.16-.19.31-.3.46-.55.89-1.12,1.78-1.69,2.66l-.66,1c-.65,1-1.31,2-2,3l-.13.18c-.66,1-1.32,2-2,3l-.45.67q-2.26,3.28-4.54,6.46l-.31.42c-.8,1.07-1.54,2.14-2.31,3.19s-1.66,2.23-2.5,3.32q-2.29,3-4.61,6l-.8,1c-.73.93-1.48,1.85-2.22,2.76L854,526.61l-.57.69L851,530.1q-2.83,3.32-5.72,6.53c-.75.85-1.52,1.69-2.29,2.51l-2.22,2.39q-3,3.19-5.93,6.24-2.76,2.83-5.53,5.59c-.91.91-1.84,1.82-2.76,2.71s-1.85,1.78-2.78,2.67l-2.28,2.11c-.68.65-1.36,1.28-2.05,1.91a448.64,448.64,0,0,1-61.76,47.47c-.86.55-1.73,1.1-2.58,1.6q-6.42,4.07-12.46,7.63l-2.41,1.4-2.36,1.36-2.34,1.35-2.22,1.28c-8.35,4.68-15.91,8.59-22.38,11.76l-1.61.8c-10.63,5.15-18.11,8.22-21,9.35l-.42.18-.61.23-.14.06h-.08l-.23-.1-.21,0-1.07-.42-.55-.23c-.87-.34-2-.8-3.36-1.38l-.47-.18c-1.76-.8-3.88-1.67-6.33-2.77l-1.39-.61a443.16,443.16,0,0,1-39.74-20.6c-.8-.45-1.61-.92-2.36-1.38a473.14,473.14,0,0,1-44.78-30l-2.62-2c-1-.75-2-1.52-2.95-2.29l-2.81-2.21c-6.19-4.92-12.43-10.15-18.64-15.69L558.08,566q-2.3-2.05-4.59-4.2l-1.67-1.57L550,558.54l-2-1.94c-1.12-1.07-2.24-2.16-3.34-3.26-.84-.8-1.69-1.67-2.52-2.51l-.24-.26q-1.25-1.25-2.5-2.51c-.66-.68-1.32-1.36-2-2l-2-2.07-.13-.15-2.1-2.24q-3.36-3.61-6.66-7.36c-.68-.8-1.36-1.55-2-2.35-.57-.65-1.12-1.28-1.66-1.94l-2-2.39q-4.26-5.11-8.39-10.48-1.13-1.45-2.24-2.92c-1.89-2.47-3.73-5-5.57-7.55l-1.68-2.39c-.13-.16-.24-.34-.36-.5-.59-.85-1.19-1.7-1.77-2.55-.95-1.38-1.89-2.77-2.82-4.17q-1.11-1.64-2.18-3.31l-.15-.24-2.22-3.47c-.07-.13-.15-.24-.22-.37-.71-1.14-1.41-2.27-2.1-3.4s-1.49-2.46-2.21-3.7-1.44-2.39-2.13-3.67q-4.6-8-8.77-16.47c-.35-.69-.69-1.38-1-2.08-.22-.44-.44-.89-.65-1.35-.43-.87-.8-1.75-1.25-2.63a27.17,27.17,0,0,1-1.15-2.47l-.23-.48c-.26-.58-.52-1.16-.8-1.75l-.26-.57c-.26-.58-.52-1.18-.8-1.77q-1.44-3.26-2.78-6.58c-.42-1-.8-2-1.23-3.07-.1-.26-.21-.53-.31-.8-.4-1-.8-2-1.16-3s-.68-1.82-1-2.74l-.23-.65c-.18-.45-.34-.91-.5-1.36q-1-2.69-1.89-5.44c-.21-.6-.4-1.21-.6-1.8-.26-.8-.51-1.54-.75-2.31-.14-.42-.26-.8-.39-1.22-.26-.8-.5-1.6-.75-2.39-.31-1-.61-2.06-.92-3.1-.18-.65-.39-1.28-.57-2-.37-1.28-.74-2.58-1.08-3.89-.19-.68-.37-1.35-.55-2-.13-.5-.26-1-.39-1.51-.32-1.22-.63-2.46-.92-3.7-.18-.7-.35-1.4-.52-2.11-.07-.29-.13-.57-.19-.85-.37-1.55-.71-3.11-1.07-4.69-.26-1.16-.5-2.33-.74-3.5-.14-.71-.29-1.43-.43-2.14s-.32-1.6-.47-2.45a2.13,2.13,0,0,0-.1-.47c-.15-.8-.3-1.64-.45-2.48s-.31-1.84-.47-2.77-.3-1.8-.45-2.71q-.87-5.52-1.56-11.17A314.73,314.73,0,0,1,447,328.58V122.76Z"
       transform="translate(-445.5 -121.26)"
       id="path2186" />
  </g>
  <g
     id="Layer_6"
     data-name="Layer 6">
    <path
       class="cls-2"
       d="M704.56,465s1.75,15.69,16.59,14.52c0,0-10,12.5,4.66,23.17,0,0-20.5,4.83-8,16.33,0,0-20.83-5-25.66,12.17a47.47,47.47,0,0,0-2,10c-1.36,4.58-2.35-.43-2.35-.43l0,.43a47.47,47.47,0,0,0-2-10C681,514,660.17,519,660.17,519c12.5-11.5-8-16.33-8-16.33,14.66-10.67,4.66-23.17,4.66-23.17,14.84,1.17,16.59-14.52,16.59-14.52"
       transform="translate(-445.5 -121.26)"
       id="path2189" />
    <path
       class="cls-2"
       d="M704.56,465s3.92-9.81,14.09-9c0,0-7-7-10.26-15.15h-39.8A61,61,0,0,1,659.33,456c10.17-.83,14.09,9,14.09,9"
       transform="translate(-445.5 -121.26)"
       id="path2191" />
  </g>
  <g
     id="Layer_8"
     data-name="Layer 8">
    <path
       class="cls-3"
       d="M890,223.17c15.75,35.58-20.67,56.62-50.5,35.21-25.25-18.13-26.4-22.77-51.5-23.63-7.33-.25-14.7,4-20,8.67-12.8,11.27-14.93,29.8-14.46,43.31.08,2.3.23,4.45.43,6.4a89.89,89.89,0,0,0,1.31,9c.53,2.62,1.47,6.37,2.72,10.71-3.47,1.37-8.47-1.71-8.47-1.71a7.32,7.32,0,0,0-.71-.51c-1.06-4.54-1.93-9.21-2.57-14-.41-3.05-.72-6.13-.91-9.24q-.27-4.29-.23-8.63c.34-28.5,19.09-43.41,26.92-47.41s33.41-12.56,62.12,14.46c22.76,21.4,44.32,19.82,50.8-1.21,8.82-28.67-30.59-41.34-35.5-33.67a6.34,6.34,0,0,1-3.47,2.92,22,22,0,0,1-5.13,1.24c-1.7.25-3.77.44-6.31.57-1.94.09-4.15.15-6.68.16-1.76,0-3.67,0-5.75-.06l-1.25,0c-2.19-.07-4.21-.21-6.08-.4-2.1-.22-4-.51-5.73-.85a47.44,47.44,0,0,1-5.86-1.52,29.11,29.11,0,0,1-5.8-2.6,17.16,17.16,0,0,1-3.13-2.35.66.66,0,0,1,.54-1.14c15.3,1.71,45.5-9,52.48-8.43,3.69.32,2.32,3.51,2.32,3.51,5.81.79,10.63,1.25,14.6,2.16C874.35,206.5,885.77,213.61,890,223.17Z"
       transform="translate(-445.5 -121.26)"
       id="path2194" />
    <path
       class="cls-3"
       d="M846,213.92s0,2.08-1.78,2.5-3.35-1.26-3.35-1.26A22,22,0,0,0,846,213.92Z"
       transform="translate(-445.5 -121.26)"
       id="path2196" />
    <path
       class="cls-3"
       d="M840.82,215.16c.57,1.66.35,4-2,4.51s-4.32-3.94-4.32-3.94C837.05,215.6,839.12,215.41,840.82,215.16Z"
       transform="translate(-445.5 -121.26)"
       id="path2198" />
    <path
       class="cls-3"
       d="M834.51,215.73c-.08,2.22.24,3.77-2.76,3.94s-3.92-3.78-3.92-3.78C830.36,215.88,832.57,215.82,834.51,215.73Z"
       transform="translate(-445.5 -121.26)"
       id="path2200" />
    <path
       class="cls-3"
       d="M827.83,215.89c-.08,2.72.34,3.69-2.58,3.78s-4.29-3.55-4.41-3.85h0l1.25,0C824.16,215.87,826.07,215.89,827.83,215.89Z"
       transform="translate(-445.5 -121.26)"
       id="path2202" />
    <path
       class="cls-3"
       d="M820.84,215.82a2.13,2.13,0,0,1-2.17,2.93c-3.09.17-3.92-3.36-3.92-3.36,1.87.19,3.89.33,6.08.4h0Z"
       transform="translate(-445.5 -121.26)"
       id="path2204" />
    <path
       class="cls-3"
       d="M814.75,215.39c-.66,2.72-.66,2.72-2.92,2.36a3.21,3.21,0,0,1-2.81-3.21C810.75,214.88,812.65,215.17,814.75,215.39Z"
       transform="translate(-445.5 -121.26)"
       id="path2206" />
    <path
       class="cls-3"
       d="M809,214.54c-1,1.71-3.19,2.21-5.19,1.63s-.77-3-.68-3.14h0A47.44,47.44,0,0,0,809,214.54Z"
       transform="translate(-445.5 -121.26)"
       id="path2208" />
    <path
       class="cls-3"
       d="M803.16,213h0a10.29,10.29,0,0,1-4,.72c-3.09.17-1.81-3.33-1.81-3.33A29.11,29.11,0,0,0,803.16,213Z"
       transform="translate(-445.5 -121.26)"
       id="path2210" />
    <path
       class="cls-3"
       d="M699.65,247.54a4.27,4.27,0,0,0,.66-.17S700,247.24,699.65,247.54Zm-21.62,0c-.39-.29-.65-.16-.65-.16A5.32,5.32,0,0,0,678,247.54Zm0,0c.47.34,1.1,1.28,1.71,3.7.85,3.39-1.14,3.87-2.17,3.89a.67.67,0,0,0-.58,0,2.87,2.87,0,0,0,.58,0c.42.18,1,.75,1.8,2.36,1.37,3-2.26,4.5-2.26,4.5s2.38.62,1.76,3.5-2.63,3.25-2.63,3.25a8.35,8.35,0,0,1,2.5,3.63c.63,2.12-2.5,3.37-2.5,3.37a2.51,2.51,0,0,1,2.75,2.87,3.86,3.86,0,0,1-2.75,3.76c7.25,4.12.87,7.5.87,7.5,4.63,2.24,3.26,4.5,3.26,4.5-4,1-2.38,2.24-2.38,2.24,5.62,1.91,2.09,5.32,1.77,5.61.21-.09,1.88-.81,2.35,1.77.5,2.75-2.37,3.5-2.37,3.5,3.5.25,3.63,2,4,4.5s-2.25,2.38-2.25,2.38c.11,4.67,6,12.93,7.27,14.67h0l-.08.29.15-.2a1.49,1.49,0,0,0,.15.21l-.08-.3c1.25-1.7,7.16-10,7.27-14.69,0,0-2.62.13-2.25-2.37s.5-4.25,4-4.5c0,0-2.87-.75-2.37-3.5.47-2.58,2.14-1.86,2.35-1.77-.32-.29-3.84-3.7,1.77-5.61,0,0,1.63-1.25-2.37-2.25,0,0-1.38-2.25,3.25-4.5,0,0-6.38-3.37.87-7.5a3.85,3.85,0,0,1-2.75-3.75,2.51,2.51,0,0,1,2.75-2.87s-3.12-1.25-2.5-3.38a8.36,8.36,0,0,1,2.5-3.62s-2-.38-2.62-3.25,1.75-3.5,1.75-3.5-3.63-1.5-2.25-4.5c.74-1.61,1.37-2.18,1.79-2.36a2.87,2.87,0,0,0,.58,0,.67.67,0,0,0-.58,0c-1,0-3-.51-2.17-3.89.6-2.39,1.24-3.34,1.7-3.7-1,.19-2.71.22-2.45-1.93.38-3,1.88-3.62,1.88-3.62s-3.38-.5-2.75-3.25a21.82,21.82,0,0,1,1.75-4.88s-2.5-.5-2.13-2.87a2.88,2.88,0,0,1,2.25-2.63s-2.37-1.37-2.25-3.62a3,3,0,0,1,2.13-2.75s-4-1-3-3.13a9.28,9.28,0,0,1,3.75-3.5s-1.75.13-2.13-2.12,5.5-9.88,9.38-10.88-3.75,9.38-3.13,17.13,4.58,51.37,4.23,57.25-.48,21.12-1.35,26.62c0,0,4.37-7,4.5-8.87s-1.13-4,2-5.63c0,0-1.75-7.75,3.12-6.5,0,0-2.12-5.87,2.13-6.12,0,0-3.75-6,2-7.25,0,0-4-4.75,1.62-5.75,0,0-4.5-4.88,2.38-7.5,0,0-4.88-3.38,1-5.5,0,0-2.63-6.5,2.5-6.25,0,0-2.88-5.88,2.5-7,0,0-2.13-7.38,4.25-6.38,0,0-2.88-5.62,3.75-4.75,0,0-1.75-7.12,5-5.12,0,0-2.5-7.25,12.87-3.25,0,0-9.75,4.25-15.12,11.87s-11.88,23.69-13.25,36.47-11.75,37.91-15.63,44.91c0,0,9.13-7,9.13-8.5s1-4.88,6.37-4c0,0-.87-5.38,6.38-3.38,0,0,0-5,5-3.5,0,0,1.24-4.41,7-3.91.19,3.11.5,6.19.91,9.24-10.92,5.44-24.2,13.38-30,18.42,0,0,1.81.55,5.2-.6a4.12,4.12,0,0,0,2.38-2c.71-1.44,2.41-3.26,5.92-.26,0,0,4.64-4.5,6.82.25,0,0,2.56-5.63,6.43.25,0,0,1.57-4.88,5.86-2.09a7.32,7.32,0,0,1,.71.51s5,3.08,8.47,1.71,4.78,3.12,4.78,3.12c5.13-4.12,4.63,1.25,4.63,1.25,2.87-4,5.74,1.06,5.74,1.06,3.38-4.44,6.63,1.31,6.63,1.31,2.26-5.37,6.87-.5,6.87-.5,1.06-5.42,5.07-2.24,5.07-2.24a4.15,4.15,0,0,1,3.81-3c4.12-5.88,6.5,1.37,6.5,1.37-8.75,11.63-25.62,11-36.38,7.75-1.55-.47-3.18-.89-4.87-1.26-3.07-.7-6.31-1.25-9.52-1.7-7.28-1-14.43-1.44-19.11-1.66-7.87-.38-16.59,5.95-16.59,5.95-14.38,5.69-18.73,25.22-17.89,31.25h.11a.32.32,0,0,0,.5.27c25.21-16.13,28.83-.17,28.83-.17-2.33-1-21.33-7.5-19.16,17.16s2.36,58.65,1.83,62.34c-1.67,11.55-7.89,41.32-11.17,51.33-3.8,11.63-9,39.33-9,39.33h-1.75s-5.19-27.7-9-39.33c-3.27-10-9.5-39.78-11.16-51.33-.54-3.69-.34-37.67,1.83-62.34s-16.83-18.16-19.17-17.16c0,0,3.62-16,28.83.17a.32.32,0,0,0,.5-.26h.12c.8-5.4-2.26-21.19-13.44-28.07-12.54-10.73-22.09-8.52-26.59-8.9-1.63-.13-7,1.08-13.88,2.51-3,.62-6.26,1.28-9.63,1.88-10.23,1.83-21.35,3.16-28.24,1.37C573.62,320.62,576.62,314,576.62,314c1.38,3.5,9.17,5.38,9.17,5.38,3.91-3,6.21.37,6.21.37,2.5-2.63,6.25.5,6.25.5.87-3.13,5.37-.87,5.37-.87,1.5-5.5,6-1.26,6-1.26,0-5,5.38-2.62,5.38-2.62.41-1.75,2.27-2.44,4.45-2.62a30.77,30.77,0,0,1,8.43.91c4.25-6.84,6.87-1,6.87-1,3.87-5.87,6.43-.25,6.43-.25,2.18-4.75,6.82-.25,6.82-.25,3.52-3,5.21-1.18,5.92.26a4.12,4.12,0,0,0,2.38,2c3.39,1.15,5.2.6,5.2.6-5.89-5.08-19.31-13.1-30.29-18.54.4-3,.71-6,.89-9.1h0c6-.65,7.27,3.9,7.27,3.9,5-1.5,5,3.5,5,3.5,7.24-2,6.37,3.37,6.37,3.37,5.37-.87,6.37,2.5,6.37,4s9.13,8.5,9.13,8.5c-3.87-7-14.25-32.13-15.63-44.91s-7.87-28.84-13.24-36.46-15.13-11.88-15.13-11.88c15.37-4,12.87,3.25,12.87,3.25,6.76-2,5,5.13,5,5.13,6.63-.88,3.76,4.74,3.76,4.74,6.37-1,4.24,6.38,4.24,6.38,5.38,1.12,2.5,7,2.5,7,5.13-.25,2.5,6.25,2.5,6.25,5.88,2.13,1,5.5,1,5.5,6.88,2.63,2.38,7.5,2.38,7.5,5.62,1,1.62,5.75,1.62,5.75,5.76,1.25,2,7.25,2,7.25,4.26.25,2.13,6.13,2.13,6.13,4.87-1.26,3.13,6.5,3.13,6.5,3.12,1.62,1.87,3.74,2,5.62s4.5,8.88,4.5,8.88c-.88-5.5-1-20.76-1.36-26.63s3.6-49.5,4.23-57.25-7-18.12-3.13-17.12,9.76,8.62,9.38,10.87-2.12,2.13-2.12,2.13a9.2,9.2,0,0,1,3.74,3.5c1,2.12-3,3.12-3,3.12a3,3,0,0,1,2.13,2.75c.13,2.25-2.25,3.63-2.25,3.63a2.86,2.86,0,0,1,2.25,2.62c.37,2.38-2.13,2.88-2.13,2.88a21.91,21.91,0,0,1,1.76,4.87c.62,2.75-2.76,3.25-2.76,3.25s1.5.62,1.88,3.62C680.77,247.78,679,247.74,678,247.55Z"
       transform="translate(-445.5 -121.26)"
       id="path2212" />
    <path
       class="cls-3"
       d="M783.68,245.5s2.13,4.38-1.37,13.25S765.57,288.3,754.19,293l-.25.11c-.2-1.95-.35-4.1-.43-6.4,1.47-.29,2.67-.69,3-1.23,0,0-3.5-4.87,4-5.12,0,0,.62-4,5.5-4,0,0-.75-6.13,5-4.88,0,0-2.38-5.44,3.12-5.66,0,0-1.25-6.21,3.25-5.21,0,0-1.87-5.25,2.88-6C780.31,254.63,780.18,247.25,783.68,245.5Z"
       transform="translate(-445.5 -121.26)"
       id="path2214" />
    <path
       class="cls-3"
       d="M769.58,343c7.17,13.5,19.52,51.17,8.34,77-10.25,23.67-42.5,23.17-53.5,2.5s2.66-37.5,9-52.67,7.33-36.5-14.5-36.33c-19.72.15-21.09,18.52-21.17,22.07h-.11c-.84-6,3.51-25.56,17.89-31.25a23.87,23.87,0,0,1,11-1.45c26,2.31,23.75,40.12,13.25,57.95s-13.1,33.06-1.83,42c10.91,8.67,20.46,3.17,20.46,3.17,22.66-11.5,13.37-55.5,5.2-73.33A237.43,237.43,0,0,1,751.23,320c3.21.45,6.45,1,9.52,1.7A146.9,146.9,0,0,0,769.58,343Z"
       transform="translate(-445.5 -121.26)"
       id="path2216" />
    <path
       class="cls-3"
       d="M690.68,315.5c.53,4-1.28,11.21-1.84,13.29-.56-2.09-2.37-9.26-1.84-13.29.57-4.35,1.25-7.34,1.84-10.31C689.44,308.16,690.11,311.15,690.68,315.5Z"
       transform="translate(-445.5 -121.26)"
       id="path2218" />
    <path
       class="cls-3"
       d="M666.34,327.52c11.18,6.88,14.24,22.67,13.44,28.07h-.12c-.08-3.55-1.44-21.92-21.16-22.07-21.83-.17-20.83,21.17-14.5,36.33s20,32,9,52.67-45,24.33-53.5-2.5,1.17-63.5,8.33-77a142.64,142.64,0,0,0,8.41-20c3.37-.6,6.64-1.26,9.63-1.88a240.62,240.62,0,0,1-12,31.54c-8.16,17.83-17.83,63,4.84,74.5,0,0,10.33,5.5,20.83-4.34s8.67-24.16-1.83-42-12-54.14,14.08-56.45A23.24,23.24,0,0,1,666.34,327.52Z"
       transform="translate(-445.5 -121.26)"
       id="path2220" />
    <path
       class="cls-3"
       d="M557.51,217.9l0,0c-1.16.15-2.36.28-3.61.4-.93.09-1.82.16-2.68.22-2.81.2-5.3.25-7.49.19a40.34,40.34,0,0,1-7.79-.85c-7.62-1.69-9-5.36-10-6.89-1.5-2.33-39.83,6.33-33.5,33.67s27.33,24.66,52.83,2S596.83,229,604.67,233s27.33,17.33,27.66,45.83c0,2.9,0,5.78-.23,8.65-.18,3.06-.49,6.09-.89,9.1a154.49,154.49,0,0,1-3.33,17.21,30.77,30.77,0,0,0-8.43-.91c1.25-4.34,2.19-8.09,2.72-10.71a90.31,90.31,0,0,0,1.32-9.15c.19-1.93.35-4.07.43-6.34.54-16.19-2.65-39.55-23.42-49,0,0-26-11.84-61.83,22.33s-81.84-15-35.17-48.33c0,0,8.67-5.84,24.67-8,0,0-.67-3.67,3-3.17s37.42,10.37,52.81,8.39a.37.37,0,0,1,.26.66,28.53,28.53,0,0,1-3.55,2.09,45.67,45.67,0,0,1-5,2.16c-1.59.58-3.4,1.16-5.45,1.71s-4.14,1-6.56,1.48c-1.88.35-3.9.66-6.08.94Z"
       transform="translate(-445.5 -121.26)"
       id="path2222" />
    <path
       class="cls-3"
       d="M623.92,286.68c-.08,2.27-.24,4.41-.43,6.34-11.38-4.72-24.61-25.4-28.11-34.27S594,245.5,594,245.5c3.5,1.75,3.38,9.12,3.38,9.12,4.74.76,2.87,6,2.87,6,4.5-1,3.25,5.22,3.25,5.22,5.5.22,3.12,5.66,3.12,5.66,5.76-1.25,5,4.88,5,4.88,4.88,0,5.5,4,5.5,4,7.5.24,4,5.12,4,5.12A5.18,5.18,0,0,0,623.92,286.68Z"
       transform="translate(-445.5 -121.26)"
       id="path2224" />
    <path
       class="cls-3"
       d="M580.69,211.64s0,2.36-1.44,3.44-3.59-1.28-3.59-1.28A45.67,45.67,0,0,0,580.69,211.64Z"
       transform="translate(-445.5 -121.26)"
       id="path2226" />
    <path
       class="cls-3"
       d="M575.66,213.8a3.86,3.86,0,0,1-1.41,3.37c-1.75,1.58-4-1.66-4-1.66C572.26,215,574.07,214.38,575.66,213.8Z"
       transform="translate(-445.5 -121.26)"
       id="path2228" />
    <path
       class="cls-3"
       d="M570.21,215.51l-1.46,2.57c-1.38,2.44-4.72-.72-5.07-1.06a0,0,0,0,1,0,0l0,0C566.07,216.54,568.25,216,570.21,215.51Z"
       transform="translate(-445.5 -121.26)"
       id="path2230" />
    <path
       class="cls-3"
       d="M563.68,217c.11.17.48,1-.68,3.26s-4.14-.88-5.15-2a.76.76,0,0,0-.28-.35c2.18-.28,4.2-.59,6.08-.94l0,0A0,0,0,0,0,563.68,217Z"
       transform="translate(-445.5 -121.26)"
       id="path2232" />
    <path
       class="cls-3"
       d="M557.85,218.28c.16.41,0,1.21-1.43,2.64-2.5,2.41-5.18-2.37-5.18-2.37.86-.06,1.75-.13,2.68-.22,1.25-.12,2.45-.25,3.61-.4Z"
       transform="translate(-445.5 -121.26)"
       id="path2234" />
    <path
       class="cls-3"
       d="M551.24,218.55s-.16,4-2.41,4.12-5.08-3.92-5.08-3.92h0C545.94,218.8,548.43,218.75,551.24,218.55Z"
       transform="translate(-445.5 -121.26)"
       id="path2236" />
    <path
       class="cls-3"
       d="M543.75,218.74h0s-.33,3.25-3.08,3.08-4.39-3.87-4.71-3.94A40.34,40.34,0,0,0,543.75,218.74Z"
       transform="translate(-445.5 -121.26)"
       id="path2238" />
    <path
       class="cls-4"
       d="M689,304.38c0,.27-.1.54-.16.81-.59,3-1.27,6-1.84,10.31-.53,4,1.28,11.2,1.84,13.29,0,.1,0,.19.07.27l.08.3"
       transform="translate(-445.5 -121.26)"
       id="path2240" />
    <path
       class="cls-4"
       d="M688.77,329.05c-1.29-1.74-7.16-10-7.27-14.67,0,0,2.62.12,2.25-2.38s-.5-4.25-4-4.5c0,0,2.87-.75,2.37-3.5-.47-2.58-2.14-1.86-2.35-1.77"
       transform="translate(-445.5 -121.26)"
       id="path2242" />
    <path
       class="cls-4"
       d="M689,329.38v0a1.49,1.49,0,0,1-.15-.21l-.07-.09"
       transform="translate(-445.5 -121.26)"
       id="path2244" />
    <path
       class="cls-4"
       d="M678,247.55c1,.19,2.73.23,2.46-1.93-.38-3-1.88-3.62-1.88-3.62s3.38-.5,2.76-3.25a21.91,21.91,0,0,0-1.76-4.87s2.5-.5,2.13-2.88a2.86,2.86,0,0,0-2.25-2.62s2.38-1.38,2.25-3.63a3,3,0,0,0-2.13-2.75s4-1,3-3.12a9.2,9.2,0,0,0-3.74-3.5s1.74.12,2.12-2.13-5.5-9.87-9.38-10.87,3.76,9.37,3.13,17.12-4.58,51.38-4.23,57.25.48,21.13,1.36,26.63c0,0-4.38-7-4.5-8.88s1.12-4-2-5.62c0,0,1.74-7.76-3.13-6.5,0,0,2.13-5.88-2.13-6.13,0,0,3.76-6-2-7.25,0,0,4-4.75-1.62-5.75,0,0,4.5-4.87-2.38-7.5,0,0,4.88-3.37-1-5.5,0,0,2.63-6.5-2.5-6.25,0,0,2.88-5.88-2.5-7,0,0,2.13-7.38-4.24-6.38,0,0,2.87-5.62-3.76-4.74,0,0,1.76-7.13-5-5.13,0,0,2.5-7.25-12.87-3.25,0,0,9.75,4.25,15.13,11.88s11.87,23.68,13.24,36.46,11.76,37.91,15.63,44.91c0,0-9.13-7-9.13-8.5s-1-4.87-6.37-4c0,0,.87-5.37-6.37-3.37,0,0,0-5-5-3.5,0,0-1.29-4.55-7.27-3.9h0"
       transform="translate(-445.5 -121.26)"
       id="path2246" />
    <path
       class="cls-4"
       d="M678,247.54a5.32,5.32,0,0,1-.65-.16S677.64,247.25,678,247.54Z"
       transform="translate(-445.5 -121.26)"
       id="path2248" />
    <line
       class="cls-4"
       x1="232.53"
       y1="126.28"
       x2="232.54"
       y2="126.29"
       id="line2250" />
    <path
       class="cls-4"
       d="M677.58,255.14c1,0,3-.5,2.17-3.89-.61-2.42-1.24-3.36-1.71-3.7"
       transform="translate(-445.5 -121.26)"
       id="path2252" />
    <path
       class="cls-4"
       d="M677.58,255.14a2.87,2.87,0,0,1-.58,0A.67.67,0,0,1,677.58,255.14Z"
       transform="translate(-445.5 -121.26)"
       id="path2254" />
    <path
       class="cls-4"
       d="M679.75,302.25l0,0c.32-.29,3.85-3.7-1.77-5.61,0,0-1.62-1.24,2.38-2.24,0,0,1.37-2.26-3.26-4.5,0,0,6.38-3.38-.87-7.5a3.86,3.86,0,0,0,2.75-3.76,2.51,2.51,0,0,0-2.75-2.87s3.13-1.25,2.5-3.37a8.35,8.35,0,0,0-2.5-3.63s2-.37,2.63-3.25-1.76-3.5-1.76-3.5,3.63-1.5,2.26-4.5c-.75-1.61-1.38-2.18-1.8-2.36"
       transform="translate(-445.5 -121.26)"
       id="path2256" />
    <path
       class="cls-4"
       d="M623.49,293c-11.38-4.72-24.61-25.4-28.11-34.27S594,245.5,594,245.5c3.5,1.75,3.38,9.12,3.38,9.12,4.74.76,2.87,6,2.87,6,4.5-1,3.25,5.22,3.25,5.22,5.5.22,3.12,5.66,3.12,5.66,5.76-1.25,5,4.88,5,4.88,4.88,0,5.5,4,5.5,4,7.5.24,4,5.12,4,5.12a5.18,5.18,0,0,0,2.8,1.18"
       transform="translate(-445.5 -121.26)"
       id="path2258" />
    <path
       class="cls-4"
       d="M631.21,296.58c11,5.44,24.4,13.46,30.29,18.54,0,0-1.81.55-5.2-.6a4.12,4.12,0,0,1-2.38-2c-.71-1.44-2.4-3.26-5.92-.26,0,0-4.64-4.5-6.82.25,0,0-2.56-5.62-6.43.25,0,0-2.62-5.8-6.87,1"
       transform="translate(-445.5 -121.26)"
       id="path2260" />
    <path
       class="cls-4"
       d="M619.45,312.88c-2.18.18-4,.87-4.45,2.62,0,0-5.38-2.38-5.38,2.62,0,0-4.5-4.24-6,1.26,0,0-4.5-2.26-5.37.87,0,0-3.75-3.13-6.25-.5,0,0-2.3-3.37-6.21-.37,0,0-7.79-1.88-9.17-5.38,0,0-3,6.62,11.38,10.38,6.89,1.79,18,.46,28.24-1.37,3.37-.6,6.64-1.26,9.63-1.88,6.87-1.43,12.25-2.64,13.88-2.51,4.5.38,14-1.83,26.59,8.9"
       transform="translate(-445.5 -121.26)"
       id="path2262" />
    <path
       class="cls-4"
       d="M688.68,304.37c.05.27.11.55.16.82.6,3,1.27,6,1.84,10.31.53,4-1.28,11.21-1.84,13.29,0,.1-.05.18-.07.26h0l-.08.29"
       transform="translate(-445.5 -121.26)"
       id="path2264" />
    <path
       class="cls-4"
       d="M688.68,329.37v0l.15-.2.07-.09c1.25-1.7,7.16-10,7.27-14.69,0,0-2.62.13-2.25-2.37s.5-4.25,4-4.5c0,0-2.87-.75-2.37-3.5.47-2.58,2.14-1.86,2.35-1.77"
       transform="translate(-445.5 -121.26)"
       id="path2266" />
    <path
       class="cls-4"
       d="M699.63,247.55c-1,.19-2.71.22-2.45-1.93.38-3,1.88-3.62,1.88-3.62s-3.38-.5-2.75-3.25a21.82,21.82,0,0,1,1.75-4.88s-2.5-.5-2.13-2.87a2.88,2.88,0,0,1,2.25-2.63s-2.37-1.37-2.25-3.62a3,3,0,0,1,2.13-2.75s-4-1-3-3.13a9.28,9.28,0,0,1,3.75-3.5s-1.75.13-2.13-2.12,5.5-9.88,9.38-10.88-3.75,9.38-3.13,17.13,4.58,51.37,4.23,57.25-.48,21.12-1.35,26.62c0,0,4.37-7,4.5-8.87s-1.13-4,2-5.63c0,0-1.75-7.75,3.12-6.5,0,0-2.12-5.87,2.13-6.12,0,0-3.75-6,2-7.25,0,0-4-4.75,1.62-5.75,0,0-4.5-4.88,2.38-7.5,0,0-4.88-3.38,1-5.5,0,0-2.63-6.5,2.5-6.25,0,0-2.88-5.88,2.5-7,0,0-2.13-7.38,4.25-6.38,0,0-2.88-5.62,3.75-4.75,0,0-1.75-7.12,5-5.12,0,0-2.5-7.25,12.87-3.25,0,0-9.75,4.25-15.12,11.87s-11.88,23.69-13.25,36.47-11.75,37.91-15.63,44.91c0,0,9.13-7,9.13-8.5s1-4.88,6.37-4c0,0-.87-5.38,6.38-3.38,0,0,0-5,5-3.5,0,0,1.24-4.41,7-3.91"
       transform="translate(-445.5 -121.26)"
       id="path2268" />
    <path
       class="cls-4"
       d="M699.65,247.54c.39-.3.66-.17.66-.17A4.27,4.27,0,0,1,699.65,247.54Z"
       transform="translate(-445.5 -121.26)"
       id="path2270" />
    <path
       class="cls-4"
       d="M699.65,247.54a0,0,0,0,1,0,0h0"
       transform="translate(-445.5 -121.26)"
       id="path2272" />
    <path
       class="cls-4"
       d="M700.1,255.14c-1,0-3-.51-2.17-3.89.6-2.39,1.24-3.34,1.7-3.7"
       transform="translate(-445.5 -121.26)"
       id="path2274" />
    <path
       class="cls-4"
       d="M700.1,255.14a.67.67,0,0,1,.58,0A2.87,2.87,0,0,1,700.1,255.14Z"
       transform="translate(-445.5 -121.26)"
       id="path2276" />
    <path
       class="cls-4"
       d="M697.93,302.25h0c-.32-.29-3.84-3.7,1.77-5.61,0,0,1.63-1.25-2.37-2.25,0,0-1.38-2.25,3.25-4.5,0,0-6.38-3.37.87-7.5a3.85,3.85,0,0,1-2.75-3.75,2.51,2.51,0,0,1,2.75-2.87s-3.12-1.25-2.5-3.38a8.36,8.36,0,0,1,2.5-3.62s-2-.38-2.62-3.25,1.75-3.5,1.75-3.5-3.63-1.5-2.25-4.5c.74-1.61,1.37-2.18,1.79-2.36"
       transform="translate(-445.5 -121.26)"
       id="path2278" />
    <path
       class="cls-4"
       d="M753.51,286.73c1.47-.29,2.67-.69,3-1.23,0,0-3.5-4.87,4-5.12,0,0,.62-4,5.5-4,0,0-.75-6.13,5-4.88,0,0-2.38-5.44,3.12-5.66,0,0-1.25-6.21,3.25-5.21,0,0-1.87-5.25,2.88-6,0,0-.13-7.38,3.37-9.13,0,0,2.13,4.38-1.37,13.25S765.57,288.3,754.19,293l-.25.11"
       transform="translate(-445.5 -121.26)"
       id="path2280" />
    <path
       class="cls-4"
       d="M746.22,296.7c-10.92,5.44-24.2,13.38-30,18.42,0,0,1.81.55,5.2-.6a4.12,4.12,0,0,0,2.38-2c.71-1.44,2.41-3.26,5.92-.26,0,0,4.64-4.5,6.82.25,0,0,2.56-5.63,6.43.25,0,0,1.57-4.88,5.86-2.09"
       transform="translate(-445.5 -121.26)"
       id="path2282" />
    <path
       class="cls-4"
       d="M758,312.88c3.47-1.36,4.78,3.12,4.78,3.12,5.13-4.12,4.63,1.25,4.63,1.25,2.87-4,5.74,1.06,5.74,1.06,3.38-4.44,6.63,1.31,6.63,1.31,2.26-5.37,6.87-.5,6.87-.5,1.06-5.42,5.07-2.24,5.07-2.24a4.15,4.15,0,0,1,3.81-3c4.12-5.88,6.5,1.37,6.5,1.37-8.75,11.63-25.62,11-36.38,7.75-1.55-.47-3.18-.89-4.87-1.26-3.07-.7-6.31-1.25-9.52-1.7-7.28-1-14.43-1.44-19.11-1.66-7.87-.38-16.59,5.95-16.59,5.95"
       transform="translate(-445.5 -121.26)"
       id="path2284" />
    <path
       class="cls-5"
       d="M557.51,217.9l0,0c-1.16.15-2.36.28-3.61.4-.93.09-1.82.16-2.68.22-2.81.2-5.3.25-7.49.19a40.34,40.34,0,0,1-7.79-.85c-7.62-1.69-9-5.36-10-6.89-1.5-2.33-39.83,6.33-33.5,33.67s27.33,24.66,52.83,2S596.83,229,604.67,233s27.33,17.33,27.66,45.83c0,2.9,0,5.78-.23,8.65-.18,3.06-.49,6.09-.89,9.1a154.49,154.49,0,0,1-3.33,17.21,30.77,30.77,0,0,0-8.43-.91c1.25-4.34,2.19-8.09,2.72-10.71a90.31,90.31,0,0,0,1.32-9.15c.19-1.93.35-4.07.43-6.34.54-16.19-2.65-39.55-23.42-49,0,0-26-11.84-61.83,22.33s-81.84-15-35.17-48.33c0,0,8.67-5.84,24.67-8,0,0-.67-3.67,3-3.17s37.42,10.37,52.81,8.39a.37.37,0,0,1,.26.66,28.53,28.53,0,0,1-3.55,2.09,45.67,45.67,0,0,1-5,2.16c-1.59.58-3.4,1.16-5.45,1.71s-4.14,1-6.56,1.48c-1.88.35-3.9.66-6.08.94l-.06,0h0"
       transform="translate(-445.5 -121.26)"
       id="path2286" />
    <path
       class="cls-5"
       d="M679.67,356.17c0-.18.08-.37.11-.58.8-5.4-2.26-21.19-13.44-28.07a23.24,23.24,0,0,0-14.59-3.14c-26,2.31-24.58,38.62-14.08,56.45s12.33,32.17,1.83,42-20.83,4.34-20.83,4.34c-22.67-11.5-13-56.67-4.84-74.5a240.62,240.62,0,0,0,12-31.54"
       transform="translate(-445.5 -121.26)"
       id="path2288" />
    <path
       class="cls-5"
       d="M557.57,217.93h0"
       transform="translate(-445.5 -121.26)"
       id="path2290" />
    <path
       class="cls-5"
       d="M616.24,323a142.64,142.64,0,0,1-8.41,20c-7.16,13.5-16.83,50.17-8.33,77s42.5,23.17,53.5,2.5-2.67-37.5-9-52.67-7.33-36.5,14.5-36.33c19.72.15,21.08,18.52,21.16,22.07h0a.32.32,0,0,1-.5.26c-25.21-16.13-28.83-.17-28.83-.17,2.34-1,21.34-7.5,19.17,17.16s-2.37,58.65-1.83,62.34c1.66,11.55,7.89,41.32,11.16,51.33,3.81,11.63,9,39.33,9,39.33"
       transform="translate(-445.5 -121.26)"
       id="path2292" />
    <path
       class="cls-5"
       d="M797.36,210.42a17.16,17.16,0,0,1-3.13-2.35.66.66,0,0,1,.54-1.14c15.3,1.71,45.5-9,52.48-8.43,3.69.32,2.32,3.51,2.32,3.51,5.81.79,10.63,1.25,14.6,2.16,10.18,2.33,21.6,9.44,25.83,19,15.75,35.58-20.67,56.62-50.5,35.21-25.25-18.13-26.4-22.77-51.5-23.63-7.33-.25-14.7,4-20,8.67-12.8,11.27-14.93,29.8-14.46,43.31.08,2.3.23,4.45.43,6.4a89.89,89.89,0,0,0,1.31,9c.53,2.62,1.47,6.37,2.72,10.71-3.47,1.37-8.47-1.71-8.47-1.71a7.32,7.32,0,0,0-.71-.51c-1.06-4.54-1.93-9.21-2.57-14-.41-3.05-.72-6.13-.91-9.24q-.27-4.29-.23-8.63c.34-28.5,19.09-43.41,26.92-47.41s33.41-12.56,62.12,14.46c22.76,21.4,44.32,19.82,50.8-1.21,8.82-28.67-30.59-41.34-35.5-33.67a6.34,6.34,0,0,1-3.47,2.92,22,22,0,0,1-5.13,1.24c-1.7.25-3.77.44-6.31.57-1.94.09-4.15.15-6.68.16-1.76,0-3.67,0-5.75-.06l-1.25,0c-2.19-.07-4.21-.21-6.08-.4-2.1-.22-4-.51-5.73-.85a47.44,47.44,0,0,1-5.86-1.52A29.11,29.11,0,0,1,797.36,210.42Z"
       transform="translate(-445.5 -121.26)"
       id="path2294" />
    <path
       class="cls-5"
       d="M697.75,356.17c0-.18-.08-.37-.11-.59-.84-6,3.51-25.56,17.89-31.25a23.87,23.87,0,0,1,11-1.45c26,2.31,23.75,40.12,13.25,57.95s-13.1,33.06-1.83,42c10.91,8.67,20.46,3.17,20.46,3.17,22.66-11.5,13.37-55.5,5.2-73.33A237.43,237.43,0,0,1,751.23,320"
       transform="translate(-445.5 -121.26)"
       id="path2296" />
    <path
       class="cls-5"
       d="M760.75,321.74A146.9,146.9,0,0,0,769.58,343c7.17,13.5,19.52,51.17,8.34,77-10.25,23.67-42.5,23.17-53.5,2.5s2.66-37.5,9-52.67,7.33-36.5-14.5-36.33c-19.72.15-21.09,18.52-21.17,22.07a.32.32,0,0,0,.5.27c25.21-16.13,28.83-.17,28.83-.17-2.33-1-21.33-7.5-19.16,17.16s2.36,58.65,1.83,62.34c-1.67,11.55-7.89,41.32-11.17,51.33-3.8,11.63-9,39.33-9,39.33"
       transform="translate(-445.5 -121.26)"
       id="path2298" />
    <path
       class="cls-4"
       d="M820.83,215.8h0c.12.3,1.61,3.93,4.41,3.85s2.5-1.06,2.58-3.78c0,0,.92,4,3.92,3.78s2.68-1.72,2.76-3.94c0,0,2,4.45,4.32,3.94s2.56-2.85,2-4.51c0,0,1.6,1.67,3.35,1.26s1.78-2.5,1.78-2.5"
       transform="translate(-445.5 -121.26)"
       id="path2300" />
    <path
       class="cls-4"
       d="M803.16,213h0c-.09.18-1.24,2.57.68,3.14s4.22.08,5.19-1.63a3.21,3.21,0,0,0,2.81,3.21c2.26.36,2.26.36,2.92-2.36,0,0,.83,3.53,3.92,3.36a2.13,2.13,0,0,0,2.17-2.93"
       transform="translate(-445.5 -121.26)"
       id="path2302" />
    <path
       class="cls-4"
       d="M797.36,210.42s-1.28,3.5,1.81,3.33a10.29,10.29,0,0,0,4-.72"
       transform="translate(-445.5 -121.26)"
       id="path2304" />
    <path
       class="cls-4"
       d="M584.24,209.55a1.43,1.43,0,0,1-.91,2.09,4,4,0,0,1-2.64,0s0,2.36-1.44,3.44-3.59-1.28-3.59-1.28a3.86,3.86,0,0,1-1.41,3.37c-1.75,1.58-4-1.66-4-1.66l-1.46,2.57c-1.38,2.44-4.72-.72-5.07-1.06"
       transform="translate(-445.5 -121.26)"
       id="path2306" />
    <path
       class="cls-4"
       d="M563.65,217l0,0a0,0,0,0,0,0,0c.11.17.48,1-.68,3.26s-4.14-.88-5.15-2l-.32-.35"
       transform="translate(-445.5 -121.26)"
       id="path2308" />
    <path
       class="cls-4"
       d="M557.57,217.93a.76.76,0,0,1,.28.35c.16.41,0,1.21-1.43,2.64-2.5,2.41-5.18-2.37-5.18-2.37s-.16,4-2.41,4.12-5.08-3.92-5.08-3.92-.33,3.25-3.08,3.08-4.39-3.87-4.71-3.94"
       transform="translate(-445.5 -121.26)"
       id="path2310" />
  </g>
  <g
     id="Layer_9"
     data-name="Layer 9">
    <path
       class="cls-4"
       d="M661,315s10.5,6.67,11.83,11.17"
       transform="translate(-445.5 -121.26)"
       id="path2313" />
    <path
       class="cls-4"
       d="M669.33,313.79a34.85,34.85,0,0,1,5,9.22"
       transform="translate(-445.5 -121.26)"
       id="path2315" />
    <path
       class="cls-4"
       d="M672.83,307.33a105.88,105.88,0,0,1,3.5,13.25"
       transform="translate(-445.5 -121.26)"
       id="path2317" />
    <path
       class="cls-4"
       d="M699.5,324.33a105.44,105.44,0,0,0,6.31-21"
       transform="translate(-445.5 -121.26)"
       id="path2319" />
    <path
       class="cls-4"
       d="M703.83,321.74a7.13,7.13,0,0,1,2-3.34"
       transform="translate(-445.5 -121.26)"
       id="path2321" />
    <path
       class="cls-4"
       d="M707.08,315.73a27.8,27.8,0,0,1,3.08-4.15"
       transform="translate(-445.5 -121.26)"
       id="path2323" />
    <path
       class="cls-4"
       d="M705.17,325a12.86,12.86,0,0,1,3.46-3.91"
       transform="translate(-445.5 -121.26)"
       id="path2325" />
    <path
       class="cls-4"
       d="M709.42,319.33a65.56,65.56,0,0,1,6.91-4.33"
       transform="translate(-445.5 -121.26)"
       id="path2327" />
    <path
       class="cls-6"
       d="M673,378.17a29.64,29.64,0,0,0,2.93-5.54,64.51,64.51,0,0,0,4-13.54s-5.65,5.17-5.73,8.08.51,4.2,1.77,5.46"
       transform="translate(-445.5 -121.26)"
       id="path2329" />
    <path
       class="cls-6"
       d="M697.08,360.5s2.58,11.08,4.83,11.17.33-8.92-3.5-13.25C698.42,358.42,696.67,355.58,697.08,360.5Z"
       transform="translate(-445.5 -121.26)"
       id="path2331" />
    <path
       class="cls-4"
       d="M603.17,320.58s5-.08,7.25-1.67"
       transform="translate(-445.5 -121.26)"
       id="path2333" />
    <path
       class="cls-4"
       d="M613.83,317.67a50.09,50.09,0,0,1,11.83-2.42"
       transform="translate(-445.5 -121.26)"
       id="path2335" />
    <path
       class="cls-4"
       d="M630.83,314.33a17.34,17.34,0,0,0,4.75,0"
       transform="translate(-445.5 -121.26)"
       id="path2337" />
    <path
       class="cls-4"
       d="M640.25,313.79a27.84,27.84,0,0,1,6.92.54"
       transform="translate(-445.5 -121.26)"
       id="path2339" />
    <path
       class="cls-4"
       d="M650.92,314.52a13.39,13.39,0,0,0,4.41-.47"
       transform="translate(-445.5 -121.26)"
       id="path2341" />
    <path
       class="cls-4"
       d="M742.93,312.75a38.44,38.44,0,0,1,6.7,1.44"
       transform="translate(-445.5 -121.26)"
       id="path2343" />
    <path
       class="cls-4"
       d="M754.81,315a13.77,13.77,0,0,0,4,.44"
       transform="translate(-445.5 -121.26)"
       id="path2345" />
    <path
       class="cls-4"
       d="M769.88,318.69a18.77,18.77,0,0,0,4.31,0"
       transform="translate(-445.5 -121.26)"
       id="path2347" />
    <path
       class="cls-4"
       d="M786.31,320s3.81-.42,5.19-2.42"
       transform="translate(-445.5 -121.26)"
       id="path2349" />
    <path
       class="cls-4"
       d="M728.94,313.23a24.39,24.39,0,0,1,7.06.24"
       transform="translate(-445.5 -121.26)"
       id="path2351" />
    <path
       class="cls-4"
       d="M794.75,316s4-.43,5.56-3.62"
       transform="translate(-445.5 -121.26)"
       id="path2353" />
    <path
       class="cls-4"
       d="M608,274.44a50.14,50.14,0,0,0,13.22,10.91"
       transform="translate(-445.5 -121.26)"
       id="path2355" />
    <path
       class="cls-4"
       d="M601.75,265.56a14.84,14.84,0,0,0,3.56,4.13"
       transform="translate(-445.5 -121.26)"
       id="path2357" />
    <path
       class="cls-4"
       d="M598.31,258.44a5.5,5.5,0,0,0,1.69,3.38"
       transform="translate(-445.5 -121.26)"
       id="path2359" />
    <path
       class="cls-4"
       d="M631.91,290.12a36.26,36.26,0,0,0,6.59,2.32"
       transform="translate(-445.5 -121.26)"
       id="path2361" />
    <path
       class="cls-4"
       d="M641.69,294.31a10.22,10.22,0,0,0,3.56,2.27"
       transform="translate(-445.5 -121.26)"
       id="path2363" />
    <path
       class="cls-4"
       d="M648.44,297.75c.31,0,.19,1.31,1.69,1.5"
       transform="translate(-445.5 -121.26)"
       id="path2365" />
    <path
       class="cls-4"
       d="M728.94,297.88s1.5.19,2.25-1.87"
       transform="translate(-445.5 -121.26)"
       id="path2367" />
    <path
       class="cls-4"
       d="M738.31,293.13s1-.22,1.31-2.19"
       transform="translate(-445.5 -121.26)"
       id="path2369" />
    <path
       class="cls-4"
       d="M756,284.42a6.31,6.31,0,0,0,3.88-2.24"
       transform="translate(-445.5 -121.26)"
       id="path2371" />
    <path
       class="cls-4"
       d="M766.38,276.06s2.43,0,4.68-4.56a10.91,10.91,0,0,0,3.12-5.66,8.41,8.41,0,0,0,3.51-5.15,10.09,10.09,0,0,0,2.62-6.06"
       transform="translate(-445.5 -121.26)"
       id="path2373" />
    <path
       class="cls-4"
       d="M702.38,286.06a19.68,19.68,0,0,0,0-8.75"
       transform="translate(-445.5 -121.26)"
       id="path2375" />
    <path
       class="cls-4"
       d="M699.88,240.81a5.16,5.16,0,0,0,0-3.75"
       transform="translate(-445.5 -121.26)"
       id="path2377" />
    <path
       class="cls-4"
       d="M699.38,234.94s.94-3.06,0-5.37"
       transform="translate(-445.5 -121.26)"
       id="path2379" />
    <path
       class="cls-4"
       d="M698.94,220.69a11.5,11.5,0,0,0,1.3-4.87"
       transform="translate(-445.5 -121.26)"
       id="path2381" />
    <path
       class="cls-4"
       d="M647.94,239.38s.44,1.13.88,2"
       transform="translate(-445.5 -121.26)"
       id="path2383" />
    <path
       class="cls-4"
       d="M650.5,246a6.4,6.4,0,0,0,1.25,2.31"
       transform="translate(-445.5 -121.26)"
       id="path2385" />
    <path
       class="cls-4"
       d="M628.11,216.39s2.81,3.12,5,3.55"
       transform="translate(-445.5 -121.26)"
       id="path2387" />
    <path
       class="cls-4"
       d="M635.38,221.06a4.72,4.72,0,0,0,2.44,2.44"
       transform="translate(-445.5 -121.26)"
       id="path2389" />
    <path
       class="cls-4"
       d="M641.94,228.31c.25.13.58,2.22,2.28,2.26"
       transform="translate(-445.5 -121.26)"
       id="path2391" />
    <path
       class="cls-4"
       d="M652.94,253a3.93,3.93,0,0,0,1.63,2.93"
       transform="translate(-445.5 -121.26)"
       id="path2393" />
    <path
       class="cls-4"
       d="M662.25,282.38c.31,0-.31,2.31,1.19,3.56"
       transform="translate(-445.5 -121.26)"
       id="path2395" />
    <path
       class="cls-4"
       d="M659.31,273.81c0,.19.45,2.16,1.36,2.51"
       transform="translate(-445.5 -121.26)"
       id="path2397" />
    <path
       class="cls-4"
       d="M680.56,310.75a4.73,4.73,0,0,0,1.52,3.58"
       transform="translate(-445.5 -121.26)"
       id="path2399" />
    <path
       class="cls-4"
       d="M676.33,287.38a3.51,3.51,0,0,0,1.08,2.33"
       transform="translate(-445.5 -121.26)"
       id="path2401" />
    <path
       class="cls-4"
       d="M697.93,307.5a5.07,5.07,0,0,0,1-3.12"
       transform="translate(-445.5 -121.26)"
       id="path2403" />
    <path
       class="cls-4"
       d="M724.69,252.44s1-.37,1.25-4.12"
       transform="translate(-445.5 -121.26)"
       id="path2405" />
    <path
       class="cls-4"
       d="M729.38,239.88s1.63-.5,1.44-3.31"
       transform="translate(-445.5 -121.26)"
       id="path2407" />
    <path
       class="cls-4"
       d="M735.69,228.75a39.32,39.32,0,0,0,6.87-8"
       transform="translate(-445.5 -121.26)"
       id="path2409" />
    <path
       class="cls-4"
       d="M721.18,263.25s.95-.44,1.07-2.37"
       transform="translate(-445.5 -121.26)"
       id="path2411" />
  </g>
  <path
     id="shine"
     d="M 1.580033,0.70902129 V 207.0859 c 0,229.66454 239.919997,319.6031 239.919997,319.6031 0,0 239.92,-89.93856 239.92,-319.6031 V 0.70902129 Z"
     style="fill:url(#rg);stroke:#000000;stroke-width:2.41218" />
</svg>
