<?xml version="1.0" encoding="UTF-8" standalone="no"?>
<svg
   viewBox="0 0 483 527.48"
   version="1.1"
   id="svg47217"
   sodipodi:docname="House Stark GoT.svg"
   inkscape:version="1.2.1 (9c6d41e410, 2022-07-14)"
   xmlns:inkscape="http://www.inkscape.org/namespaces/inkscape"
   xmlns:sodipodi="http://sodipodi.sourceforge.net/DTD/sodipodi-0.dtd"
   xmlns="http://www.w3.org/2000/svg"
   xmlns:svg="http://www.w3.org/2000/svg">
  <sodipodi:namedview
     id="namedview47219"
     pagecolor="#ffffff"
     bordercolor="#000000"
     borderopacity="0.25"
     inkscape:showpageshadow="2"
     inkscape:pageopacity="0.0"
     inkscape:pagecheckerboard="0"
     inkscape:deskcolor="#d1d1d1"
     showgrid="false"
     inkscape:zoom="0.79339504"
     inkscape:cx="136.12387"
     inkscape:cy="258.38326"
     inkscape:window-width="1920"
     inkscape:window-height="1017"
     inkscape:window-x="-8"
     inkscape:window-y="-8"
     inkscape:window-maximized="1"
     inkscape:current-layer="svg47217" />
  <defs
     id="defs47087">
    <style
       id="style47085">.cls-1{fill:#d4cdb1;}.cls-2{fill:#7b906f;}.cls-3{fill:none;stroke:#000;stroke-width:3px;}.cls-4{fill:#7f7f7f;}.cls-5{fill:#c6c3bb;}</style>
    <radialGradient
       id="rg"
       gradientUnits="userSpaceOnUse"
       cx="220"
       cy="220"
       r="405"
       gradientTransform="matrix(0.80510068,0,0,0.80302287,-0.03015629,-0.9220137)">
      <stop
         style="stop-color:#ffffff;stop-opacity:.3"
         offset="0"
         id="stop753" />
      <stop
         style="stop-color:#ffffff;stop-opacity:.2"
         offset=".2"
         id="stop755" />
      <stop
         style="stop-color:#666666;stop-opacity:.1"
         offset=".6"
         id="stop757" />
      <stop
         style="stop-color:#000000;stop-opacity:.13"
         offset="1"
         id="stop759" />
    </radialGradient>
  </defs>
  <title
     id="title47089">Stark-Shield</title>
  <g
     id="Layer_4"
     data-name="Layer 4">
    <path
       class="cls-1"
       d="M923,121.76V327.6a313.88,313.88,0,0,1-2.28,38c-.11.93-.24,1.86-.36,2.79s-.24,1.86-.39,2.79c-.46,3.37-1,6.69-1.6,10-.07.44-.15.87-.23,1.31-.16.8-.29,1.6-.45,2.4s-.34,1.79-.51,2.69l-.45,2.22-.24,1.15c-.15.71-.3,1.44-.46,2.15-.54,2.37-1.07,4.71-1.61,7l-.58,2.32-.52,2q-1.53,5.88-3.27,11.61c-.29,1-.59,1.94-.9,2.92l-.6,1.88c-.2.63-.4,1.24-.61,1.86-.37,1.09-.73,2.17-1.1,3.25s-.68,2-1,3l-.81,2.23c-.2.53-.39,1.06-.58,1.58-.36,1-.73,2-1.11,3l-.19.5c-.43,1.14-.87,2.25-1.32,3.36s-.87,2.17-1.31,3.2c0,.15-.12.28-.18.42-.4,1-.8,2-1.25,3s-.76,1.75-1.13,2.62l-.66,1.49c-.48,1.07-1,2.11-1.44,3.15s-.9,2-1.36,2.93l-1,2.12c-.29.63-.6,1.25-.91,1.87-.63,1.33-1.31,2.64-2,4q-2.52,5-5.19,9.77l-2,3.57-.12.21c-1.42,2.47-2.86,4.92-4.33,7.33-.71,1.2-1.46,2.4-2.18,3.54-.11.16-.2.32-.3.47-.55.89-1.12,1.78-1.69,2.66l-.65,1c-.65,1-1.31,2-2,3l-.13.18c-.65,1-1.31,2-2,3l-.45.67q-2.25,3.29-4.54,6.46l-.31.43c-.8,1.07-1.54,2.14-2.31,3.19s-1.66,2.23-2.5,3.32c-1.52,2-3.06,4-4.61,6l-.81,1q-1.09,1.39-2.22,2.76L850,525.61l-.57.69c-.8.94-1.6,1.87-2.41,2.8q-2.82,3.32-5.72,6.53c-.75.85-1.52,1.69-2.29,2.51s-1.47,1.6-2.22,2.4q-3,3.2-5.93,6.24-2.76,2.82-5.53,5.59c-.92.91-1.84,1.82-2.76,2.71s-1.85,1.78-2.79,2.66l-2.28,2.12c-.68.65-1.36,1.28-2,1.91a449.24,449.24,0,0,1-61.76,47.47c-.86.55-1.72,1.1-2.57,1.6q-6.43,4.06-12.47,7.63l-2.41,1.4-2.36,1.37-2.33,1.34-2.23,1.29c-8.34,4.68-15.9,8.59-22.38,11.76l-1.6.8c-10.64,5.15-18.12,8.22-21,9.35l-.42.17-.61.24-.14,0h-.08l-.23-.09-.21,0-1.07-.42-.54-.23c-.87-.34-2-.8-3.37-1.38l-.46-.18c-1.76-.8-3.89-1.67-6.33-2.77l-1.39-.61a442.25,442.25,0,0,1-39.75-20.6c-.8-.44-1.6-.92-2.35-1.38a474,474,0,0,1-44.78-30l-2.63-2c-1-.75-2-1.51-2.94-2.29l-2.81-2.21c-6.19-4.92-12.43-10.15-18.64-15.69L554.08,565q-2.31-2.05-4.59-4.2l-1.67-1.57L546,557.54l-2-1.94c-1.12-1.07-2.23-2.17-3.33-3.27-.85-.79-1.69-1.66-2.52-2.5l-.24-.26c-.84-.83-1.67-1.67-2.5-2.51-.66-.68-1.32-1.36-2-2l-2-2.06-.13-.15-2.1-2.25q-3.36-3.6-6.66-7.36c-.68-.79-1.36-1.54-2.05-2.34-.57-.65-1.12-1.29-1.66-1.94q-1-1.2-2-2.4-4.28-5.1-8.39-10.48c-.76-1-1.5-1.93-2.24-2.92-1.89-2.47-3.73-5-5.57-7.55-.55-.8-1.12-1.59-1.68-2.39-.13-.16-.24-.34-.36-.5-.59-.86-1.19-1.7-1.77-2.56-.94-1.38-1.89-2.77-2.81-4.17-.74-1.09-1.47-2.2-2.19-3.31a1,1,0,0,0-.15-.24l-2.22-3.48-.22-.36c-.7-1.14-1.41-2.27-2.1-3.4s-1.49-2.46-2.21-3.71-1.43-2.39-2.13-3.67q-4.61-8-8.77-16.46c-.35-.69-.69-1.38-1-2.09-.22-.44-.44-.88-.65-1.35-.43-.87-.8-1.74-1.25-2.63a25.91,25.91,0,0,1-1.15-2.47l-.23-.48c-.27-.58-.53-1.16-.81-1.75l-.26-.57c-.27-.59-.52-1.19-.8-1.78q-1.44-3.25-2.79-6.57c-.42-1-.8-2-1.23-3.08-.1-.25-.21-.52-.31-.79-.4-1-.8-2-1.16-3s-.69-1.82-1-2.74l-.24-.65-.07-.19c-.15-.38-.28-.78-.42-1.16q-1-2.7-1.9-5.44c-.21-.6-.4-1.2-.6-1.8-.26-.8-.51-1.54-.75-2.32-.14-.41-.27-.8-.4-1.22-.25-.8-.49-1.59-.75-2.39-.31-1-.61-2.06-.92-3.11-.19-.64-.39-1.28-.57-1.95-.37-1.29-.74-2.58-1.09-3.89-.19-.68-.37-1.35-.55-2-.13-.5-.27-1-.4-1.51-.32-1.22-.62-2.45-.92-3.7-.18-.7-.34-1.4-.52-2.11-.07-.28-.13-.56-.19-.85-.37-1.55-.72-3.11-1.07-4.69-.26-1.16-.5-2.33-.74-3.5-.13-.71-.29-1.43-.42-2.14s-.32-1.59-.48-2.45a1.86,1.86,0,0,0-.09-.47c-.16-.8-.3-1.64-.45-2.48s-.32-1.84-.48-2.77-.29-1.8-.45-2.71q-.86-5.52-1.55-11.18A312.7,312.7,0,0,1,443,327.58V121.76Z"
       transform="translate(-441.5 -120.26)"
       id="path47091" />
  </g>
  <g
     id="Layer_5"
     data-name="Layer 5">
    <path
       class="cls-2"
       d="M905,429.72c-.2.53-.39,1.07-.58,1.59-.36,1-.73,2-1.11,3l-.19.5c-.43,1.15-.87,2.27-1.32,3.38s-.87,2.18-1.31,3.22c0,.15-.12.28-.18.42-.4,1-.8,2-1.25,3s-.76,1.76-1.13,2.64l-.66,1.5c-.48,1.08-1,2.12-1.44,3.17s-.9,2-1.36,2.95l-1,2.13c-.29.63-.6,1.26-.91,1.88-.63,1.34-1.31,2.66-2,4q-2.52,5-5.19,9.84l-2,3.59-.12.21c-1.42,2.49-2.86,5-4.33,7.38-.71,1.21-1.46,2.42-2.18,3.56-.11.16-.2.32-.3.47-.55.9-1.12,1.79-1.69,2.68l-.65,1c-.65,1-1.31,2-2,3l-.13.18c-.65,1-1.31,2-2,3l-.45.67q-2.25,3.31-4.54,6.5l-.31.43c-.8,1.08-1.54,2.15-2.31,3.21s-1.66,2.24-2.5,3.34c-1.52,2-3.06,4-4.61,6l-.81,1q-1.09,1.4-2.22,2.78L850,524.8l-.57.69c-.8.95-1.6,1.88-2.41,2.82q-2.82,3.34-5.72,6.57c-.75.86-1.52,1.7-2.29,2.53s-1.47,1.61-2.22,2.42q-3,3.22-5.93,6.28-2.76,2.84-5.53,5.63c-.92.92-1.84,1.83-2.76,2.73s-1.85,1.79-2.79,2.68l-2.28,2.13c-.68.65-1.36,1.29-2,1.92A449.6,449.6,0,0,1,753.67,609c-.86.55-1.72,1.11-2.57,1.61q-6.43,4.09-12.47,7.68l-2.41,1.41-2.36,1.38-2.33,1.35-2.23,1.3c-8.34,4.71-15.9,8.65-22.38,11.84l-1.6.81c-10.64,5.18-18.12,8.27-21,9.41l-.42.17-.61.24-.14.05h-.08l-.23-.09-.21,0-1.07-.42-.54-.23c-.87-.34-2-.81-3.37-1.39l-.46-.18c-1.76-.81-3.89-1.68-6.33-2.79l-1.39-.61a441.18,441.18,0,0,1-39.75-20.74c-.8-.44-1.6-.93-2.35-1.39a473.75,473.75,0,0,1-44.78-30.18l-2.63-2c-1-.76-2-1.52-2.94-2.31l-2.81-2.22c-6.19-5-12.43-10.22-18.64-15.79l-1.51-1.37q-2.31-2.07-4.59-4.23l-1.67-1.58L546,556.95l-2-2c-1.12-1.08-2.23-2.18-3.33-3.29-.85-.8-1.69-1.67-2.52-2.52l-.24-.26c-.84-.84-1.67-1.68-2.5-2.53-.66-.68-1.32-1.37-2-2.06l-2-2.07-.13-.15-2.1-2.27q-3.36-3.62-6.66-7.41c-.68-.8-1.36-1.55-2.05-2.36-.57-.65-1.12-1.3-1.66-2q-1-1.21-2-2.42-4.28-5.13-8.39-10.55c-.76-1-1.5-1.94-2.24-2.94-1.89-2.49-3.73-5-5.57-7.6-.55-.81-1.12-1.6-1.68-2.41-.13-.16-.24-.34-.36-.5-.59-.87-1.19-1.71-1.77-2.58-.94-1.39-1.89-2.79-2.81-4.2-.74-1.1-1.47-2.21-2.19-3.33a1,1,0,0,0-.15-.24l-2.22-3.5-.22-.36c-.7-1.15-1.41-2.29-2.1-3.42s-1.49-2.48-2.21-3.73-1.43-2.41-2.13-3.69q-4.61-8-8.77-16.57c-.35-.69-.69-1.39-1-2.1-.22-.44-.44-.89-.65-1.36-.43-.88-.8-1.75-1.25-2.65a26.17,26.17,0,0,1-1.15-2.49l-.23-.48c-.27-.58-.53-1.17-.81-1.76l-.26-.57c-.27-.59-.52-1.2-.8-1.79q-1.44-3.28-2.79-6.61c-.42-1-.8-2.06-1.23-3.1-.1-.25-.21-.52-.31-.8-.4-1-.8-2-1.16-3s-.69-1.83-1-2.76l-.24-.65-.07-.19Z"
       transform="translate(-441.5 -120.26)"
       id="path47094" />
  </g>
  <g
     id="Layer_6"
     data-name="Layer 6">
    <path
       class="cls-3"
       d="M923,121.76V327.6a313.88,313.88,0,0,1-2.28,38c-.11.93-.24,1.86-.36,2.79s-.24,1.86-.39,2.79c-.46,3.37-1,6.69-1.6,10-.07.44-.15.87-.23,1.31-.16.8-.29,1.6-.45,2.4s-.34,1.79-.51,2.69l-.45,2.22-.24,1.15c-.15.71-.3,1.44-.46,2.15-.54,2.37-1.07,4.71-1.61,7l-.58,2.32-.52,2q-1.53,5.88-3.27,11.61c-.29,1-.59,1.94-.9,2.92l-.6,1.88c-.2.63-.4,1.24-.61,1.86-.37,1.09-.73,2.17-1.1,3.25s-.68,2-1,3l-.81,2.23c-.2.53-.39,1.06-.58,1.58-.36,1-.73,2-1.11,3l-.19.5c-.43,1.14-.87,2.25-1.32,3.36s-.87,2.17-1.31,3.2c0,.15-.12.28-.18.42-.4,1-.8,2-1.25,3s-.76,1.75-1.13,2.62l-.66,1.49c-.48,1.07-1,2.11-1.44,3.15s-.9,2-1.36,2.93l-1,2.12c-.29.63-.6,1.25-.91,1.87-.63,1.33-1.31,2.64-2,4q-2.52,5-5.19,9.77l-2,3.57-.12.21c-1.42,2.47-2.86,4.92-4.33,7.33-.71,1.2-1.46,2.4-2.18,3.54-.11.16-.2.32-.3.47-.55.89-1.12,1.78-1.69,2.66l-.65,1c-.65,1-1.31,2-2,3l-.13.18c-.65,1-1.31,2-2,3l-.45.67q-2.25,3.29-4.54,6.46l-.31.43c-.8,1.07-1.54,2.14-2.31,3.19s-1.66,2.23-2.5,3.32c-1.52,2-3.06,4-4.61,6l-.81,1q-1.09,1.39-2.22,2.76L850,525.61l-.57.69c-.8.94-1.6,1.87-2.41,2.8q-2.82,3.32-5.72,6.53c-.75.85-1.52,1.69-2.29,2.51s-1.47,1.6-2.22,2.4q-3,3.2-5.93,6.24-2.76,2.82-5.53,5.59c-.92.91-1.84,1.82-2.76,2.71s-1.85,1.78-2.79,2.66l-2.28,2.12c-.68.65-1.36,1.28-2,1.91a449.24,449.24,0,0,1-61.76,47.47c-.86.55-1.72,1.1-2.57,1.6q-6.43,4.06-12.47,7.63l-2.41,1.4-2.36,1.37-2.33,1.34-2.23,1.29c-8.34,4.68-15.9,8.59-22.38,11.76l-1.6.8c-10.64,5.15-18.12,8.22-21,9.35l-.42.17-.61.24-.14,0h-.08l-.23-.09-.21,0-1.07-.42-.54-.23c-.87-.34-2-.8-3.37-1.38l-.46-.18c-1.76-.8-3.89-1.67-6.33-2.77l-1.39-.61a442.25,442.25,0,0,1-39.75-20.6c-.8-.44-1.6-.92-2.35-1.38a474,474,0,0,1-44.78-30l-2.63-2c-1-.75-2-1.51-2.94-2.29l-2.81-2.21c-6.19-4.92-12.43-10.15-18.64-15.69L554.08,565q-2.31-2.05-4.59-4.2l-1.67-1.57L546,557.54l-2-1.94c-1.12-1.07-2.23-2.17-3.33-3.27-.85-.79-1.69-1.66-2.52-2.5l-.24-.26c-.84-.83-1.67-1.67-2.5-2.51-.66-.68-1.32-1.36-2-2l-2-2.06-.13-.15-2.1-2.25q-3.36-3.6-6.66-7.36c-.68-.79-1.36-1.54-2.05-2.34-.57-.65-1.12-1.29-1.66-1.94q-1-1.2-2-2.4-4.28-5.1-8.39-10.48c-.76-1-1.5-1.93-2.24-2.92-1.89-2.47-3.73-5-5.57-7.55-.55-.8-1.12-1.59-1.68-2.39-.13-.16-.24-.34-.36-.5-.59-.86-1.19-1.7-1.77-2.56-.94-1.38-1.89-2.77-2.81-4.17-.74-1.09-1.47-2.2-2.19-3.31a1,1,0,0,0-.15-.24l-2.22-3.48-.22-.36c-.7-1.14-1.41-2.27-2.1-3.4s-1.49-2.46-2.21-3.71-1.43-2.39-2.13-3.67q-4.61-8-8.77-16.46c-.35-.69-.69-1.38-1-2.09-.22-.44-.44-.88-.65-1.35-.43-.87-.8-1.74-1.25-2.63a25.91,25.91,0,0,1-1.15-2.47l-.23-.48c-.27-.58-.53-1.16-.81-1.75l-.26-.57c-.27-.59-.52-1.19-.8-1.78q-1.44-3.25-2.79-6.57c-.42-1-.8-2-1.23-3.08-.1-.25-.21-.52-.31-.79-.4-1-.8-2-1.16-3s-.69-1.82-1-2.74l-.24-.65-.07-.19c-.15-.38-.28-.78-.42-1.16q-1-2.7-1.9-5.44c-.21-.6-.4-1.2-.6-1.8-.26-.8-.51-1.54-.75-2.32-.14-.41-.27-.8-.4-1.22-.25-.8-.49-1.59-.75-2.39-.31-1-.61-2.06-.92-3.11-.19-.64-.39-1.28-.57-1.95-.37-1.29-.74-2.58-1.09-3.89-.19-.68-.37-1.35-.55-2-.13-.5-.27-1-.4-1.51-.32-1.22-.62-2.45-.92-3.7-.18-.7-.34-1.4-.52-2.11-.07-.28-.13-.56-.19-.85-.37-1.55-.72-3.11-1.07-4.69-.26-1.16-.5-2.33-.74-3.5-.13-.71-.29-1.43-.42-2.14s-.32-1.59-.48-2.45a1.86,1.86,0,0,0-.09-.47c-.16-.8-.3-1.64-.45-2.48s-.32-1.84-.48-2.77-.29-1.8-.45-2.71q-.86-5.52-1.55-11.18A312.7,312.7,0,0,1,443,327.58V121.76Z"
       transform="translate(-441.5 -120.26)"
       id="path47097" />
  </g>
  <g
     id="Layer_11"
     data-name="Layer 11">
    <path
       d="M637.5,480.67s-16-25.33-15.83-50.33c0,0-19.5,1.5-25.17,0a89.83,89.83,0,0,0,.67-13.5c-.33-5.67-.5-7.39,2.83-13.11,0,0-9,3.94-14.5,3.61s-19.5.83-20.83,3.5c0,0,4.33-7,4.5-11s.67-18.07.67-18.07-17.38.89-18.83,1.24c-1.15.28-6.83,2.47-9.17,4.74,0,0,3.67-6.9,3.83-10.9,0,0-1.17-14.42.5-16.63a24.44,24.44,0,0,0,2.85-5.54S532.83,357,530.17,357s-11.83,3.21-11.83,3.21S523,356,523,353.42s.33-12.58,2.5-18.17c0,0-7.33.42-9.67,2.42,0,0,4.17-5,4.83-8s-17.83-.28-32-17.47c0,0,24.08,6.81,38.21-9,0,0-17.71-10.17-18.37-13.83,0,0,14.76,9.41,45.13-5.87,0,0-18.46-10.59-20-15.28,0,0,9.5,10.48,50.33-4.35,0,0-20.86-9.83-22.6-14.17,0,0,11.73,14.17,49.92-6,0,0-17.16-6.83-18.16-14,0,0,19.17,11.67,51-.83,0,0-13.33-11-15.67-16.67,0,0,16.3,13.08,49.49,6,0,0-13.65-14.62-14-22.79,0,0,25.83,23,47.17,17.33s22.67-5.83,26.17-5.5,47,13.83,61,16.33c0,0,6.5,2.67,13.83,13.67,0,0,26,3,33.67,6.67s20,7.81,29.67,5.82c0,0,2.5,7.77-4.83,16a38,38,0,0,0-3.33,8.49c-1.33,5-5.67,3.54-9.17,8.21a46.46,46.46,0,0,1-11.67,10.86s-3.17,17.09-20.33,16.45c0,0,6.17-7,5.5-13,0,0-8.67,5.7-15.33,5.51,0,0,.17-7-2.17-9s-10.08,2.45-12,6.55c0,0-2.84-9.8-5.07-11.27,0,0-4.88,7-9.05,7.7,0,0-6.5-5.17-7.84-8.42,0,0-4.05-1.62-9.67,5.44,0,0-6.53-3.7-6.92-10.17,0,0-8.74,3-7.74,8.22s7.83,10.08,14.67,4.75c0,0,2.85.56,2.34,9.53,0,0,4.82-.67,7-3.35,0,0,4.67-.51,5.67,12.32,0,0,7.12-.38,11.48-4.86a16,16,0,0,1,3.74,10.86,41.74,41.74,0,0,0,7-5.33s3.17,6.62,4.75,8.65c0,0,8.71-6.15,11.44-9.15,0,0,3.56-1.83,4.81,0s-1.27,16-11.26,22c0,0-.72,14.5-16.77,22.83,0,0-6.55,1.67-8.22,9.67,0,0-2.67-6-.17-16.33,0,0-11.53-2.5-15.51,4,0,0,3.18-4.5,3-13.42,0,0-13.17-16.75-30-5.42a55.24,55.24,0,0,0-24.33,43.17s-6.17-6.17-7.17-12.83c0,0-14.85,11.67-12.18,38.83,0,0-7-11.5-7.91-18.5,0,0-21.83,15.33-12.29,46.83,0,0-9.29-10-11.29-18.67,0,0-17.46,18.33-13.4,40,0,0-7.43-8.75-9.43-15.1C651.83,441.74,636.83,450.83,637.5,480.67Z"
       transform="translate(-441.5 -120.26)"
       id="path47100" />
  </g>
  <g
     id="Layer_7"
     data-name="Layer 7">
    <path
       class="cls-4"
       d="M633.5,464.67s-8.83-21.33-5.17-34.17,19-11.67,19-11.67,2.5,16.17,2.67,17.83S637,445.17,633.5,464.67Z"
       transform="translate(-441.5 -120.26)"
       id="path47103" />
    <path
       class="cls-4"
       d="M657.83,441.74s-6-12.74-4.67-24.4c0,0,13.33-3.83,19.5-11.33v5.5S659,427,657.83,441.74Z"
       transform="translate(-441.5 -120.26)"
       id="path47105" />
    <path
       class="cls-4"
       d="M679.33,416.83s-7.33-20.5-1-35.67c0,0,10,.33,17.83-6.33V384S681.17,399,679.33,416.83Z"
       transform="translate(-441.5 -120.26)"
       id="path47107" />
    <path
       class="cls-4"
       d="M702.83,389.83s-4.33-19.33,1.67-28.33c0,0,9.33-2,12.83-6v7.83S706.67,369.17,702.83,389.83Z"
       transform="translate(-441.5 -120.26)"
       id="path47109" />
    <path
       class="cls-4"
       d="M600.88,427.75s1.77-3.1,1.15-14a14.12,14.12,0,0,1,1.86-8.06,12.28,12.28,0,0,1,6.75-5.45c8.13-2.75,15,1.54,23-4.42,0,0,1.13,14-1,18.92-1.87,4.29-5.05,8.38-12.1,11.68a14.29,14.29,0,0,1-6.07,1.32Z"
       transform="translate(-441.5 -120.26)"
       id="path47111" />
    <path
       class="cls-4"
       d="M637.5,416a93.82,93.82,0,0,0,.63-14.12c-.37-6,5-10.87,11.38-11.5s15.13-6.75,17.38-7.87,6.5-.62,6.5-.62-1.76,9.62-2.37,18.38C670.44,408.33,649.13,415.5,637.5,416Z"
       transform="translate(-441.5 -120.26)"
       id="path47113" />
    <path
       class="cls-4"
       d="M575,403.33a1.47,1.47,0,0,1-1.56-1.51c.1-2.78.38-8.87,1-16.19.77-8.68,10.31-11.51,12.38-12.75,2.25-1.35,13.38.75,15.75-1.12,0,0-2,5.78-1.75,10s1.79,11.07-1.21,14.57-6.29,6.42-11.42,7.17C583.56,404.19,580.58,403,575,403.33Z"
       transform="translate(-441.5 -120.26)"
       id="path47115" />
    <path
       class="cls-4"
       d="M549.13,378.75c-.48.14.7-9.49,1.13-15.75.42-6.08,6.7-7.63,9.13-8.62,3.13-1.28,14.88.5,19.25-1.75,0,0,1,8.38-.5,13.06s-2.5,10.69-11.87,12.44S554.63,377.13,549.13,378.75Z"
       transform="translate(-441.5 -120.26)"
       id="path47117" />
    <path
       class="cls-4"
       d="M639.5,390.67s-.83-10-2-13.33-3.71-13.34,8.43-21.27a8,8,0,0,1,2.41-1c2.29-.58,7.31-1.44,15.82-.86,0,0,3.86,24.49-7.2,29.91a7.46,7.46,0,0,1-2.64.67C651.64,385,645.35,387.24,639.5,390.67Z"
       transform="translate(-441.5 -120.26)"
       id="path47119" />
    <path
       class="cls-4"
       d="M605.67,397.33s-.84-17.25,0-21.83c.67-3.68,4.17-8.29,11-9.81s14.51-2,17.26-2.85c0,0-1.91,8.67,0,14.83s1.91,13-3.09,15.33S608.83,394.83,605.67,397.33Z"
       transform="translate(-441.5 -120.26)"
       id="path47121" />
    <path
       class="cls-4"
       d="M667.13,379.13s1.25-16.5,1-21.75,8.63-14.67,20.38-13.92c0,0,.75,16.58-1.87,19.38a11.5,11.5,0,0,0-2.87,6.42s5.63-2,7.75-5.12,6.75-1.29,6.75-1.29,0,11.67-11.62,13.29S670.5,377.75,667.13,379.13Z"
       transform="translate(-441.5 -120.26)"
       id="path47123" />
    <path
       class="cls-4"
       d="M691.28,360.21s-.7-13.69,3.8-16.75a35.49,35.49,0,0,1,8-3.88,2.14,2.14,0,0,1,2.8,1.85c.16,1.76.54,4,1.42,4.89,0,0,2.14-4.75,5.22-5.58s8.54-1.66,8.54-1.66-2.85,12-6.88,14.24S694.37,360.09,691.28,360.21Z"
       transform="translate(-441.5 -120.26)"
       id="path47125" />
    <path
       class="cls-4"
       d="M580.38,370.25s3.13-11.17,3.5-16.27,6.38-11.85,15.5-13.1,11.88-1.79,11.88-1.79.5,18.33-1.12,21.12S606,367,600,368.38,583.63,368.75,580.38,370.25Z"
       transform="translate(-441.5 -120.26)"
       id="path47127" />
    <path
       class="cls-4"
       d="M613.5,361.29a44.52,44.52,0,0,0,1-13c-.5-7.37,3-16,12.88-18.5s10.5-.12,17.63-2.5c0,0-.62,16.13-2.5,20.63s-4.25,10.5-10.25,11.38S615.75,359.21,613.5,361.29Z"
       transform="translate(-441.5 -120.26)"
       id="path47129" />
    <path
       class="cls-4"
       d="M645.63,351.5s1.75-10.75,2-15.37,5.5-13.75,12.63-14.87,10.51.5,16.63-2.25c0,0,.5,15.29-2.25,20.08s-3.87,9.71-10.62,10.56S649.25,349.75,645.63,351.5Z"
       transform="translate(-441.5 -120.26)"
       id="path47131" />
    <path
       class="cls-4"
       d="M676.91,340.13a47.24,47.24,0,0,0,2.71-12.87c.25-6.37,6.75-13.12,13.38-14.12s12.5-.25,16.88-1.75c0,0,1.25,18.63-1.75,21.63S704.95,340,676.91,340.13Z"
       transform="translate(-441.5 -120.26)"
       id="path47133" />
    <path
       class="cls-4"
       d="M527.33,353.42s-2.72-16.34,5.08-17.58,11,1.67,21.21-.58c0,0,.21,10.92-2,13.58-2.09,2.48-6.8,4.58-11.48,4.58S531.17,352.42,527.33,353.42Z"
       transform="translate(-441.5 -120.26)"
       id="path47135" />
    <path
       class="cls-4"
       d="M556.13,350.38s-.44-11.68,1.38-15.12c2.1-4,5.21-8.43,9.67-8.75s13.46,2.25,20.52,0c0,0,.44,9.17-1.56,12.58s-2.62,2.42-2.75,3.54,1.63.83,2,.79.71,1.34-5,3.71C575.66,349.08,575.75,352.13,556.13,350.38Z"
       transform="translate(-441.5 -120.26)"
       id="path47137" />
    <path
       class="cls-4"
       d="M590.25,339.83s1.41-9.65,2.25-17.21c.92-8.31,6.69-13.63,11.63-13.87,4.73-.24,11.75,0,17.63-3.37,0,0,0,15.81-2.37,21.13C616.75,332.49,607.58,336.83,590.25,339.83Z"
       transform="translate(-441.5 -120.26)"
       id="path47139" />
    <path
       class="cls-4"
       d="M565.38,322c-.51-.19,3.38-5,5-9.16,1.54-3.91,1.28-13.2,10.4-16.4a6.44,6.44,0,0,1,2.86-.3,57.53,57.53,0,0,0,13.74-.17s-.22,7.28-5.44,10.71a.59.59,0,0,0,.11,1.05,9.39,9.39,0,0,0,3.66,0,.25.25,0,0,1,.22.42c-1.48,1.5-5.48,5.31-6,8.45-.75,4.13.13,4.34-3.62,5.42S575.13,325.57,565.38,322Z"
       transform="translate(-441.5 -120.26)"
       id="path47141" />
    <path
       class="cls-4"
       d="M526.25,330.75s4.83-16.17,13.58-21.42a23.54,23.54,0,0,1-1.39,5.51.2.2,0,0,0,.29.25,12.45,12.45,0,0,1,5.76-2.25c3.17-.17,15.46,1,19.48,2.17,0,0-2.82,7.83-7.9,10.92,0,0,.84,1,3.92.58,0,0-.83,2.5-6,4.25S536.42,333.58,526.25,330.75Z"
       transform="translate(-441.5 -120.26)"
       id="path47143" />
    <path
       class="cls-4"
       d="M623.88,327.25c0,.26.32-15.71,1.88-19.25,1-2.28,2.75-8.54,11.45-11.27a16.67,16.67,0,0,1,5-.71c3.79,0,11.65-.17,13.44-1.39,0,0-2.5,4.75-2.62,6.13s.88,13.88-.25,15.63S644.63,327.88,623.88,327.25Z"
       transform="translate(-441.5 -120.26)"
       id="path47145" />
    <path
       class="cls-4"
       d="M598.92,303.42s4-10.33,6-14.83c1.41-3.18,8.25-10.25,12.83-11.83s8,2,15.17-.42c0,0-.25,10.33-.75,11.83s-4.75,13.75-15.25,15.75S598.92,303.42,598.92,303.42Z"
       transform="translate(-441.5 -120.26)"
       id="path47147" />
    <path
       class="cls-4"
       d="M654.5,319s1.5-12.75,2.17-17.92,7.75-11,10.46-11.42,13.71.33,15.88-.33l1.17,7.3a26.3,26.3,0,0,1,.34,4.73c-.07,3.27-.47,8.56-2.26,10.46a21.59,21.59,0,0,1-5.43,3.76,13.82,13.82,0,0,1-5.63,1.54C666.35,317.4,656.38,318.06,654.5,319Z"
       transform="translate(-441.5 -120.26)"
       id="path47149" />
    <path
       class="cls-4"
       d="M632.92,293.38a18.49,18.49,0,0,0,3.33-9.62c.11-4.72-.94-11,5.57-16.67a8.36,8.36,0,0,1,6.38-2c3.62.38,9.29.83,11.43.26,0,0,1.13,19.38,0,21.75s-4.87,4.75-9.62,5.63S636.66,292.25,632.92,293.38Z"
       transform="translate(-441.5 -120.26)"
       id="path47151" />
    <path
       class="cls-4"
       d="M608.42,271.67A23.68,23.68,0,0,0,611,264.5c.67-3.92,4.83-15.25,11.42-16.42s7.83,1.33,13.75.42c0,0-3.53,10-8.65,13.21a.28.28,0,0,0,.14.52c3,0,10.89-.07,13.5.26,0,0-3.58,8.5-7.75,9.75a35,35,0,0,1-15.08.92C613.58,272.25,608.42,271.67,608.42,271.67Z"
       transform="translate(-441.5 -120.26)"
       id="path47153" />
    <path
       class="cls-4"
       d="M608.45,261c.2-1.16,1.43-6.87,7.44-13a.31.31,0,0,0-.35-.51,109.92,109.92,0,0,1-34.32,9.63.31.31,0,0,0-.16.56c2,1.58,9.66,6.31,27.13,3.55A.31.31,0,0,0,608.45,261Z"
       transform="translate(-441.5 -120.26)"
       id="path47155" />
    <path
       class="cls-4"
       d="M579,290.21a1.16,1.16,0,0,1-.18-1.67,14.82,14.82,0,0,0,3-5.29c.67-2.69,2.34-11.68,8-16.14a7.8,7.8,0,0,1,4.07-1.59,97.5,97.5,0,0,1,13.07-.46s-.62,5.18-3.5,7.18a4.49,4.49,0,0,0-2,2.31.84.84,0,0,0,1,1,58.33,58.33,0,0,1,8.63-.83s.17,1.88-5.23,5.63c-3.75,2.6-5.88,7.85-6.83,10.82a3.14,3.14,0,0,1-3,2.18C591.64,293.31,582.53,292.84,579,290.21Z"
       transform="translate(-441.5 -120.26)"
       id="path47157" />
    <path
       class="cls-4"
       d="M547.83,310.33a.88.88,0,0,1-.43-1.37c2.15-2.85,8.37-11.22,10-14.72,2-4.25,13.67-8.42,18.17-9.17,0,0-.76,6.1-4.92,8.05a.21.21,0,0,0,0,.4,10.18,10.18,0,0,0,4.33,0,.21.21,0,0,1,.23.31c-.8,1.21-3,4.56-4.28,6.92a86.13,86.13,0,0,0-3.78,9.61,2.61,2.61,0,0,1-2.35,1.77C561.57,312.28,554.26,312.35,547.83,310.33Z"
       transform="translate(-441.5 -120.26)"
       id="path47159" />
    <path
       class="cls-4"
       d="M524.07,324.62c.93-3.37,3.84-10.75,12.45-17.25a1.3,1.3,0,0,0,0-2.07c-.83-.6-2.25-1.05-4.64-.37-4.67,1.33-6.75,9.75-29.58,12.83,0,0,9.41,9.15,19,9A2.89,2.89,0,0,0,524.07,324.62Z"
       transform="translate(-441.5 -120.26)"
       id="path47161" />
    <path
       class="cls-4"
       d="M547.23,304.06s1.11-7.59,15.46-17.21a.16.16,0,0,0-.12-.3c-2.73.7-10.69,2.71-13,3.07-2.79.43-17.1,4.55-27.57,4.93a.18.18,0,0,0-.15.28C522.75,296.33,528.14,303.61,547.23,304.06Z"
       transform="translate(-441.5 -120.26)"
       id="path47163" />
    <path
       class="cls-4"
       d="M577.13,283.19a78.13,78.13,0,0,1,6.88-15,112.81,112.81,0,0,1-36.77,7.5S555.19,285.19,577.13,283.19Z"
       transform="translate(-441.5 -120.26)"
       id="path47165" />
    <path
       class="cls-4"
       d="M721.07,367.63s-1.57-23.21,4.05-28.54,14.38-4.71,16.5-19.33c0,0-2,5.5-6.62,8.38s-13.37,8-23.87,9.5c0,0,2.63-5.12,2.13-9s-1.37-12.25-.12-14.25,4.29-5,4.21-13c0,0-2.68,5.5-8,6.75s-18.45,1.25-22.08,3.88c0,0,1.5-4.25,1.25-7.12s-1-15.37.63-17.37,3.67-4.62,4.4-7c0,0-7,5.88-10.52,6.13s-15.13-.87-17.38.38-4.36,2.33-4.36,2.33,1.36-3.83,1.61-11.58-.25-10.75,1.38-13.25,5.14-3.12,5.26-5.25a23.09,23.09,0,0,1-6.88,2.63c-3,.38-18.75,3-26.87-2.62,0,0,.38-2.87,3.13-7.5s7.67-7.75,7.65-12.12c0,0-3.9,2.5-8.15,5.5-2.53,1.78-22.62-1.75-25.75-7.12,0,0,35.38-3.5,45.13-8.12,0,0-11.12-1.37-15-6.75,0,0,30.38,2.25,45.13-1.5,0,0-9-5.25-10.75-10.75,0,0,17.25,6.75,28.25,6s26.88-6.5,29.88-6,14.25,1.88,16.88,3.25-1.25,2.25-1.25,2.25-9.25.88-12.75-.87c0,0,3.88,4.38,11.38,3.88s17.25-1.25,22.88.25,6.88,4.63,6.88,4.63-13.25,6-18.5,6H753a20.07,20.07,0,0,0,9,1.13c4.63-.62,12.5-3.37,17.25-3.37s12.25.13,14.88,4.13a8.64,8.64,0,0,1,1.25,7.5s-41.29,0-48.46.88a39.53,39.53,0,0,0,6.58,2.17c3.17.67,14.92,14.58,22.67,16.33,0,0,.58,1.75-4.92,3.67s-29.58,8.67-34.58,26.67l-4.5,11.25s3.58-3.58,4.58-6.33,3-10.75,8-14.83,17.75-11.67,21.5-13.08,9.5-4.5,11.5-4.5,6.33-3.33,6.33-3.33,22.08-11.58,32.33-12.17,35.25-1.67,44.92,16.92c0,0,2.58,1.08,3.33-.25s-1-1.5-.75-2.5,3.42-1.33,3.75-2.42-4.42-1.17-5.92-.58-4.42-4.83-4.33-5.58,15.5-1.17,14.67,2-4.75,10-5.58,10.92-6.17,11.83-8.08,12.58-2.75,2.17-3.75,4.58-6.92,7.83-11.42,8.08-13.5-1.25-18.92-4.08-32.42-14.5-34.67-15.25-3.75-2.25-.25-2.42,3.83-1.42,3.83-1.42-6.25-.42-10.17,1-16.17,2.75-21.08,10.17-15,10.33-21.92,23.25a25.18,25.18,0,0,1,1.67,4.75c.25,1.67.25,7.33.25,7.33s.83-5.25,1.17-8.83,3.92-8.83,5.33-9.17,1.83.92,2.42,4.25,4.33,8.25,5.58,9.08c0,0-.5-1.25-2-4.92s-2.17-7-.58-8.25a152.12,152.12,0,0,0,14.92,14.17c9.08,7.58,41.92,24.08,45,25.67s-2.67,19.42-18.5,22.58a12.79,12.79,0,0,1,3.33-5.42c2.67-2.67.17-9.42.17-9.42s-1.58,5.83-5.17,6.67c-2.45.57-6.18.09-8.3-.27a2.19,2.19,0,0,1-1.79-1.83c-.55-3.4-2.8-11.57-12-14.9-11.75-4.25-22.33-2.08-35.17,10.83S726.39,363.75,721.07,367.63Z"
       transform="translate(-441.5 -120.26)"
       id="path47167" />
    <path
       class="cls-4"
       d="M775.43,255.91c-3.69-2.69-13.59-10.08-16-13.66,0,0,8.42-.58,13.75,2.33s13.42,7.08,15.92,7.5c0,0-3.92,5-10.06,5A6.06,6.06,0,0,1,775.43,255.91Z"
       transform="translate(-441.5 -120.26)"
       id="path47169" />
    <path
       class="cls-4"
       d="M792.33,250.5a38.5,38.5,0,0,0,2.89-7.49.9.9,0,0,1,1.34-.56c1.69,1,5.09,2.76,8,2,0,0-5.5-2.58-5.5-3.75a18.4,18.4,0,0,0-4.17-14.58s6.58-1.17,13.17,14.5c0,0,16.33,1.17,18,.83s1,2.75-4.92,2.25-10.54.58-11.56,1.25S792.83,253.33,792.33,250.5Z"
       transform="translate(-441.5 -120.26)"
       id="path47171" />
  </g>
  <g
     id="Layer_8"
     data-name="Layer 8">
    <path
       d="M792.5,262.13s16.5-6.75,26.13,0,20.63,23.63,30.63,20.38c0,0-13.87,3.38-21.5-6S813.38,261.38,792.5,262.13Z"
       transform="translate(-441.5 -120.26)"
       id="path47174" />
    <path
       d="M809.88,255.63s33-12.75,45.88,17.5C855.75,273.13,844,250.63,809.88,255.63Z"
       transform="translate(-441.5 -120.26)"
       id="path47176" />
    <path
       d="M732,277s-3.62-4.25-7.5-4.5-11.75,1.38-18.37,2.25-16.75,1.13-24.75-7.12-20.5-20-28.12-23.25c0,0-3.29-3.08-.92-8.23a2.84,2.84,0,0,1,2.58-1.64c4,0,14.12-.23,19-2.32a1.15,1.15,0,0,0,.5-1.65,19.08,19.08,0,0,0-3.39-4.16s8.88,1.63,12,.5,14.5-8,26.63-2a5.87,5.87,0,0,1,2.75-6.75s-1.25,4.25.88,4.88,13,9,16.63,19.5c0,0-6.12-6.87-11.37-10.5s-19.12-9.25-29.12-2.75c-9.52,6.19-17.79,8.3-33.33,9a2.31,2.31,0,0,0-2.2,2.52l0,.27a2.31,2.31,0,0,0,1.29,1.86c4.26,2.09,19.22,10,27.83,21.45,10.12,13.5,33.5,3.63,37.75,3.63S729.38,270,732,277Z"
       transform="translate(-441.5 -120.26)"
       id="path47178" />
    <path
       d="M706.38,283.09s13.25.66,14-9c0,0,3.75,2.5.75,7.88S706.38,283.09,706.38,283.09Z"
       transform="translate(-441.5 -120.26)"
       id="path47180" />
    <path
       d="M732.5,263s-5.92-5-10.21-5.42c-4-.35-11.95-.91-19.08,1.52a2.29,2.29,0,0,1-2.58-.8c-1.68-2.25-5.27-6.46-8.9-7.1-5-.87-6.36,1.71-6.36,1.71s-2.37-3.21-4.75-3.33-3.5,3.88-1.87,4.63.75-1.08,2-1.29,3,2.71,4.38,3.37,2-.33,2.75-1.58,4.25-1.12,5.5.5,4.63,7.08,6.88,7.79,11.75-3.29,15.63-2.79,15,5.25,16.13,5.38S733.91,264.15,732.5,263Z"
       transform="translate(-441.5 -120.26)"
       id="path47182" />
    <path
       d="M745.25,263s10.38-13-10.37-16.17c0,0,3.63-2.62,10,.69s11.13,5.56,8.75,11.56S745.25,263,745.25,263Z"
       transform="translate(-441.5 -120.26)"
       id="path47184" />
    <path
       d="M695.5,247.56s-6.62-1.56-9.62-1.06-10.25-2.5-11-5.37c0,0,8.13,2.75,9.38,1.75s-2.89-3.41-1.25-7.12c0,0,5.87,6.63,14.5,6.5,0,0-.62-5.87,2-7.62,0,0,6.75,8,13.75,8.5,0,0,.63-5.12,4.88-7.37,0,0,4.38,9.88,8.38,11.81s6.63,3.44,7.63,2.69a1.75,1.75,0,0,0,.75-1.75,23.63,23.63,0,0,0,2.88,1.95c1.63.93,4.13,4.21,5,4.19s-11.37-3-14.87-3.14S718,242,717,243.63s-.5,4.38,2.38,6.75c0,0-4.87-.75-7.5-2.81s-9.37-6.06-9.37-6.06-.75,2.26.5,3.13,3.38,4.49,3.38,4.49-8-6-14.64-5.62C691.74,243.5,693.5,246.5,695.5,247.56Z"
       transform="translate(-441.5 -120.26)"
       id="path47186" />
    <path
       d="M752.13,307.63s2.25,5.13,6,6.13S795,336,797.5,336.5s3.13,1.13,4.63,1a8,8,0,0,1-5.12,1.38c-3-.25-22.37-15-28.37-16.37s-15.75-6.75-15.87-8.25S750.5,309.88,752.13,307.63Z"
       transform="translate(-441.5 -120.26)"
       id="path47188" />
  </g>
  <g
     id="Layer_9"
     data-name="Layer 9">
    <path
       class="cls-1"
       d="M775.88,242.75s11.63,5.13,13,5.75,3.38-4.5,2.38-6.62S780.5,242.38,775.88,242.75Z"
       transform="translate(-441.5 -120.26)"
       id="path47191" />
    <path
       class="cls-1"
       d="M768.5,276.25s-2.87,5.25-1.5,8.38a21.09,21.09,0,0,0,3.5,5.38,61.24,61.24,0,0,1,6.25-6C779,282.38,773.63,274.75,768.5,276.25Z"
       transform="translate(-441.5 -120.26)"
       id="path47193" />
    <path
       class="cls-1"
       d="M782.75,285.13c-.92.68,2.65,7.08,5.25,8,2,.69,5-4,5.75-6.25C794.45,284.87,787,282,782.75,285.13Z"
       transform="translate(-441.5 -120.26)"
       id="path47195" />
    <path
       class="cls-1"
       d="M803.63,294.75s-3.25-4.12-2.87-7c0,0,7,1.38,7,3.5S803.63,294.75,803.63,294.75Z"
       transform="translate(-441.5 -120.26)"
       id="path47197" />
    <path
       class="cls-1"
       d="M819.25,299.63s-.12-4-.12-7.5c0-1.62,9.63-2.87,9.63-.87S824.63,300.75,819.25,299.63Z"
       transform="translate(-441.5 -120.26)"
       id="path47199" />
    <path
       class="cls-1"
       d="M831,306.38s4.63-6.11,4.75-13.18l7.5.56S838.63,308.63,831,306.38Z"
       transform="translate(-441.5 -120.26)"
       id="path47201" />
    <path
       class="cls-1"
       d="M811,327c.75-1,4.93.37,14-10.12,0,0,1.5,7-3.75,11.88s-8.5,4-10,3S809,329.69,811,327Z"
       transform="translate(-441.5 -120.26)"
       id="path47203" />
    <path
       class="cls-1"
       d="M802.55,324.36a22,22,0,0,0,4-4.92s2.25,3.63,2.13,5.75c-.11,2-3.4,5-6.21,1.17A1.53,1.53,0,0,1,802.55,324.36Z"
       transform="translate(-441.5 -120.26)"
       id="path47205" />
    <path
       class="cls-1"
       d="M788.65,316.65c1.71-.48,5.63-1.68,6.85-2.9,0,0,2.17,5.58,1.25,7.5s-7.32.32-8.7-3.47A.87.87,0,0,1,788.65,316.65Z"
       transform="translate(-441.5 -120.26)"
       id="path47207" />
    <path
       class="cls-1"
       d="M782.25,313.17c.64-.21-1.5-6.33-1.67-7.5a52,52,0,0,1-7,1.75.83.83,0,0,0-.65,1.17C773.87,310.7,776.57,315,782.25,313.17Z"
       transform="translate(-441.5 -120.26)"
       id="path47209" />
    <path
       class="cls-1"
       d="M764.88,300.26a21.4,21.4,0,0,0,5.28-1.43s.75,4,0,5.5-5.22,2.5-6.53-2.12A1.56,1.56,0,0,1,764.88,300.26Z"
       transform="translate(-441.5 -120.26)"
       id="path47211" />
  </g>
  <g
     id="Layer_10"
     data-name="Layer 10">
    <path
       class="cls-5"
       d="M773.5,274.13s6.5,2.63,6.5,8.75c0,0,8.88-3.5,12.25-1.62a13.45,13.45,0,0,1,4.88,4.5s5.25-1.75,7.63,0,2.75,1.88,4.13,4.38c0,0,10,.5,11.63-.87s-14.39-7.69-16.25-9.12C801.89,278.3,782.25,267.13,773.5,274.13Z"
       transform="translate(-441.5 -120.26)"
       id="path47214" />
  </g>
  <path
     id="shine"
     d="M 1.5800447,0.6840319 V 207.06091 c 0,229.66454 239.9199953,319.6031 239.9199953,319.6031 0,0 239.92,-89.93856 239.92,-319.6031 V 0.6840319 Z"
     style="fill:url(#rg);stroke:#000000;stroke-width:2.41218" />
</svg>
