<svg xmlns="http://www.w3.org/2000/svg" xmlns:xlink="http://www.w3.org/1999/xlink" viewBox="0 0 429.2 632.07"><defs><radialGradient id="radial-gradient" cx="306.16" cy="257.33" r="50.29" gradientUnits="userSpaceOnUse"><stop offset="0" stop-color="#f7d8ae"/><stop offset="0.97" stop-color="#e3b79c"/></radialGradient><radialGradient id="radial-gradient-2" cx="217.31" cy="121.79" r="66.09" xlink:href="#radial-gradient"/><radialGradient id="radial-gradient-3" cx="306.19" cy="223.77" r="26.94" xlink:href="#radial-gradient"/><radialGradient id="radial-gradient-4" cx="303.03" cy="474.16" r="116.03" gradientUnits="userSpaceOnUse"><stop offset="0" stop-color="#fff"/><stop offset="0.97" stop-color="#dce6e8"/></radialGradient><radialGradient id="radial-gradient-5" cx="303.01" cy="553.53" r="115.97" gradientUnits="userSpaceOnUse"><stop offset="0" stop-color="#fff"/><stop offset="0.97" stop-color="#f2fdff"/></radialGradient></defs><title>santa-claus</title><g style="isolation:isolate"><g id="objects"><path d="M499.87,539.43c0,14.47-12.58,26.2-28.09,26.2a29.84,29.84,0,0,1-10.68-2,33.07,33.07,0,0,0,3.82-15.17,32,32,0,0,0-7.33-12.25h32.66a30.78,30.78,0,0,0,9.19-1.39A24.59,24.59,0,0,1,499.87,539.43Z" transform="translate(-89.44 -72.14)" style="fill:#b21212"/><path d="M450.7,484.3c-1-53.15-13.21-101.75-36.33-142.65-.22.57-.43,1.15-.66,1.71s-.52,1.32-.79,2c-.8,2-1.64,3.89-2.52,5.78a256.71,256.71,0,0,1,9.42,38.56,301,301,0,0,1,4,49.44c0,19.52-3.22,37-12.87,49.72a45.93,45.93,0,0,1-8.84,8.89c-6.25,4.79-14.14,8.37-24,10.43-1,.1-2.08.19-3.14.26l-120.79.69c-49.68,0-68.18-33.87-68.18-71.49a302.07,302.07,0,0,1,6-61.68q2.07-10,4.9-19.6-2.26-5-4-10-3.3,6.17-6.26,12.54c-16.91,36.5-25.46,78.22-26.2,124.18,0,2.2-.06,4.4-.06,6.62,0,1.17,0,2.34.05,3.5,0,.83,0,1.67.09,2.5s.09,1.84.16,2.75c0,.12,0,.25,0,.38q.1,1.41.24,2.79c.08.84.17,1.68.27,2.51,0,.31.07.62.11.93q.15,1.2.33,2.4c.13.9.27,1.8.43,2.69,0,.14.05.28.07.41.13.74.27,1.47.42,2.2.07.39.15.77.23,1.15.52,2.41,1.11,4.77,1.8,7.1.21.73.44,1.46.67,2.19.49,1.51,1,3,1.58,4.48a28.73,28.73,0,0,1,3.73-.25H437.16a27.44,27.44,0,0,1,8.86,1.46,2.33,2.33,0,0,0,.07-.25c.23-.76.45-1.51.66-2.28.06-.23.13-.46.18-.7q.21-.76.39-1.53c.12-.43.22-.87.31-1.31.16-.64.3-1.28.43-1.93a.18.18,0,0,0,0-.1c.13-.56.24-1.13.35-1.7.21-1.07.4-2.16.57-3.25a.63.63,0,0,0,0-.19c.08-.43.14-.85.2-1.28s.16-1.08.23-1.63c0-.21.06-.42.09-.63.11-.85.21-1.71.31-2.57s.2-1.91.28-2.87c0-.13,0-.25,0-.38.07-.87.14-1.75.2-2.63s.12-1.88.17-2.83c0-.13,0-.26,0-.39.05-.93.08-1.86.11-2.8q0-1.08.06-2.16c0-.49,0-1,0-1.48,0-.84,0-1.68,0-2.52C450.78,489,450.76,486.67,450.7,484.3ZM251.24,513.19c-.27,0-.52,0-.79,0,.61,0,1.23.05,1.85.06Z" transform="translate(-89.44 -72.14)" style="fill:#ff4646"/><path d="M423.78,439.11c0,33.84-9.68,61.49-45.71,69-1,.1-2.08.19-3.14.26l-120.79.69c-49.68,0-68.18-33.87-68.18-71.49,0-29.18,3.57-56.39,10.91-81.28,15.36,33.9,47.45,65,108.09,84.27,1.72.55,1.79,0,1.79,0S380,417,410.4,351.11C419.29,378,423.78,407.67,423.78,439.11Z" transform="translate(-89.44 -72.14)" style="fill:#ff5050"/><path d="M430,298.37c.3,28.57-6.75,52.53-17.59,72.45C378.4,433.31,306.89,456,306.89,456s-.06.56-1.88,0c-61.18-19.06-94.82-49.4-111.82-82.73-12.59-24.67-16.06-51-14.85-75.56,2.1-1.56,4.23-3.1,6.39-4.6-.45,22.4,3.26,46,14.55,68.26,16.2,31.94,48.05,61,105.68,79.26,1.72.55,1.79,0,1.79,0S374.1,418.86,406.47,359a141.85,141.85,0,0,0,16.95-65.69C425.66,294.94,427.87,296.64,430,298.37Z" transform="translate(-89.44 -72.14)" style="fill:#595651;mix-blend-mode:soft-light"/><path d="M197.54,598.35H403.19c-24.08,72.09-41.47,99.76-41.47,99.76H331.35v0c-26.8-58.12-13.55-80-16.38-78.82-14.59,6.31-27.14-6.58-26.32,1.23.73,6.93-18,64.61-22.31,77.61H239S221.63,670.44,197.54,598.35Z" transform="translate(-89.44 -72.14)" style="fill:#ea2626"/><path d="M405.77,590.54c-.86,2.67-1.73,5.26-2.58,7.81H197.54c-.86-2.55-1.71-5.14-2.58-7.81Z" transform="translate(-89.44 -72.14)" style="fill:#cc2b2b"/><path d="M331.34,698.09c-.38-.6-12.56-20.28-30.49-68.56-18.22,49-30.51,68.58-30.51,68.58h-4c4.27-13,23-70.68,22.31-77.61-.82-7.81,11.73,5.08,26.32-1.23C317.79,618.05,304.54,640,331.34,698.09Z" transform="translate(-89.44 -72.14)" style="fill:#bc1e1e"/><path d="M211.31,601.17s15.22,56.47,25.91,60.17S251.21,579.78,211.31,601.17Z" transform="translate(-89.44 -72.14)" style="fill:#afafaf;mix-blend-mode:soft-light"/><path d="M385.83,605.05s-15.21,56.46-25.91,60.17S345.94,583.66,385.83,605.05Z" transform="translate(-89.44 -72.14)" style="fill:#afafaf;mix-blend-mode:soft-light"/><path d="M151.91,534.5a29.46,29.46,0,0,0-2.2,2.13,32.68,32.68,0,0,0-8.61,21.93,32.83,32.83,0,0,0,2.83,6.3,30.09,30.09,0,0,1-5.66.53c-15.52,0-28.09-11.62-28.09-25.95a24,24,0,0,1,.69-5.72,31.1,31.1,0,0,0,6.95.78Z" transform="translate(-89.44 -72.14)" style="fill:#b21212"/><path d="M192.83,346.31q-3.3,6.17-6.26,12.54c-16.91,36.5-25.46,78.22-26.2,124.18H117.82a30.72,30.72,0,0,0-13,2.87,165.82,165.82,0,0,1-5.25-41.43c0-58.33,30.44-110.74,78.81-146.79,2.1-1.56,4.22-3.1,6.38-4.59A156.81,156.81,0,0,0,190,337.25q1.23,4.44,2.79,8.85Z" transform="translate(-89.44 -72.14)" style="fill:#ea2626"/><path d="M187.82,359.26c-17.72,34.67-26.26,74.55-26.26,118.6,0,1.73,0,3.46.13,5.17H144.05c.95-52.62,17.86-104.7,45.92-145.78q1.23,4.44,2.79,8.85Q190.06,352.55,187.82,359.26Z" transform="translate(-89.44 -72.14)" style="fill:#cc2b2b"/><path d="M169.78,534.5h-52a31.1,31.1,0,0,1-6.95-.78A28.21,28.21,0,0,1,92.73,520.8H118l.42,0c.56,0,1.11,0,1.65-.1.75-.07,1.5-.17,2.24-.3a2.38,2.38,0,0,0,.37-.06c.37-.06.73-.13,1.09-.22L124,520a7.2,7.2,0,0,0,.77-.19c.4-.09.79-.19,1.17-.31l.71-.22.66-.22a4.24,4.24,0,0,0,.5-.18l.66-.25.68-.28a28.14,28.14,0,0,0,3.94-2c.61-.37,1.2-.76,1.77-1.18a22.5,22.5,0,0,0,2.1-1.69c.2-.17.4-.35.59-.54a1.69,1.69,0,0,0,.28-.26l.53-.52a24.22,24.22,0,0,0,2.11-2.42c.18-.22.35-.46.51-.69a24.52,24.52,0,0,0,1.67-2.65l.28-.53c.07-.13.13-.27.19-.4s.23-.47.33-.7a22.86,22.86,0,0,0,1.09-2.89l.24-.87c.08-.33.16-.65.23-1s.16-.74.22-1.11.08-.51.11-.77.05-.38.07-.57a21.05,21.05,0,0,0,.14-2.52c0-.31,0-.62,0-.93s0-.44,0-.66,0-.37,0-.56c0-.36-.07-.71-.12-1.06s-.1-.7-.17-1-.13-.68-.21-1v0c-.08-.34-.17-.67-.26-1h0c-.09-.32-.19-.64-.29-1l0-.09-.33-.92c-.12-.33-.25-.65-.39-1,0,0,0,0,0,0q-.37-.87-.81-1.71c-.19-.36-.38-.72-.59-1.07h18.15c0,2.2-.06,4.4-.06,6.62,0,1.17,0,2.34.05,3.5,0,.83,0,1.67.09,2.5s.09,1.84.16,2.75c0,.12,0,.25,0,.38q.1,1.41.24,2.79c.08.84.17,1.68.27,2.51,0,.31.07.62.11.93q.15,1.2.33,2.4c.13.9.27,1.8.43,2.69,0,.14.05.28.07.41.13.74.27,1.47.42,2.2.08.39.16.77.23,1.15.52,2.41,1.11,4.77,1.8,7.1.21.74.44,1.47.67,2.19.49,1.51,1,3,1.58,4.48Q168.13,531.16,169.78,534.5Z" transform="translate(-89.44 -72.14)" style="fill:#e2e2e2"/><path d="M145.52,495.07a23.36,23.36,0,0,1-.14,2.52c0,.19,0,.38-.07.57s-.07.52-.11.77-.13.74-.22,1.11-.15.65-.23,1l-.24.87a22.86,22.86,0,0,1-1.09,2.89c-.1.23-.21.47-.33.7s-.12.27-.19.4l-.28.53a24.52,24.52,0,0,1-1.67,2.65c-.16.23-.33.47-.51.69a24.22,24.22,0,0,1-2.11,2.42l-.53.52a1.69,1.69,0,0,1-.28.26c-.19.19-.39.37-.59.54a22.5,22.5,0,0,1-2.1,1.69c-.57.42-1.16.81-1.77,1.18a28.14,28.14,0,0,1-3.94,2l-.68.28-.66.25a4.24,4.24,0,0,1-.5.18l-.66.22-.71.22c-.38.12-.77.22-1.17.31a7.2,7.2,0,0,1-.77.19l-.24.05c-.36.09-.72.16-1.09.22a2.38,2.38,0,0,1-.37.06c-.74.13-1.48.23-2.24.3-.54.05-1.09.08-1.65.1a3,3,0,0,1-.42,0c-.27,0-.55,0-.83,0H92.73a23.84,23.84,0,0,1-3.29-12,24.53,24.53,0,0,1,8.32-18.2,28.23,28.23,0,0,1,7-4.66,30.72,30.72,0,0,1,13-2.87h24.4c.21.35.4.71.59,1.07q.44.84.81,1.71s0,0,0,0c.14.32.27.64.39,1l.33.92,0,.09c.1.32.2.64.29,1h0c.09.34.18.67.26,1v0c.08.33.15.67.21,1s.12.69.17,1,.09.7.12,1.06c0,.19,0,.37,0,.56s0,.44,0,.66S145.52,494.76,145.52,495.07Z" transform="translate(-89.44 -72.14)" style="fill:#fff"/><path d="M159.92,333.76s-45.57,49.78-41.76,85.94C119.35,431,205.17,291.39,159.92,333.76Z" transform="translate(-89.44 -72.14)" style="fill:#afafaf;mix-blend-mode:soft-light"/><path d="M304.3,571.56c-16.38.77-18.32-32.86-18.22-73.33s-2.92-74,18.58-73.23c23,.87,18.33,32.86,18.23,73.33S330.26,570.34,304.3,571.56Z" transform="translate(-89.44 -72.14)" style="fill:#fff"/><path d="M324.65,275.6c0,2.62-8,4.73-17.9,4.73s-17.91-2.11-17.91-4.73,8-4.73,17.91-4.73S324.65,273,324.65,275.6Z" transform="translate(-89.44 -72.14)" style="fill:#afafaf;mix-blend-mode:soft-light"/><path d="M423.35,293.24c-.56,18.22-3.78,34.41-8.81,47.95-.06.15-.11.31-.17.46-.22.57-.43,1.15-.66,1.71q-1.54,4-3.31,7.75c-1.24,2.69-2.56,5.31-3.94,7.85-32.35,59.9-99.71,81.64-99.71,81.64s-.07.55-1.79,0c-57.63-18.29-89.48-47.31-105.68-79.25h0q-1.28-2.49-2.41-5-2.26-5-4-10l-.07-.21q-1.56-4.41-2.79-8.85a156.81,156.81,0,0,1-5.25-44.16c.85-57.92,27.77-111.31,27.77-111.31s1.06-1.66,3.07-4.4c5.28-6.66,12.79-12.27,21.94-16.77a84.77,84.77,0,0,0-2.72,10.26s-28.47,51.27-26,107.55c.76,17.12,4.39,34.71,12.56,51.45,13,26.73,37.64,51.32,80.62,68.47,1.38.55,1.45.06,1.45.06s55-16.75,83.39-68.49a133.67,133.67,0,0,0,15.55-50.4c3-27.68-1.27-61.25-17.33-101.73,0,0-2.18-5.85-5.85-13.68a64.06,64.06,0,0,1,7.24,5.27,52.92,52.92,0,0,1,10.81,12.41C417.18,223,424.36,261.25,423.35,293.24Z" transform="translate(-89.44 -72.14)" style="fill:#f5fdff"/><path d="M303.45,398.4s-.07.49-1.45-.06c-158.42-63.22-67.22-227.47-67.22-227.47a84.77,84.77,0,0,1,2.72-10.26c18-8.85,42.4-13.44,68.69-13.44,29.54,0,55.39,5.79,73,16.93,3.67,7.83,5.85,13.68,5.85,13.68C454.37,352.47,303.45,398.4,303.45,398.4Z" transform="translate(-89.44 -72.14)" style="fill:#fff"/><path d="M348.92,252.45c-3.43,12.92-12.22,29.8-41.56,29.8-37.15,0-44.42-23.45-45.05-30.64a62.56,62.56,0,0,0,16.19,4.7c4.12,6.28,15.21,10.77,28.25,10.77,12.53,0,23.26-4.15,27.73-10A51.14,51.14,0,0,0,348.92,252.45Z" transform="translate(-89.44 -72.14)" style="fill:url(#radial-gradient)"/><path d="M307.36,282.75c-42.32,0-45.44-29.83-45.55-31.1l-.07-.86.78.36a62.85,62.85,0,0,0,16.06,4.67l.22,0,.12.19c4.14,6.3,15.32,10.54,27.83,10.54,12.07,0,22.79-3.86,27.33-9.85l.12-.15.2,0A50,50,0,0,0,348.69,252l1-.5-.29,1.07C344,272.88,330.26,282.75,307.36,282.75Zm-44.44-30.32c.78,5,6.51,29.32,44.44,29.32,22,0,35.33-9.28,40.78-28.37a51.84,51.84,0,0,1-13.38,4.12c-4.79,6.13-15.75,10.08-28,10.08-12.71,0-24.13-4.34-28.55-10.81A64.49,64.49,0,0,1,262.92,252.43Z" transform="translate(-89.44 -72.14)" style="fill:#201600;mix-blend-mode:soft-light"/><ellipse cx="217.31" cy="121.79" rx="66.58" ry="65.6" style="fill:url(#radial-gradient-2)"/><path d="M352.12,185.4c0,27.33-21.15,49.48-47.25,49.48s-47.25-22.15-47.25-49.48,21.16-49.48,47.25-49.48S352.12,158.07,352.12,185.4Z" transform="translate(-89.44 -72.14)" style="fill:#afafaf;mix-blend-mode:soft-light"/><path d="M346.85,177.83l0,.08c-3.81,8.7-9.46.36-15.5-2.28-5-2.2-13.49.65-14-3.31,1.06,3.48,9.08.46,14.06,2.39,6.14,2.36,12.15,10.38,15.56,1.67A6.63,6.63,0,0,1,346.85,177.83Z" transform="translate(-89.44 -72.14)" style="fill:#fff0dc"/><path d="M346.85,177.83a11.5,11.5,0,0,1-.86,2.77c-3.81,8.7-9.46.36-15.51-2.29s-17.07,2-13.25-6.67a1,1,0,0,1,.07-.15c-.55,5.17,8.67,1.8,14,4.14,6,2.64,11.69,11,15.5,2.28Z" transform="translate(-89.44 -72.14)" style="fill:#e2e2e2;mix-blend-mode:soft-light"/><path d="M346.92,176.38c-3.41,8.71-9.42.69-15.56-1.67-5-1.93-13,1.09-14.06-2.39a2.88,2.88,0,0,1,0-.83c3.84-8.52,12-5.39,18-2.76C340.17,170.86,346.61,171.62,346.92,176.38Z" transform="translate(-89.44 -72.14)" style="fill:#fff"/><path d="M265.2,178.65a11.07,11.07,0,0,0,.85,2.76c3.81,8.71,9.46.36,15.51-2.28s17.07,2,13.25-6.68l-.06-.14c.55,5.16-8.67,1.8-14,4.13-6.05,2.65-11.7,11-15.51,2.29A.26.26,0,0,1,265.2,178.65Z" transform="translate(-89.44 -72.14)" style="fill:#e2e2e2;mix-blend-mode:soft-light"/><path d="M265.2,178.65a.26.26,0,0,0,0,.08c3.81,8.7,9.46.36,15.51-2.29,5-2.19,13.48.65,14-3.3-1.06,3.48-9.09.46-14.07,2.38-6.14,2.36-12.14,10.38-15.56,1.67A6.16,6.16,0,0,0,265.2,178.65Z" transform="translate(-89.44 -72.14)" style="fill:#fff0dc"/><path d="M265.12,177.19c3.42,8.71,9.42.69,15.56-1.67,5-1.92,13,1.1,14.07-2.38a3.83,3.83,0,0,0,0-.83c-3.85-8.52-12-5.39-18-2.76C271.87,171.68,265.44,172.44,265.12,177.19Z" transform="translate(-89.44 -72.14)" style="fill:#fff"/><path d="M300.23,196.91a9.94,9.94,0,1,1-9.94-9.94A9.93,9.93,0,0,1,300.23,196.91Z" transform="translate(-89.44 -72.14)" style="fill:#fff"/><path d="M294.47,197.66a4.18,4.18,0,1,1-4.18-4.18A4.18,4.18,0,0,1,294.47,197.66Z" transform="translate(-89.44 -72.14)" style="fill:#201600"/><path d="M293.88,195.73a1.8,1.8,0,1,1-1.8-1.8A1.79,1.79,0,0,1,293.88,195.73Z" transform="translate(-89.44 -72.14)" style="fill:#fff"/><path d="M331.69,196.91a9.94,9.94,0,1,1-9.93-9.94A9.93,9.93,0,0,1,331.69,196.91Z" transform="translate(-89.44 -72.14)" style="fill:#fff"/><path d="M325.94,197.66a4.18,4.18,0,1,1-4.18-4.18A4.18,4.18,0,0,1,325.94,197.66Z" transform="translate(-89.44 -72.14)" style="fill:#201600"/><path d="M325.35,195.73a1.8,1.8,0,1,1-1.8-1.8A1.8,1.8,0,0,1,325.35,195.73Z" transform="translate(-89.44 -72.14)" style="fill:#fff"/><path d="M396.13,180c-13.72-22.63-46.9-31.19-89.38-31.19s-80.39,9-94.11,31.68a16.94,16.94,0,0,1-.63-4.31c14.74-21.91,52-33.49,94.15-33.49,43.18,0,77.85,10.95,91.8,33.95C398.16,175.91,396.76,177.73,396.13,180Z" transform="translate(-89.44 -72.14)" style="fill:#201600;mix-blend-mode:soft-light"/><path d="M336.7,250.91a10.1,10.1,0,0,1-2.22,6.13c-4.47,5.89-15.2,10-27.73,10-13,0-24.13-4.49-28.25-10.77a9.74,9.74,0,0,1-1.71-5.4c0-7.5,9.43-13.8,22.23-15.63a52.19,52.19,0,0,1,7.73-.55c1.73,0,3.43.08,5.07.23C326,236.26,336.7,242.91,336.7,250.91Z" transform="translate(-89.44 -72.14)" style="fill:#ff4646"/><path d="M305.15,252.64c-3.19,2.87-7.94,4.05-14.86,4.87-37.5,4.45-56.49-25.91-58.88-41.62,3.73,16.48,24.44,41.23,58.88,37.14a49.74,49.74,0,0,0,8.9-1.69c1.65.22,4.23.21,6,.27C305.42,251.92,304.84,252.37,305.15,252.64Z" transform="translate(-89.44 -72.14)" style="fill:#edd7c8"/><path d="M299.18,251.34a49.61,49.61,0,0,1-8.89,1.69c-34.44,4.09-55.15-20.66-58.88-37.14,2-.69,15.47-3.28,25.83,1.74a173.43,173.43,0,0,1,16.09,9.47,13.85,13.85,0,0,0-.44,3.46C272.89,240.77,284.15,249.29,299.18,251.34Z" transform="translate(-89.44 -72.14)" style="fill:#fff"/><path d="M361.55,106.19a12.28,12.28,0,0,1,1.27.41Z" transform="translate(-89.44 -72.14)" style="fill:#cc2b2b"/><path d="M396.19,157.92c-9.75-26-46.94-45.36-91.32-45.36-30.24,0-57.13,9-74.28,22.94h0s1.9-48,69.65-61.65c51.56-10.42,111.88,27.84,120.11,85.55C427.36,208.65,416,168.67,396.19,157.92Z" transform="translate(-89.44 -72.14)" style="fill:#ff4646"/><path d="M362.93,106.64c3.5,1.11,10.82,3.38-1.54-1.26-1.12-.42,1.76,10.9,4.6,21.4,14.79,8,25.58,18.82,30.2,31.14a50.14,50.14,0,0,1,5.58,3.89C391.11,119.7,369,108.85,362.93,106.64Zm-1.38-.45a12.28,12.28,0,0,1,1.27.41Z" transform="translate(-89.44 -72.14)" style="fill:#cc2b2b"/><path d="M439.67,183.43A18.37,18.37,0,0,1,403,185.06a18.37,18.37,0,0,0,35.51-6.6c0-.56,0-1.1-.07-1.64A18.18,18.18,0,0,1,439.67,183.43Z" transform="translate(-89.44 -72.14)" style="fill:#e2e2e2"/><path d="M438.51,178.46a18.37,18.37,0,0,1-35.51,6.6c0-.54-.07-1.08-.07-1.63a18.37,18.37,0,0,1,35.51-6.61C438.49,177.36,438.51,177.9,438.51,178.46Z" transform="translate(-89.44 -72.14)" style="fill:#fff"/><path d="M398.69,171.48c0,1.13-.05,2.25-.16,3.36-.16.75-.34,1.48-.55,2.21-6-9.91-16-17.8-28.88-23.58-17-7.65-39.1-11.6-63.68-11.6-6.57,0-13,.28-19.28.84-33.92,3-62.43,14.16-74.88,32.65a35.62,35.62,0,0,1-.2-3.88c0-13.55,7.28-26,19.53-36,17.15-14,44-22.94,74.28-22.94,23.35,0,44.7,5.36,61.12,14.22,14.79,8,25.58,18.82,30.2,31.14A38.24,38.24,0,0,1,398.69,171.48Z" transform="translate(-89.44 -72.14)" style="fill:#fff"/><path d="M397.26,181.78a50.11,50.11,0,0,0-10.81-12.41,64.06,64.06,0,0,0-7.24-5.27c-17.63-11.14-43.48-16.93-73-16.93-26.29,0-50.68,4.59-68.69,13.44-9.15,4.5-16.66,10.11-21.94,16.77a41.86,41.86,0,0,0-3.07,4.4,38.91,38.91,0,0,1-1.23-6.42,49,49,0,0,1,8.49-9.5,70.34,70.34,0,0,1,13.34-9c2.21-1.18,4.53-2.29,6.94-3.33,13.85-6,30.85-9.7,49.33-11.05,5.24-.39,10.61-.58,16.06-.58,27.82,0,52.43,5.06,70.14,14.81q2.31,1.27,4.46,2.65a55.63,55.63,0,0,1,18,17.72C398.19,176.32,397.89,179.51,397.26,181.78Z" transform="translate(-89.44 -72.14)" style="fill:#e2e2e2"/><path d="M378.93,211.88c0,17.87-19.74,47.65-57.18,46-6.92-.31-11.78-2.68-15.17-6.06a48,48,0,0,0,5.14-.28c15.76-1.68,27.76-10.42,27.76-21a14.21,14.21,0,0,0-1.35-6,159,159,0,0,1,15.1-8.85A44.36,44.36,0,0,1,378.93,211.88Z" transform="translate(-89.44 -72.14)" style="fill:#fff"/><path d="M378.89,215.89c-2.39,15.71-21.44,46.29-58.93,41.84-6.92-.82-11.61-2.22-14.81-5.09-.38-.26-.72-.74-.46-1l1.5.2a52.74,52.74,0,0,0,5.53-.29A52.08,52.08,0,0,0,320,253C354.44,257.12,375.16,232.37,378.89,215.89Z" transform="translate(-89.44 -72.14)" style="fill:#edd7c8"/><path d="M339.48,230.56c0,10.54-12,19.28-27.76,21a48,48,0,0,1-5.14.28H305a6.51,6.51,0,0,1-.77,0c-1.73-.06-3.43-.21-5.08-.43h0c-15-2.05-26.29-10.57-26.29-20.78a13.85,13.85,0,0,1,.44-3.46c2.59-10.09,16.32-17.79,32.86-17.79,15.12,0,27.88,6.44,31.94,15.25A14.21,14.21,0,0,1,339.48,230.56Z" transform="translate(-89.44 -72.14)" style="fill:url(#radial-gradient-3)"/><path d="M323.55,220.4c0,4.44-8,8-17.91,8s-17.9-3.6-17.9-8,8-8,17.9-8S323.55,216,323.55,220.4Z" transform="translate(-89.44 -72.14)" style="fill:#afafaf;mix-blend-mode:soft-light"/><path d="M316.14,219.76c0,3-4.7,5.47-10.5,5.47s-10.49-2.45-10.49-5.47,4.7-5.48,10.49-5.48S316.14,216.73,316.14,219.76Z" transform="translate(-89.44 -72.14)" style="fill:#efefef;mix-blend-mode:soft-light"/><path d="M503.61,443.52a171.72,171.72,0,0,1-5.17,41.89,30.16,30.16,0,0,0-8.19-1.11H450.7c-1-53.15-13.21-101.75-36.33-142.65.06-.15.11-.31.17-.46,5-13.54,8.25-29.73,8.81-47.95l.07.05c2.24,1.65,4.45,3.35,6.61,5.08C475.28,334.45,503.61,386.12,503.61,443.52Z" transform="translate(-89.44 -72.14)" style="fill:#ea2626"/><path d="M466.56,484.3H450.75c0-.92,0-1.84,0-2.77,0-51.66-12.49-98.86-37.07-138.17.23-.56.44-1.14.66-1.71.06-.15.11-.31.17-.46C446.67,380.55,466.37,429.11,466.56,484.3Z" transform="translate(-89.44 -72.14)" style="fill:#cc2b2b"/><path d="M511.94,527a28.65,28.65,0,0,1-12.5,7.83,30.78,30.78,0,0,1-9.19,1.39h-46.9c.31-.74.61-1.48.9-2.24q1-2.53,1.77-5.17a2.33,2.33,0,0,0,.07-.25c.23-.76.45-1.51.66-2.28.06-.23.13-.46.18-.7q.21-.76.39-1.53c.11-.43.22-.87.31-1.31.16-.64.3-1.28.43-1.93a.18.18,0,0,0,0-.1c.13-.56.24-1.13.35-1.7.21-1.07.4-2.15.57-3.25a.63.63,0,0,0,0-.19c.07-.42.14-.85.2-1.28s.16-1.08.23-1.63c0-.21.06-.42.09-.63.11-.85.21-1.71.31-2.57s.2-1.91.28-2.87c0-.13,0-.25,0-.38.07-.87.14-1.75.2-2.63s.12-1.88.17-2.83c0-.13,0-.26,0-.39.05-.93.08-1.86.11-2.8q0-1.08.06-2.16c0-.49,0-1,0-1.48,0-.84,0-1.68,0-2.52,0-2.39,0-4.76-.08-7.13h14.59a24.53,24.53,0,0,0-6.71,16.75c0,.42,0,.83,0,1.25a1,1,0,0,0,0,.17c0,.41.05.82.1,1.23a.45.45,0,0,0,0,.11c0,.37.09.74.16,1.12a2.17,2.17,0,0,0,0,.25c.06.37.14.74.22,1.1s.13.57.21.85a.86.86,0,0,0,.06.23c.06.22.12.43.19.65s.16.53.25.79.16.46.25.69c.15.42.32.83.5,1.23a7.89,7.89,0,0,0,.33.72c.14.31.29.6.44.89s.37.68.57,1a22.59,22.59,0,0,0,1.61,2.42l.1.12h0c.15.21.31.41.48.61s.47.58.72.86l.47.51a.86.86,0,0,0,.13.14c.16.18.33.35.5.52s.4.4.61.59.39.37.59.54.47.42.71.62l.89.71c.46.35.92.69,1.4,1,.25.18.51.34.77.5.49.31,1,.6,1.49.88l1,.52,1.05.5.32.14.92.38c.53.21,1.06.4,1.6.58s.8.26,1.2.37.89.24,1.34.35h0q.57.13,1.17.24a1.4,1.4,0,0,0,.28.06c.34.07.69.13,1,.17l.21,0,.92.11.59.06,1,.07a6.08,6.08,0,0,0,.61,0l1.26,0Z" transform="translate(-89.44 -72.14)" style="fill:#e2e2e2"/><path d="M518.64,510.28a24.58,24.58,0,0,1-6.7,16.75H487l-1.26,0a6.08,6.08,0,0,1-.61,0l-1-.07-.59-.06-.92-.11-.21,0c-.36,0-.71-.1-1-.17a1.4,1.4,0,0,1-.28-.06q-.6-.11-1.17-.24h0c-.45-.11-.9-.22-1.34-.35s-.8-.24-1.2-.37-1.07-.37-1.6-.58l-.92-.38-.32-.14-1.05-.5-1-.52c-.5-.28-1-.57-1.49-.88-.26-.16-.52-.32-.77-.5-.48-.31-.94-.65-1.4-1l-.89-.71c-.24-.2-.47-.4-.71-.62s-.4-.35-.59-.54-.41-.38-.61-.59-.34-.34-.5-.52a.86.86,0,0,1-.13-.14l-.47-.51c-.25-.28-.49-.56-.72-.86s-.33-.4-.48-.61h0l-.1-.12a22.59,22.59,0,0,1-1.61-2.42c-.2-.33-.39-.67-.57-1s-.3-.58-.44-.89a7.89,7.89,0,0,1-.33-.72c-.18-.4-.35-.81-.5-1.23-.09-.23-.17-.46-.25-.69s-.18-.52-.25-.79-.13-.43-.19-.65a.86.86,0,0,1-.06-.23c-.08-.28-.15-.56-.21-.85s-.16-.73-.22-1.1a2.17,2.17,0,0,1,0-.25c-.07-.38-.12-.75-.16-1.12a.45.45,0,0,1,0-.11c-.05-.41-.08-.82-.1-1.23a1,1,0,0,1,0-.17c0-.42,0-.83,0-1.25a24.53,24.53,0,0,1,6.71-16.75h25a30.16,30.16,0,0,1,8.19,1.11C510.13,488.62,518.64,498.54,518.64,510.28Z" transform="translate(-89.44 -72.14)" style="fill:#fff"/><path d="M443.77,327s45.58,49.78,41.76,85.94C484.34,424.16,398.52,284.6,443.77,327Z" transform="translate(-89.44 -72.14)" style="fill:#afafaf;mix-blend-mode:soft-light"/><path d="M466.57,558.29a34,34,0,0,1-.23,3.93c-1.8,15.58-14.19,27.65-29.18,27.65H170.51c-11.45,0-21.37-7-26.23-17.29a33.37,33.37,0,0,1-3.18-14.29v-.4c4,12.3,14.94,21.12,27.77,21.12H435.51c16.11,0,29.21-13.92,29.41-31.18A33.94,33.94,0,0,1,466.57,558.29Z" transform="translate(-89.44 -72.14)" style="fill:url(#radial-gradient-4)"/><path d="M464.92,548.5a33.07,33.07,0,0,1-3.82,15.17c-5.06,9.56-14.63,16-25.59,16H168.87c-10.51,0-19.74-5.92-24.94-14.82a32.83,32.83,0,0,1-2.83-6.3,32.68,32.68,0,0,1,8.61-21.93,29.46,29.46,0,0,1,2.2-2.13,28.5,28.5,0,0,1,11.71-6.25,27.58,27.58,0,0,1,3.16-.62,28.73,28.73,0,0,1,3.73-.25H437.16a27.44,27.44,0,0,1,8.86,1.46l.06,0a29,29,0,0,1,11.51,7.39A32,32,0,0,1,464.92,548.5Z" transform="translate(-89.44 -72.14)" style="fill:url(#radial-gradient-5)"/><path d="M447,553.16c1.65,16.39-66.6,18.42-148.75,18.42S148,574.68,149.5,553.16c1.64-23,66.6-18.42,148.75-18.42S444.39,527.18,447,553.16Z" transform="translate(-89.44 -72.14)" style="fill:#fff"/><path d="M255.74,689.47A32.63,32.63,0,0,0,191.6,698v6.24h83.6V689.47Z" transform="translate(-89.44 -72.14)" style="fill:#201600"/><path d="M243.81,677.81c0,4.92-8.29,8.91-18.51,8.91s-18.51-4-18.51-8.91,8.28-8.91,18.51-8.91S243.81,672.89,243.81,677.81Z" transform="translate(-89.44 -72.14)" style="fill:#979695;mix-blend-mode:soft-light"/><path d="M235.57,675.41c0,1.71-3.59,3.09-8,3.09s-8-1.38-8-3.09,3.59-3.08,8-3.08S235.57,673.71,235.57,675.41Z" transform="translate(-89.44 -72.14)" style="fill:#afafaf;mix-blend-mode:soft-light"/><path d="M377.83,665.33a32.65,32.65,0,0,0-31.51,24.14H326.86v14.74h83.6V698A32.64,32.64,0,0,0,377.83,665.33Z" transform="translate(-89.44 -72.14)" style="fill:#201600"/><path d="M358.25,677.81c0,4.92,8.29,8.91,18.51,8.91s18.51-4,18.51-8.91-8.28-8.91-18.51-8.91S358.25,672.89,358.25,677.81Z" transform="translate(-89.44 -72.14)" style="fill:#979695;mix-blend-mode:soft-light"/><path d="M366.49,675.41c0,1.71,3.59,3.09,8,3.09s8-1.38,8-3.09-3.59-3.08-8-3.08S366.49,673.71,366.49,675.41Z" transform="translate(-89.44 -72.14)" style="fill:#afafaf;mix-blend-mode:soft-light"/></g></g></svg>